<?xml version="1.0" encoding="UTF-8"?>
<!DOCTYPE svg PUBLIC "-//W3C//DTD SVG 1.1//EN" "http://www.w3.org/Graphics/SVG/1.1/DTD/svg11.dtd">
<!-- Creator: CorelDRAW 2018 (64-Bit) -->
<svg xmlns="http://www.w3.org/2000/svg" xml:space="preserve" width="50%" height="50%" version="1.1" style="shape-rendering:geometricPrecision; text-rendering:geometricPrecision; image-rendering:optimizeQuality; fill-rule:evenodd; clip-rule:evenodd"
viewBox="0 0 23.5 7.5"
 xmlns:xlink="http://www.w3.org/1999/xlink">
 <defs>
  <style type="text/css">
   <![CDATA[
    .fil58 {fill:#CA2627;fill-rule:nonzero}
    .fil38 {fill:url(#id0)}
    .fil32 {fill:url(#id1)}
    .fil17 {fill:url(#id2)}
    .fil57 {fill:url(#id3)}
    .fil18 {fill:url(#id4)}
    .fil34 {fill:url(#id5)}
    .fil36 {fill:url(#id6)}
    .fil25 {fill:url(#id7)}
    .fil35 {fill:url(#id8)}
    .fil52 {fill:url(#id9)}
    .fil6 {fill:url(#id10)}
    .fil33 {fill:url(#id11)}
    .fil11 {fill:url(#id12)}
    .fil1 {fill:url(#id13)}
    .fil42 {fill:url(#id14)}
    .fil12 {fill:url(#id15)}
    .fil31 {fill:url(#id16)}
    .fil54 {fill:url(#id17)}
    .fil4 {fill:url(#id18)}
    .fil40 {fill:url(#id19)}
    .fil45 {fill:url(#id20)}
    .fil9 {fill:url(#id21)}
    .fil24 {fill:url(#id22)}
    .fil13 {fill:url(#id23)}
    .fil23 {fill:url(#id24)}
    .fil20 {fill:url(#id25)}
    .fil10 {fill:url(#id26)}
    .fil7 {fill:url(#id27)}
    .fil50 {fill:url(#id28)}
    .fil16 {fill:url(#id29)}
    .fil26 {fill:url(#id30)}
    .fil22 {fill:url(#id31)}
    .fil8 {fill:url(#id32)}
    .fil0 {fill:url(#id33)}
    .fil5 {fill:url(#id34)}
    .fil55 {fill:url(#id35)}
    .fil15 {fill:url(#id36)}
    .fil51 {fill:url(#id37)}
    .fil27 {fill:url(#id38)}
    .fil48 {fill:url(#id39)}
    .fil29 {fill:url(#id40)}
    .fil53 {fill:url(#id41)}
    .fil56 {fill:url(#id42)}
    .fil39 {fill:url(#id43)}
    .fil49 {fill:url(#id44)}
    .fil44 {fill:url(#id45)}
    .fil3 {fill:url(#id46)}
    .fil37 {fill:url(#id47)}
    .fil14 {fill:url(#id48)}
    .fil21 {fill:url(#id49)}
    .fil43 {fill:url(#id50)}
    .fil41 {fill:url(#id51)}
    .fil30 {fill:url(#id52)}
    .fil47 {fill:url(#id53)}
    .fil28 {fill:url(#id54)}
    .fil19 {fill:url(#id55)}
    .fil46 {fill:url(#id56)}
    .fil2 {fill:url(#id57)}
   ]]>
  </style>
  <linearGradient id="id0" gradientUnits="objectBoundingBox" x1="0.0111731%" y1="51.9525%" x2="100.023%" y2="51.9525%">
   <stop offset="0" style="stop-opacity:1; stop-color:#CA2627"/>
   <stop offset="0.0901961" style="stop-opacity:1; stop-color:#CA2627"/>
   <stop offset="0.890196" style="stop-opacity:1; stop-color:#9E2825"/>
   <stop offset="1" style="stop-opacity:1; stop-color:#9E2825"/>
  </linearGradient>
  <linearGradient id="id1" gradientUnits="objectBoundingBox" xlink:href="#id0" x1="0.00081377%" y1="50.0022%" x2="99.9996%" y2="50.0022%">
  </linearGradient>
  <linearGradient id="id2" gradientUnits="objectBoundingBox" xlink:href="#id0" x1="0.0117399%" y1="50.803%" x2="99.9593%" y2="50.803%">
  </linearGradient>
  <linearGradient id="id3" gradientUnits="objectBoundingBox" xlink:href="#id0" x1="0%" y1="51.9525%" x2="100.006%" y2="51.9525%">
  </linearGradient>
  <linearGradient id="id4" gradientUnits="objectBoundingBox" xlink:href="#id0" x1="0%" y1="58.4045%" x2="99.9975%" y2="58.4045%">
  </linearGradient>
  <linearGradient id="id5" gradientUnits="objectBoundingBox" xlink:href="#id0" x1="0%" y1="50.1108%" x2="100.002%" y2="50.1108%">
  </linearGradient>
  <linearGradient id="id6" gradientUnits="objectBoundingBox" xlink:href="#id0" x1="0.568491%" y1="71.9444%" x2="100.071%" y2="71.9444%">
  </linearGradient>
  <linearGradient id="id7" gradientUnits="userSpaceOnUse" xlink:href="#id0" x1="0.5" y1="3.75" x2="23" y2="3.75">
  </linearGradient>
  <linearGradient id="id8" gradientUnits="objectBoundingBox" xlink:href="#id0" x1="0%" y1="50.8689%" x2="100.153%" y2="50.8689%">
  </linearGradient>
  <linearGradient id="id9" gradientUnits="objectBoundingBox" xlink:href="#id0" x1="0.0130988%" y1="50.5103%" x2="99.9741%" y2="50.5103%">
  </linearGradient>
  <linearGradient id="id10" gradientUnits="objectBoundingBox" xlink:href="#id0" x1="0.061426%" y1="50.4701%" x2="100.042%" y2="50.4701%">
  </linearGradient>
  <linearGradient id="id11" gradientUnits="objectBoundingBox" xlink:href="#id0" x1="0.057833%" y1="50.0218%" x2="99.9557%" y2="50.0218%">
  </linearGradient>
  <linearGradient id="id12" gradientUnits="objectBoundingBox" xlink:href="#id0" x1="0%" y1="58.4045%" x2="100.012%" y2="58.4045%">
  </linearGradient>
  <linearGradient id="id13" gradientUnits="objectBoundingBox" xlink:href="#id0" x1="0%" y1="48.3395%" x2="100.013%" y2="48.3395%">
  </linearGradient>
  <linearGradient id="id14" gradientUnits="objectBoundingBox" xlink:href="#id0" x1="0%" y1="49.6784%" x2="99.9934%" y2="49.6784%">
  </linearGradient>
  <linearGradient id="id15" gradientUnits="objectBoundingBox" xlink:href="#id0" x1="0%" y1="50.1949%" x2="99.9158%" y2="50.1949%">
  </linearGradient>
  <linearGradient id="id16" gradientUnits="objectBoundingBox" xlink:href="#id0" x1="0%" y1="50.0126%" x2="100.001%" y2="50.0126%">
  </linearGradient>
  <linearGradient id="id17" gradientUnits="objectBoundingBox" xlink:href="#id0" x1="0.0179029%" y1="57.0683%" x2="99.9481%" y2="57.0683%">
  </linearGradient>
  <linearGradient id="id18" gradientUnits="objectBoundingBox" xlink:href="#id0" x1="0%" y1="51.7861%" x2="100.025%" y2="51.7861%">
  </linearGradient>
  <linearGradient id="id19" gradientUnits="objectBoundingBox" xlink:href="#id0" x1="0%" y1="51.5494%" x2="100.116%" y2="51.5494%">
  </linearGradient>
  <linearGradient id="id20" gradientUnits="objectBoundingBox" xlink:href="#id0" x1="0.0206768%" y1="50.0113%" x2="99.7983%" y2="50.0113%">
  </linearGradient>
  <linearGradient id="id21" gradientUnits="objectBoundingBox" xlink:href="#id0" x1="0.0378238%" y1="59.5594%" x2="99.9652%" y2="59.5594%">
  </linearGradient>
  <linearGradient id="id22" gradientUnits="objectBoundingBox" xlink:href="#id0" x1="0%" y1="57.5291%" x2="99.9994%" y2="57.5291%">
  </linearGradient>
  <linearGradient id="id23" gradientUnits="objectBoundingBox" xlink:href="#id0" x1="0%" y1="57.5291%" x2="100.087%" y2="57.5291%">
  </linearGradient>
  <linearGradient id="id24" gradientUnits="objectBoundingBox" xlink:href="#id0" x1="0.0319854%" y1="49.6899%" x2="100.336%" y2="49.6899%">
  </linearGradient>
  <linearGradient id="id25" gradientUnits="objectBoundingBox" xlink:href="#id0" x1="0.109969%" y1="78.4608%" x2="104.444%" y2="78.4608%">
  </linearGradient>
  <linearGradient id="id26" gradientUnits="objectBoundingBox" xlink:href="#id0" x1="0%" y1="47.0787%" x2="99.9399%" y2="47.0787%">
  </linearGradient>
  <linearGradient id="id27" gradientUnits="objectBoundingBox" xlink:href="#id0" x1="0%" y1="46.6235%" x2="102.339%" y2="46.6235%">
  </linearGradient>
  <linearGradient id="id28" gradientUnits="objectBoundingBox" xlink:href="#id0" x1="0.188967%" y1="46.3288%" x2="103.936%" y2="46.3288%">
  </linearGradient>
  <linearGradient id="id29" gradientUnits="objectBoundingBox" xlink:href="#id0" x1="0%" y1="48.9365%" x2="100.216%" y2="48.9365%">
  </linearGradient>
  <linearGradient id="id30" gradientUnits="objectBoundingBox" xlink:href="#id0" x1="0.0149491%" y1="50.0699%" x2="99.9308%" y2="50.0699%">
  </linearGradient>
  <linearGradient id="id31" gradientUnits="objectBoundingBox" xlink:href="#id0" x1="0%" y1="49.9562%" x2="100.024%" y2="49.9562%">
  </linearGradient>
  <linearGradient id="id32" gradientUnits="objectBoundingBox" xlink:href="#id0" x1="0%" y1="22.6782%" x2="114.611%" y2="22.6782%">
  </linearGradient>
  <linearGradient id="id33" gradientUnits="objectBoundingBox" xlink:href="#id0" x1="0%" y1="61.0274%" x2="99.938%" y2="61.0274%">
  </linearGradient>
  <linearGradient id="id34" gradientUnits="objectBoundingBox" xlink:href="#id0" x1="0%" y1="50.0758%" x2="105.874%" y2="50.0758%">
  </linearGradient>
  <linearGradient id="id35" gradientUnits="objectBoundingBox" xlink:href="#id0" x1="0%" y1="50.9188%" x2="100.825%" y2="50.9188%">
  </linearGradient>
  <linearGradient id="id36" gradientUnits="objectBoundingBox" xlink:href="#id0" x1="0%" y1="49.9562%" x2="100.001%" y2="49.9562%">
  </linearGradient>
  <linearGradient id="id37" gradientUnits="objectBoundingBox" xlink:href="#id0" x1="0%" y1="49.6574%" x2="99.9629%" y2="49.6574%">
  </linearGradient>
  <linearGradient id="id38" gradientUnits="objectBoundingBox" xlink:href="#id0" x1="0.110478%" y1="45.9259%" x2="96.6868%" y2="45.9259%">
  </linearGradient>
  <linearGradient id="id39" gradientUnits="objectBoundingBox" xlink:href="#id0" x1="0%" y1="50.1297%" x2="99.8951%" y2="50.1297%">
  </linearGradient>
  <linearGradient id="id40" gradientUnits="objectBoundingBox" xlink:href="#id0" x1="0.0189208%" y1="50.1615%" x2="99.9947%" y2="50.1615%">
  </linearGradient>
  <linearGradient id="id41" gradientUnits="objectBoundingBox" xlink:href="#id0" x1="0.0520026%" y1="50.9799%" x2="99.3347%" y2="50.9799%">
  </linearGradient>
  <linearGradient id="id42" gradientUnits="objectBoundingBox" xlink:href="#id0" x1="0.0206128%" y1="50.5103%" x2="100.068%" y2="50.5103%">
  </linearGradient>
  <linearGradient id="id43" gradientUnits="objectBoundingBox" xlink:href="#id0" x1="0%" y1="48.9616%" x2="99.8944%" y2="48.9616%">
  </linearGradient>
  <linearGradient id="id44" gradientUnits="objectBoundingBox" xlink:href="#id0" x1="0%" y1="49.9015%" x2="99.9584%" y2="49.9015%">
  </linearGradient>
  <linearGradient id="id45" gradientUnits="objectBoundingBox" xlink:href="#id0" x1="0%" y1="58.4311%" x2="99.9269%" y2="58.4311%">
  </linearGradient>
  <linearGradient id="id46" gradientUnits="objectBoundingBox" xlink:href="#id0" x1="0%" y1="50.9885%" x2="99.9932%" y2="50.9885%">
  </linearGradient>
  <linearGradient id="id47" gradientUnits="objectBoundingBox" xlink:href="#id0" x1="0%" y1="50.5103%" x2="99.8757%" y2="50.5103%">
  </linearGradient>
  <linearGradient id="id48" gradientUnits="objectBoundingBox" xlink:href="#id0" x1="0%" y1="188.426%" x2="100.323%" y2="188.426%">
  </linearGradient>
  <linearGradient id="id49" gradientUnits="objectBoundingBox" xlink:href="#id0" x1="0%" y1="49.9562%" x2="99.9932%" y2="49.9562%">
  </linearGradient>
  <linearGradient id="id50" gradientUnits="objectBoundingBox" xlink:href="#id0" x1="0%" y1="39.3626%" x2="99.8826%" y2="39.3626%">
  </linearGradient>
  <linearGradient id="id51" gradientUnits="objectBoundingBox" xlink:href="#id0" x1="0%" y1="50.5103%" x2="99.9769%" y2="50.5103%">
  </linearGradient>
  <linearGradient id="id52" gradientUnits="objectBoundingBox" xlink:href="#id0" x1="0%" y1="49.9999%" x2="99.9969%" y2="49.9999%">
  </linearGradient>
  <linearGradient id="id53" gradientUnits="objectBoundingBox" xlink:href="#id0" x1="0%" y1="50.0816%" x2="101.331%" y2="50.0816%">
  </linearGradient>
  <linearGradient id="id54" gradientUnits="objectBoundingBox" xlink:href="#id0" x1="0%" y1="49.409%" x2="99.9309%" y2="49.409%">
  </linearGradient>
  <linearGradient id="id55" gradientUnits="objectBoundingBox" xlink:href="#id0" x1="0%" y1="49.9721%" x2="100.003%" y2="49.9721%">
  </linearGradient>
  <linearGradient id="id56" gradientUnits="objectBoundingBox" xlink:href="#id0" x1="0%" y1="49.9015%" x2="100.031%" y2="49.9015%">
  </linearGradient>
  <linearGradient id="id57" gradientUnits="objectBoundingBox" xlink:href="#id0" x1="0%" y1="50.0862%" x2="101.734%" y2="50.0862%">
  </linearGradient>
 </defs>
 <g id="Слой_x0020_1">
  <metadata id="CorelCorpID_0Corel-Layer"/>
  <polygon class="fil0" points="5.945,6.381 5.824,6.408 5.814,6.447 5.931,6.452 6.08,6.374 6.054,6.374 "/>
  <polygon class="fil0" points="5.945,6.381 5.824,6.408 5.814,6.447 5.931,6.452 6.08,6.374 6.054,6.374 "/>
  <polygon class="fil1" points="15.155,1.059 14.871,1.126 15.043,1.126 "/>
  <polygon class="fil1" points="15.155,1.059 14.871,1.126 15.043,1.126 "/>
  <polygon class="fil2" points="10.38,6.392 10.596,6.447 10.646,6.401 10.61,6.374 10.354,6.374 "/>
  <polygon class="fil2" points="10.38,6.392 10.596,6.447 10.646,6.401 10.61,6.374 10.354,6.374 "/>
  <path class="fil3" d="M15.727 0.912l-0.145 0.045 -0.028 0.094 0.203 -0.045 0.195 -0.018 0.074 0.009 0.258 -0.085 0.206 -0.045 0.101 -0.021 0.131 -0.035 0.337 0 0.019 -0.022 -0.941 0 -0.017 0.011c-0.118,0.112 -0.246,0.13 -0.391,0.112z"/>
  <path class="fil3" d="M15.727 0.912l-0.145 0.045 -0.028 0.094 0.203 -0.045 0.195 -0.018 0.074 0.009 0.258 -0.085 0.206 -0.045 0.101 -0.021 0.131 -0.035 0.337 0 0.019 -0.022 -0.941 0 -0.017 0.011c-0.118,0.112 -0.246,0.13 -0.391,0.112z"/>
  <polygon class="fil4" points="18.007,6.421 17.938,6.464 17.993,6.478 18.266,6.438 18.357,6.374 18.113,6.374 "/>
  <polygon class="fil4" points="18.007,6.421 17.938,6.464 17.993,6.478 18.266,6.438 18.357,6.374 18.113,6.374 "/>
  <polygon class="fil5" points="9.103,6.401 9.12,6.542 9.055,6.528 8.902,6.493 9.072,6.598 9.135,6.593 9.152,6.633 9.182,6.593 9.188,6.593 9.187,6.588 9.177,6.43 9.124,6.374 9.103,6.374 "/>
  <polygon class="fil5" points="9.103,6.401 9.12,6.542 9.055,6.528 8.902,6.493 9.072,6.598 9.135,6.593 9.152,6.633 9.182,6.593 9.188,6.593 9.187,6.588 9.177,6.43 9.124,6.374 9.103,6.374 "/>
  <polygon class="fil6" points="15.136,6.665 15.029,6.658 15.079,6.71 15.341,6.71 "/>
  <polygon class="fil6" points="15.136,6.665 15.029,6.658 15.079,6.71 15.341,6.71 "/>
  <polygon class="fil7" points="7.267,6.665 7.212,6.614 7.059,6.688 7.044,6.71 7.273,6.71 "/>
  <polygon class="fil7" points="7.267,6.665 7.212,6.614 7.059,6.688 7.044,6.71 7.273,6.71 "/>
  <polygon class="fil8" points="15.891,6.674 15.82,6.65 15.703,6.71 15.872,6.71 "/>
  <polygon class="fil8" points="15.891,6.674 15.82,6.65 15.703,6.71 15.872,6.71 "/>
  <polygon class="fil9" points="7.058,0.844 7.247,0.883 7.177,0.852 7.136,0.809 7.206,0.8 7.429,0.791 7.419,0.79 6.989,0.79 "/>
  <polygon class="fil9" points="7.058,0.844 7.247,0.883 7.177,0.852 7.136,0.809 7.206,0.8 7.429,0.791 7.419,0.79 6.989,0.79 "/>
  <polygon class="fil10" points="21.777,6.665 21.7,6.65 21.619,6.684 21.676,6.71 21.717,6.71 "/>
  <polygon class="fil10" points="21.777,6.665 21.7,6.65 21.619,6.684 21.676,6.71 21.717,6.71 "/>
  <path class="fil11" d="M5.053 1.101l-0.001 0c-0.096,-0.069 -0.188,-0.148 -0.328,-0.09l-0.042 -0.015c-0.132,-0.093 -0.219,-0.04 -0.359,-0.04 0.159,0.068 0.308,0.123 0.453,0.161l-0.027 0.009 0.352 0 -0.048 -0.025z"/>
  <path class="fil11" d="M5.053 1.101l-0.001 0c-0.096,-0.069 -0.188,-0.148 -0.328,-0.09l-0.042 -0.015c-0.132,-0.093 -0.219,-0.04 -0.359,-0.04 0.159,0.068 0.308,0.123 0.453,0.161l-0.027 0.009 0.352 0 -0.048 -0.025z"/>
  <polygon class="fil12" points="16.127,6.498 16.357,6.374 16.261,6.374 "/>
  <polygon class="fil12" points="16.127,6.498 16.357,6.374 16.261,6.374 "/>
  <path class="fil13" d="M2.369 1.105l0.138 -0.012 0.116 0.033 0.236 0 -0.02 -0.047 -0.143 -0.037c-0.24,-0.031 -0.471,0.016 -0.708,-0.011l-0.115 0.034 0.099 0.04 0.23 0.021 0.128 0 0.04 -0.021z"/>
  <path class="fil13" d="M2.369 1.105l0.138 -0.012 0.116 0.033 0.236 0 -0.02 -0.047 -0.143 -0.037c-0.24,-0.031 -0.471,0.016 -0.708,-0.011l-0.115 0.034 0.099 0.04 0.23 0.021 0.128 0 0.04 -0.021z"/>
  <polygon class="fil14" points="10.164,0.79 10.098,0.79 10.165,0.791 "/>
  <polygon class="fil14" points="10.164,0.79 10.098,0.79 10.165,0.791 "/>
  <path class="fil15" d="M9.234 1.126l0.237 0 -0.015 -0.025 -0.145 -0.043c-0.145,0.017 -0.277,0 -0.392,-0.114l-0.272 -0.155 -0.156 0 -0.07 0.087c-0.149,-0.024 -0.304,0.036 -0.446,-0.038l-0.049 -0.009 0.054 0.129 0.337 0 0.132 0.035 0.101 0.021 0.206 0.045 0.206 0.068 0.274 0z"/>
  <path class="fil15" d="M9.234 1.126l0.237 0 -0.015 -0.025 -0.145 -0.043c-0.145,0.017 -0.277,0 -0.392,-0.114l-0.272 -0.155 -0.156 0 -0.07 0.087c-0.149,-0.024 -0.304,0.036 -0.446,-0.038l-0.049 -0.009 0.054 0.129 0.337 0 0.132 0.035 0.101 0.021 0.206 0.045 0.206 0.068 0.274 0z"/>
  <polygon class="fil16" points="15.385,6.521 15.462,6.576 15.546,6.538 15.462,6.503 "/>
  <polygon class="fil16" points="15.385,6.521 15.462,6.576 15.546,6.538 15.462,6.503 "/>
  <polygon class="fil17" points="22.341,1.188 22.201,1.226 22.267,1.277 22.53,1.24 22.593,1.222 22.565,1.181 "/>
  <polygon class="fil17" points="22.341,1.188 22.201,1.226 22.267,1.277 22.53,1.24 22.593,1.222 22.565,1.181 "/>
  <path class="fil18" d="M20.71 1.101c-0.096,-0.069 -0.186,-0.148 -0.326,-0.09l-0.044 -0.015c-0.132,-0.093 -0.219,-0.04 -0.359,-0.04 0.159,0.068 0.309,0.123 0.452,0.161l-0.028 0.009 0.353 0 -0.05 -0.025z"/>
  <path class="fil18" d="M20.71 1.101c-0.096,-0.069 -0.186,-0.148 -0.326,-0.09l-0.044 -0.015c-0.132,-0.093 -0.219,-0.04 -0.359,-0.04 0.159,0.068 0.309,0.123 0.452,0.161l-0.028 0.009 0.353 0 -0.05 -0.025z"/>
  <polygon class="fil19" points="19.022,6.485 18.868,6.409 18.816,6.464 18.896,6.585 19.169,6.623 19.224,6.61 19.156,6.567 "/>
  <polygon class="fil19" points="19.022,6.485 18.868,6.409 18.816,6.464 18.896,6.585 19.169,6.623 19.224,6.61 19.156,6.567 "/>
  <polygon class="fil20" points="18.162,6.658 18.179,6.623 17.971,6.665 "/>
  <polygon class="fil20" points="18.162,6.658 18.179,6.623 17.971,6.665 "/>
  <path class="fil21" d="M11.5 1.126l-0.319 -0.159 -0.267 -0.138 -0.062 -0.04 -0.211 0c0.216,0.102 0.51,0.231 0.77,0.337l0.088 0z"/>
  <path class="fil21" d="M11.5 1.126l-0.319 -0.159 -0.267 -0.138 -0.062 -0.04 -0.211 0c0.216,0.102 0.51,0.231 0.77,0.337l0.088 0z"/>
  <path class="fil22" d="M13.243 1.126c0.14,-0.044 0.506,-0.194 0.832,-0.337l-0.159 0 -0.061 0.031c-0.211,0.1 -0.416,0.2 -0.613,0.306z"/>
  <path class="fil22" d="M13.243 1.126c0.14,-0.044 0.506,-0.194 0.832,-0.337l-0.159 0 -0.061 0.031c-0.211,0.1 -0.416,0.2 -0.613,0.306z"/>
  <polygon class="fil23" points="13.073,1.05 13.037,1.006 12.881,1.05 12.747,1.126 12.936,1.126 12.991,1.093 "/>
  <polygon class="fil23" points="13.073,1.05 13.037,1.006 12.881,1.05 12.747,1.126 12.936,1.126 12.991,1.093 "/>
  <path class="fil24" d="M18.029 1.105l0.139 -0.012 0.116 0.033 0.235 0 -0.022 -0.047 -0.142 -0.037c-0.239,-0.031 -0.468,0.016 -0.706,-0.011l-0.115 0.034 0.099 0.04 0.23 0.021 0.126 0 0.042 -0.021z"/>
  <path class="fil24" d="M18.029 1.105l0.139 -0.012 0.116 0.033 0.235 0 -0.022 -0.047 -0.142 -0.037c-0.239,-0.031 -0.468,0.016 -0.706,-0.011l-0.115 0.034 0.099 0.04 0.23 0.021 0.126 0 0.042 -0.021z"/>
  <path class="fil25" d="M22.1 6.964l-0.131 0.045 -0.099 0.073 -0.225 -0.014 0.05 -0.059 0.082 -0.045c0.025,-0.13 0.033,-0.13 0.249,-0.154l0.107 -0.005 -0.033 0.159zm-3.1 -0.159l-0.016 -0.04 0.208 0.045 -0.192 -0.005zm-0.75 0.074l-0.123 0.104c-0.135,0.017 -0.266,0.026 -0.403,0.055l-0.14 -0.064 0 -0.057 -0.003 -0.074 0.213 -0.073 0.058 0.083 0.06 0.064 0.083 -0.074 0.063 -0.056 0.088 0.021 0.055 0.028 0.05 0.043zm-2.381 0.13l-0.025 0.056 -0.197 0.021c0.11,-0.038 0.165,-0.076 0.03,-0.111l-0.019 -0.04 0.066 -0.017 0.088 0.038 0.148 0.019 -0.091 0.035zm-4.926 0.102c-0.106,-0.072 -0.26,-0.046 -0.315,-0.222l0.278 0.141 0.069 0.073 -0.031 0.009zm-0.322 -0.041l-0.083 -0.037 0.083 -0.035 0.076 0.018 -0.076 0.054zm-2.533 -0.097l-0.274 -0.039 -0.081 -0.124 0.054 -0.052 0.154 0.076 0.134 0.083 0.067 0.043 -0.054 0.013zm-1.009 0.034l-0.19 0.009 0.207 -0.046 -0.017 0.038zm-2.701 -0.085l-0.077 -0.054 0.077 -0.017 0.085 0.036 -0.085 0.035zm-2.645 -6.413l0.063 -0.07c0.238,0.056 0.496,0.049 0.745,0.032l0.137 0.009 -0.106 0.052c-0.127,0.029 -0.157,0.115 -0.255,0.168l-0.189 0.039 0.071 -0.031 0.041 -0.043 -0.071 -0.011 -0.225 -0.008 0.184 -0.048 -0.205 0 -0.195 -0.02 -0.141 -0.024 0.145 -0.047zm15.658 0l0.063 -0.07c0.238,0.056 0.498,0.049 0.744,0.032l0.137 0.009 -0.104 0.052c-0.129,0.029 -0.159,0.115 -0.255,0.168l-0.189 0.039 0.072 -0.031 0.041 -0.043 -0.071 -0.011 -0.222 -0.008 0.181 -0.048 -0.208 0 -0.192 -0.02 -0.142 -0.024 0.145 -0.047zm5.292 5.414c0,0.434 -0.353,0.787 -0.786,0.787l-0.183 0 -0.017 0.012 -0.025 -0.012 -5.804 0 -0.17 0.176 -0.217 0.054 -0.025 -0.001 -0.17 -0.005 -0.099 -0.072 -0.132 -0.045 0.017 -0.107 -7.806 0 -0.088 0.078 -0.272 0.038 -0.055 -0.013 0.07 -0.043 0.117 -0.061 -5.445 0c-0.433,0 -0.785,-0.353 -0.785,-0.787l0 -4.35c0,-0.432 0.352,-0.784 0.785,-0.784l5.39 0 -0.186 -0.112 -0.104 -0.054 0.137 -0.007c0.248,0.017 0.506,0.024 0.745,-0.031l0.063 0.068 0.144 0.046 -0.141 0.026 -0.192 0.018 -0.208 0 0.173 0.046 1.073 0 0.003 -0.019 0.11 -0.009 0.044 0.028 1.451 0 -0.136 -0.007 -0.319 -0.093 -0.315 -0.081 -0.082 -0.074c0.014,-0.076 0.115,-0.085 0.26,-0.023 0.123,0.057 0.237,0.112 0.386,0.105l0.258 0.116 0.013 0.057 0.479 0 -0.156 -0.075c0.187,-0.024 0.222,-0.021 0.367,0.075l3.063 0 0.206 -0.109c0.211,-0.14 0.216,-0.14 0.429,-0.112 -0.106,0.056 -0.284,0.138 -0.476,0.221l2.061 0 0.298 -0.172 0.11 0.007 0.071 0.105c0.151,-0.023 0.307,0.036 0.449,-0.038l0.049 -0.011 -0.036 0.109 4.824 0c0.288,0 0.528,0.162 0.665,0.392 0.145,0.002 0.29,0.009 0.435,-0.002l0 -0.111 -0.049 -0.262 -0.085 -0.007 -0.071 0.009 0.041 0.043 0.071 0.031 -0.189 -0.039c-0.099,-0.053 -0.129,-0.137 -0.258,-0.166l-0.104 -0.054 0.137 -0.007 0.345 0.011c-0.121,-0.152 -0.296,-0.252 -0.498,-0.252l-0.138 0 -0.093 0.005 -0.08 -0.005 -0.258 0 -0.17 0.038 -0.164 -0.038 -5.533 0 0.038 0.058 -0.019 0.062 -0.145 -0.059 -0.074 0.027 -0.315 0.079 -0.321 0.097 -0.2 0.009 0.011 -0.06 0.26 -0.116c0.14,0.009 0.25,-0.043 0.364,-0.095l-6.932 0 0.112 0.083 -0.028 0.036 -0.2 -0.007c-0.145,-0.03 -0.29,-0.075 -0.442,-0.075 -0.195,-0.007 -0.387,-0.019 -0.581,-0.038l-0.895 0 -0.091 0.005 -0.081 -0.005 -0.259 0 -0.17 0.038 -0.164 -0.038 -4.625 0c-0.239,0 -0.441,0.142 -0.555,0.345l0.174 -0.104 0.11 0.007 0.072 0.105c0.148,-0.023 0.303,0.036 0.446,-0.038l0.049 -0.011 -0.052 0.131 -0.338 0 -0.13 0.035 -0.101 0.021 -0.206 0.045 -0.103 0.044 -0.022 0.114 0 0.119 0.186 -0.027 -0.186 0.095 0 5.175c0,0.384 0.295,0.695 0.657,0.695l2.854 0 -0.062 -0.118 0.107 0.009c0.186,0.018 0.219,0.026 0.239,0.109l2.405 0 0.016 -0.005 0.006 0.005 1.185 0 -0.002 -0.009 0.035 0.009 2.575 0 -0.085 -0.116 0.184 0.076 0.069 0.04 6.245 0 -0.019 -0.202 0.074 -0.071 0 0.043 -0.049 0.23 0.775 0 0.301 -0.04 -0.094 0.04 0.594 0 0.26 -0.078 0.052 0.018 -0.052 0.061 0.258 0 -0.113 -0.1 0.047 -0.044 0.057 -0.029 0.088 -0.018 0.06 0.056 0.085 0.078 0.06 -0.068 0.058 -0.082 0.214 0.072 -0.003 0.078 0 0.052 -0.003 0.006 1.633 0 -0.006 -0.006 0.151 -0.018 0.085 -0.035 0.066 0.014 -0.019 0.038 -0.011 0.006 0.868 0c0.367,0 0.659,-0.311 0.659,-0.695l0 -4.712 -0.03 -0.017 0.03 -0.027 0 -0.42 -0.164 0.016 -0.167 -0.021 -0.077 -0.029 0.093 0.352 0 4.35z"/>
  <polygon class="fil26" points="15.385,6.817 15.47,6.862 15.478,6.865 15.703,6.71 15.341,6.71 "/>
  <polygon class="fil26" points="15.385,6.817 15.47,6.862 15.478,6.865 15.703,6.71 15.341,6.71 "/>
  <polygon class="fil27" points="22.913,0.744 22.907,0.744 22.916,0.747 "/>
  <polygon class="fil27" points="22.913,0.744 22.907,0.744 22.916,0.747 "/>
  <polygon class="fil28" points="22.483,1.534 22.437,1.316 22.355,1.31 22.289,1.317 22.324,1.355 22.393,1.377 22.286,1.386 22.36,1.624 22.483,1.624 "/>
  <polygon class="fil28" points="22.483,1.534 22.437,1.316 22.355,1.31 22.289,1.317 22.324,1.355 22.393,1.377 22.286,1.386 22.36,1.624 22.483,1.624 "/>
  <polygon class="fil29" points="17.451,6.469 17.325,6.434 16.718,6.434 16.693,6.542 17.432,6.542 17.719,6.509 17.632,6.542 18.198,6.542 18.444,6.476 18.496,6.492 18.444,6.542 18.691,6.542 18.584,6.459 18.579,6.434 17.755,6.434 "/>
  <polygon class="fil29" points="17.451,6.469 17.325,6.434 16.718,6.434 16.693,6.542 17.432,6.542 17.719,6.509 17.632,6.542 18.198,6.542 18.444,6.476 18.496,6.492 18.444,6.542 18.691,6.542 18.584,6.459 18.579,6.434 17.755,6.434 "/>
  <path class="fil30" d="M21.706 6.434l-0.197 0 -0.009 0.013 -0.096 0.059 -0.213 -0.013 0.047 -0.046 0.066 -0.013 -2.077 0 -0.009 0.059 0 0.044 -0.003 0.006 1.558 0 -0.003 -0.006 0.143 -0.015 0.079 -0.029 0.066 0.013 -0.022 0.031 -0.009 0.006 0.83 0c0.347,0 0.627,-0.254 0.627,-0.575l0 -3.898 -0.03 -0.013 0.03 -0.021 0 -0.352 -0.118 0.013 0 4.151c0,0.324 -0.296,0.587 -0.66,0.587z"/>
  <path class="fil30" d="M21.706 6.434l-0.197 0 -0.009 0.013 -0.096 0.059 -0.213 -0.013 0.047 -0.046 0.066 -0.013 -2.077 0 -0.009 0.059 0 0.044 -0.003 0.006 1.558 0 -0.003 -0.006 0.143 -0.015 0.079 -0.029 0.066 0.013 -0.022 0.031 -0.009 0.006 0.83 0c0.347,0 0.627,-0.254 0.627,-0.575l0 -3.898 -0.03 -0.013 0.03 -0.021 0 -0.352 -0.118 0.013 0 4.151c0,0.324 -0.296,0.587 -0.66,0.587z"/>
  <path class="fil31" d="M2.213 1.066l0.044 -0.05c0.227,0.043 0.472,0.035 0.711,0.022l0.13 0.007 -0.014 0.021 6.315 0 0.178 0 5.317 0 0.099 -0.028c0.132,0.007 0.236,-0.037 0.345,-0.079l-6.613 0 0.106 0.069 -0.025 0.031 -0.192 -0.009c-0.139,-0.023 -0.276,-0.061 -0.421,-0.061 -0.186,-0.007 -0.369,-0.014 -0.554,-0.031l-0.853 0 -0.089 0.006 -0.076 -0.006 -0.246 0 -0.163 0.031 -0.156 -0.031 -4.413 0c-0.228,0 -0.42,0.119 -0.529,0.286l0.165 -0.086 0.104 0.006 0.006 0.036c0.112,-0.081 0.251,-0.134 0.406,-0.134l0.419 0z"/>
  <path class="fil31" d="M2.213 1.066l0.044 -0.05c0.227,0.043 0.472,0.035 0.711,0.022l0.13 0.007 -0.014 0.021 6.315 0 0.178 0 5.317 0 0.099 -0.028c0.132,0.007 0.236,-0.037 0.345,-0.079l-6.613 0 0.106 0.069 -0.025 0.031 -0.192 -0.009c-0.139,-0.023 -0.276,-0.061 -0.421,-0.061 -0.186,-0.007 -0.369,-0.014 -0.554,-0.031l-0.853 0 -0.089 0.006 -0.076 -0.006 -0.246 0 -0.163 0.031 -0.156 -0.031 -4.413 0c-0.228,0 -0.42,0.119 -0.529,0.286l0.165 -0.086 0.104 0.006 0.006 0.036c0.112,-0.081 0.251,-0.134 0.406,-0.134l0.419 0z"/>
  <path class="fil32" d="M10.672 6.498l-0.078 -0.031 0.078 -0.032 0.075 0.014 -0.075 0.048zm5.006 -0.052l-0.019 0.045 -0.192 0.017 0.079 -0.075 -4.658 0 0.058 0.03 0.066 0.057 -0.03 0.011 -0.207 -0.098 -3.472 0 -0.007 0.011 -0.182 0.006 0.093 -0.016 -5.412 0c-0.363,0 -0.66,-0.263 -0.66,-0.587l0 -4.195 0.003 -0.011 -0.121 0.044 0 4.281c0,0.322 0.28,0.575 0.627,0.575l2.725 0 -0.061 -0.097 0.103 0.006c0.178,0.018 0.21,0.024 0.229,0.092l2.294 0 0.016 -0.004 0.006 0.004 1.131 0 -0.004 -0.008 0.033 0.008 2.458 0 -0.083 -0.095 0.175 0.062 0.066 0.033 5.958 0 -0.036 -0.108 -0.909 0 -0.066 0.013z"/>
  <path class="fil32" d="M10.672 6.498l-0.078 -0.031 0.078 -0.032 0.075 0.014 -0.075 0.048zm5.006 -0.052l-0.019 0.045 -0.192 0.017 0.079 -0.075 -4.658 0 0.058 0.03 0.066 0.057 -0.03 0.011 -0.207 -0.098 -3.472 0 -0.007 0.011 -0.182 0.006 0.093 -0.016 -5.412 0c-0.363,0 -0.66,-0.263 -0.66,-0.587l0 -4.195 0.003 -0.011 -0.121 0.044 0 4.281c0,0.322 0.28,0.575 0.627,0.575l2.725 0 -0.061 -0.097 0.103 0.006c0.178,0.018 0.21,0.024 0.229,0.092l2.294 0 0.016 -0.004 0.006 0.004 1.131 0 -0.004 -0.008 0.033 0.008 2.458 0 -0.083 -0.095 0.175 0.062 0.066 0.033 5.958 0 -0.036 -0.108 -0.909 0 -0.066 0.013z"/>
  <polygon class="fil33" points="1.135,1.403 1.038,1.44 1.017,1.534 1.017,1.632 1.145,1.615 1.238,1.358 "/>
  <polygon class="fil33" points="1.135,1.403 1.038,1.44 1.017,1.534 1.017,1.632 1.145,1.615 1.238,1.358 "/>
  <path class="fil34" d="M17.194 1.016c0.227,0.043 0.476,0.035 0.712,0.022l0.132 0.007 -0.014 0.021 3.683 0 0.337 0.095 0.287 0.006c-0.115,-0.126 -0.282,-0.208 -0.473,-0.208l-0.135 0 -0.085 0.006 -0.077 -0.006 -0.247 0 -0.162 0.031 -0.156 -0.031 -5.282 0 0.039 0.049 -0.02 0.052 -0.14 -0.05 -0.071 0.022 -0.159 0.035 1.787 0 0.041 -0.05z"/>
  <path class="fil34" d="M17.194 1.016c0.227,0.043 0.476,0.035 0.712,0.022l0.132 0.007 -0.014 0.021 3.683 0 0.337 0.095 0.287 0.006c-0.115,-0.126 -0.282,-0.208 -0.473,-0.208l-0.135 0 -0.085 0.006 -0.077 -0.006 -0.247 0 -0.162 0.031 -0.156 -0.031 -5.282 0 0.039 0.049 -0.02 0.052 -0.14 -0.05 -0.071 0.022 -0.159 0.035 1.787 0 0.041 -0.05z"/>
  <polygon class="fil35" points="18.907,6.493 18.961,6.44 18.967,6.434 18.828,6.434 "/>
  <polygon class="fil35" points="18.907,6.493 18.961,6.44 18.967,6.434 18.828,6.434 "/>
  <polygon class="fil36" points="22.401,1.262 22.393,1.263 22.404,1.263 "/>
  <polygon class="fil36" points="22.401,1.262 22.393,1.263 22.404,1.263 "/>
  <polygon class="fil37" points="16.74,6.354 16.74,6.348 16.701,6.348 16.668,6.374 16.652,6.434 16.718,6.434 "/>
  <polygon class="fil37" points="16.74,6.354 16.74,6.348 16.701,6.348 16.668,6.374 16.652,6.434 16.718,6.434 "/>
  <polygon class="fil38" points="17.317,1.145 17.514,1.145 17.476,1.152 17.801,1.152 17.935,1.086 18.023,1.066 17.153,1.066 17.134,1.067 16.997,1.11 17.131,1.13 17.221,1.152 17.24,1.152 "/>
  <polygon class="fil38" points="17.317,1.145 17.514,1.145 17.476,1.152 17.801,1.152 17.935,1.086 18.023,1.066 17.153,1.066 17.134,1.067 16.997,1.11 17.131,1.13 17.221,1.152 17.24,1.152 "/>
  <polygon class="fil39" points="19.016,6.371 18.967,6.434 19.227,6.434 19.222,6.432 "/>
  <polygon class="fil39" points="19.016,6.371 18.967,6.434 19.227,6.434 19.222,6.432 "/>
  <polygon class="fil40" points="7.997,6.387 8.257,6.416 8.309,6.405 8.244,6.371 8.154,6.348 7.928,6.348 "/>
  <polygon class="fil40" points="7.997,6.387 8.257,6.416 8.309,6.405 8.244,6.371 8.154,6.348 7.928,6.348 "/>
  <polygon class="fil41" points="10.775,6.434 10.889,6.434 10.684,6.348 10.681,6.348 "/>
  <polygon class="fil41" points="10.775,6.434 10.889,6.434 10.684,6.348 10.681,6.348 "/>
  <polygon class="fil42" points="4.721,6.377 4.796,6.348 4.675,6.348 "/>
  <polygon class="fil42" points="4.721,6.377 4.796,6.348 4.675,6.348 "/>
  <polygon class="fil43" points="18.767,6.387 18.682,6.401 18.628,6.424 18.579,6.434 18.828,6.434 18.825,6.432 "/>
  <polygon class="fil43" points="18.767,6.387 18.682,6.401 18.628,6.424 18.579,6.434 18.828,6.434 18.825,6.432 "/>
  <path class="fil44" d="M14.422 1.119c-0.159,-0.018 -0.2,-0.022 -0.301,0.033l0.222 0 0.08 -0.033z"/>
  <path class="fil44" d="M14.422 1.119c-0.159,-0.018 -0.2,-0.022 -0.301,0.033l0.222 0 0.08 -0.033z"/>
  <polygon class="fil45" points="22.283,1.653 22.283,1.71 22.324,1.702 22.366,1.696 22.366,1.653 22.36,1.624 22.275,1.624 "/>
  <polygon class="fil45" points="22.283,1.653 22.283,1.71 22.324,1.702 22.366,1.696 22.366,1.653 22.36,1.624 22.275,1.624 "/>
  <polygon class="fil46" points="9.441,1.152 9.927,1.152 9.611,1.073 9.576,1.066 9.398,1.066 9.363,1.09 "/>
  <polygon class="fil46" points="9.441,1.152 9.927,1.152 9.611,1.073 9.576,1.066 9.398,1.066 9.363,1.09 "/>
  <polygon class="fil47" points="15.766,6.419 15.623,6.402 15.541,6.371 15.478,6.387 15.497,6.419 15.546,6.434 15.744,6.434 "/>
  <polygon class="fil47" points="15.766,6.419 15.623,6.402 15.541,6.371 15.478,6.387 15.497,6.419 15.546,6.434 15.744,6.434 "/>
  <polygon class="fil48" points="1.336,1.365 1.468,1.252 1.452,1.252 1.389,1.2 1.238,1.358 1.332,1.367 "/>
  <polygon class="fil48" points="1.336,1.365 1.468,1.252 1.452,1.252 1.389,1.2 1.238,1.358 1.332,1.367 "/>
  <polygon class="fil49" points="14.737,1.152 15.013,1.152 15.226,1.098 15.366,1.066 14.892,1.066 14.742,1.132 "/>
  <polygon class="fil49" points="14.737,1.152 15.013,1.152 15.226,1.098 15.366,1.066 14.892,1.066 14.742,1.132 "/>
  <polygon class="fil50" points="7.207,6.434 7.303,6.434 7.312,6.416 "/>
  <polygon class="fil50" points="7.207,6.434 7.303,6.434 7.312,6.416 "/>
  <polygon class="fil51" points="21.87,1.164 21.881,1.183 21.958,1.207 21.972,1.208 22.215,1.347 22.286,1.386 22.043,1.161 22.001,1.159 "/>
  <polygon class="fil51" points="21.87,1.164 21.881,1.183 21.958,1.207 21.972,1.208 22.215,1.347 22.286,1.386 22.043,1.161 22.001,1.159 "/>
  <polygon class="fil52" points="17.632,6.371 17.577,6.348 17.292,6.348 17.317,6.371 17.317,6.419 17.325,6.434 17.755,6.434 17.834,6.424 17.944,6.348 17.689,6.348 "/>
  <polygon class="fil52" points="17.632,6.371 17.577,6.348 17.292,6.348 17.317,6.371 17.317,6.419 17.325,6.434 17.755,6.434 17.834,6.424 17.944,6.348 17.689,6.348 "/>
  <polygon class="fil53" points="1.145,1.615 1.138,1.642 1.194,1.606 "/>
  <polygon class="fil53" points="1.145,1.615 1.138,1.642 1.194,1.606 "/>
  <polygon class="fil54" points="15.128,6.387 15.292,6.387 15.314,6.39 15.511,6.348 15.046,6.348 "/>
  <polygon class="fil54" points="15.128,6.387 15.292,6.387 15.314,6.39 15.511,6.348 15.046,6.348 "/>
  <polygon class="fil55" points="7.772,1.132 7.584,1.152 7.787,1.152 "/>
  <polygon class="fil55" points="7.772,1.132 7.584,1.152 7.787,1.152 "/>
  <polygon class="fil56" points="21.318,6.408 21.304,6.434 21.509,6.434 21.624,6.408 21.586,6.348 21.334,6.348 "/>
  <polygon class="fil56" points="21.318,6.408 21.304,6.434 21.509,6.434 21.624,6.408 21.586,6.348 21.334,6.348 "/>
  <polygon class="fil57" points="2.377,1.145 2.574,1.145 2.536,1.152 2.862,1.152 2.997,1.086 3.083,1.066 2.213,1.066 2.196,1.067 2.059,1.11 2.194,1.13 2.284,1.152 2.302,1.152 "/>
  <polygon class="fil57" points="2.377,1.145 2.574,1.145 2.536,1.152 2.862,1.152 2.997,1.086 3.083,1.066 2.213,1.066 2.196,1.067 2.059,1.11 2.194,1.13 2.284,1.152 2.302,1.152 "/>
  <g id="_164721248112">
   <path class="fil58" d="M6.571 3.727l-0.126 0.131c0.203,0.174 0.305,0.348 0.305,0.687 0,0.358 -0.208,0.745 -0.552,0.88 -0.184,0.077 -0.396,0.097 -0.595,0.097l-1.113 0c-0.054,0 -0.097,-0.044 -0.097,-0.107l0.243 -2.992c0.005,-0.054 0.034,-0.083 0.087,-0.087l0.929 -0.107c0.179,-0.024 0.397,-0.039 0.58,0 0.252,0.058 0.426,0.189 0.533,0.382 0.116,0.213 0.092,0.484 0.044,0.706l0 0.005 -0.005 0.005c-0.044,0.16 -0.126,0.29 -0.232,0.401zm-0.131 -1.165l0.01 0 0.01 -0.019 -0.015 0 -0.005 0.019zm-0.663 0.068l0 -0.01 -0.034 -0.029c-0.005,0.005 -0.015,0.01 -0.025,0.015 -0.01,0.005 -0.015,0.01 -0.019,0.015 0.01,0 0.019,0.005 0.029,0.01 0.01,0.005 0.019,0.01 0.024,0.01l0.015 0 0.01 -0.01zm-0.01 0.155c0,-0.005 0,-0.015 -0.01,-0.024 -0.005,-0.01 -0.005,-0.02 0,-0.025l0.005 -0.01c0.005,-0.005 0.005,-0.01 0.005,-0.015 -0.01,0.01 -0.02,0.02 -0.029,0.034 -0.005,0.015 -0.005,0.024 -0.005,0.024 0,0.005 0,0.01 0.005,0.015l0.005 0.01c0.005,0 0.01,0 0.015,-0.005 0.005,0 0.01,-0.005 0.01,-0.005zm0.126 0.015l0 -0.02 -0.01 0 0 0.02 0.01 0zm0.252 0.068l-0.01 0 -0.01 0.02 0.01 0.005 0.01 -0.025zm-0.789 0.179l-0.044 0.503c0.199,-0.039 0.354,-0.082 0.475,-0.155 0.058,-0.034 0.097,-0.087 0.116,-0.155 0.01,-0.049 0.034,-0.174 -0.02,-0.208 -0.034,-0.024 -0.073,-0.034 -0.116,-0.034 -0.082,0 -0.208,0.02 -0.29,0.034l-0.122 0.015zm0.827 0.169c-0.01,0.005 -0.015,0.01 -0.019,0.015 -0.005,0.005 0,0.01 0.01,0.01 0.005,-0.005 0.01,-0.01 0.01,-0.025zm-0.89 0.044l-0.02 -0.019c-0.005,0 -0.005,-0.005 -0.01,-0.01l-0.015 0.01 -0.01 0 0 0.01c-0.005,0 -0.005,0 -0.005,0.005l0 0.015c0.01,0.005 0.01,0.01 0.01,0.01 0,0.005 0.005,0.01 0.005,0.01l-0.01 0c-0.005,0 -0.01,0 -0.01,0.01l0.005 0 0.005 0.005 0.015 0c0.005,0.005 0,0.015 -0.019,0.029 0.005,0.005 0.005,0.015 0.01,0.02 0,0.01 0.005,0.015 0.015,0.015l0.029 0c0,-0.005 0.005,-0.01 0.01,-0.02 0,0 -0.005,0 -0.005,-0.005l-0.015 -0.015c-0.005,-0.01 -0.01,-0.015 -0.01,-0.02 0.02,-0.01 0.029,-0.024 0.029,-0.039 0,0 0,-0.005 -0.005,-0.01zm1.326 0.155l0 -0.015c-0.01,0 -0.015,-0.005 -0.015,-0.005l-0.01 0c-0.015,0 -0.019,0.005 -0.019,0.015 0,0.015 0.01,0.015 0.019,0.02 0,-0.005 0.005,-0.005 0.01,-0.005 0.005,0 0.005,0 0.015,-0.01zm-1.36 0.015l-0.01 0.01c-0.005,0 -0.005,0.005 -0.01,0.005l-0.01 0.019 0.053 0c0,0 0,-0.01 -0.005,-0.019 -0.01,-0.005 -0.015,-0.005 -0.02,-0.015zm0.711 0.034l-0.005 -0.01 0 -0.015 -0.044 0c0,0.01 0,0.024 -0.01,0.034l0.058 0 0 -0.01zm-0.126 0.01c0.01,-0.01 0,-0.005 -0.02,0.01 -0.01,0 -0.02,0.005 -0.029,0.005 0.02,0.015 0.044,0.015 0.068,0 -0.015,0 -0.019,-0.005 -0.019,-0.015zm-0.581 0.015l0 -0.005 -0.005 -0.005 -0.01 0 -0.01 -0.005c-0.005,0 -0.019,0 -0.039,0.005 0.015,0.02 0.024,0.029 0.039,0.034 0.015,-0.005 0.025,-0.01 0.029,-0.015l0 -0.005c-0.005,0 -0.005,0 -0.005,-0.005zm0.677 0.01l0 -0.01c-0.024,0 -0.039,0.015 -0.039,0.019 0.01,0.005 0.015,0.005 0.024,0.005l0.02 0 0 -0.01c-0.005,0 -0.005,-0.005 -0.005,-0.005zm0.087 0.087l-0.029 -0.063c-0.005,0.01 -0.015,0.02 -0.029,0.029 -0.01,0.01 -0.015,0.02 -0.015,0.02l-0.01 0.01 0.01 0.01c0.005,0 0.005,0.005 0.01,0.005 0.005,0.005 0.005,0.005 0.005,0.015 0.01,-0.005 0.02,-0.01 0.029,-0.01 0.01,0 0.02,-0.005 0.029,-0.015zm-0.271 -0.053l-0.039 -0.005 0 0.015 0.039 0.01 0 -0.019zm-0.716 0.053l0 -0.034c0,0 -0.01,-0.005 -0.02,-0.015 -0.029,0.01 -0.039,0.02 -0.039,0.029l0.029 0.01 0.01 0.005c0.01,0 0.015,0 0.02,0.005zm0.697 -0.029l-0.01 0.005 -0.01 0.01c0,0.005 -0.005,0.005 -0.005,0.01 0,0.005 0.005,0.005 0.005,0.005 0,0 0.005,0.005 0.01,0.005l0.01 0c0.01,-0.01 0.01,-0.025 0,-0.034zm-0.774 0.015l-0.02 0c0,0 -0.005,-0.005 -0.019,-0.005l-0.01 0.029c0.01,0.005 0.02,0.005 0.025,0.005l0.024 0 0 -0.029zm0.223 0.024c-0.005,0.005 -0.01,0.01 -0.01,0.015l0.024 0.015c0.005,-0.01 0.005,-0.015 0.005,-0.024l0 -0.02c-0.01,0.01 -0.02,0.01 -0.02,0.015zm1.204 0.01l0.064 0.01 0.02 -0.02c0,0 -0.005,0 -0.015,-0.005l-0.02 0c-0.015,0 -0.044,0.01 -0.049,0.015zm-0.034 0l0.005 0.015 0.01 -0.005 -0.005 -0.01 -0.01 0zm-0.368 0.024l-0.025 0 0 0.029 0.025 0 0 -0.029zm-0.078 0.029c0,0.02 -0.005,0.029 -0.01,0.039l0.044 0c0,-0.015 -0.01,-0.029 -0.034,-0.039zm0.484 0.01l0 0.01 0.02 -0.01 -0.005 -0.005 -0.015 0.005zm-0.668 0.17l0 -0.034c-0.01,-0.005 -0.015,-0.005 -0.025,-0.005 -0.015,0 -0.019,0.005 -0.019,0.019 0,0.005 0.005,0.01 0.005,0.015 0.01,0.01 0.02,0.01 0.025,0.005l0.015 0zm0.348 0.01l-0.029 0c0,0.005 0,0.005 -0.005,0.005l0 0.02 0.024 0 0.01 -0.025zm-0.329 0.368c0,-0.005 0,-0.015 -0.005,-0.02 -0.01,-0.005 -0.02,-0.005 -0.029,-0.005 0.005,0.015 0.015,0.024 0.034,0.024zm-0.465 0.073l-0.019 0.484c0.218,-0.02 0.334,-0.073 0.44,-0.155 0.102,-0.077 0.189,-0.28 0.029,-0.382 -0.063,-0.034 -0.198,-0.005 -0.261,0.01l-0.005 0.005c-0.069,0.015 -0.131,0.029 -0.185,0.039zm0.682 -0.044l0 -0.024 -0.01 0 0 0.024 0.01 0zm-1.074 0.053c0,-0.005 -0.005,-0.01 -0.015,-0.019l0 0.044c0.01,-0.005 0.015,-0.015 0.015,-0.025zm0.01 0.063c0,-0.005 0,-0.005 -0.005,-0.005l0 -0.01 -0.005 0c-0.02,0.005 -0.024,0.015 -0.015,0.024 0,0.01 -0.005,0.02 -0.02,0.029l0 0.015c0.01,0 0.015,0 0.02,0.005 0,-0.005 0.005,-0.015 0,-0.02 -0.005,-0.015 0.005,-0.024 0.02,-0.034 0,0 0.005,0 0.005,-0.005zm-0.01 0.107c0,-0.005 -0.005,-0.015 -0.005,-0.015 -0.005,-0.005 -0.01,-0.01 -0.01,-0.015l-0.02 0c-0.005,0.015 -0.005,0.034 0,0.053l0 0.058c0.005,0 0.015,0 0.02,0.005l0.01 -0.005c0,0 0,-0.005 -0.005,-0.005 -0.005,-0.005 -0.01,-0.005 -0.015,-0.015 0.015,-0.015 0.024,-0.058 0.024,-0.063zm0.184 -0.025c-0.01,0.005 -0.01,0.01 -0.01,0.015 0.005,0.005 0.005,0.01 0.005,0.015l0.005 0.01c0,-0.01 0.005,-0.015 0,-0.02l0 -0.02zm-0.199 0.194l0 -0.02 -0.02 0c0,0 0,0.005 0.01,0.01 0,0 0.005,0 0.01,0.01zm0.01 0.174c0,-0.024 0,-0.02 -0.029,-0.044 0.005,-0.01 0.01,-0.015 0.025,-0.015l-0.005 -0.082c-0.005,0.005 -0.005,0.015 -0.005,0.019l0 0.015c0,0.005 0,0.01 -0.015,0.02 -0.01,0 -0.019,0.005 -0.019,0.01 0,0.044 0.005,0.078 0.01,0.102 0.01,0 0.02,0.005 0.024,0.01 -0.005,0.005 -0.015,0.005 -0.015,0.005l-0.015 0c0,0.005 -0.005,0.01 -0.005,0.015l-0.005 0.02c0,0.005 0.005,0.01 0.015,0.015l0.02 0.02 0.005 -0.005c0,-0.005 0,-0.005 0.005,-0.005 0,-0.005 0,-0.01 -0.01,-0.01 -0.005,0 -0.01,-0.005 -0.015,-0.01 0.005,-0.01 0.015,-0.01 0.024,-0.01 0,-0.015 0,-0.029 0.005,-0.039 0.005,-0.02 0.005,-0.024 0.005,-0.029zm0.818 0l-0.005 -0.024c-0.01,0.005 -0.015,0.01 -0.02,0.01l-0.02 0.01 0.015 0.015c0.01,0 0.02,0 0.029,-0.01zm-0.842 0.145l0.015 0 0 -0.029c-0.01,0 -0.015,-0.005 -0.02,-0.005l-0.015 0 -0.005 0.005 0 0.015c0,0 0.019,0.01 0.024,0.015zm0.194 0.305l0.082 0 0 -0.339c-0.01,0.01 -0.015,0.02 -0.019,0.03 0,0.005 -0.005,0.015 -0.01,0.029 0,0.044 -0.01,0.073 -0.019,0.092 -0.015,0.02 -0.015,0.044 -0.005,0.068 -0.005,0 -0.005,0 -0.005,0.005l-0.005 0.005c0,0.005 0,0.01 0.005,0.02l0 0.019c-0.01,0.01 -0.029,0.049 -0.029,0.058l0 0.01c0.005,0 0.005,0.005 0.005,0.005zm-0.213 -0.247l0 0.02 0.01 0 0 -0.02 -0.01 0zm0 0.049l0 0.015 0.01 0 0 -0.015 -0.01 0zm0.005 0.102l0 -0.02 -0.034 0 0 0.02c0.01,0.005 0.02,0.005 0.034,0zm0.184 0.063l-0.01 0c0,-0.005 0,-0.005 -0.005,-0.005 -0.015,0.039 -0.019,0.049 -0.029,0.049 -0.005,0 -0.01,0.01 -0.01,0.029 0,0.015 0,0.024 0.005,0.029l0.005 0c0,0 0.005,0 0.01,-0.005 0.015,-0.015 0.019,-0.029 0.019,-0.039 0,-0.01 0,-0.015 -0.005,-0.02 0,-0.01 0.019,-0.029 0.019,-0.039zm4.697 0.184l-0.363 -2.026c-0.044,-0.232 -0.106,-0.493 -0.116,-0.532 -0.03,-0.107 -0.063,-0.228 -0.102,-0.334 -0.073,-0.165 -0.184,-0.32 -0.372,-0.334 -0.102,-0.01 -0.199,-0.01 -0.281,0.005 -0.111,0.015 -0.218,0.039 -0.325,0.058 -0.034,0.01 -0.058,0.029 -0.073,0.058 -0.155,0.363 -0.309,0.73 -0.455,1.098 -0.106,0.271 -0.208,0.546 -0.295,0.827 -0.117,0.377 -0.233,0.764 -0.334,1.141 -0.01,0.068 0.029,0.126 0.092,0.126l0.716 0.015c0.049,0 0.083,-0.024 0.097,-0.073l0.106 -0.445 0.731 -0.146 0.049 0.59c0.005,0.058 0.039,0.087 0.097,0.087l0.731 0c0.063,0 0.107,-0.053 0.097,-0.116zm-1.533 -3.046l0.019 0 0 0.029 -0.019 0 0 -0.029zm0.59 0.116l0.015 0 0 0.039 -0.015 0 0 -0.039zm-0.039 0.078c0,0.005 0.01,0.005 0.024,0.005 0,0.019 -0.005,0.029 -0.01,0.039l-0.015 -0.015 0 -0.029zm-0.523 0.029c-0.015,0.024 -0.025,0.044 -0.025,0.058l0 -0.063c0,0 0.005,0.005 0.01,0.005l0.015 0zm0.614 0.01c-0.01,0.01 -0.015,0.015 -0.015,0.02l-0.019 0c0,-0.01 0,-0.01 -0.005,-0.015l0 -0.02 0.053 0.005c-0.005,0 -0.01,0.005 -0.015,0.01zm-0.048 -0.01l0.01 0.02 0 0.01 -0.01 -0.015 0 -0.015zm0.102 0.053c0.015,0 0.029,-0.005 0.044,-0.01l-0.01 0.015c0,0.015 0.01,0.02 0.024,0.029 -0.01,0.005 -0.015,0.01 -0.02,0.01l-0.063 0 -0.01 -0.01c0.01,-0.024 0.02,-0.034 0.034,-0.034zm-0.015 0.131c0.015,0 0.029,0.005 0.044,0.015 -0.005,0.005 -0.005,0.005 -0.005,0.01 0,0.005 -0.005,0.01 -0.01,0.015 -0.01,-0.005 -0.015,-0.01 -0.024,-0.01 -0.01,0 -0.02,-0.005 -0.025,-0.01 0,-0.015 0.01,-0.02 0.02,-0.02zm-0.392 0.029l0.005 0 -0.005 0.015 -0.01 -0.005 0.01 -0.01zm0.068 0.039c0,0 0.005,-0.005 0.02,-0.005 0.005,0.005 0.01,0.015 0.01,0.029 -0.01,0 -0.015,0.005 -0.02,0l-0.024 0 -0.005 -0.024 0.02 0zm0.406 0.087c0.015,0 0.025,0.01 0.025,0.024 0,0.005 -0.01,0.015 -0.02,0.02l-0.029 0c-0.005,-0.005 -0.01,-0.01 -0.01,-0.015 0,-0.01 0.005,-0.015 0.01,-0.015 0.01,-0.005 0.02,-0.005 0.024,-0.015zm-1.064 0.189c0.005,0.024 0.005,0.053 0,0.077 -0.01,0 -0.029,-0.044 -0.029,-0.053 0,-0.01 0.034,-0.034 0.029,-0.024zm0.334 0.063c0,-0.005 0,-0.01 0.005,-0.01l0.024 0.01c-0.005,0.01 -0.01,0.01 -0.019,0.005 -0.01,0 -0.01,0.005 -0.01,0.005l0 -0.01zm-0.319 0.078l0 0.058 -0.019 0 0 -0.053 0.019 -0.005zm0.557 0.024c0.005,0.005 0.01,0.01 0.01,0.015 0,0 0.005,0.005 0.005,0.01l-0.015 0.039c-0.039,0.02 -0.053,0.015 -0.068,-0.029 0.019,-0.029 0.044,-0.039 0.068,-0.034zm0.547 0.005l0 0.01 -0.034 0 0 -0.01 0.034 0zm0.019 0.087l-0.029 0 -0.005 -0.01c0,0 0,-0.005 0.005,-0.015 0.02,0 0.029,0.01 0.029,0.024zm-0.755 0.774l0.238 -0.779c0.024,0.102 0.044,0.203 0.063,0.305 0.015,0.078 0.025,0.155 0.034,0.233l0.029 0.232 -0.363 0.01zm0.151 -0.745l-0.015 0.039 -0.01 -0.005 0.015 -0.039 0.01 0.005zm0.445 0.02l0.01 0.01 -0.01 0.005 -0.015 -0.01 0.015 -0.005zm-0.605 0.353c-0.029,0.068 -0.078,0.218 -0.078,0.208l-0.02 0.054c-0.019,0.019 -0.029,0.034 -0.029,0.044 -0.015,0.019 -0.029,0.048 -0.034,0.077 -0.005,0.025 -0.015,0.054 -0.029,0.083 -0.005,0.005 -0.015,0.01 -0.015,0.015 -0.01,0.005 -0.015,0.005 -0.025,0 -0.005,0 -0.01,-0.015 -0.01,-0.034 0.005,-0.02 0.015,-0.039 0.024,-0.058 0.015,-0.024 0.025,-0.044 0.029,-0.068 0,-0.02 0.005,-0.034 0.01,-0.044 0.01,-0.034 0.01,-0.049 0.044,-0.087 0.029,-0.034 0.034,-0.049 0.044,-0.078 0,0 0.005,-0.024 0.019,-0.068 0.02,-0.063 0.039,-0.117 0.034,-0.107 0.005,-0.02 0.01,-0.029 0.015,-0.034 0.01,-0.005 0.015,-0.015 0.015,-0.02 0.005,0 0.01,-0.015 0.02,-0.034 0.01,-0.025 0.015,-0.054 0.025,-0.087 0.005,0 0.015,-0.01 0.024,-0.02 0.01,-0.01 0.015,-0.015 0.025,-0.02l0.024 0.01c-0.029,0.058 -0.044,0.087 -0.049,0.102 0,0.01 -0.005,0.024 -0.01,0.039 -0.005,0.015 -0.029,0.053 -0.054,0.068l0 0.059zm0.639 -0.16l0 -0.019 0.034 0.005c-0.005,0 -0.005,0.005 -0.005,0.005l0 0.01 -0.029 0zm0.097 0.034l0 -0.01 0.029 0.01 0 0.01 -0.029 -0.01zm-0.203 0.024l0.024 0c0,0.01 -0.019,0.015 -0.024,0zm0.276 0.15c0,0.015 -0.005,0.02 -0.024,0.02l0.024 -0.02zm-0.363 0.015c0,0 0.01,0.005 0.02,0.005 0.005,0.005 0.01,0.01 0.01,0.015l-0.029 0 0 -0.02zm0.203 0.068l-0.005 0 0 0.015 -0.044 0c-0.015,-0.015 -0.01,-0.025 0.005,-0.034l-0.029 0c0,-0.015 0.005,-0.024 0.015,-0.029 0.034,0.005 0.054,0.02 0.058,0.049zm0.126 -0.039c0,-0.005 0.005,-0.01 0.01,-0.01l0.01 0c0,0 0.005,0.01 0.01,0.01 0,0.01 -0.015,0.01 -0.029,0.01l0 -0.01zm-0.068 0c0.02,0 0.029,0 0.029,0.005l-0.01 0.015c-0.01,0 -0.01,-0.005 -0.015,-0.01 -0.005,-0.005 -0.005,-0.005 -0.005,-0.01zm0.068 0.039l0.039 0c0.015,0 0.029,0.01 0.039,0.019 -0.029,0.015 -0.053,0.02 -0.077,0.005l0 -0.024zm-0.131 0.082c0,-0.015 0.01,-0.024 0.024,-0.029 0.005,0 0.01,0 0.015,0.005 0.005,0 0.01,0.005 0.015,0.005l0 0.025 -0.029 0c-0.005,-0.005 -0.015,-0.005 -0.024,-0.005zm-0.155 -0.005l-0.039 0 0 -0.01 0.039 0 0 0.01zm0.387 0.01c-0.015,0.01 -0.025,0.019 -0.029,0.029 -0.005,0.01 -0.02,0.015 -0.039,0.019 0.02,0.02 0.034,0.029 0.049,0.029 0.015,0 0.024,0.01 0.034,0.025 -0.01,0 -0.015,0.005 -0.02,0.005l-0.068 0c-0.029,-0.048 -0.044,-0.068 -0.044,-0.082 0,-0.015 -0.005,-0.005 0.053,-0.044l0.049 0c0.005,0 0.01,0.005 0.015,0.02zm-1.161 0.029c0,0.01 -0.005,0.024 -0.015,0.039 -0.01,-0.005 -0.015,-0.015 -0.015,-0.029 0,-0.01 0.005,-0.029 0.01,-0.044l0.019 0 0 0.034zm0.944 0.01l-0.01 0c-0.005,0.005 -0.005,0.005 -0.01,0.005l0 0.005 -0.024 -0.019 0 -0.02 0.034 0 0.005 0.01c0,0.005 0.005,0.01 0.005,0.02zm0.053 0.005c0.005,0 0.01,0.005 0.015,0.005 0,0 -0.005,0.029 -0.02,0.049l-0.01 -0.058 0.01 0c0,0.005 0.005,0.005 0.005,0.005zm-0.116 0.024l0.073 0c0,0.01 -0.02,0.024 -0.034,0.024 -0.015,0 -0.029,-0.005 -0.034,-0.005 -0.01,0 -0.02,0 -0.03,0.005l-0.015 -0.024c0.01,0 0.025,-0.005 0.039,0zm-0.044 0.073l-0.01 -0.005 0.005 -0.015 0.01 0 -0.005 0.02zm0.063 0.049c-0.005,0 -0.005,0.005 -0.005,0.01l-0.034 -0.01c0.005,-0.005 0.005,-0.005 0.005,-0.01l0.01 -0.01c0.015,0 0.025,0.005 0.029,0.005 0,0.01 0,0.01 -0.005,0.015zm-0.078 0l0.01 -0.01c0.005,0.005 0,0.01 -0.01,0.01zm0.266 0.053c-0.005,0 -0.025,-0.01 -0.029,-0.01 0,-0.005 0,-0.005 0.005,-0.005 0.01,0 0.015,-0.005 0.015,-0.005 0.01,0.01 0.015,0.015 0.015,0.02l-0.005 0zm-0.087 0.068l0 -0.029c-0.01,-0.024 -0.02,-0.039 -0.034,-0.044 -0.005,0 -0.015,-0.005 -0.015,-0.01 0.024,-0.005 0.049,0.005 0.078,0.024 0,0.01 0.005,0.02 0.01,0.029 0,0.015 0.005,0.025 0.01,0.029l-0.048 0zm-0.194 -0.029l-0.015 0 0 -0.019 0.015 0 0 0.019zm0.411 0.029l0.029 0.005 0 0.005 -0.029 0 0 -0.01zm-0.3 0.01l0 0.024 -0.019 0 0 -0.024 0.019 0zm-0.14 0.034l0.015 0 0 0.01 -0.015 0 0 -0.01zm-0.145 0.034l-0.025 0 0 -0.01 0.025 0 0 0.01zm0.102 0.068l-0.01 -0.01 -0.019 0c0.015,-0.01 0.024,-0.015 0.034,-0.015 0,0.01 0,0.02 -0.005,0.024zm0.16 0.01l0.029 -0.029c0,0.005 0.005,0.01 0.015,0.01 0.01,0.01 0.015,0.015 0.015,0.02 0,0.01 -0.015,0.024 -0.034,0.039 -0.015,0 -0.039,-0.01 -0.049,-0.015 0.015,-0.01 0.02,-0.02 0.025,-0.024zm0.126 0.126l0 0.01 -0.024 0 0 -0.01 0.024 0zm-0.058 0.01l0 0.039c-0.019,-0.01 -0.029,-0.02 -0.029,-0.039l0.029 0zm0.199 0.02c0.015,0 0.019,-0.005 0.024,-0.02 0,0.025 0,0.039 0.005,0.044l0.019 0.015c0.005,0 0.01,0 0.015,0.01 -0.019,0.005 -0.029,0.01 -0.029,0.005 -0.005,0.005 -0.015,0.005 -0.029,0.005 -0.029,0 -0.044,-0.034 -0.044,-0.044l0.039 -0.015zm-1.069 0.044l-0.053 0 0 -0.024 0.053 0 0 0.024zm-0.155 0.097c-0.005,0.005 -0.01,0.005 -0.015,0.005 -0.039,0 -0.063,-0.034 -0.063,-0.049 0,-0.01 0.01,-0.039 0.049,-0.039 0.01,0 0.048,0.02 0.058,0.024 0,0.01 0.005,0.02 0.01,0.029 0,0 0,0.01 0.01,0.029l-0.048 0zm0.871 -0.063l-0.015 0 0 -0.02 0.015 0 0 0.02zm0.513 -0.015l0.019 0 0 0.01 -0.019 0 0 -0.01zm-0.475 0.015l0.068 0 0 0.015 -0.049 0c0,-0.005 -0.005,-0.01 -0.02,-0.015zm-0.247 0.019l-0.005 -0.01 0.015 -0.005 0.005 0.01 -0.015 0.005zm0.818 0.648c-0.015,0 -0.049,-0.039 -0.049,-0.053l0 -0.01c0.005,-0.005 0.005,-0.01 0.005,-0.015 -0.02,-0.01 -0.029,-0.024 -0.034,-0.039 0,-0.02 -0.005,-0.034 -0.005,-0.044 -0.005,-0.005 -0.01,-0.005 -0.015,-0.015 -0.005,0 -0.01,-0.005 -0.01,-0.01 -0.01,-0.005 -0.01,-0.01 -0.015,-0.015l-0.015 -0.015 0.005 0 0 -0.005 0.005 0 0 -0.068 -0.029 0c-0.011,0.005 -0.015,0.005 -0.025,0.005 -0.024,0 -0.044,0 -0.058,-0.005 0.054,-0.025 -0.034,-0.054 -0.053,-0.063l0 -0.044c0,-0.005 0.005,-0.015 0.01,-0.02 0.005,-0.005 0.005,-0.01 0.005,-0.015 0,-0.005 0,-0.005 0.005,-0.005 0.005,0 0.01,-0.005 0.01,-0.01 0.005,-0.01 -0.015,-0.02 -0.029,-0.015 0.005,-0.005 0.005,-0.015 0.01,-0.034 0,-0.015 0.015,-0.024 0.044,-0.024 0.01,0 0.02,0 0.034,-0.01 0,0 0,-0.005 -0.01,-0.01 -0.005,-0.005 -0.01,-0.01 -0.02,-0.015 -0.01,-0.015 -0.01,-0.024 0,-0.034 -0.02,-0.015 -0.029,-0.02 -0.02,-0.015 -0.005,-0.005 -0.01,-0.01 -0.01,-0.015 0,-0.029 0.063,-0.054 0.092,-0.054 0.005,0 0.059,0.015 0.073,0.025l0 0.039 -0.02 -0.015c-0.029,0 -0.044,0.005 -0.044,0.024l0 0.049 0.015 0.01c0.01,-0.005 0.02,-0.015 0.034,-0.024l0.034 -0.029c0.02,0.034 0.02,0.058 0.01,0.063 -0.01,0 -0.015,0.01 -0.015,0.019 0,0.01 0.005,0.02 0.015,0.034 0.024,0.039 0.024,0.073 0.01,0.102 -0.005,0.015 0.01,0.029 0.039,0.044 -0.019,0.015 -0.024,0.025 -0.024,0.034 0,0.005 0.005,0.01 0.01,0.024 0.01,0.015 0.015,0.02 0.02,0.025 0.01,0.048 0.015,0.087 0.02,0.116 0.005,0.029 0.01,0.068 0.019,0.116 -0.01,0.01 -0.015,0.01 -0.024,0.01zm-1.824 -0.58l-0.015 -0.01 0 -0.01c0.02,0.005 0.024,0.01 0.015,0.02zm0.208 0.077c0,0.005 0,0.005 -0.005,0.005 -0.005,0 -0.01,0 -0.01,-0.005 0,-0.01 0.005,-0.019 0.01,-0.024 0.01,0.01 0.015,0.015 0.005,0.024zm1.287 0.049c-0.005,0.01 -0.01,0.01 -0.01,0.015 -0.005,-0.005 -0.01,-0.005 -0.015,-0.015 -0.005,0 -0.005,-0.01 -0.005,-0.015l0.034 0c0,0.005 0,0.015 -0.005,0.015zm-1.437 0.005c0,-0.005 0.005,-0.005 0.005,-0.005 0.005,0 0.005,0 0.01,-0.005 0.02,0 0.029,0.005 0.029,0.015l0 0.025 -0.01 0.005 -0.034 -0.015 0 -0.019zm1.243 0.015l-0.034 0 0 -0.02 0.034 0 0 0.02zm0.058 0.02c0.02,0.005 0.029,0.005 0.029,0.019l-0.029 0 0 -0.019zm-1.287 0.077c-0.005,0.005 -0.01,0.01 -0.015,0.01 -0.024,0 -0.044,-0.034 -0.044,-0.039 0.039,0 0.063,-0.015 0.078,-0.044 0.005,0.005 0.01,0.01 0.02,0.015 0.005,0 0.01,0.005 0.015,0.01l0 0.019 -0.034 0.01c-0.01,0.01 -0.02,0.01 -0.02,0.019zm1.238 0l-0.005 -0.034c0.005,0.005 0.01,0.005 0.024,0.01l0.029 0.015 -0.049 0.01zm-1.045 0.097c-0.01,-0.005 -0.02,-0.005 -0.02,-0.005 -0.005,-0.005 -0.01,-0.005 -0.019,-0.015 0.005,0 0.01,0 0.019,-0.005l0.01 0c0,-0.005 0.005,-0.005 0.01,-0.005l0.01 0.01c0,0.01 0,0.015 -0.01,0.02zm-0.232 0.029c-0.015,0.005 -0.025,0.005 -0.029,0 0,-0.01 0.01,-0.02 0.024,-0.02 0.01,0 0.029,0.02 0.034,0.02l-0.029 0zm0.087 0.019l-0.029 -0.019c0,-0.005 0.01,-0.01 0.029,-0.02 0.015,0.005 0.02,0.015 0.02,0.024 -0.005,0 -0.01,0.005 -0.02,0.015zm1.253 -0.015c0.01,-0.005 0.02,-0.01 0.024,-0.015 0.01,0.01 0.02,0.02 0.02,0.029l-0.053 0 0.01 -0.015zm0.092 0.242c0,0.005 0,0.005 -0.005,0.01 -0.015,-0.01 -0.044,-0.044 -0.053,-0.063l0.048 0c0,0.015 0.005,0.029 0.015,0.049 -0.005,0 -0.005,0.005 -0.005,0.005z"/>
   <path class="fil58" d="M13.782 2.611l-0.464 -0.382c-0.039,-0.034 -0.112,-0.034 -0.141,0.005l-0.822 1.059 0.082 -1.02c0,-0.058 -0.039,-0.107 -0.102,-0.107l-0.605 0c-0.063,0 -0.097,0.029 -0.102,0.092 -0.01,0.121 -0.015,0.237 -0.024,0.358l-0.029 0.353c0.02,0.01 0.024,0.01 0.024,0.01l-0.019 0.019 -0.005 0c0,0.039 -0.005,0.073 -0.005,0.092 -0.005,0.053 -0.01,0.111 -0.01,0.165l-0.687 -1.054c-0.019,-0.034 -0.082,-0.058 -0.135,-0.024l-0.498 0.305c-0.059,0.044 -0.078,0.087 -0.049,0.131l0.716 1.064 -0.91 1.223c-0.039,0.053 -0.048,0.097 -0.005,0.131l0.532 0.416c0.025,0.02 0.049,0.029 0.078,0.02 0.029,0 0.053,-0.02 0.073,-0.044 0.377,-0.566 0.59,-0.846 0.827,-1.189 -0.024,0.396 -0.058,0.793 -0.063,1.189 0,0.058 0.044,0.102 0.102,0.102l0.639 -0.015c0.063,-0.005 0.087,-0.034 0.092,-0.102l0.029 -1.175c0.131,0.218 0.286,0.483 0.508,0.836l0.257 0.392c0.015,0.025 0.039,0.044 0.068,0.044 0.025,0.01 0.054,0 0.078,-0.019l0.503 -0.44c0.044,-0.039 0.049,-0.082 0.015,-0.131l-0.822 -1.156 0.88 -1.01c0.039,-0.044 0.044,-0.097 -0.005,-0.136zm-2.946 -0.237l0.034 -0.005c0,0.015 -0.015,0.029 -0.025,0.044 -0.01,-0.01 -0.015,-0.019 -0.01,-0.024l-0.005 -0.005 0.005 -0.01zm-0.053 0.131c-0.015,0 -0.025,-0.005 -0.025,-0.024 0,0 0.01,-0.005 0.01,-0.01 0.005,-0.005 0.015,-0.015 0.015,-0.01l0.024 0c-0.01,0.02 -0.015,0.034 -0.024,0.044zm0.015 0.116l-0.034 0.015 -0.01 -0.024 0.034 -0.02c0.005,0.005 0,0.005 0.005,0.01l0 0.01 -0.005 0 0.01 0.01zm0.034 0.034l-0.01 -0.02 0.024 -0.01 0.01 0.015 -0.025 0.015zm2.574 0l-0.02 0c-0.015,-0.005 -0.02,-0.015 -0.005,-0.024l0.034 0 0.01 0.01c0,0.01 -0.01,0.015 -0.019,0.015zm-2.893 0.082l-0.029 0.005c-0.005,-0.005 -0.005,-0.02 0,-0.029 0.005,0 0.015,-0.005 0.015,-0.015l0.025 0.015 -0.01 0.024zm2.69 -0.034c-0.005,0.005 -0.005,0.01 -0.005,0.01l-0.02 0c0.015,-0.01 0.015,-0.015 0.015,-0.01 0,-0.005 0.01,-0.005 0.02,-0.005 -0.005,0.005 -0.01,0.005 -0.01,0.005zm-0.097 0.024c0,0.005 0,0.005 -0.005,-0.005 -0.005,0 -0.005,-0.005 -0.005,-0.01 0.01,0.005 0.024,0.01 0.01,0.015zm0.189 -0.015l0.025 0.005 -0.005 0.005 -0.024 -0.01 0.005 0zm-2.506 0.049l-0.029 0.029 -0.019 -0.034 0.019 -0.034c0.02,-0.01 0.034,-0.005 0.044,0.01 0,0.015 -0.005,0.019 -0.015,0.029zm0.934 0.015c0,0 0.005,0 0.01,0.005 0,0 0.01,0.005 0.015,0.005l0 0.015c-0.015,0.005 -0.025,0.01 -0.025,0.015l-0.015 -0.01c-0.005,0 -0.005,-0.005 -0.005,-0.01 0,-0.015 0.005,-0.019 0.02,-0.019zm1.577 0.063c-0.015,0 -0.02,-0.005 -0.029,-0.01l-0.005 -0.02c0,-0.019 0.034,-0.024 0.054,-0.024 0.019,0 0.034,0.02 0.034,0.024 0,0.02 -0.039,0.029 -0.053,0.029zm-2.453 0.015c-0.005,-0.005 -0.005,-0.015 -0.005,-0.019 0,0 0.005,0.005 0.005,0.015l0 0.005zm0.044 0.01l-0.015 0.01 -0.01 -0.015c0,-0.01 0.01,-0.02 0.015,-0.024 0.015,0 0.02,0.005 0.02,0.015l-0.01 0.015zm-0.044 0c0.005,0.01 0.005,0.015 0.01,0.01 -0.005,0.005 -0.01,0 -0.01,-0.01zm2.472 0.063l-0.029 0c0,-0.01 0.005,-0.01 0.01,-0.015l0.024 0c0.005,0.005 0.005,0.005 0.01,0.005l-0.015 0.01zm-2.419 0.01l-0.005 0.01 -0.01 -0.015 0.015 -0.01 0 0.015zm-0.121 0.029l0.02 -0.015 0.005 0.019c-0.005,0.005 -0.024,-0.005 -0.024,-0.005zm2.646 0.053c-0.01,0.005 -0.019,0.005 -0.029,0.005 -0.01,0 -0.019,0 -0.024,0.005l-0.024 -0.005 0 -0.015c0.005,-0.005 0.034,-0.02 0.048,-0.02 0.005,0 0.01,0 0.015,0.005 0.01,0.01 0.015,0.01 0.015,0.01l0 0.015zm-0.402 0c-0.01,0 -0.02,0.005 -0.024,0.01l0 -0.01c-0.005,-0.005 0,-0.005 0,-0.015 0.005,0.005 0.01,0.005 0.015,0.005l0.025 0c0,0.005 -0.01,0.01 -0.015,0.01zm-2.075 0.039l0 -0.005 0.025 -0.01c-0.01,0.025 -0.02,0.034 -0.025,0.034 -0.005,0 -0.005,0 -0.005,-0.01 0.005,-0.005 0.005,-0.005 0.005,-0.01zm1.751 -0.005l0.044 0c0.005,0 0.005,0.005 0,0.01 -0.005,0.005 -0.01,0.01 -0.01,0.015l-0.034 0 0 -0.024zm-0.049 0.126c-0.005,0 -0.01,0.005 -0.024,0.01 -0.01,-0.005 -0.015,-0.01 -0.015,-0.019 0,-0.005 0,-0.01 0.005,-0.01 0,-0.005 0.005,-0.005 0.005,-0.01l0.015 0c0.005,0.005 0.005,0.005 0.015,0.005l0 0.024zm-1.582 -0.015l0.01 -0.01c0,0.005 0.005,0.01 0.005,0.024 -0.005,0 -0.005,0 -0.01,-0.005 0,0 -0.005,0.005 -0.005,0l0 -0.01zm1.495 0.145c0,0 -0.005,0.005 -0.01,0.005l-0.01 0c-0.005,-0.005 -0.01,-0.01 -0.015,-0.02l0.015 -0.01c0,0 0,0.005 0.005,0.005l0.015 0 0 0.02zm-1.325 0.078l0.015 -0.005 0 0.005 -0.015 0.005 0 -0.005zm1.567 0.242c0.019,0 0.029,0.01 0.029,0.024l-0.029 0 0 -0.024zm0.131 0.194c0,0.02 -0.01,0.029 -0.029,0.034l-0.02 -0.034 0.049 0zm-1.548 0.053l-0.029 -0.01 -0.01 0c0.01,0 0.01,0.005 0.01,0.005 0.005,0 0.01,0.01 0.005,0.015l0.01 0c0,0.005 0.005,0.01 0.01,0.015l-0.015 0.015c0.01,0.01 0.005,0.015 -0.005,0.015l-0.034 -0.02 0.024 -0.015c-0.019,-0.01 -0.029,-0.015 -0.034,-0.029 0,0 0.005,0 0.01,-0.005l0 -0.005 0.01 0 0.005 -0.01 0.015 -0.015 0.058 0.025c-0.01,0.01 -0.02,0.019 -0.029,0.019zm-0.044 -0.024c0,0 -0.005,0 -0.005,0.005l0.005 -0.005zm0.044 0.111l-0.015 -0.005 -0.005 0.005c-0.005,0 -0.01,0 -0.015,-0.005 0,0.005 -0.005,0.005 -0.01,0.005l-0.02 -0.019c0.005,-0.015 0.015,-0.015 0.029,-0.015 0.015,0.005 0.029,0.01 0.039,0.01l-0.005 0.024zm-0.189 0.02l0.005 -0.005c0,-0.01 0.01,-0.015 0.024,-0.01l0.01 -0.005c0.01,0.005 0.01,0 0.015,0l0.029 0.01 0 0.019 -0.019 0.01c-0.005,-0.005 -0.005,-0.005 -0.01,-0.005l0 -0.005 -0.005 0 -0.005 -0.005c0,0 -0.005,0 -0.015,0.005l-0.005 0 -0.005 0.005c0,0.005 -0.005,0 -0.005,0l-0.01 0c0,-0.005 0,-0.005 -0.005,-0.01l0 -0.005zm0.102 0.01l-0.005 -0.005c0,-0.005 0.01,-0.01 0.015,-0.005 0.005,0 0.005,-0.005 0.005,-0.005l0 0.005 0.01 0 -0.024 0.01zm0.005 0.044l-0.029 -0.005 0.01 -0.015 0.039 0 -0.019 0.019zm-0.039 0.044l-0.034 0.01c0,0 -0.005,-0.005 -0.015,-0.025 0,-0.01 0.015,-0.015 0.029,-0.01 0.005,0.005 0.01,0.01 0.01,0.015 0,0.005 0.005,0.01 0.01,0.01zm0.029 0.078l-0.029 0c-0.01,0 -0.019,0.005 -0.029,0 -0.01,0 -0.019,-0.01 -0.015,-0.015l0 -0.015 -0.063 -0.044 0.077 0.024 0 0.005c0.01,0 0.015,0.005 0.015,0.005 0.015,0 0.02,0.005 0.044,0l0.02 0.005c0.005,0.01 0.01,0.01 0.005,0.015l0 0.005c0,0 0.005,0.005 0.005,0.01 -0.01,0 -0.019,-0.005 -0.029,0.005zm0.764 0.015c-0.02,0 -0.034,-0.005 -0.039,-0.015l-0.01 -0.02c0,-0.015 0.034,-0.053 0.058,-0.053 0.011,0 0.059,0.015 0.059,0.029 0,0.029 -0.044,0.058 -0.068,0.058zm-1.151 -0.029l0 -0.02 0.029 -0.034c-0.005,0.005 0,0.005 0.01,0.01l0.015 0 0.01 0.024c0,-0.005 0,0.005 0.015,0.015 -0.01,0.015 -0.02,0.029 -0.029,0.039 -0.015,0.015 -0.025,0.024 -0.039,0.034 0,-0.005 0,-0.005 -0.005,-0.015l-0.01 -0.01c0,-0.005 0,-0.01 -0.005,-0.01 0,0 -0.005,-0.005 -0.005,-0.01 0.01,-0.015 0.015,-0.024 0.02,-0.024l-0.005 0zm1.882 0.01l-0.015 -0.029c0.005,0 0.015,-0.005 0.024,-0.005l0.02 0c0,0.019 -0.01,0.029 -0.029,0.034zm-1.703 0c0.015,-0.005 0.029,-0.005 0.039,0l0 0.01c0.01,0.01 0.015,0.019 0.006,0.024 -0.006,0.01 -0.011,0.01 -0.015,0.01l-0.005 0 -0.029 -0.015c-0.005,-0.019 -0.005,-0.029 0.005,-0.029zm0.165 0.087c-0.015,0.005 -0.029,0 -0.039,-0.005l0.005 -0.039 0.039 0.02 -0.005 0.024zm-0.426 -0.005l0.039 0.01 0.01 0.024 -0.01 0.005 -0.005 0 0 0.005c-0.005,-0.005 -0.01,-0.01 -0.015,-0.01 -0.024,-0.01 -0.034,-0.024 -0.019,-0.034zm2.012 0.034l0.029 -0.01 0.01 0.02 -0.039 0.019c-0.01,-0.01 -0.01,-0.019 0,-0.029zm0.058 0.015l-0.019 -0.015 0.019 -0.01 0.02 0.02 -0.02 0.005zm-1.838 0.01l-0.015 -0.01 0.015 -0.019 0.015 0.015 -0.015 0.015zm0.068 -0.015l0.044 0.015 -0.01 0.015 -0.015 0.01c-0.01,0 -0.01,0 -0.01,-0.005l-0.005 -0.01c-0.006,-0.005 0,-0.01 0,-0.01 0,0 -0.006,-0.005 -0.006,-0.015zm-0.242 0.015l0.029 0.01 -0.02 0.029 -0.029 -0.024 0.01 -0.01 0.01 0 0 -0.005zm-0.107 0.019c-0.005,0.01 -0.01,0.015 -0.015,0.02 -0.005,-0.005 -0.01,0 -0.01,0.005 0,-0.005 0,-0.01 -0.005,-0.01l-0.01 -0.01c0.015,-0.01 0.024,-0.005 0.039,-0.005zm0.383 0.015l0.019 -0.015 0.039 0.029 -0.058 -0.015zm1.891 0.054l0.005 -0.005 0.029 -0.01c0.01,0.005 0.015,0.005 0.015,0.01 0,0 0.005,0 0.01,0.005 0.005,0.005 0.01,0.005 0.01,0.005l0.005 0.005c0.01,0.034 -0.063,0.039 -0.073,0.01 -0.01,-0.005 -0.01,-0.015 0,-0.019zm-1.935 0.024c-0.005,0 -0.01,0 -0.01,-0.005 0,0 0,-0.005 -0.005,-0.005l0 -0.015 0.049 0.01 0.01 0.02c-0.02,0 -0.035,0 -0.044,-0.005zm-0.319 -0.02c0.005,0.005 0.005,0.005 0.005,0.01l0.005 0 0.005 0.005 -0.025 0c0,-0.01 0.005,-0.015 0.01,-0.015zm-0.068 0.054l0.02 -0.034c0.005,0.005 0.015,0.005 0.034,0.005 0,0 0,0.005 0.005,0.005 0,0.005 0.005,0.005 0.005,0.01l0.02 -0.005c0.01,0.029 -0.005,0.034 -0.025,0.039 -0.01,0.01 -0.024,0.005 -0.044,-0.005 -0.005,-0.005 -0.01,-0.005 -0.01,-0.005 -0.005,0 0,-0.005 -0.005,-0.005l0 -0.005zm-0.063 0.01l0.029 0.015c-0.005,0.015 -0.01,0.02 -0.015,0.02 -0.01,0.005 -0.01,0.005 -0.01,0.01 -0.024,0 -0.039,-0.005 -0.044,-0.024 0.01,-0.01 0.029,-0.015 0.039,-0.02zm0.435 0.029l-0.029 -0.015 0.005 -0.005 0.025 0.01 0 0.01zm-0.305 -0.005l0 0.025 -0.025 -0.005 0.005 -0.024 0.02 0.005zm0.232 0.068l-0.01 0c-0.01,-0.005 -0.01,0 -0.015,0l-0.005 0 -0.025 -0.01c-0.005,-0.005 -0.005,-0.01 0,-0.015l0 -0.005c-0.005,-0.005 -0.005,-0.005 -0.005,-0.01 0,0 -0.005,-0.005 -0.005,-0.01 0.01,0.01 0.024,0.015 0.034,0.02l0.044 0.01c-0.005,0 -0.01,0.005 -0.01,0.005 0.005,0.01 0.005,0.01 -0.005,0.015zm-0.31 0.01l0.015 0 -0.005 0.024c-0.015,0 -0.029,-0.01 -0.034,-0.01l-0.015 -0.005 -0.015 0c-0.005,-0.01 -0.01,-0.019 0,-0.039l0.034 0.024c0.01,0 0.015,0.005 0.02,0.005zm2.356 -0.029l0.02 0.024 -0.02 0.005 -0.019 -0.02 0.019 -0.01zm-2.356 0.111c0.005,-0.005 0.005,-0.005 0,-0.005l-0.01 -0.01 0.005 -0.034c0.025,0.005 0.039,0.005 0.044,0.005l0.025 -0.039c0.019,-0.005 0.034,0 0.044,0 0,0.01 0,0.01 -0.01,0.02l-0.005 0.005 0.01 0c0.01,0.005 0.024,0.025 0.024,0.034 -0.058,0.01 -0.073,0.015 -0.116,0.034l-0.01 -0.01zm1.33 -0.053c-0.01,0 -0.015,0 -0.02,-0.005l-0.02 0 0.01 -0.024 0.029 0 0 0.029zm-1.451 0.044c0,0 -0.005,-0.005 0,-0.01l-0.005 0c0.005,-0.005 0.01,-0.01 0.01,-0.015l0 -0.01c-0.005,-0.005 -0.01,-0.015 -0.005,-0.029l0.034 0.015 0.005 0 0 0.005c0.005,0.005 0.015,0.01 0.015,0.02 0.005,0.015 0.005,0.029 0.005,0.034l-0.044 -0.01c-0.005,-0.005 -0.01,0 -0.015,0zm0.116 0.063l-0.015 0.019c-0.024,-0.019 -0.029,-0.01 -0.034,0.005 0,0.005 -0.005,0.005 -0.01,0.01 0,0 -0.005,0.005 -0.01,0.005 -0.015,-0.01 -0.02,-0.02 -0.024,-0.034l0.039 -0.044c0.005,0 0.01,0 0.015,0.005l0 -0.005c-0.01,0 -0.01,-0.005 -0.015,-0.01l0.015 -0.024 0.039 0.015c-0.005,0.01 -0.005,0.015 0,0.015l0 0.015c0,0.005 0.005,0.015 0,0.029zm-0.16 -0.015l-0.029 -0.02 0.005 -0.005c0,0 0,-0.005 0.005,-0.01l0.005 0.005 0.02 0.005 -0.005 0.025zm2.675 -0.034c0.019,0.02 0.005,0.034 -0.015,0.034l-0.015 0c0,-0.025 0.01,-0.034 0.029,-0.034zm-2.636 0.034c-0.005,-0.01 -0.01,-0.02 -0.02,-0.029 0.015,0 0.029,0 0.039,0.015l-0.019 0.015zm2.142 0l-0.005 -0.015 0.01 0 0.005 0.015 -0.01 0zm0.528 0c0.01,-0.005 0.015,-0.01 0.02,-0.015 0.015,0.005 0.02,0.01 0.02,0.024l-0.034 0.015c-0.005,-0.01 -0.01,-0.015 -0.005,-0.024zm-0.121 0.058c-0.005,0.005 -0.005,0.015 -0.015,0.019 0,0 0,0.005 -0.005,0.005l0 0.005c-0.005,0 -0.005,0.01 -0.01,0.019 -0.005,-0.01 -0.015,-0.015 -0.029,-0.015l0.034 -0.048 0.02 0.01 0.005 0.005zm-2.429 0.048l-0.024 -0.005c0,-0.005 0.01,-0.01 0.015,-0.02 0.01,0.005 0.015,0.015 0.01,0.024zm-0.024 0.063l-0.015 0 0.005 -0.024 0.019 0.005c0,0.01 -0.005,0.02 -0.01,0.02zm0.992 0.078c-0.005,0 -0.01,0 -0.01,-0.01 0,-0.005 0.005,-0.01 0.01,-0.01 0,0 0.005,0 0.005,0.005 0,0 -0.005,0.005 -0.005,0.015zm-1.258 0.01c0.015,0.005 0.02,0.01 0.02,0.015 0,0.005 -0.01,0.005 -0.02,0.01 -0.005,-0.005 -0.01,-0.015 -0.01,-0.025l0.01 0zm3.12 0c0.005,0 0.01,0 0.01,0.01 0,0.005 0,0.005 -0.005,0.01 -0.015,0.01 -0.02,-0.02 -0.005,-0.02zm-2.96 0.029l-0.01 -0.01 0.015 0 -0.005 0.01zm2.501 0.005l-0.01 -0.015 0.005 0 0.015 0.01 -0.01 0.005zm-2.709 0.02c0.01,-0.005 0.025,-0.005 0.034,-0.005 0.01,0.005 0.02,0.01 0.02,0.015 0.005,0 0.01,0.005 0.005,0.01l-0.015 0.01c-0.005,0 -0.01,0 -0.015,-0.005l-0.015 0c-0.005,-0.01 -0.01,-0.015 -0.019,-0.015l0.005 -0.01zm0.204 0.01l-0.005 0 -0.005 -0.015 0.01 0.005 0 0.01zm-0.088 0.029l-0.005 0c-0.005,-0.015 0,-0.02 0.01,-0.02 -0.005,0.005 0,0.005 0,0.005l0.005 0.01c0,0.005 -0.005,0 -0.01,0.005zm-0.164 0.203l-0.049 -0.063c-0.005,0.005 -0.005,-0.005 -0.01,-0.005 -0.01,-0.005 -0.015,-0.005 -0.015,-0.01 -0.015,-0.019 -0.039,-0.034 -0.073,-0.048l-0.02 -0.015c-0.02,-0.015 -0.02,-0.015 -0.005,-0.044l0.31 0.276c-0.015,0.01 -0.116,-0.063 -0.14,-0.092zm6.205 -3.051c-0.024,-0.019 -0.044,-0.029 -0.073,-0.029l-0.653 0c-0.063,0 -0.092,0.029 -0.097,0.092l-0.068 1.156 -0.45 0.019c0.01,0 0.02,0.005 0.024,0.005 0,0 -0.005,0.02 -0.019,0.02 -0.015,0 -0.025,-0.005 -0.025,-0.01l-0.01 -0.015 -0.189 0.005 0.078 -1.156c0.005,-0.053 -0.039,-0.102 -0.102,-0.102l-0.62 0.015c-0.063,0 -0.092,0.034 -0.097,0.092l-0.213 3.157c0,0.063 0.039,0.107 0.102,0.107l0.711 -0.015c0.068,0 0.097,-0.034 0.097,-0.097l0.02 -1.151c0.106,-0.039 0.218,-0.078 0.334,-0.107 0.024,-0.005 0.048,-0.01 0.073,-0.01 0.019,-0.005 0.044,-0.01 0.068,-0.01l0.087 -0.015c0.029,-0.005 0.058,-0.005 0.092,-0.01l-0.054 1.015c0.01,0.01 0.02,0.01 0.02,0.02 -0.01,0.005 -0.015,0.01 -0.02,0.01l-0.005 0.136 0.015 0 0 0.015c0,0.005 -0.01,0.01 -0.02,0.015l0 0.058c0,0.058 0.044,0.097 0.097,0.097l0.716 0c0.068,0 0.097,-0.029 0.097,-0.097 0,-0.484 0,-0.977 0.015,-1.47 0.015,-0.556 0.053,-1.112 0.092,-1.663 0.005,-0.029 -0.005,-0.053 -0.024,-0.078zm-1.606 0.203c-0.005,0 -0.015,0 -0.02,-0.005l-0.015 -0.01c-0.078,0 -0.131,-0.005 -0.165,-0.005 -0.034,0 -0.049,-0.005 -0.053,-0.005 -0.005,0 -0.02,0.005 -0.034,0.005l-0.034 0.01c-0.029,0 -0.058,-0.01 -0.082,-0.02 0.019,-0.005 0.029,-0.01 0.039,-0.005 0.01,0 0.02,-0.01 0.034,-0.025l0.039 0 0 0.015c0,0.005 0.005,0.005 0.015,0.005l0.029 0c0.015,0 0.034,0 0.049,-0.005l0.029 0c0.015,0 0.034,-0.005 0.044,-0.005l0.01 0c0,0 0.073,0.01 0.092,0.01 0.02,0.01 0.03,0.015 0.039,0.024l-0.015 0.015zm-0.494 0.049c-0.015,0 -0.024,-0.005 -0.029,-0.015l0 -0.049c0.005,0 0.01,-0.005 0.015,-0.005 0.01,0 0.02,-0.005 0.029,-0.005l0 0.015c0,0 -0.005,0.005 -0.005,0.01 0,0.01 0.005,0.01 0.01,0.015 0.005,0.005 0.015,0.005 0.015,0.015 -0.02,0.01 -0.029,0.02 -0.034,0.02zm0.044 0.068l0.015 0 0 0.025 -0.015 0 0 -0.025zm1.364 0.039c0,0.005 0.005,0.005 0.01,0.01l-0.025 0.02c-0.005,-0.005 -0.019,-0.02 -0.019,-0.029l0.034 0zm0.248 0.024l0.015 0 0 0.02 -0.015 0 0 -0.02zm-0.092 0.073l0.015 0 0 0.01 -0.015 0 0 -0.01zm-0.024 0.083l0.01 0 0 0.019 -0.01 0 0 -0.019zm-1.408 0.077l0.01 -0.01 0.005 0 -0.005 0.015 -0.01 -0.005zm0.281 0.092l-0.01 0 -0.049 -0.02 0 -0.029 0.024 -0.015 0.02 0c0.005,0.005 0.005,0.01 0.005,0.02 -0.005,0.005 -0.005,0.015 0,0.02 0.01,0.005 0.015,0.015 0.015,0.019l-0.005 0.005zm1.016 -0.053l-0.034 0 0 -0.01 0.034 0 0 0.01zm0.03 0.053l0 0.01 -0.039 0 0 -0.01 0.039 0zm0.223 0.276l0.024 0.024c-0.005,0 -0.015,-0.01 -0.029,-0.019 -0.01,-0.005 -0.019,-0.015 -0.019,-0.02l0.024 0.015zm-0.813 0.324c-0.005,0.005 -0.005,0.01 -0.005,0.01 0.005,0.005 -0.005,0 -0.024,-0.01 -0.01,-0.005 -0.015,-0.01 -0.015,-0.015l0 -0.01c0.005,0.005 0.005,0 0.01,-0.005 0.01,0 0.024,0.005 0.039,0.019 0,0 -0.005,0.005 -0.005,0.01zm0.126 0l0.01 0.01 -0.01 0 -0.01 -0.005 0.01 -0.005zm-0.247 0.068c0,-0.005 0.005,-0.015 0.015,-0.02l0.029 0c-0.01,0.02 -0.024,0.025 -0.044,0.02zm0.15 0.005l0.005 -0.005 0 -0.005 0.039 0 0.005 0.005c0,0.005 0.005,0.005 0.005,0.01l-0.015 0.015c-0.01,0 -0.02,-0.01 -0.039,-0.019zm-0.054 0.073c-0.005,0.005 -0.01,0.005 -0.01,0.01l-0.015 -0.024c-0.005,-0.025 -0.01,-0.025 0.01,-0.029 0.025,-0.01 0.034,-0.01 0.034,-0.01 0,0.005 0,0.005 0.005,0.005 0,0.005 0.005,0.01 0.005,0.015 0,0.01 -0.019,0.024 -0.029,0.034zm-0.063 -0.034l-0.025 0 0 -0.01 0.025 0 0 0.01zm0.382 0.034c-0.005,0.01 -0.024,0.015 -0.063,0.019 -0.01,-0.005 -0.01,-0.01 -0.01,-0.024 0,-0.01 0.034,-0.029 0.039,-0.034 0.01,0.01 0.019,0.015 0.029,0.015 0.01,0 0.019,-0.005 0.029,-0.015 0,0.005 0.01,0.005 0.019,0.005 -0.029,0.015 -0.039,0.029 -0.044,0.034zm0.141 -0.015l-0.015 0.015c0,0 -0.005,0 -0.005,-0.005 0,0 -0.005,0 -0.005,-0.01l0.025 0zm-0.547 0.029l-0.015 -0.015 0.005 0c0.005,0 0.005,-0.005 0.01,-0.005 0,0 0.005,0.005 0.005,0.01 -0.005,0 -0.005,0.005 -0.005,0.01zm0.3 0.126c-0.015,-0.01 -0.034,-0.024 -0.058,-0.029 -0.025,-0.01 -0.034,-0.02 -0.039,-0.029l-0.029 -0.005c0,-0.01 0.01,-0.019 0.025,-0.019l0.005 -0.005 0.005 0c0.005,-0.005 0.01,-0.01 0.015,-0.01l0.024 0 0 0.005c0.01,0 0.034,0 0.034,-0.029 0,0.015 0.02,0.029 0.044,0.029 0,0 0.005,-0.005 0.01,-0.005l0.029 0c-0.01,0.005 -0.029,0.034 -0.029,0.044 -0.005,-0.015 -0.015,-0.02 -0.024,-0.02 -0.015,0 -0.029,0.005 -0.044,0.015 0.01,0.01 0.02,0.015 0.029,0.015 0.01,0 0.01,0 0.01,-0.005l0.01 0c0.019,0 0.034,0.01 0.048,0.03l0 0.019 -0.063 0zm0.16 -0.111l0 0.005 -0.029 -0.01 0.01 -0.005 0.02 0.01zm-0.489 0.048c0,-0.005 0.005,-0.01 0.01,-0.01l0.015 0.01 -0.025 0zm0.508 0.01c0.015,0 0.025,0.005 0.029,0.015l-0.039 0 0.01 -0.015zm0.16 0.034c-0.005,-0.005 -0.01,-0.005 -0.019,-0.01l0.01 -0.024c0.024,0 0.034,0.005 0.044,0.005l0.015 0c0.005,0.005 0.01,0.005 0.015,0.005l0.01 0.01c-0.005,0.005 -0.01,0.005 -0.01,0.005 -0.005,0.005 -0.01,0.005 -0.015,0.005 -0.01,0.005 -0.02,0.005 -0.03,0.005l-0.02 0zm-0.599 0.024l-0.01 0 0 -0.015 0.01 0 0 0.015zm0.454 0.01l0 -0.01 0.025 0 0 0.01 -0.025 0zm-0.213 0.029l-0.01 0 0 -0.015 0.01 0 0 0.015zm0.111 0.078c-0.01,0.01 -0.015,0.015 -0.024,0.015l-0.02 -0.005c-0.005,0 -0.005,-0.005 -0.01,-0.005 0,0 -0.005,0 -0.005,-0.005l0.005 -0.024c0.015,0.005 0.029,0.01 0.039,0.01l0.034 0c-0.005,0 -0.01,0.005 -0.02,0.015zm0.078 0.01c0.01,0 0,0 -0.02,-0.01l0.01 -0.015 0.044 0 0 0.024c0,0 -0.005,0.005 -0.015,0.005l-0.02 -0.005zm0.301 0.025l0.005 -0.005 0.049 0c0.005,0.01 0.01,0.015 0.015,0.015l-0.015 0.015 -0.053 -0.005 0 -0.019zm0.155 0.082c-0.005,0 -0.005,-0.005 -0.005,-0.015 0,-0.01 0.005,-0.015 0.02,-0.015 0,0.005 0.005,0.005 0.005,0.01 0,0 0.005,0.005 0.01,0.005 -0.02,0.024 -0.02,0.02 -0.029,0.015zm-0.325 -0.015c-0.005,0.005 -0.005,0.015 -0.015,0.02l-0.01 -0.025c0.01,0 0.019,0 0.024,0.005zm0.595 0.145c-0.015,0.005 -0.034,-0.005 -0.034,-0.015l0 -0.087 0.034 0 0 0.102zm-0.401 0.005l-0.005 0.019 -0.01 0 0.005 -0.019 0.01 0zm-1.331 0.044l0.025 0c0.015,0 0.024,0 0.039,-0.005l0 0.005 0.005 0.005 0 0.005c-0.005,0 -0.015,-0.005 -0.029,-0.005 -0.015,0 -0.03,-0.005 -0.039,-0.005zm0.083 0.034l0 -0.019 0.01 0 0.005 -0.005c0,0 0.005,-0.005 0.01,-0.005 0.01,0 0.02,0 0.024,0.005l0 0.015c-0.005,0.005 -0.019,0.01 -0.039,0.01l-0.01 0zm-0.257 0.01l0.078 -0.02c0,0 0,0.005 0.01,0.01 0.01,0.005 0.01,0.01 0.01,0.02 0,0.01 -0.005,0.02 -0.019,0.029 -0.01,0.005 -0.02,0.01 -0.025,0.015 -0.005,0.005 -0.01,0.005 -0.015,0.005 -0.005,-0.005 -0.01,-0.02 -0.019,-0.029 -0.005,-0.01 -0.01,-0.02 -0.02,-0.029zm0.315 0.019l0.005 0 0.015 0.005 -0.01 0.005 -0.01 -0.01zm1.123 0.121l-0.005 0.005 -0.024 0 -0.01 -0.029 0.025 0c0,0 0.005,0 0.015,0.01 0.005,0.005 0.01,0.01 0.01,0.015l-0.01 0zm-1.089 0.039l-0.024 0 0 -0.015 0.039 0 -0.015 0.015zm1.133 0.068l0.015 0c0.005,0.005 0.01,0.015 0.01,0.019l0 0.015 -0.024 0 0 -0.034zm-1.22 0.019c0.01,0 0.025,0.01 0.025,0.015 -0.02,0.01 -0.029,0.015 -0.034,0.02l-0.024 0c0.005,-0.01 0.015,-0.02 0.034,-0.034zm0.9 0.044c0,-0.01 0.01,-0.015 0.02,-0.019l0.02 0.01 0 0.005c0,0.005 0,0.005 -0.01,0.005l-0.029 0zm0.378 0.029c0.005,-0.015 0.015,-0.019 0.024,-0.019 0,0.005 -0.01,0.019 -0.024,0.019zm-1.713 0.107l0.01 0 0 0.015 -0.01 0 0 -0.015zm0.45 0.078c0,0 0,-0.01 -0.005,-0.02 0,-0.005 -0.005,-0.01 -0.005,-0.015 0,-0.01 0.005,-0.015 0.005,-0.015 0.005,0 0.005,0 0.01,-0.005 0.02,0.005 0.024,0.015 0.024,0.025 0,0.01 -0.01,0.019 -0.029,0.029zm0.876 -0.025c0,-0.005 0.01,-0.01 0.02,-0.015l0.019 0 0 0.015c-0.005,0 -0.01,0 -0.015,0.005 -0.005,0 -0.015,0 -0.024,-0.005zm-1.316 0l-0.01 -0.005 0.01 -0.005 0.01 0.005 -0.01 0.005zm1.761 0.005l0.005 0c0,-0.005 0,-0.005 0.005,-0.005l0.005 0.005c0,0 0,0.005 0.005,0.005l0 0.005 -0.019 0.01c0,-0.005 0,-0.005 -0.005,-0.01 -0.005,-0.005 -0.005,-0.005 0.005,-0.01zm-0.034 0.087c-0.015,0 -0.02,0 -0.024,0.005l0 -0.015c-0.005,-0.01 -0.005,-0.02 -0.005,-0.039 0.005,0 0.01,0.005 0.015,0.01l0.015 0.015 0 0.024zm-1.601 -0.015c-0.005,-0.005 -0.01,-0.005 -0.02,-0.005 -0.005,0 -0.005,-0.005 -0.005,-0.015l0.025 0c0.005,0.005 0.01,0.005 0.01,0.005 0,0.01 0,0.015 -0.01,0.015zm0.31 0.01l-0.01 0c-0.005,0 -0.01,0 -0.01,-0.005 0.01,-0.005 0.01,-0.01 0.01,-0.015 0.005,0 0.005,0.005 0.01,0.01 0.005,0.005 0.005,0.01 0,0.01zm1.49 0.044c-0.01,-0.005 -0.019,-0.005 -0.034,-0.005l-0.02 0c0,0.005 -0.005,0.005 -0.015,0.005 -0.01,-0.01 -0.01,-0.019 -0.015,-0.029 0,-0.005 -0.005,-0.015 -0.01,-0.029 0.015,0 0.024,-0.005 0.034,0l0.015 0c-0.005,0 -0.005,0.005 -0.005,0.005l-0.005 0.005c-0.005,0.005 -0.005,0.01 -0.005,0.015l0.015 0.005 0.005 0c0,-0.005 0.005,-0.005 0.005,-0.005 0.01,-0.005 0.015,-0.01 0.019,-0.01 0.005,0 0.01,0.005 0.015,0.01 0,0.005 0.005,0.005 0.01,0.01l-0.01 0.024zm-1.64 -0.019c-0.005,0 -0.015,0 -0.015,-0.005 -0.01,0 -0.015,-0.005 -0.02,-0.005 0.005,-0.019 0.015,-0.029 0.034,-0.029 0.01,0 0.015,0.005 0.019,0.005 0,0.005 0.005,0.005 0.01,0.005 0.01,0 0.019,0 0.019,-0.005 0.005,-0.005 0.01,-0.005 0.01,-0.005 -0.015,0.02 -0.044,0.039 -0.058,0.039zm1.476 -0.01c0,-0.01 0.01,-0.015 0.024,-0.019l0.005 0.019 0 0.01 -0.029 -0.01zm-0.039 0.058l-0.01 0.01 -0.01 0c-0.01,0 -0.015,0.005 -0.02,0.005 -0.005,0.005 -0.01,0.005 -0.015,0.005 -0.01,0 -0.015,-0.005 -0.02,-0.01 -0.005,0 -0.005,-0.01 -0.015,-0.02l0.029 0c0.01,-0.005 0.02,0 0.025,0.005 0.005,0 0.01,-0.01 0.015,-0.025l0.019 0.015 0 0.015zm-1.253 -0.015l0.01 -0.01 0.005 0.005c0,0 0,0.005 0.005,0.005l-0.02 0zm1.016 0.02l-0.01 -0.005 0.01 -0.005 0.01 0.005 -0.01 0.005zm-1.228 0.068l-0.044 0c0,-0.005 -0.005,-0.005 -0.005,-0.005 -0.005,0 -0.005,-0.005 -0.005,-0.01 0,-0.01 0.01,-0.02 0.02,-0.025 0.01,0.005 0.02,0.005 0.029,0.005 0.01,0.005 0.02,0.01 0.02,0.02 0,0.005 -0.005,0.01 -0.015,0.015zm1.524 -0.005c0.005,0.005 0.015,0.01 0.02,0.01 0.01,0 0.015,0 0.024,0.01 -0.005,0 -0.005,0.005 -0.005,0.01 -0.005,0.005 -0.01,0.005 -0.02,0.005 -0.01,0 -0.024,-0.005 -0.039,-0.015l0.019 -0.02zm-1.79 0.02l0.01 0 0 0.024 -0.01 0 0 -0.024zm0.58 0.024l-0.024 0 0 -0.01 0.024 0 0 0.01zm1.007 -0.005c0.005,0 0.01,0.005 0.02,0.01 0,0.005 0.005,0.01 0.015,0.015 -0.024,0 -0.034,-0.005 -0.034,-0.025zm0.078 0.083c-0.005,-0.015 0.01,-0.044 0.01,-0.049 0,0.005 0,0.015 0.005,0.02 0.005,0.015 0.005,0.024 0.01,0.029l-0.024 0zm-0.349 -0.034l0.005 -0.005 0.005 0c0.01,0 0.02,0.005 0.02,0.01 -0.01,0.005 -0.015,0.005 -0.02,0.005l-0.005 0 0 -0.005 -0.005 -0.005zm-1.374 0.034c-0.01,0.005 -0.015,0.005 -0.015,0.005 -0.024,0 -0.044,-0.005 -0.053,-0.019 0,-0.01 0.005,-0.015 0.015,-0.015 0.019,0 0.034,0.005 0.053,0.01l0 0.02zm1.911 0.063c-0.01,0.005 -0.015,0.015 -0.01,0.025 -0.005,0 -0.01,0 -0.01,0.005l-0.01 0c-0.005,-0.01 -0.01,-0.015 -0.005,-0.019 0,-0.005 -0.01,-0.005 -0.019,-0.005 0,-0.005 0.01,-0.015 0.029,-0.024l0.015 -0.01c0.005,0 0.01,-0.005 0.015,-0.01l0.01 0.02c0,0.01 -0.005,0.015 -0.015,0.019zm-1.838 0.034c-0.005,0.005 -0.005,0.01 -0.005,0.015 -0.005,0.01 -0.005,0.015 -0.005,0.024l0 -0.053 0.015 0c-0.005,0.01 -0.005,0.01 -0.005,0.015zm1.441 0.005l-0.01 0.01c-0.005,0 -0.025,0 -0.015,-0.015l0.024 0.005zm0.33 0.068c-0.005,0 -0.01,0 -0.015,-0.01 0,-0.005 0.005,-0.01 0.01,-0.01l0.024 0c0,0.005 0.005,0.01 0.01,0.01l-0.015 0.015c-0.01,-0.005 -0.015,-0.005 -0.015,-0.005zm0.121 0.02l-0.01 0 0 -0.025 0.01 0 0 0.025zm-0.61 0.019c-0.01,0 -0.02,-0.015 0,-0.024 0.01,0.005 0.02,0.005 0.02,0.005 0.01,0 0.019,0.005 0.029,0.01l-0.049 0.01zm0.049 0.068c-0.01,-0.01 0,-0.049 0.019,-0.058 0.015,0.005 0.025,0.01 0.029,0.01 0.01,0 0.01,-0.005 0.02,-0.005 0.005,-0.005 0.01,-0.005 0.015,-0.005l0.005 0 0 0.01c-0.015,0.015 -0.029,0.024 -0.044,0.029 -0.015,0 -0.029,0.01 -0.044,0.02zm0.397 0.019l0 -0.015 0.015 0c0,0.005 0.005,0.005 0.015,0.01 -0.015,0.005 -0.025,0.005 -0.029,0.005zm0.126 0.02c-0.01,0.005 -0.024,0.01 -0.049,0.015l-0.005 -0.005c0,-0.005 -0.005,-0.01 -0.005,-0.01l0 -0.015c0,-0.005 0.005,-0.005 0.005,-0.005 0,-0.005 0.005,-0.005 0.01,-0.005 0.005,0 0.015,0 0.02,0.005 0.01,0.005 0.015,0.01 0.024,0.01l0 0.01zm-0.397 0.034l-0.02 0c-0.019,0 -0.044,-0.02 -0.044,-0.029 0,-0.005 0.005,-0.015 0.015,-0.025 0.02,0.02 0.044,0.029 0.068,0.029 -0.01,0.015 -0.015,0.025 -0.02,0.025z"/>
   <path class="fil58" d="M19.039 3.795c0.039,-0.503 -0.024,-0.856 -0.169,-1.165 -0.15,-0.305 -0.465,-0.527 -0.89,-0.527 -0.198,0 -0.378,0.058 -0.542,0.169 -0.43,0.305 -0.6,0.861 -0.677,1.359 -0.01,0.048 -0.015,0.102 -0.02,0.145 0.005,0.005 0.01,0.01 0.01,0.015 0.005,0.01 0.01,0.029 0.01,0.044 -0.005,0.01 -0.005,0.024 -0.005,0.034l0 0.097c0,0.005 0,0.015 0.005,0.02l0 0.034c0,0.01 0,0.02 0.005,0.034l0 0.029 -0.01 0.02c-0.01,0.082 -0.015,0.111 -0.034,0.145 0.005,0.106 0.015,0.213 0.034,0.314l0 -0.01c0.01,0.005 0.015,0.01 0.015,0.015 -0.005,0.005 -0.005,0.01 -0.005,0.015l-0.005 0.01c0.039,0.189 0.107,0.353 0.199,0.493 0.005,0.015 0.015,0.025 0.024,0.039l0.01 0 0 0.01c0.189,0.261 0.445,0.392 0.779,0.392 0.363,0 0.658,-0.15 0.88,-0.45l0.068 -0.092 -0.01 -0.015 0.03 -0.024 0.005 0c0.063,-0.107 0.116,-0.232 0.164,-0.368l-0.015 -0.01c0,-0.01 0.015,0.005 0.02,-0.01 0.015,-0.034 0.02,-0.048 0.024,-0.077l-0.029 0 0 -0.005 0.029 0 0.034 -0.14c-0.015,-0.005 -0.024,-0.01 -0.024,-0.02l-0.029 0c-0.005,-0.005 -0.015,-0.005 -0.025,-0.005l0 -0.005c0,0 0,-0.01 0.005,-0.015l0.044 0c0,0.005 0.005,0.01 0.015,0.019l0.015 0.015c0.024,-0.126 0.058,-0.338 0.068,-0.512l-0.005 0 0 -0.015 0.005 0zm-0.842 -1.523c0.015,0.005 0.029,0.01 0.044,0.01l0.02 0c0.005,0.005 0.01,0.005 0.019,0.005l0 0.005 0.01 0.01 -0.034 0.01c-0.015,0 -0.034,0.005 -0.044,0.005 -0.01,0 -0.02,-0.005 -0.029,-0.02 0,-0.01 0.005,-0.015 0.015,-0.024zm0.01 0.053l0 0.015c-0.005,0.01 0.005,0.025 0.029,0.02 0.005,0 0.005,0 0.01,-0.005l0.015 0c0.01,0 0.019,-0.005 0.029,-0.015 0.01,-0.01 0.015,-0.015 0.019,-0.015 0.005,-0.005 0.005,-0.01 0.005,-0.015 0,-0.01 0,-0.015 0.005,-0.019 0.005,0.005 0.015,0.01 0.029,0.01 0.01,0 0.019,0 0.019,0.005 -0.01,0.015 -0.019,0.019 -0.029,0.019 -0.01,0 -0.019,0.005 -0.029,0.01 0,0.01 -0.005,0.015 -0.005,0.015 0,0.005 -0.005,0.01 -0.015,0.01 -0.005,0 -0.02,0.005 -0.049,0.005 -0.015,0.01 -0.02,0.019 -0.01,0.024 0.005,0.005 0,0.01 -0.01,0.01 -0.029,0 -0.039,-0.005 -0.044,-0.019 0,-0.015 -0.01,-0.02 -0.024,-0.025 0.005,-0.01 0.029,-0.024 0.053,-0.029zm-0.532 0.005c0,0 0.005,0.005 0.005,0.01 0.005,0 0.005,0.005 0.005,0.005 -0.005,0.005 -0.015,0.01 -0.019,0.01 -0.01,0 -0.015,-0.005 -0.015,-0.005 -0.005,0 -0.005,-0.005 -0.005,-0.01 0,0 0,-0.005 -0.005,-0.005 -0.005,-0.005 -0.015,-0.005 -0.034,-0.005l0.068 0zm0.093 0l0.048 0 -0.024 0.02 -0.024 0 0 -0.02zm0.324 0.01l0.034 0 0 0.01 -0.034 0 0 -0.01zm0.319 0.015l0.025 0 0 0.01 -0.025 0 0 -0.01zm-0.556 0.034c-0.005,0.005 -0.01,0.01 -0.02,0.01 -0.015,0 -0.029,-0.01 -0.034,-0.024l0 -0.005 0.005 0 0 -0.005 0.029 0c0,0.015 0.005,0.024 0.02,0.024zm0.358 1.576c-0.005,0 -0.005,0 -0.01,-0.005 -0.02,0.189 -0.058,0.368 -0.116,0.537 -0.049,0.145 -0.131,0.281 -0.3,0.252 -0.03,0 -0.049,-0.01 -0.068,-0.02 -0.126,-0.077 -0.14,-0.329 -0.14,-0.459 0,-0.348 0.024,-0.73 0.121,-1.069 0.034,-0.131 0.122,-0.387 0.276,-0.43 0.087,-0.02 0.15,0.02 0.189,0.111 0.015,0.029 0.029,0.068 0.039,0.116 0.005,-0.01 0.015,-0.015 0.029,-0.019 0.01,0.01 0.01,0.019 0.01,0.024l-0.029 0 -0.005 -0.005 -0.005 0c0.019,0.092 0.029,0.189 0.034,0.295 0.005,0.213 -0.005,0.411 -0.024,0.634 0.015,0 0.039,0.015 0.029,0.01 -0.005,0.005 -0.01,0.015 -0.01,0.02 0,0.005 -0.01,0.005 -0.015,0.005 0,0 0,0.005 -0.005,0.005zm-0.503 -0.972c-0.01,0.005 -0.02,0.01 -0.029,0.01l-0.01 -0.024 0.034 0c0,0 0.005,0.01 0.005,0.015zm0.619 0.29l-0.039 0c-0.01,-0.005 -0.02,-0.015 -0.02,-0.02 0,-0.005 0.01,-0.01 0.02,-0.015l0.019 -0.015c0.005,-0.005 0.005,-0.005 0.005,-0.015 0,-0.005 0,-0.01 0.005,-0.01 0.019,0 0.034,0.005 0.048,0.015l0 0.044 -0.019 0.01c-0.01,0 -0.02,0.005 -0.02,0.005zm0.082 0.015l0.015 0.01c0.01,0.005 0.01,0.01 0.01,0.01 -0.005,0 -0.01,0 -0.015,0.005l-0.01 0 0 -0.024zm-0.131 0.261c0.015,0 0.029,0.005 0.039,0.015l0 0.01c-0.005,0.005 -0.01,0.005 -0.01,0.005 -0.01,0 -0.019,0 -0.029,-0.005 -0.01,0 -0.019,-0.005 -0.029,-0.005l0 -0.01c0,-0.005 0.015,-0.01 0.029,-0.01zm-1.456 0.063c0,0 -0.005,-0.005 -0.015,-0.005 -0.005,-0.005 -0.01,-0.005 -0.01,-0.01 0,-0.01 0.01,-0.019 0.025,-0.034 0.005,0.01 0.005,0.015 0.005,0.024 -0.005,0.01 -0.005,0.02 -0.005,0.024zm1.577 -0.044l-0.005 0.005 0 0.005 -0.015 0c-0.005,0 -0.01,-0.005 -0.015,-0.01 0.01,-0.005 0.015,-0.005 0.02,-0.005 0.01,0 0.015,0 0.015,0.005zm0.624 0.029c-0.015,0 -0.029,0 -0.039,0.005 0,-0.005 0.005,-0.005 0.005,-0.01l0.01 -0.01 0.049 0.01c-0.005,0 -0.015,0 -0.025,0.005zm-0.581 0.01l0.015 0 0 0.024 -0.015 0 0 -0.024zm-0.136 0.01l0.01 0.029 -0.025 0.015c-0.015,0.005 -0.024,0.01 -0.024,0.015 -0.005,-0.01 -0.01,-0.01 -0.01,-0.01 -0.005,0 -0.01,0 -0.01,-0.005l0 -0.015c0.015,-0.01 0.039,-0.02 0.058,-0.029zm0.174 0.029c0.01,-0.005 0.01,-0.01 0.01,-0.02 0.01,0.02 0.01,0.029 0.01,0.039l-0.034 0c0,-0.005 0.005,-0.01 0.015,-0.02zm-1.669 0.02l-0.01 0 0 -0.02 0.01 0 0 0.02zm1.877 0.049c0.01,0 0.015,-0.005 0.02,-0.01 0.015,0.01 0.015,0.02 0,0.034 -0.01,-0.015 -0.02,-0.02 -0.034,-0.02 0,0 0.005,-0.005 0.015,-0.005zm-0.3 0.087c-0.015,-0.005 -0.029,-0.015 -0.039,-0.029 -0.01,-0.01 -0.015,-0.02 -0.015,-0.02 0,-0.005 0,-0.01 0.005,-0.02 0.005,-0.005 0.005,-0.01 0,-0.015 0,0 0.01,0 0.015,-0.005 0.01,0 0.01,-0.005 0.01,-0.005 0.015,0.015 0.02,0.024 0.015,0.034 0,0.015 0.005,0.029 0.025,0.039 0,0.005 -0.005,0.01 -0.015,0.02zm-0.121 -0.063c0,0 -0.005,0.005 -0.01,0.005 0,0 -0.005,0 -0.01,0.005 -0.01,-0.005 -0.01,-0.015 0,-0.034 0.005,0 0.02,0.015 0.02,0.024zm0.513 -0.015c0,0.01 -0.005,0.02 -0.01,0.024l-0.01 -0.01c-0.005,-0.005 -0.005,-0.005 -0.005,-0.015l0.024 0zm-0.315 0.034c0,-0.005 0.005,-0.015 0.005,-0.015 0,0.005 0.005,0.01 0.005,0.015 0.005,0.01 0,0.015 -0.01,0.005l0 -0.005zm0.388 -0.015l0.034 0.01 0 0.005 -0.034 -0.005 0 -0.01zm-0.204 0.019l0.01 -0.01c0.025,0.005 0.054,0.015 0.102,0.029 -0.01,0.005 -0.015,0.01 -0.024,0.02 -0.015,0.005 -0.01,0.015 0.01,0.029 -0.024,0.005 -0.044,0 -0.068,-0.01l0.029 -0.029c-0.005,-0.015 -0.015,-0.019 -0.029,-0.019 -0.024,0 -0.034,0.005 -0.039,0.005 0,-0.005 0.005,-0.005 0.01,-0.015zm0.286 -0.01l0.068 0 0 0.01 -0.068 0 0 -0.01zm-0.015 0.039c0.01,-0.005 0.015,-0.005 0.02,-0.005l0 0.01c0.005,0.005 0.005,0.005 0.005,0.01l-0.029 0.005c-0.005,0 -0.01,-0.01 -0.01,-0.02l0.015 0zm0.078 0.025l-0.029 0c0.005,-0.015 0.015,-0.015 0.029,0zm-0.74 0.073l0 -0.039c0.005,-0.01 0.01,-0.019 0.01,-0.029 0,0 0.005,0 0.02,-0.01l0.024 0.015c0.005,0.005 0.015,0.01 0.024,0.015l0.058 0.029c-0.044,0.015 -0.087,0.029 -0.097,0.029 -0.01,0 -0.015,-0.005 -0.02,-0.005 -0.01,-0.005 -0.019,-0.005 -0.019,-0.005zm0.571 -0.068c0,0.01 0,0.015 -0.01,0.015 0,0 0,0.005 -0.01,0.015l-0.024 0c-0.01,-0.005 -0.015,-0.01 -0.015,-0.019 0.015,-0.01 0.034,-0.015 0.058,-0.01zm0.029 0.025c0.01,-0.015 0.01,-0.025 0.01,-0.025 0.01,0 0.049,0.01 0.049,0.025 0,0.005 0,0.01 -0.005,0.015 -0.005,0.005 -0.005,0.01 -0.005,0.015 -0.029,0.005 -0.048,0 -0.058,-0.005l-0.024 0c0,0.005 0.005,0.01 0.01,0.015 0.005,0.005 0.01,0.01 0.02,0.015 -0.024,0 -0.044,0 -0.044,0.015 0,0.005 0.005,0.01 0.015,0.015 0.01,0.01 0.015,0.01 0.02,0.015l-0.015 0.01c-0.005,0.005 -0.005,0.01 -0.005,0.015 0,0.005 0,0.01 0.005,0.01l0.01 0 0 0.019c0.005,0.01 0.01,0.015 0.029,0.015 -0.005,0.005 -0.015,0.01 -0.024,0.015 -0.005,0.01 -0.015,0.01 -0.025,0.015 -0.005,0 -0.015,0.005 -0.029,0.005l-0.034 0.01 0 0.005c0,0.005 0.01,0.01 0.029,0.01l0.01 0c0,0 0,0.025 0.015,0.034 -0.02,0.005 -0.034,0.005 -0.049,0 -0.01,0 -0.019,-0.01 -0.019,-0.02 -0.01,-0.01 -0.01,-0.015 -0.015,-0.024 0,-0.005 -0.005,-0.015 -0.015,-0.024l0.024 0c0.005,0 0.015,-0.005 0.024,-0.01 0.01,-0.01 0.02,-0.01 0.029,-0.01l0.01 0c0,0.005 0,0.005 0.005,0.005l0.015 -0.01c-0.01,-0.01 -0.024,-0.019 -0.034,-0.024 -0.015,-0.01 -0.025,-0.01 -0.025,-0.01l-0.019 0c-0.005,0 -0.02,0.01 -0.025,-0.01 -0.005,-0.01 -0.005,-0.024 -0.005,-0.044l0.077 -0.034 0 -0.01c0.005,0 0,0 -0.005,-0.01 -0.005,0.01 -0.01,0.01 -0.025,0.01 0,-0.01 0.01,-0.019 0.025,-0.019l0.015 0c0,-0.005 0.005,-0.005 0.01,-0.005 0.01,0 0.015,0 0.015,0.005l0.01 0c0.01,0 0.02,-0.005 0.025,-0.015zm-0.214 0.039l0.01 0.005 -0.01 0.01 -0.01 0 0.01 -0.015zm0.291 0.005l0.034 0.005 -0.005 0.005c0,0.005 -0.005,0.01 -0.005,0.01 -0.02,-0.005 -0.025,-0.01 -0.025,-0.019zm-0.6 0.063c-0.019,0 -0.029,-0.005 -0.039,-0.019 0.02,-0.029 0.049,-0.025 0.073,-0.025 0.005,0 0.01,0.005 0.01,0.005 0.005,0 0.005,0.005 0.005,0.015 0,0.015 -0.039,0.024 -0.049,0.024zm0.62 -0.015l-0.01 0c0,0.005 -0.005,0.005 -0.015,0.005 -0.025,0 -0.039,-0.01 -0.044,-0.034l0.039 0.015c0.015,0.005 0.024,0.01 0.029,0.015zm0.053 -0.01l-0.024 0 0 -0.01 0.024 0 0 0.01zm-0.479 0.049c0.005,0 0.005,0.01 0.005,0.019l-0.025 0c-0.015,-0.01 -0.019,-0.019 -0.015,-0.034l0.029 0c0,0.005 0.005,0.01 0.005,0.015zm0.383 0.029l-0.024 0 0 -0.005 -0.01 -0.005c0,-0.005 0.005,-0.01 0.01,-0.015 0.005,0 0.01,-0.005 0.024,-0.015 0.015,0.005 0.02,0.01 0.02,0.015 0,0.005 0.005,0.015 0.01,0.025 -0.005,0.005 -0.015,0.005 -0.029,0zm-0.465 -0.015l-0.034 0.005 0 -0.024c0.005,0 0.024,0.01 0.034,0.02zm0.14 0.005c0,0 0,0.005 0.005,0.005l0.005 0c0,0.005 0,0.005 0.005,0.005 -0.024,0.01 -0.034,0.019 -0.029,0.024 0.005,0.01 0,0.02 -0.005,0.029l-0.015 0c-0.005,0 -0.01,-0.005 -0.01,-0.015 0,0 0.015,-0.034 0.044,-0.049zm0.121 0.02l0.006 -0.02 0.034 0c0.005,0.01 0.005,0.015 0,0.02l-0.039 0zm-0.068 0l0 -0.01 0.039 0 0 0.01 -0.039 0zm-0.334 -0.005c0.01,0 0.02,0 0.02,0.005l0.01 0c-0.019,0.01 -0.048,0.015 -0.073,0.02l0.015 -0.015c0.01,-0.005 0.02,-0.01 0.029,-0.01zm-1.006 0.034c-0.01,-0.01 -0.015,-0.015 -0.01,-0.024l0.01 0.015c0.005,0 0.005,0.005 0,0.01zm1.568 0.049c-0.01,-0.005 -0.015,-0.01 -0.02,-0.015 -0.01,-0.005 -0.024,-0.005 -0.039,-0.005 0.005,-0.005 0.015,-0.005 0.029,-0.005l0.029 0c0.02,0 0.029,-0.01 0.029,-0.024 0,0.01 0.005,0.02 0.01,0.024 0.01,0.01 0.005,0.02 -0.015,0.029 0.005,0.01 0.015,0.015 0.034,0.015 -0.034,0.01 -0.044,-0.005 -0.058,-0.019zm0.121 -0.01c-0.015,0 -0.025,-0.005 -0.029,-0.01 -0.039,-0.024 -0.005,-0.015 0.015,-0.015 -0.01,0 0,0.005 0.034,0.01 -0.01,0.01 -0.015,0.015 -0.019,0.015zm-0.368 -0.005l0 0.005 -0.01 0.01c0,0 -0.005,-0.005 -0.025,-0.01l0 -0.019c0.02,0 0.029,0.005 0.034,0.015zm0.044 -0.01c0,0.005 -0.005,0.01 -0.015,0.015 -0.005,0 -0.01,-0.005 -0.01,-0.015l0.024 0zm-0.261 0.029c0,0.005 -0.005,0.015 -0.015,0.02l-0.01 -0.029c0.01,0 0.02,0.005 0.025,0.01zm0.581 0.01l-0.005 0.005 -0.01 0c0,-0.005 0,-0.005 0.005,-0.01 0,-0.005 0.005,-0.01 0.005,-0.01 0.005,0 0.02,0.015 0.005,0.015zm-0.755 0.019l0 -0.024c0.01,0.005 0.029,0.01 0.053,0.01 0.015,0.005 0.039,0.01 0.063,0.01l0 0.019c-0.01,0.01 -0.02,0.015 -0.039,0.015 -0.015,0 -0.029,-0.005 -0.039,-0.015 -0.01,-0.01 -0.015,-0.019 -0.02,-0.029 -0.01,0.01 -0.019,0.015 -0.019,0.015zm0.314 -0.005c0.01,0 0.024,0.01 0.034,0.019 -0.01,0.005 -0.015,0.01 -0.025,0.02 -0.015,-0.005 -0.019,-0.01 -0.019,-0.02 0,-0.005 0.005,-0.01 0.005,-0.01 0.005,0 0.005,0 0.005,-0.01zm-1.746 0.126l-0.01 0 0 -0.121 0.01 0 0 0.121zm1.843 -0.082l0 -0.015 0.015 0 0 0.015 -0.015 0zm0.107 0.034c-0.01,0 -0.024,0 -0.034,-0.005 -0.02,-0.005 -0.035,-0.005 -0.049,-0.005l0 -0.024c0.005,0 0.01,0 0.015,-0.005 0.005,-0.005 0.01,-0.005 0.01,-0.01 0.005,0.005 0.015,0.01 0.025,0.015 0.01,0.005 0.019,0.01 0.024,0.01 0.01,0 0.029,-0.005 0.053,-0.02 0,0.005 -0.01,0.01 -0.015,0.025 -0.005,0.015 -0.015,0.019 -0.029,0.019zm-0.499 -0.015c-0.01,0.005 -0.019,0.01 -0.019,0.015 0,-0.005 0,-0.01 -0.005,-0.01 0,-0.005 0,-0.01 0.005,-0.01l0.005 0c0,0 0.005,0.005 0.015,0.005zm0.673 0.01c-0.005,0.005 -0.005,0.005 -0.005,0.01 -0.005,0 -0.005,0.005 -0.005,0.005 0,-0.005 -0.005,-0.01 -0.005,-0.01 -0.005,-0.005 -0.005,-0.01 0,-0.015l0.029 0 -0.015 0.01zm-0.402 -0.005c0.019,0 0.029,0 0.034,0.01 0,0.01 -0.005,0.015 -0.024,0.02l-0.01 -0.029zm0.373 0.01l-0.034 0 0 -0.01 0.034 0 0 0.01zm-1.534 0.029c-0.01,0 -0.005,-0.015 0,-0.015l0 0.015zm1.481 0l0.015 -0.01 0.005 0.005c0,0 0,0.005 0.005,0.005l-0.024 0zm-0.175 0.039c-0.01,-0.005 -0.015,-0.005 -0.015,-0.005 0.015,-0.01 0.029,-0.015 0.044,-0.015 0.025,0.005 0.035,-0.005 0.03,-0.024 0,0.005 0,0.005 0.005,0.005l0.01 0c-0.005,0 -0.01,0.005 -0.01,0.01 0,0.005 0,0.01 0.005,0.019 0,0.005 -0.005,0.015 -0.01,0.025 -0.005,-0.005 -0.015,-0.01 -0.025,-0.01 -0.015,0 -0.025,0 -0.034,-0.005zm-0.435 -0.039l0 0.02c0.005,0 0.01,0 0.019,0.01 0.01,-0.01 0.02,-0.015 0.029,-0.019 0.01,-0.01 0.02,-0.01 0.029,-0.01l0.02 0.005c0.02,0.005 0.034,0.005 0.039,0.005l0.054 0 0.005 0.005 0 0.015c-0.019,0.01 -0.053,0.02 -0.068,0.02l-0.02 0c-0.005,-0.005 -0.01,-0.005 -0.019,-0.005 -0.034,0 -0.078,0.01 -0.087,0.02 -0.01,-0.024 -0.01,-0.044 0,-0.063zm0.314 0.01c0.01,0 0.024,0.005 0.044,0.01 0,0.02 -0.005,0.029 -0.015,0.034 -0.005,0 -0.015,0 -0.02,-0.005l-0.044 0c0,-0.005 0,-0.01 -0.005,-0.01 0,0 -0.005,0 -0.005,-0.01 0,-0.024 0.024,-0.019 0.044,-0.019zm0.291 0.184l-0.01 0.015c-0.02,0 -0.034,-0.005 -0.044,-0.015 0.02,-0.005 0.029,-0.01 0.02,-0.01 0.01,0 0.019,0 0.024,-0.005l0 -0.015 -0.058 -0.015c-0.024,0 -0.044,-0.005 -0.059,-0.01l0.01 -0.015c0.039,-0.025 0.054,-0.039 0.049,-0.054 0.005,-0.005 0.015,-0.005 0.024,-0.015 0.005,0 0.01,-0.005 0.015,-0.01l-0.044 -0.034c0.025,-0.005 0.044,0 0.058,0.005 0.015,0.01 0.025,0.02 0.034,0.029 -0.01,0 -0.024,0.01 -0.044,0.024 0.005,0.01 0.015,0.015 0.024,0.015 0.005,0.01 0.02,0.01 0.029,0.015l0 0.015 -0.005 0.005c0,0.005 -0.01,0.005 -0.015,0.005l-0.02 0c0,-0.005 -0.005,-0.015 -0.005,-0.025 -0.01,0 -0.024,0.005 -0.029,0.005 -0.019,0.005 -0.034,0.01 -0.044,0.01 0.025,0.015 0.044,0.02 0.058,0.02l0.005 0c0,-0.005 0,-0.005 0.01,-0.005 0.005,0 0.015,0.005 0.025,0.015 0.01,0.01 0.019,0.02 0.029,0.02 -0.005,0.005 -0.029,0.024 -0.039,0.029zm-1.911 -0.145l-0.024 -0.005 0 -0.005 0.024 0 0 0.01zm-0.141 0.02c-0.005,0.005 -0.005,0.01 -0.005,0.015 -0.01,-0.005 -0.015,-0.005 -0.019,-0.01 -0.005,-0.005 -0.01,-0.01 -0.01,-0.015 0,-0.005 0.005,-0.01 0.01,-0.01l0.019 0c0.005,0.005 0.01,0.01 0.005,0.02zm1.891 0.039c-0.005,0 -0.01,0 -0.015,0.005 -0.005,-0.005 -0.005,-0.025 -0.005,-0.054 0.01,0.005 0.01,0.015 0.01,0.02l0.015 0.029 -0.005 0zm0.02 -0.044l0.03 0c0.005,0.005 0.02,0.005 0.034,0.005 -0.005,0 -0.01,0.005 -0.01,0.01 0,0 -0.005,0.005 -0.01,0.005l-0.049 0 0.005 -0.02zm-1.683 0.068l-0.015 0.015 -0.044 0c-0.005,-0.01 -0.01,-0.019 -0.01,-0.029 0,-0.01 0.01,-0.048 0.039,-0.048 0.01,0 0.02,0 0.02,0.005l0.01 0 0 0.058zm1.591 0.116c-0.019,0.005 -0.034,0.005 -0.053,0 0,-0.019 0.005,-0.034 0.015,-0.048 -0.015,-0.005 -0.029,-0.01 -0.044,-0.01 -0.02,0 -0.029,0 -0.044,-0.005 -0.005,-0.02 0,-0.039 0.015,-0.058 0.019,0.005 0.029,0.01 0.029,0.015 0,0.01 0.005,0.019 0.015,0.029 0.005,-0.01 0.01,-0.025 0.01,-0.034l0 -0.029 -0.01 -0.01 0.053 0c0,-0.005 0.025,0.039 0.025,0.048 0,0.005 -0.005,0.015 -0.015,0.025 -0.01,0.01 -0.015,0.019 -0.015,0.024 0,0.005 0.005,0.01 0.015,0.015 0.01,0.005 0.015,0.015 0.015,0.02 0,0.01 0,0.015 -0.005,0.015 0,0 -0.005,0 -0.005,0.005zm-0.276 -0.121l0 -0.01 0.029 0 0 0.01 -0.029 0zm0.044 0.034c0.01,-0.005 0.015,-0.01 0.02,-0.015l0.01 0.02c-0.015,0.01 -0.029,0.01 -0.044,0 0,0 0.005,-0.005 0.015,-0.005zm0.286 0.015l0 -0.024 0.015 0 0 0.024 -0.015 0zm-1.712 -0.01l0.015 -0.01 0 0.039c-0.015,-0.01 -0.02,-0.02 -0.02,-0.02 0,-0.005 0,-0.01 0.005,-0.01zm1.959 -0.005l0 0.015 -0.01 0 0 -0.015 0.01 0zm-0.678 0.039c0,-0.005 0,-0.005 0.005,-0.015 0,0.005 0.005,0.01 0.01,0.01 0.005,0 0.01,0.005 0.01,0.005 -0.01,0.005 -0.019,0 -0.024,0zm0.44 -0.01c0.005,0.005 0.01,0.005 0.015,0.005 0,0.01 -0.005,0.015 -0.02,0.02l-0.01 -0.029c0.005,0 0.015,0.005 0.015,0.005zm0.049 -0.005l0.029 0c0.01,0 0.015,0 0.015,0.005 -0.01,0.005 -0.015,0.005 -0.025,0.005 -0.005,-0.005 -0.015,-0.01 -0.019,-0.01zm-1.78 0.048c0,0 0,-0.005 0.005,-0.01 0,-0.005 0,-0.005 0.005,-0.005 0.015,0.005 0.02,0.015 0.015,0.025 -0.005,0.01 0.005,0.019 0.02,0.029l0 0.015c-0.005,0 -0.015,0 -0.02,0.005 -0.005,0 -0.005,-0.01 -0.005,-0.019 0.005,-0.005 0,-0.01 0,-0.02 -0.005,-0.01 -0.01,-0.01 -0.015,-0.01 -0.005,0 -0.005,-0.005 -0.005,-0.01zm1.804 -0.005l0.005 0.005c0,0 0,0.005 0.005,0.01 -0.019,0.01 -0.034,0.01 -0.044,0 -0.01,-0.005 -0.019,0 -0.029,0.015l-0.015 -0.01c-0.005,0 -0.01,-0.005 -0.01,-0.005 0.024,0 0.049,-0.005 0.088,-0.015zm-0.185 0.082c-0.024,0.01 -0.048,0.02 -0.073,0.02l-0.029 0c0,-0.01 -0.005,-0.015 -0.005,-0.029l0 -0.034c0.024,-0.005 0.044,-0.015 0.063,-0.015l0.029 0 0 0.02c0,0.005 -0.015,0.01 -0.034,0.015l0 0.015 0.029 0.01c0.01,0 0.015,-0.005 0.019,-0.01 0.005,-0.005 0.005,-0.01 0.01,-0.01 0.005,0 0.005,-0.005 0.01,-0.01 0.005,0 0.02,0.005 0.025,0.01l0 0.039c-0.02,0 -0.03,-0.005 -0.044,-0.02zm0.165 -0.039l0 0.01 -0.025 0 0 -0.01 0.025 0zm0.087 0.077l-0.058 0 0 -0.029c0.015,-0.005 0.025,-0.01 0.044,-0.01 0.01,0 0.02,-0.005 0.034,-0.01 -0.01,0.01 -0.015,0.024 -0.015,0.034 0.005,0.005 0.015,0.005 0.024,0.005 0.005,0 0.015,0.005 0.025,0.005 -0.01,0 -0.029,0.005 -0.054,0.005zm-1.862 -0.024c0.005,0 0.005,-0.005 0.01,-0.005 0,-0.005 0,-0.005 0.005,-0.01l0.02 0c0,0.02 0.005,0.039 0,0.053l0 0.058c-0.005,0 -0.015,0 -0.02,0.005l-0.01 -0.005c0,0 0,-0.005 0.005,-0.005l0.015 -0.01c-0.019,-0.019 -0.029,-0.058 -0.029,-0.068 0,-0.005 0,-0.01 0.005,-0.015zm1.519 0.044l-0.015 -0.01 0 -0.02c0.01,0.005 0.029,0.015 0.048,0.029l-0.034 0zm0.325 0.02c-0.005,0 -0.005,0 -0.015,0.01l-0.025 -0.024c0.01,0 0.02,0 0.025,0.005 0.015,0 0.019,0.005 0.024,0.005 -0.005,0 -0.005,0.005 -0.01,0.005zm-0.078 0.015l0.006 -0.02c0.015,0 0.029,0.015 0.029,0.02l-0.035 0zm-0.363 0.029c0,0.01 -0.01,0.019 -0.02,0.019l0 -0.024c0,0 0.005,0.005 0.01,0.005l0.01 0zm0.402 0.063c0,-0.005 0.005,-0.01 0.005,-0.015 0,-0.01 0.005,-0.015 0.01,-0.015 0,0.01 0.005,0.02 0.02,0.029l-0.034 0zm-1.77 -0.005c0,0.005 -0.005,0.005 -0.01,0.01 -0.005,0 -0.005,0.005 -0.01,0.01l0 -0.019 0.02 0zm1.737 0.063c-0.006,-0.005 -0.011,-0.01 -0.025,-0.015l-0.024 -0.015 0.029 0c0.015,0 0.025,0 0.03,0.005 -0.005,0.005 -0.01,0.015 -0.01,0.024zm-1.747 0.237c-0.005,0 -0.005,-0.005 -0.005,-0.005l-0.005 -0.005c0,-0.005 0,-0.005 0.005,-0.01 0.005,0 0.01,-0.005 0.019,-0.01 -0.01,-0.005 -0.019,-0.01 -0.024,-0.01 0,-0.015 -0.005,-0.029 -0.01,-0.039 -0.005,-0.015 -0.005,-0.02 -0.005,-0.025 0,-0.029 -0.005,-0.024 0.034,-0.049 -0.005,-0.005 -0.015,-0.01 -0.025,-0.01l0.005 -0.087c0.005,0.005 0.005,0.01 0.005,0.02l0 0.024c0,0.005 0.01,0.01 0.034,0.02 0,0.044 -0.005,0.077 -0.01,0.102 -0.01,0 -0.02,0.005 -0.024,0.01 0.005,0.005 0.01,0.01 0.015,0.005l0.015 0c0,0.005 0,0.015 0.005,0.015 0.005,0.01 0.005,0.015 0.005,0.02 0,0.01 -0.039,0.034 -0.034,0.034zm1.727 -0.223c-0.01,0.005 -0.015,0.005 -0.02,0.005l-0.01 -0.015c0,0 0,-0.005 -0.005,-0.01 0.02,0 0.034,0 0.039,0.005 0,0 0,0.005 -0.005,0.015zm-0.078 0.02l-0.01 -0.005 0.01 -0.015 0.01 0 -0.01 0.02zm0.146 0.02l-0.024 0 0 -0.015 0.024 0 0 0.015zm-0.262 0.024c0.01,-0.005 0.02,-0.01 0.058,-0.02l0.01 0.025 -0.015 0c-0.005,0.005 -0.015,0.005 -0.019,0.005 -0.015,0 -0.025,0 -0.034,-0.01zm-0.14 0.116c-0.005,0 -0.049,-0.015 -0.073,-0.029l0 -0.01c0,-0.01 -0.005,-0.01 -0.01,-0.02 -0.005,0 -0.01,0 -0.015,-0.01 -0.005,0 -0.01,-0.005 -0.015,-0.01 0.005,-0.01 0.01,-0.019 0.01,-0.034 0,-0.015 0.01,-0.02 0.029,-0.02l0.01 0 0.01 0.005 0.01 0.01c0,0.01 0,0.015 0.01,0.02 0.01,0.005 0.029,0.01 0.049,0.015 0.024,0.01 0.048,0.024 0.063,0.039 -0.005,0.01 -0.068,0.044 -0.077,0.044zm-0.9 0.025c-0.005,0 -0.02,-0.005 -0.029,-0.015 -0.005,-0.005 -0.01,-0.01 -0.015,-0.01 -0.01,-0.01 -0.025,-0.019 -0.039,-0.019 -0.005,-0.049 0.049,-0.068 0.102,-0.088l0.025 0c0,0.02 0,0.029 -0.005,0.034 0.005,0 0.034,0.015 0.034,0.034 0,0.029 -0.034,0.063 -0.073,0.063zm1.127 -0.097c0,0.015 -0.005,0.029 -0.02,0.039l-0.039 0c0,-0.005 0,-0.01 0.005,-0.01l0 -0.015 -0.01 -0.015c-0.005,-0.005 -0.015,-0.01 -0.015,-0.015l0.01 0c0.005,0 0.01,0 0.01,-0.005 0.005,0 0.015,-0.005 0.024,-0.005 0.01,0 0.015,0.005 0.015,0.005 0,0.005 0.01,0.005 0.015,0.005l0.005 0 0 0.015zm-1.591 0.145c-0.005,0 -0.01,0.005 -0.015,0.005 -0.005,0 -0.01,0 -0.01,0.005l-0.015 0 0 -0.029c0.005,0 0.01,0 0.01,-0.005l0.02 0 0.01 0.005 0 0.019zm1.069 0.054c-0.01,0.01 -0.02,0.01 -0.024,0.01 -0.005,0 -0.015,0.005 -0.02,0.01l-0.087 -0.01c0.034,-0.024 0.063,-0.039 0.087,-0.039l0.034 0 0.01 0.01 0 0.02zm0.261 0.01c-0.005,0 -0.01,-0.005 -0.01,-0.01 0,-0.005 0.005,-0.01 0.015,-0.01 0.015,-0.01 0.019,-0.01 0.024,-0.015 0,0.005 0.01,0.025 0.01,0.029l-0.019 0.015c-0.005,-0.005 -0.01,-0.01 -0.02,-0.01zm-0.305 0.068l-0.02 0c-0.01,0.005 -0.015,0.005 -0.019,0.005 -0.005,0.005 -0.005,0.005 -0.005,0 -0.005,0 -0.005,-0.005 -0.005,-0.015 0,-0.005 0.005,-0.015 0.025,-0.02l0.015 0c0,0.005 0.005,0.005 0.01,0.005l0 0.024zm-0.397 0c-0.015,0 -0.019,-0.005 -0.024,-0.01l0.02 -0.01c0,0.005 0,0.01 0.005,0.01l0 0.01zm0.745 0.039l-0.015 -0.015 0.015 -0.01c0.005,0.005 0.005,0.015 0,0.025zm-0.053 0.015c-0.015,0 -0.025,0 -0.029,0.005l-0.01 -0.01c-0.005,0 -0.01,-0.005 -0.01,-0.01 0,-0.015 0.01,-0.02 0.02,-0.02l0.019 0c0.015,0.005 0.02,0.02 0.01,0.034zm-0.3 0.044c-0.01,0.005 -0.015,0.01 -0.019,0.01 -0.015,0 -0.029,-0.01 -0.044,-0.02 0.005,-0.01 0.019,-0.019 0.034,-0.019l0.015 0 0.015 0.01 0 0.02z"/>
  </g>
 </g>
</svg>
