<?xml version="1.0" encoding="UTF-8"?>
<!DOCTYPE svg PUBLIC "-//W3C//DTD SVG 1.1//EN" "http://www.w3.org/Graphics/SVG/1.1/DTD/svg11.dtd">
<!-- Creator: CorelDRAW 2018 (64-Bit) -->
<svg xmlns="http://www.w3.org/2000/svg" xml:space="preserve" width="150mm" height="150mm" version="1.1" style="shape-rendering:geometricPrecision; text-rendering:geometricPrecision; image-rendering:optimizeQuality; fill-rule:evenodd; clip-rule:evenodd"
viewBox="0 0 15000 15000"
 xmlns:xlink="http://www.w3.org/1999/xlink">
 <defs>
  <style type="text/css">
   <![CDATA[
    .fil1 {fill:#FEFEFE;fill-rule:nonzero}
    .fil0 {fill:url(#id0)}
   ]]>
  </style>
  <radialGradient id="id0" gradientUnits="userSpaceOnUse" gradientTransform="matrix(0.760849 -2.2176 -2.2176 -0.760848 34293 36058)" cx="4353.52" cy="14994.71" r="6495.56" fx="4353.52" fy="14994.71">
   <stop offset="0" style="stop-opacity:1; stop-color:#FFDA74"/>
   <stop offset="0.25098" style="stop-opacity:1; stop-color:#F3A950"/>
   <stop offset="0.380392" style="stop-opacity:1; stop-color:#EA563B"/>
   <stop offset="0.701961" style="stop-opacity:1; stop-color:#C62F80"/>
   <stop offset="0.988235" style="stop-opacity:1; stop-color:#636CB0"/>
   <stop offset="1" style="stop-opacity:1; stop-color:#636CB0"/>
  </radialGradient>
 </defs>
 <g id="Слой_x0020_1">
  <metadata id="CorelCorpID_0Corel-Layer"/>
  <path class="fil0" d="M3128.23 14991.55l0 -0.35 -9 0c-19.24,-0.87 -38.4,-1.97 -57.55,-3.17l0 -0.35 -5.54 0c-13.33,-0.85 -26.72,-1.52 -40,-2.54l0 -0.97 -10.78 0c-11.62,-0.92 -23.18,-2.06 -34.76,-3.1l0 -0.41 -4.52 0c-12.51,-1.15 -25.04,-2.19 -37.52,-3.48l0 -0.02 -0.19 0c-9.31,-0.97 -18.54,-2.16 -27.83,-3.21l0 -0.31 -2.7 0c-8.44,-0.95 -16.9,-1.89 -25.32,-2.91l0 -0.6 -5.2 0c-7.61,-0.93 -15.25,-1.82 -22.83,-2.8l0 -0.71 -5.01 0c-7.69,-1.02 -15.34,-2.17 -23.01,-3.25l0 -0.25 -1.84 0c-22.81,-3.19 -45.57,-6.57 -68.22,-10.23l0 -0.31 -1.87 0c-6.39,-1.04 -12.77,-2.12 -19.15,-3.2l0 -0.31 -1.9 0c-6.37,-1.08 -12.76,-2.08 -19.12,-3.2l0 -0.31 -1.88 0c-5.2,-0.91 -10.43,-1.74 -15.64,-2.67l0 -0.84 -4.33 0c-5.58,-1.01 -11.11,-2.17 -16.68,-3.21l0 -0.3 -1.53 0 -15.99 -3.09 0 -0.42 -2.22 0c-12.1,-2.35 -24.26,-4.53 -36.31,-7.01l0 -0.01 -0.06 0c-10.54,-2.17 -20.97,-4.62 -31.47,-6.9l0 -0.13 -0.6 0 -13.41 -2.94 0 -0.57 -2.6 0c-4.97,-1.1 -9.96,-2.15 -14.92,-3.27l0 -0.23 -1.06 0c-4.31,-0.98 -8.65,-1.84 -12.95,-2.84l0 -0.67 -3.02 0c-3.68,-0.86 -7.31,-1.83 -10.99,-2.7l0 -0.82 -3.31 0c-4.74,-1.12 -9.47,-2.34 -14.21,-3.49l0 -0.02 -0.09 0 -13.92 -3.42 0 -0.08 -0.34 0 -13.67 -3.36 0 -0.15 -0.62 0c-22.08,-5.57 -44.04,-11.4 -65.94,-17.41l0 -0.15 -0.55 0c-7.99,-2.19 -16.01,-4.28 -23.97,-6.52l0 -0.5 -1.82 0 -12.2 -3.48 0 -0.02 -0.09 0c-3.48,-1.01 -6.94,-2.1 -10.41,-3.12l0 -0.4 -1.32 0c-7.76,-2.27 -15.47,-4.62 -23.2,-6.94l0 -0.08 -0.26 0c-22.2,-6.67 -44.29,-13.57 -66.3,-20.69l0 -0.37 -1.12 0 -9.38 -3.06 0 -0.45 -1.37 0 -9.15 -3 0 -0.51 -1.59 0 -8.92 -2.92 0 -0.6 -1.82 0c-2.88,-0.96 -5.8,-1.86 -8.68,-2.83l0 -0.68 -2.07 0 -8.45 -2.94 0 -0.56 -1.58 0c-2.99,-1.03 -5.94,-2.13 -8.92,-3.17l0 -0.34 -0.99 0 -9.52 -3.38 0 -0.14 -0.38 0c-25.72,-9.02 -51.28,-18.38 -76.7,-28.02l0 -0.06 -0.16 0 -17.34 -6.64 0 -0.38 -1.01 0c-5.5,-2.13 -11.03,-4.17 -16.51,-6.32l0 -0.7 -1.81 0c-2.89,-1.13 -5.81,-2.19 -8.7,-3.33l0 -0.18 -0.43 0 -6.57 -2.71 0 -0.8 -1.97 0c-5.2,-2.09 -10.36,-4.28 -15.55,-6.4l0 -0.62 -1.51 0 -16.01 -6.59 0 -0.43 -1.07 0c-21.95,-9.09 -43.78,-18.41 -65.49,-27.97l0 -0.12 -0.26 0 -6.74 -2.96 0 -0.55 -1.24 0c-7.75,-3.43 -15.57,-6.76 -23.28,-10.26l0 -0.27 -0.62 0 -6.38 -2.83 0 -0.68 -1.43 0 -5.58 -2.63 0 -0.88 -1.9 0c-9.93,-4.56 -19.76,-9.28 -29.63,-13.93l0 -0.11 -0.23 0 -6.77 -3.19 0 -0.32 -0.7 0c-35.13,-16.68 -69.97,-33.88 -104.4,-51.77l0 -0.88 -1.66 0 -5.34 -2.84 0 -0.68 -1.27 0 -5.74 -3.04 0 -0.47 -0.88 0 -6.12 -3.25 0 -0.26 -0.49 0 -6.52 -3.46 0 -0.04 -0.07 0c-15.21,-8.09 -30.41,-16.22 -45.47,-24.55l0 -0.03 -0.06 0c-8.19,-4.53 -16.32,-9.18 -24.47,-13.77l0 -0.27 -0.47 0c-8.02,-4.52 -16.07,-8.96 -24.04,-13.54l0 -0.5 -0.91 0 -6.1 -3.45 0 -0.07 -0.13 0c-3.49,-2.02 -6.91,-4.14 -10.38,-6.17l0 -0.84 -1.42 0 -5.58 -3.33 0 -0.18 -0.32 0c-5.76,-3.39 -11.46,-6.83 -17.2,-10.24l0 -0.3 -0.49 0c-21.01,-12.52 -41.86,-25.27 -62.56,-38.24l0 -0.37 -0.6 0c-9.15,-5.74 -18.34,-11.42 -27.43,-17.25l0 -0.3 -0.49 0 -10.02 -6.36 0 -0.67 -1 0c-3.19,-2.06 -6.32,-4.23 -9.51,-6.3l0 -0.72 -1.08 0c-27.98,-18.26 -55.62,-36.99 -82.99,-56.08l0 -0.09 -0.13 0c-8.13,-5.67 -16.31,-11.28 -24.39,-17.02l0 -0.52 -0.74 0c-3.25,-2.31 -6.54,-4.55 -9.77,-6.87l0 -0.16 -0.22 0c-4.64,-3.32 -9.18,-6.77 -13.8,-10.13l0 -0.39 -0.54 0c-12.72,-9.23 -25.4,-18.5 -37.98,-27.9l0 -0.19 -0.27 0c-15.21,-11.38 -30.26,-22.96 -45.27,-34.59l0 -0.51 -0.66 0c-4.45,-3.45 -8.93,-6.85 -13.36,-10.32l0 -0.22 -0.28 0 -3.22 -2.48 0 -1.02 -1.32 0 -12.69 -10 0 -0.54 -0.66 0c-5.66,-4.5 -11.22,-9.12 -16.86,-13.66l0 -0.38 -0.46 0c-5.7,-4.59 -11.39,-9.19 -17.05,-13.82l0 -0.22 -0.27 0c-5.73,-4.69 -11.55,-9.27 -17.25,-13.99l0 -0.05 -0.06 0c-8.22,-6.82 -16.3,-13.8 -24.46,-20.7l0 -0.37 -0.44 0c-6.88,-5.81 -13.74,-11.65 -20.58,-17.52l0 -0.03 -0.04 0 -3.46 -2.96 0 -0.54 -0.65 0c-7.98,-6.89 -15.95,-13.79 -23.87,-20.76l0 -0.31 -0.35 0 -3.15 -2.82 0 -0.69 -0.78 0c-9.13,-8.06 -18.2,-16.18 -27.25,-24.35l0 -0.22 -0.24 0c-14.05,-12.69 -27.97,-25.53 -41.8,-38.46l0 -0.16 -0.18 0 -3.32 -3.12 0 -0.39 -0.42 0 -3.08 -2.89 0 -0.61 -0.65 0c-49.08,-46.17 -96.8,-93.75 -142.97,-142.86l0 -1.07 -1 0 -2.51 -2.72 0 -0.79 -0.73 0 -2.78 -3 0 -0.52 -0.47 0 -3.03 -3.27 0 -0.24 -0.22 0c-14.05,-15.09 -28.04,-30.24 -41.81,-45.6l0 -0.03 -0.03 0c-7.07,-7.89 -14,-15.88 -20.99,-23.83l0 -0.74 -0.66 0 -2.84 -3.23 0 -0.29 -0.26 0c-6.91,-7.88 -13.93,-15.65 -20.76,-23.6l0 -0.96 -0.81 0 -2.7 -3.22 0 -0.3 -0.25 0c-5.81,-6.79 -11.5,-13.72 -17.26,-20.55l0 -0.51 -0.43 0c-6.87,-8.16 -13.79,-16.28 -20.58,-24.51l0 -0.06 -0.05 0c-9.44,-11.41 -18.71,-22.97 -27.99,-34.52l0 -0.59 -0.46 0c-4.53,-5.63 -9.06,-11.26 -13.55,-16.92l0 -0.63 -0.49 0c-4.48,-5.65 -9.08,-11.2 -13.52,-16.89l0 -0.66 -0.53 0c-3.37,-4.32 -6.62,-8.74 -9.97,-13.08l0 -0.96 -0.74 0c-4.47,-5.79 -8.85,-11.63 -13.28,-17.44l0 -0.12 -0.09 0c-3.47,-4.56 -6.97,-9.1 -10.42,-13.69l0 -0.35 -0.27 0c-12.94,-17.16 -25.66,-34.5 -38.26,-51.92l0 -0.74 -0.54 0c-3.31,-4.59 -6.67,-9.15 -9.97,-13.77l0 -0.27 -0.19 0c-2.26,-3.15 -4.57,-6.26 -6.82,-9.41l0 -1.12 -0.81 0c-3.26,-4.59 -6.45,-9.24 -9.69,-13.86l0 -0.18 -0.13 0c-2.32,-3.31 -4.57,-6.67 -6.88,-10l0 -0.53 -0.37 0 -6.63 -9.64 0 -0.89 -0.62 0c-5.64,-8.18 -11.34,-16.31 -16.9,-24.54l0 -0.03 -0.02 0c-4.7,-6.95 -9.34,-13.91 -13.99,-20.9l0 -0.17 -0.11 0c-8.23,-12.38 -16.34,-24.85 -24.42,-37.35l0 -1.27 -0.82 0c-2.04,-3.16 -4.15,-6.27 -6.18,-9.44l0 -1.08 -0.7 0 -6.31 -9.86 0 -0.67 -0.4 0c-5.79,-9.14 -11.4,-18.4 -17.11,-27.59l0 -0.49 -0.31 0c-9.33,-15.04 -18.62,-30.1 -27.72,-45.3l0 -0.35 -0.19 0c-8.22,-13.74 -16.31,-27.56 -24.33,-41.43l0 -0.69 -0.41 0c-3.35,-5.79 -6.78,-11.53 -10.1,-17.35l0 -0.2 -0.11 0 -3.39 -6.12 0 -0.9 -0.5 0c-4.57,-8.07 -9.02,-16.23 -13.51,-24.34l0 -0.23 -0.13 0c-16.75,-30.15 -33.1,-60.54 -48.92,-91.26l0 -0.01 -3.49 -6.67 0 -0.36 -0.19 0 -3.32 -6.33 0 -0.68 -0.36 0 -3.14 -6.38 0 -0.65 -0.32 0 -3.19 -6.46 0 -0.55 -0.28 0 -3.22 -6.55 0 -0.48 -0.24 0 -3.26 -6.6 0 -0.42 -0.21 0 -3.3 -6.68 0 -0.34 -0.16 0 -3.34 -6.77 0 -0.25 -0.12 0 -3.39 -6.85 0 -0.17 -0.08 0 -3.41 -6.91 0 -0.12 -0.06 0 -3.45 -6.98 0 -0.03 -0.01 0c-7.16,-14.85 -14.07,-29.83 -21.01,-44.8l0 -0.84 -0.38 0 -3.12 -6.72 0 -0.3 -0.14 0c-3.44,-7.46 -6.99,-14.87 -10.37,-22.36l0 -2.21 -1.02 0 -2.48 -5.5 0 -1.52 -0.66 0 -2.85 -6.55 0 -0.47 -0.2 0c-3.49,-7.86 -6.87,-15.82 -10.3,-23.71l0 -0.87 -0.38 0c-4.55,-10.45 -9.2,-20.87 -13.64,-31.37l0 -0.22 -0.1 0c-7.15,-16.95 -14.03,-34.04 -20.92,-51.14l0 -1.51 -0.61 0c-2.12,-5.26 -4.3,-10.48 -6.39,-15.75l0 -1.8 -0.73 0 -2.77 -6.84 0 -0.19 -0.08 0 -3.43 -8.86 0 -1.67 -0.63 0c-2.18,-5.59 -4.22,-11.25 -6.37,-16.86l0 -0.69 -0.26 0c-14.59,-38.16 -28.58,-76.64 -41.78,-115.48l0 -0.37 -0.13 0c-1.09,-3.22 -2.29,-6.4 -3.37,-9.62l0 -0.91 -0.31 0c-1.1,-3.28 -2.1,-6.62 -3.19,-9.92l0 -0.6 -0.2 0c-1.13,-3.41 -2.2,-6.85 -3.31,-10.26l0 -0.28 -0.09 0c-11.02,-33.55 -21.47,-67.34 -31.44,-101.35l0 -0.45 -0.12 0 -3.38 -11.41 0 -2.63 -0.78 0c-0.89,-3.08 -1.84,-6.14 -2.73,-9.23l0 -1.31 -0.38 0 -3.11 -10.93 0 -3.11 -0.84 0c-0.92,-3.29 -1.75,-6.62 -2.67,-9.93l0 -0.6 -0.16 0 -3.34 -12.44 0 -1.6 -0.43 0c-2.21,-8.15 -4.42,-16.29 -6.57,-24.45l0 -0.12 -0.03 0c-4.84,-18.39 -9.47,-36.86 -13.99,-55.37l0 -0.8 -0.2 0 -3.3 -13.62 0 -0.42 -0.1 0 -3.4 -14.05 0 -3.5 -0.86 0c-0.85,-3.66 -1.8,-7.29 -2.65,-10.96l0 -3.08 -0.72 0c-0.99,-4.27 -1.82,-8.6 -2.78,-12.88l0 -1.16 -0.25 0c-1.12,-4.99 -2.15,-10 -3.25,-15l0 -2.55 -0.56 0 -2.94 -13.67 0 -0.37 -0.08 0c-4.89,-22.81 -9.52,-45.7 -13.94,-68.68l0 -1.54 -0.29 0 -3.21 -16.87 0 -0.68 -0.13 0c-1.1,-5.92 -2.3,-11.8 -3.38,-17.74l0 -3.33 -0.63 0c-0.99,-5.55 -1.9,-11.12 -2.87,-16.68l0 -4.37 -0.72 0c-0.97,-5.61 -1.83,-11.27 -2.78,-16.89l0 -0.67 -0.11 0 -3.39 -20.63 0 -0.43 -0.07 0c-1.12,-6.97 -2.35,-13.9 -3.44,-20.89l0 -0.18 -0.03 0c-1.23,-7.98 -2.3,-16 -3.47,-24l0 -0.57 -0.08 0c-1.2,-8.2 -2.3,-16.43 -3.43,-24.66l0 -3.42 -0.47 0c-1.01,-7.25 -2.07,-14.48 -3.02,-21.75l0 -6.33 -0.89 0c-0.92,-7.19 -1.73,-14.43 -2.62,-21.63l0 -6.46 -0.73 0c-0.98,-8.12 -1.86,-16.26 -2.77,-24.4l0 -3.68 -0.42 0c-2.41,-21.64 -4.59,-43.36 -6.58,-65.12l0 -5.08 -0.45 0c-1.04,-11.55 -2.14,-23.07 -3.06,-34.64l0 -11.01 -0.97 0c-1.03,-13.34 -1.67,-26.78 -2.53,-40.17l0 -5.46 -0.35 0c-1.2,-19.35 -2.27,-38.72 -3.16,-58.15l0 -8.54 -0.33 0c-2.03,-46.71 -3.17,-93.67 -3.17,-140.87l0 -8428.44c0,-46.93 1.2,-93.58 3.13,-140.03l0.37 0 0 -9.8c0.84,-19.02 1.95,-37.97 3.11,-56.9l0.4 0 0 -6.43c0.83,-13.06 1.51,-26.18 2.5,-39.2l1 0 0 -11.55c0.99,-12.55 2.15,-25.08 3.28,-37.6l0.23 0 0 -2.59c2.06,-22.61 4.37,-45.13 6.88,-67.61l0.12 0 0 -1.03c1.01,-9.02 1.94,-18.07 3.04,-27.06l0.46 0 0 -4.18c0.97,-7.98 2.02,-15.93 3.04,-23.9l0.47 0 0 -3.41c0.92,-7.07 1.94,-14.11 2.91,-21.16l0.58 0 0 -4.29c1.09,-7.93 2.12,-15.89 3.27,-23.8l0.24 0 0 -1.73c2.14,-14.67 4.49,-29.29 6.82,-43.91l0.19 0 0 -1.13c1.06,-6.65 2.12,-13.29 3.24,-19.92l0.26 0 0 -1.64c1.09,-6.46 2.05,-12.97 3.16,-19.43l0.34 0 0 -2.06 2.79 -15.49 0.71 0 0 -3.78c1.05,-5.79 2.18,-11.53 3.25,-17.29l0.26 0 0 -1.35 3.05 -16.19 0.45 0 0 -2.45c4.35,-22.68 8.96,-45.26 13.77,-67.77l0.25 0 0 -1.16 3.49 -16.39 0.01 0 0 -0.02c1.02,-4.67 1.95,-9.36 2.99,-14.02l0.51 0 0 -2.35 2.67 -11.69 0.83 0 0 -3.5c1.08,-4.7 2.28,-9.36 3.37,-14.05l0.14 0 0 -0.6 3.21 -13.44 0.29 0 0 -1.2 3.08 -12.84 0.42 0 0 -1.77c4.45,-18.19 9.06,-36.33 13.81,-54.41l0.21 0 0 -0.77c3.31,-12.63 6.58,-25.27 10.05,-37.83l0.45 0 0 -1.73 3.41 -12.32 0.1 0 0 -0.32c0.96,-3.42 2.01,-6.8 2.98,-10.21l0.51 0 0 -1.77c2.17,-7.63 4.43,-15.2 6.66,-22.8l0.35 0 0 -1.24c2.28,-7.78 4.48,-15.58 6.82,-23.34l0.2 0 0 -0.68c5.6,-18.57 11.45,-37.04 17.37,-55.48l0.13 0 0 -0.42 3.22 -10.11 0.29 0 0 -0.9c1.04,-3.2 2.01,-6.43 3.07,-9.64l0.43 0 0 -1.36c1,-3.05 1.92,-6.13 2.92,-9.17l0.59 0 0 -1.71c0.98,-2.95 2.05,-5.87 3.05,-8.81l0.45 0 0 -1.33 3.18 -9.21 0.32 0 0 -0.91 3.32 -9.62 0.18 0 0 -0.53 3.46 -10 0.05 0 0 -0.14c8.96,-25.84 18.25,-51.53 27.84,-77.09l0.18 0 0 -0.48c2.14,-5.69 4.2,-11.41 6.37,-17.07l0.64 0 0 -1.74c1.11,-2.92 2.15,-5.88 3.28,-8.8l0.22 0 0 -0.57c2.19,-5.7 4.52,-11.31 6.75,-16.98l0.26 0 0 -0.64c2.22,-5.65 4.52,-11.27 6.77,-16.9l0.24 0 0 -0.6c2.25,-5.65 4.5,-11.31 6.79,-16.96l0.21 0 0 -0.51c2.3,-5.67 4.49,-11.4 6.82,-17.04l0.19 0 0 -0.47c6.73,-16.32 13.75,-32.49 20.74,-48.68l0.27 0 0 -0.63c3.45,-7.97 6.76,-16 10.27,-23.94l0.25 0 0 -0.57 2.85 -6.45 0.64 0 0 -1.42c4.5,-10.12 9.21,-20.11 13.81,-30.17l0.21 0 0 -0.46 3.01 -6.57 0.49 0 0 -1.06c13.4,-29.12 27.14,-58.05 41.35,-86.69l0.69 0 0 -1.4 2.74 -5.63 0.76 0 0 -1.55 2.68 -5.47 0.82 0 0 -1.58 2.81 -5.44 0.7 0 0 -1.33 2.94 -5.69 0.56 0 0 -1.1 3.07 -5.92 0.44 0 0 -0.86 3.18 -6.16 0.31 0 0 -0.59 3.33 -6.43 0.18 0 0 -0.35 3.45 -6.68 0.05 0 0 -0.11c14.72,-28.28 29.76,-56.35 45.26,-84.13l0.28 0 0 -0.51c4.5,-8.05 9.04,-16.06 13.6,-24.07l0.41 0 0 -0.71c3.22,-5.64 6.51,-11.22 9.75,-16.84l0.76 0 0 -1.31 3.3 -5.71 0.2 0 0 -0.34c3.33,-5.73 6.62,-11.5 9.97,-17.21l0.55 0 0 -0.95c10.24,-17.35 20.71,-34.56 31.25,-51.71l0.28 0 0 -0.46c3.49,-5.69 6.92,-11.43 10.44,-17.09l0.06 0 0 -0.09c2.17,-3.47 4.26,-6.98 6.44,-10.44l0.56 0 0 -0.88c2.04,-3.24 4.16,-6.41 6.22,-9.65l0.79 0 0 -1.22c5.71,-9 11.51,-17.92 17.3,-26.86l0.22 0 0 -0.33c2.2,-3.39 4.36,-6.82 6.57,-10.21l0.43 0 0 -0.65c11.42,-17.47 23.05,-34.77 34.78,-52l0.25 0 0 -0.36 6.9 -10.18 0.11 0 0 -0.15c5.6,-8.15 11.19,-16.32 16.86,-24.41l0.66 0 0 -0.93c2.26,-3.22 4.59,-6.4 6.86,-9.61l0.14 0 0 -0.2 9.88 -13.84 0.63 0 0 -0.9 6.89 -9.63 0.12 0 0 -0.17c20.4,-28.34 41.13,-56.44 62.4,-84.08l0.65 0 0 -0.82c3.43,-4.45 6.96,-8.8 10.41,-13.22l0.1 0 0 -0.12 2.67 -3.4 0.83 0 0 -1.06 10.22 -12.98 0.3 0 0 -0.38c4.51,-5.72 8.96,-11.48 13.52,-17.17l0.49 0 0 -0.62c14.96,-18.69 30.16,-37.18 45.53,-55.54l0.01 0 0 -0.01 2.9 -3.51 0.6 0 0 -0.73c5.71,-6.8 11.47,-13.56 17.23,-20.32l0.28 0 0 -0.32 2.77 -3.19 0.73 0 0 -0.86c6.81,-7.95 13.68,-15.84 20.57,-23.72l0.45 0 0 -0.53c19.5,-22.31 39.25,-44.39 59.34,-66.16l0.21 0 0 -0.24 2.97 -3.27 0.54 0 0 -0.59 2.66 -2.93 0.84 0 0 -0.92c17.29,-18.62 34.81,-37.04 52.51,-55.24l0.03 0 0 -0.04 3.32 -3.47 0.19 0 0 -0.2 3.31 -3.31 0.19 0 0 -0.2 3.32 -3.32 0.19 0 0 -0.19c9.2,-9.38 18.55,-18.62 27.86,-27.89l0.16 0 0 -0.16 3.36 -3.35 0.15 0 0 -0.15 3.35 -3.36 0.14 0 0 -0.14 3.37 -3.37 0.14 0 0 -0.14 3.36 -3.37 0.14 0 0 -0.14 3.38 -3.37 0.13 0 0 -0.13 3.43 -3.38 0.07 0 0 -0.07c20.64,-20.16 41.61,-40 62.77,-59.61l0.29 0 0 -0.26c12.65,-11.72 25.42,-23.32 38.26,-34.85l0.27 0 0 -0.23c9.1,-8.17 18.29,-16.26 27.48,-24.33l0.54 0 0 -0.47c7.87,-6.91 15.79,-13.77 23.72,-20.6l0.8 0 0 -0.71 3.24 -2.8 0.27 0 0 -0.23c8.13,-6.98 16.29,-13.93 24.5,-20.83l0.02 0 0 -0.02c12.63,-10.62 25.34,-21.14 38.13,-31.57l0.4 0 0 -0.34c5.62,-4.58 11.23,-9.16 16.87,-13.7l0.64 0 0 -0.5c5.68,-4.57 11.46,-9.03 17.17,-13.54l0.35 0 0 -0.28c5.81,-4.61 11.62,-9.22 17.46,-13.77l0.05 0 0 -0.04c4.45,-3.48 8.83,-7.04 13.3,-10.49l0.71 0 0 -0.57c22.85,-17.66 45.94,-35.04 69.26,-52.09l0.81 0 0 -0.58c4.61,-3.36 9.31,-6.61 13.93,-9.95l0.08 0 0 -0.06 9.73 -6.95 0.78 0 0 -0.55 13.97 -9.99 0.04 0 0 -0.03 9.78 -6.99 0.73 0 0 -0.52c8.14,-5.73 16.32,-11.39 24.51,-17.03l0.01 0 0 -0.01c17.15,-11.82 34.34,-23.59 51.71,-35.1l0.84 0 0 -0.53c3.32,-2.2 6.73,-4.31 10.06,-6.49l0.44 0 0 -0.29c3.46,-2.27 6.96,-4.47 10.43,-6.73l0.09 0 0 -0.06c9.03,-5.86 18.04,-11.72 27.13,-17.49l0.89 0 0 -0.58c3.35,-2.13 6.64,-4.33 10,-6.45l0.51 0 0 -0.32c26.43,-16.66 53.15,-32.9 80.08,-48.81l0.49 0 0 -0.28c7.88,-4.66 15.85,-9.18 23.77,-13.77l0.75 0 0 -0.43c5.8,-3.36 11.58,-6.77 17.42,-10.1l0.09 0 0 -0.05 5.98 -3.46 1.03 0 0 -0.6c42.6,-24.17 85.84,-47.34 129.6,-69.61l0.02 0 0 -0.01 6.78 -3.5 0.22 0 0 -0.12 6.57 -3.39 0.44 0 0 -0.23 6.58 -3.28 0.42 0 0 -0.2 6.78 -3.31 0.23 0 0 -0.11 6.99 -3.4 0.01 0c21.79,-10.76 43.69,-21.31 65.74,-31.59l0.82 0 0 -0.37 6.87 -3.15 0.14 0 0 -0.06c10.17,-4.7 20.37,-9.37 30.59,-13.98l0.94 0 0 -0.42 6.75 -3.09 0.25 0 0 -0.11c35.38,-15.82 71.13,-30.95 107.16,-45.52l1.43 0 0 -0.57 16.15 -6.45 1.37 0 0 -0.55c5.41,-2.15 10.8,-4.35 16.22,-6.47l1.29 0 0 -0.52c5.51,-2.15 10.99,-4.38 16.52,-6.51l1 0 0 -0.37c44.96,-17.25 90.43,-33.48 136.33,-48.77l0.28 0 0 -0.1 10.09 -3.41 0.43 0 0 -0.13c21.94,-7.22 44.03,-14.17 66.17,-20.93l0.39 0 0 -0.12c7.71,-2.35 15.45,-4.6 23.19,-6.9l1.33 0 0 -0.39c7.62,-2.26 15.3,-4.43 22.94,-6.64l1.57 0 0 -0.45c7.58,-2.18 15.12,-4.45 22.71,-6.57l1.82 0 0 -0.53c3.47,-0.96 6.88,-2.02 10.35,-2.97l0.16 0 0 -0.04c4.38,-1.22 8.81,-2.28 13.21,-3.48l0.8 0 0 -0.2c22.06,-5.98 44.17,-11.83 66.42,-17.35l0.14 0 0 -0.03c9.82,-2.44 19.73,-4.65 29.58,-6.99l1.94 0 0 -0.46 12.88 -3.05 1.14 0 0 -0.27 13.72 -3.24 0.29 0 0 -0.07c4.88,-1.11 9.73,-2.35 14.62,-3.44l2.89 0 0 -0.61c4.59,-1.02 9.23,-1.9 13.82,-2.9l0.19 0 0 -0.04c28.67,-6.24 57.49,-12.04 86.42,-17.52l1.16 0 0 -0.22c5.94,-1.12 11.89,-2.2 17.84,-3.28l3.19 0 0 -0.59c5.29,-0.96 10.56,-1.99 15.86,-2.92l1.64 0 0 -0.3c5.98,-1.06 11.93,-2.19 17.92,-3.22l3.1 0 0 -0.49c37.8,-6.41 75.86,-11.97 114.08,-17.06l1.53 0 0 -0.2c8.29,-1.09 16.55,-2.28 24.86,-3.31l3.16 0 0 -0.42c8.72,-1.08 17.47,-2.07 26.2,-3.08l1.82 0 0 -0.2c21.11,-2.43 42.24,-4.81 63.47,-6.83l3.09 0 0 -0.26c13.16,-1.24 26.43,-2.17 39.62,-3.25l5.92 0 0 -0.49c12.74,-1.02 25.44,-2.13 38.22,-3.01l7.32 0 0 -0.42c50.62,-3.39 101.56,-5.61 152.81,-6.61l8599.4 0c51.14,0.98 101.97,3.27 152.5,6.59l0 0.44 7.64 0c12.67,0.86 25.26,1.99 37.9,2.99l0 0.51 6.17 0c13.12,1.07 26.29,1.99 39.38,3.22l0 0.29 3.21 0c21.19,2.01 42.28,4.38 63.34,6.79l0 0.24 2.2 0c8.62,0.99 17.23,1.99 25.83,3.05l0 0.45 3.37 0c8.24,1.02 16.43,2.18 24.65,3.27l0 0.24 1.82 0c8.74,1.17 17.5,2.25 26.2,3.47l0 0.04 0.28 0c8.1,1.15 16.17,2.31 24.24,3.52l0.01 0c21.07,3.14 42.1,6.41 63.05,9.96l0 0.56 3.56 0c5.84,1 11.63,2.15 17.46,3.18l0 0.34 1.85 0c12.26,2.17 24.48,4.44 36.68,6.73l0 0.28 1.52 0c28.82,5.46 57.52,11.23 86.06,17.44l0 0.12 0.58 0c10.34,2.24 20.65,4.55 30.94,6.9l0 0.12 0.5 0 13.51 3.18 0 0.33 1.4 0 12.62 2.97 0 0.54 2.26 0c9.74,2.31 19.55,4.48 29.26,6.89l0 0.13 0.57 0c4.5,1.12 8.96,2.36 13.44,3.49l0 0.02 0.09 0c17.55,4.44 35.04,9.02 52.46,13.74l0 0.3 1.17 0c4.27,1.16 8.58,2.24 12.84,3.42l0 0.1 0.34 0c3.41,0.93 6.77,1.98 10.18,2.93l0 0.57 1.99 0c4.02,1.12 8.01,2.32 12.02,3.46l0 0.05 0.16 0 10.35 2.99 0 0.52 1.84 0 12.17 3.51 0 0.01 0.02 0 10.48 3.02 0 0.49 1.71 0c7.62,2.26 15.23,4.53 22.82,6.85l0 0.17 0.55 0c18.57,5.67 37.07,11.49 55.49,17.48l0 0.07 0.23 0c3.42,1.11 6.87,2.15 10.29,3.27l0 0.24 0.71 0c3.28,1.09 6.52,2.27 9.8,3.35l0 0.16 0.46 0c3.36,1.12 6.69,2.3 10.04,3.44l0 0.07 0.2 0c42.34,14.25 84.36,29.17 125.91,45.1l0 0.53 1.32 0c5.43,2.08 10.79,4.32 16.2,6.44l0 0.59 1.47 0c14.73,5.76 29.44,11.56 44.07,17.52l0 0.03 0.06 0c22.3,9.09 44.45,18.47 66.5,28.04l0 0.04 0.08 0c10.51,4.57 21,9.18 31.44,13.86l0 0.18 0.41 0 6.6 3.01 0 0.5 1.12 0c10.15,4.58 20.3,9.17 30.41,13.85l0 0.19 0.45 0 6.55 2.99 0 0.53 1.17 0c24.3,11.32 48.43,22.91 72.4,34.81l0 0.29 0.6 0 6.4 3.13 0 0.38 0.74 0 6.27 3.23 0 0.28 0.56 0 6.44 3.31 0 0.2 0.38 0 6.63 3.41 0 0.1 0.2 0 6.8 3.51 0 0.01 0.03 0c35.37,18.1 70.46,36.68 105.07,56.04l0 0.12 0.23 0c8.14,4.56 16.19,9.28 24.29,13.9l0 0.14 0.25 0 17.26 9.95 0 0.58 1 0 6.02 3.46 0 0.05 0.07 0c5.8,3.37 11.66,6.65 17.43,10.05l0 0.49 0.86 0c23.25,13.73 46.33,27.72 69.21,42.02l0 0.1 0.17 0c3.47,2.17 6.87,4.44 10.33,6.62l0 0.39 0.62 0c12.71,8.01 25.32,16.16 37.92,24.35l0 0.23 0.36 0c3.36,2.19 6.79,4.31 10.15,6.51l0 0.51 0.78 0c24.49,16.06 48.77,32.42 72.79,49.11l0 0.03 0.05 0c8.22,5.72 16.3,11.62 24.46,17.4l0 0.16 0.22 0c8.11,5.75 16.25,11.45 24.3,17.27l0 0.28 0.39 0c22.26,16.09 44.33,32.41 66.17,49.05l0 0.1 0.13 0c10.54,8.03 20.95,16.24 31.4,24.4l0 0.17 0.22 0c5.77,4.51 11.55,9.02 17.29,13.57l0 0.48 0.61 0c4.45,3.53 8.98,6.96 13.4,10.52l0 0.01 0.01 0 3.5 2.74 0 0.77 0.97 0c26.93,21.64 53.38,43.87 79.6,66.35l0 0.34 0.39 0c8.07,6.91 16.13,13.84 24.13,20.83l0 0.23 0.26 0 3.24 2.81 0 0.71 0.83 0c7.94,6.97 15.83,14.01 23.7,21.05l0 0.01 0.01 0c33.27,29.77 66.02,60.12 98.07,91.22l0 0.05 0.05 0 3.45 3.37 0 0.14 0.14 0 3.37 3.36 0 0.15 0.15 0 3.35 3.34 0 0.17 0.18 0 3.32 3.3 0 0.21 0.21 0 3.29 3.28 0 0.23 0.23 0 3.28 3.26 0 0.25 0.25 0c12.83,12.68 25.66,25.37 38.29,38.27l0 0.35 0.33 0 3.16 3.29 0 0.22 0.21 0 3.3 3.44 0 0.07 0.07 0c20.1,20.68 39.9,41.65 59.48,62.86l0 0.33 0.3 0 3.2 3.5c11.74,12.76 23.5,25.49 35.03,38.44l0 0.18 0.15 0c7.04,7.9 13.91,15.95 20.88,23.91l0 0.66 0.56 0 2.93 3.35 0 0.16 0.14 0c6.95,7.98 14.01,15.88 20.88,23.93l0 0.65 0.57 0 2.94 3.42 0 0.08 0.07 0c5.9,6.93 11.6,14 17.44,20.98l0 0.09 0.08 0c20.17,24.09 39.99,48.48 59.47,73.15l0 0.56 0.45 0c4.51,5.71 9.1,11.36 13.56,17.1l0 0.46 0.36 0 10.15 13.09 0 0.95 0.71 0c15.16,19.69 30.11,39.53 44.83,59.58l0 0.1 0.07 0c5.9,8.03 11.62,16.18 17.44,24.26l0 0.31 0.22 0c5.77,8.01 11.6,15.98 17.3,24.05l0 0.52 0.38 0c8.15,11.54 16.13,23.21 24.15,34.87l0 0.23 0.16 0c16.61,24.18 32.9,48.59 48.88,73.24l0 0.49 0.32 0 6.68 10.28 0 0.25 0.16 0c5.81,9.03 11.64,18.04 17.36,27.13l0 0.95 0.58 0c2.18,3.45 4.27,6.95 6.43,10.42l0 0.11 0.07 0c17.93,28.76 35.41,57.84 52.47,87.21l0 0.55 0.33 0c3.38,5.82 6.84,11.59 10.18,17.44l0 0.12 0.07 0 3.43 5.86 0 1.15 0.67 0c4.54,7.96 8.87,16.04 13.34,24.04l0 0.54 0.3 0c15.48,27.74 30.55,55.74 45.25,83.97l0 0.27 0.14 0 3.35 6.42 0 0.61 0.32 0 3.19 6.1 0 0.92 0.48 0 3.02 5.78 0 1.24 0.65 0 2.86 5.47 0 1.55 0.81 0c20.44,40.21 39.92,80.98 58.74,122.12l0 0.75 0.35 0 3.15 6.81 0 0.2 0.09 0c3.5,7.68 6.98,15.37 10.42,23.09l0 1.49 0.64 0 2.86 6.58 0 0.44 0.19 0c13.24,29.97 25.98,60.2 38.34,90.63l0 0.64 0.26 0c2.24,5.54 4.53,11.06 6.75,16.61l0 0.95 0.39 0c2.17,5.44 4.46,10.82 6.61,16.29l0 1.25 0.51 0c2.23,5.68 4.31,11.45 6.5,17.15l0 0.4 0.16 0c13.39,34.68 26.15,69.67 38.38,104.9l0 0.42 0.15 0 3.35 9.54 0 0.99 0.34 0c1.04,3.01 2.14,5.97 3.16,8.99l0 1.54 0.55 0 2.96 8.72 0 1.82 0.58 0c1.01,2.98 1.93,6 2.92,8.99l0 1.53 0.5 0 3 9.26 0 1.27 0.41 0 3.09 9.54 0 1 0.32 0 3.19 9.82 0 0.71 0.23 0c1.08,3.37 2.21,6.72 3.27,10.11l0 0.42 0.14 0c8.45,26.65 16.59,53.43 24.38,80.38l0 0.36 0.11 0c1.1,3.82 2.3,7.59 3.4,11.42l0 2.62 0.74 0c0.95,3.37 1.81,6.78 2.76,10.16l0 0.37 0.1 0c1.17,4.17 2.25,8.38 3.41,12.55l0 1.5 0.4 0c2.24,8.09 4.42,16.19 6.6,24.3l0 0.26 0.07 0c7.32,27.4 14.31,54.92 20.95,82.6l0 1.66 0.41 0c1.01,4.22 2.1,8.41 3.09,12.63l0 1.41 0.35 0 3.15 13.61 0 0.43 0.09 0c1.19,5.16 2.25,10.38 3.41,15.54l0 2.01 0.45 0 3.06 13.95 0 0.09 0.02 0c7.51,34.18 14.56,68.54 21,103.11l0 2.2 0.43 0c1,5.41 2.08,10.81 3.07,16.24l0 1.31 0.21 0c1.17,6.47 2.17,13 3.29,19.48l0 1.59 0.27 0c1.11,6.39 2.16,12.8 3.24,19.19l0 1.88 0.31 0c4.97,29.75 9.54,59.63 13.7,89.64l0 1.62 0.23 0c1.05,7.65 2.27,15.23 3.27,22.89l0 5.2 0.62 0c1.05,8.1 1.9,16.27 2.89,24.41l0 3.67 0.44 0c1.04,8.61 2.08,17.23 3.05,25.86l0 2.23 0.27 0c3.95,35.16 7.41,70.48 10.25,105.97l0 9.86 0.67 0c1.06,13.69 1.94,27.41 2.82,41.13l0 4.51 0.31 0c3.95,62.23 6.27,124.91 6.7,188.04l0 8472.84c-0.41,63.41 -2.82,126.35 -6.75,188.87l-0.26 0 0 3.76c-0.89,13.98 -1.82,27.95 -2.9,41.88l-0.59 0 0 8.56c-0.98,12.39 -2.17,24.72 -3.29,37.07l-0.22 0 0 2.27c-2.07,22.71 -4.3,45.36 -6.82,67.94l-0.19 0 0 1.55c-0.99,8.86 -2.11,17.69 -3.17,26.53l-0.32 0 0 2.66c-1.03,8.47 -1.95,16.98 -3.04,25.42l-0.47 0 0 3.88c-1.05,8.1 -2.25,16.14 -3.36,24.22l-0.14 0 0 0.95c-3.21,23.16 -6.56,46.25 -10.23,69.25l-0.28 0 0 1.63c-1.04,6.5 -2.23,12.95 -3.31,19.43l-0.19 0 0 1.11 -3.41 19.95 -0.1 0 0 0.59c-0.98,5.65 -1.88,11.33 -2.89,16.96l-0.61 0 0 3.59 -3.17 17.48 -0.33 0 0 1.66c-5.37,28.84 -11.16,57.53 -17.28,86.11l-0.24 0 0 1.08c-2.18,10.2 -4.48,20.35 -6.77,30.51l-0.24 0 0 1.05 -2.88 12.99 -0.62 0 0 2.8c-1.13,4.9 -2.13,9.86 -3.28,14.75l-0.22 0 0 0.99c-1.02,4.37 -2.19,8.68 -3.23,13.05l-0.27 0 0 1.1c-8.67,36.16 -18.03,72.04 -27.87,107.72l-0.15 0 0 0.55c-2.22,8 -4.33,16.04 -6.6,24.02l-0.41 0 0 1.52c-2.2,7.71 -4.47,15.38 -6.72,23.06l-0.29 0 0 1c-7.84,26.72 -16.01,53.3 -24.5,79.74l-0.02 0 0 0.06 -3.44 10.47 -0.07 0 0 0.21 -3.38 10.32 -0.12 0 0 0.37 -3.34 10.17 -0.16 0 0 0.48 -3.29 10.04 -0.21 0 0 0.65c-1.1,3.28 -2.14,6.6 -3.25,9.88l-0.26 0 0 0.8 -3.32 9.74 -0.18 0 0 0.51c-10.07,29.28 -20.64,58.34 -31.49,87.25l-0.04 0 0 0.12c-2.19,5.83 -4.46,11.61 -6.68,17.43l-0.32 0 0 0.82c-2.14,5.58 -4.24,11.17 -6.41,16.73l-0.6 0 0 1.57 -3.44 8.96 -0.07 0 0 0.19c-2.27,5.79 -4.5,11.59 -6.81,17.36l-0.19 0 0 0.45c-11.25,28.14 -22.96,56.05 -34.94,83.81l-0.09 0 0 0.21c-4.54,10.49 -9.17,20.94 -13.81,31.38l-0.2 0 0 0.45 -2.89 6.57 -0.62 0 0 1.4c-3.46,7.73 -6.87,15.48 -10.39,23.17l-0.11 0 0 0.23 -3.19 6.79 -0.32 0 0 0.69c-11.29,24.51 -22.88,48.85 -34.74,73.03l-0.29 0 0 0.59 -3.21 6.43 -0.29 0 0 0.57 -3.21 6.45 -0.29 0 0 0.57 -3.22 6.45 -0.29 0 0 0.58 -3.21 6.45 -0.29 0 0 0.57 -3.22 6.44 -0.29 0 0 0.59 -3.21 6.44 -0.28 0 0 0.55 -3.22 6.46 -0.29 0 0 0.57 -3.24 6.46 -0.26 0 0 0.47 -3.47 6.55 -0.04 0 0 0.08c-14.65,28.32 -29.81,56.34 -45.26,84.17l-0.28 0 0 0.49c-4.46,8.05 -8.96,16.08 -13.5,24.08l-0.51 0 0 0.91 -3.42 6.11 -0.08 0 0 0.15c-3.3,5.79 -6.51,11.64 -9.84,17.4l-0.67 0 0 1.12 -3.5 5.91 0 0.01c-3.42,5.88 -6.94,11.68 -10.4,17.54l-0.11 0 0 0.18c-10.37,17.58 -20.8,35.11 -31.49,52.47l-0.04 0 0 0.06c-7.94,12.93 -16.01,25.75 -24.13,38.56l-0.39 0 0 0.64c-2.09,3.28 -4.09,6.61 -6.19,9.89l-0.81 0 0 1.3c-5.75,8.99 -11.67,17.85 -17.51,26.78l-0.01 0 0 0.01 -6.94 10.53 -0.07 0 0 0.11c-14.77,22.38 -29.78,44.58 -45.07,66.58l-0.47 0 0 0.66 -6.85 9.87 -0.15 0 0 0.22c-5.69,8.12 -11.3,16.29 -17.07,24.35l-0.45 0 0 0.62c-5.74,8.05 -11.66,15.97 -17.49,23.96l-0.02 0 0 0.03c-13.74,18.86 -27.66,37.58 -41.79,56.13l-0.24 0 0 0.32c-7.97,10.46 -15.91,20.92 -23.99,31.28l-0.54 0 0 0.69c-3.48,4.45 -6.93,8.92 -10.44,13.35l-0.07 0 0 0.08 -2.76 3.43 -0.74 0 0 0.93c-19.47,24.57 -39.35,48.79 -59.5,72.79l-0.05 0 0 0.05c-6.88,8.2 -13.76,16.39 -20.74,24.52l-0.28 0 0 0.34 -2.68 3.18 -0.83 0 0 0.97c-5.78,6.73 -11.6,13.4 -17.43,20.08l-0.07 0 0 0.09 -3.04 3.42 -0.47 0 0 0.53c-20.64,23.55 -41.67,46.75 -62.96,69.69l-0.09 0 0 0.11 -3.16 3.39 -0.35 0 0 0.38 -2.92 3.13 -0.59 0 0 0.63c-50.65,54.22 -103.12,106.68 -157.28,157.34l-0.35 0 0 0.33 -3.42 3.18 -0.09 0 0 0.08c-13.89,12.95 -27.85,25.84 -41.96,38.53l-0.07 0 0 0.06c-7.83,7.06 -15.74,14.03 -23.64,21.01l-0.88 0 0 0.77 -3.08 2.74 -0.42 0 0 0.38c-7.86,6.91 -15.66,13.85 -23.59,20.69l-0.94 0 0 0.79 -3.19 2.71 -0.3 0 0 0.26c-26.27,22.59 -52.97,44.68 -79.95,66.44l-0.62 0 0 0.51c-5.6,4.5 -11.17,9.06 -16.79,13.53l-0.73 0 0 0.6c-5.64,4.49 -11.25,8.99 -16.92,13.44l-0.6 0 0 0.46c-10.38,8.14 -20.92,16.1 -31.41,24.12l-0.11 0 0 0.09c-13.88,10.6 -27.82,21.12 -41.86,31.5l-0.18 0 0 0.13c-7.91,5.85 -15.88,11.64 -23.85,17.43l-0.67 0 0 0.49c-4.59,3.33 -9.13,6.73 -13.74,10.03l-0.28 0 0 0.2 -9.43 6.83 -1.07 0 0 0.75c-8,5.68 -16.13,11.18 -24.18,16.79l-0.35 0 0 0.24c-27.33,19.06 -54.93,37.71 -82.85,55.93l-1.21 0 0 0.8c-3.16,2.06 -6.27,4.18 -9.43,6.22l-1.09 0 0 0.72 -9.66 6.31 -0.85 0 0 0.52c-3.43,2.2 -6.94,4.3 -10.38,6.5l-0.12 0 0 0.07c-9.27,5.89 -18.6,11.67 -27.92,17.47l-0.11 0 0 0.07c-17.16,10.67 -34.44,21.18 -51.81,31.53l-0.73 0 0 0.44 -17.05 10.1 -0.47 0 0 0.27c-5.78,3.4 -11.49,6.9 -17.3,10.25l-0.22 0 0 0.13 -5.72 3.39 -1.29 0 0 0.71c-7.87,4.53 -15.87,8.86 -23.78,13.33l-0.73 0 0 0.4c-8.1,4.57 -16.21,9.14 -24.34,13.64l-0.18 0 0 0.1c-14.99,8.29 -30.08,16.42 -45.21,24.48l-0.34 0 0 0.17 -6.28 3.33 -0.72 0 0 0.38 -5.93 3.13 -1.08 0 0 0.57 -5.56 2.94 -1.44 0 0 0.77c-39.06,20.43 -78.62,40.04 -118.6,58.91l-0.51 0 0 0.24 -6.99 3.27 -0.01 0c-9.99,4.69 -19.94,9.45 -29.99,14.04l-1.54 0 0 0.72c-2,0.91 -3.98,1.89 -5.99,2.79l-1.02 0 0 0.45 -6.99 3.07 -0.01 0c-7.96,3.58 -16,7 -24,10.52l-0.52 0 0 0.23c-30.07,13.24 -60.37,26.04 -90.91,38.38l-0.17 0 0 0.07 -8.4 3.45 -2.11 0 0 0.86 -6.47 2.65 -0.54 0 0 0.22 -8.31 3.29 -2.19 0 0 0.84c-5.37,2.11 -10.82,4.09 -16.21,6.18l-1.31 0 0 0.49 -17.12 6.53 -0.39 0 0 0.15c-22.06,8.38 -44.24,16.52 -66.52,24.42l-0.04 0 0 0.02 -9.9 3.49 -0.61 0 0 0.22 -9.34 3.3 -1.17 0 0 0.4 -8.78 3.11 -1.73 0 0 0.61c-2.74,0.94 -5.45,1.96 -8.19,2.89l-2.32 0 0 0.81c-2.75,0.93 -5.55,1.77 -8.3,2.7l-2.2 0 0 0.72 -8.59 2.8 -1.93 0 0 0.62 -8.86 2.89 -1.65 0 0 0.54c-25.38,8.32 -50.89,16.32 -76.53,24.03l-0.53 0 0 0.16c-7.67,2.3 -15.33,4.61 -23.03,6.86l-1.5 0 0 0.45c-3.43,1.01 -6.83,2.07 -10.28,3.07l-0.22 0 0 0.06 -11.79 3.44 -2.22 0 0 0.6c-7.86,2.22 -15.78,4.25 -23.66,6.42l-0.87 0 0 0.24c-21.77,5.98 -43.6,11.78 -65.55,17.32l-1 0 0 0.24 -13.36 3.27 -0.65 0 0 0.16 -13.67 3.34 -0.35 0 0 0.09c-4.67,1.14 -9.33,2.32 -14,3.42l-3.51 0 0 0.86c-3.62,0.86 -7.23,1.81 -10.85,2.66l-3.17 0 0 0.77zm-12.53 2.74l-1.48 0 0 0.32c-10.19,2.32 -20.44,4.48 -30.66,6.69l-0.87 0 0 0.19c-22.43,4.86 -44.94,9.46 -67.54,13.86l-2.51 0 0 0.47 -15.78 3.04 -1.74 0 0 0.34c-5.52,1.03 -11.01,2.16 -16.54,3.17l-4.48 0 0 0.86c-5.08,0.91 -10.17,1.76 -15.25,2.65l-2.27 0 0 0.38c-6.25,1.1 -12.55,2.07 -18.82,3.13l-2.19 0 0 0.36c-29.52,4.98 -59.18,9.51 -88.97,13.69l-2.12 0 0 0.29c-7.61,1.07 -15.2,2.19 -22.84,3.21l-5.18 0 0 0.73c-7.46,0.97 -14.94,1.86 -22.42,2.78l-5.6 0 0 0.65c-8.32,1.01 -16.68,1.92 -25.02,2.86l-3 0 0 0.35c-9.22,1.05 -18.39,2.2 -27.64,3.17l-0.38 0 0 0.04c-12.34,1.28 -24.76,2.32 -37.13,3.46l-4.92 0 0 0.44c-11.51,1.05 -23,2.14 -34.53,3.07l-11.01 0 0 0.98c-13.15,1.01 -26.4,1.68 -39.61,2.53l-5.92 0 0 0.38c-18.96,1.2 -37.96,2.25 -56.99,3.14l-9.57 0 0 0.37c-45.98,2.01 -92.17,3.14 -138.62,3.14l-8473.05 0c-46.56,0 -92.83,-1.22 -138.92,-3.16z"/>
  <g>
   <path class="fil1" d="M9752.13 13322.86l0 -1230.94 0 0 112.47 -2.84 110.58 -8.44 108.76 -13.85 106.9 -19.14 104.94 -24.28 102.9 -29.28 100.73 -34.16 98.48 -38.92 96.12 -43.55 93.61 -48.05 90.95 -52.41 88.2 -56.67 85.28 -60.76 82.18 -64.72 78.97 -68.56 75.61 -72.24 72.06 -75.74 68.41 -79.14 64.6 -82.37 60.63 -85.44 56.54 -88.38 52.31 -91.15 47.94 -93.8 43.46 -96.32 38.83 -98.7 34.1 -100.97 29.23 -103.1 24.21 -105.13 19.1 -107.14 13.83 -109 8.41 -110.82 2.85 -112.7 1228.34 0 -4.41 174.78 -13.11 172.88 -21.63 170.58 -29.92 167.96 -38.03 165.15 -45.91 162 -53.54 158.59 -60.99 155 -68.18 151.14 -75.16 147.08 -81.93 142.79 -88.46 138.28 -94.79 133.58 -100.9 128.67 -106.81 123.58 -112.52 118.26 -118.01 112.74 -123.31 107.04 -128.42 101.12 -133.28 94.98 -137.98 88.65 -142.51 82.11 -146.75 75.31 -150.82 68.33 -154.68 61.12 -158.29 53.66 -161.64 46 -164.76 38.1 -167.64 30 -170.22 21.67 -172.52 13.14 -174.41 4.42 0 0zm-4496.89 -1230.94l4496.89 0 0 1230.94 -4496.89 0 0 0 0 -1230.94zm-3401.55 -2177.77l1228.34 0 0 0 2.85 112.7 8.41 110.82 13.83 109 19.1 107.14 24.22 105.15 29.21 103.08 34.11 100.97 38.83 98.72 43.44 96.28 47.95 93.8 52.32 91.17 56.54 88.38 60.63 85.44 64.6 82.37 68.41 79.14 72.07 75.75 75.6 72.24 78.96 68.55 82.18 64.72 85.27 60.76 88.22 56.67 90.94 52.41 93.61 48.04 96.13 43.56 98.48 38.92 100.72 34.16 102.91 29.28 104.95 24.28 106.9 19.14 108.76 13.85 110.59 8.44 112.47 2.84 0 1230.94 -174.41 -4.42 -172.53 -13.14 -170.22 -21.67 -167.64 -30 -164.75 -38.1 -161.65 -46 -158.3 -53.66 -154.68 -61.12 -150.81 -68.32 -146.77 -75.32 -142.5 -82.11 -137.98 -88.65 -133.29 -94.98 -128.42 -101.12 -123.32 -107.05 -118 -112.74 -112.51 -118.25 -106.81 -123.58 -100.9 -128.67 -94.79 -133.58 -88.46 -138.28 -81.92 -142.77 -75.17 -147.08 -68.2 -151.18 -60.97 -154.98 -53.55 -158.59 -45.91 -162.02 -38.02 -165.13 -29.92 -167.96 -21.63 -170.58 -13.11 -172.88 -4.41 -174.78 0 0zm1228.34 -4808.52l0 4808.52 -1228.34 0 0 -4808.52 0 0 1228.34 0zm2173.21 -3408.7l0 1230.94 0 0 -112.47 2.84 -110.59 8.44 -108.76 13.85 -106.9 19.14 -104.95 24.28 -102.91 29.28 -100.72 34.16 -98.5 38.92 -96.11 43.55 -93.59 48.04 -90.98 52.43 -88.2 56.65 -85.25 60.76 -82.21 64.74 -78.96 68.54 -75.58 72.22 -72.08 75.77 -68.42 79.14 -64.59 82.36 -60.63 85.44 -56.54 88.38 -52.32 91.17 -47.95 93.8 -43.44 96.28 -38.83 98.72 -34.11 100.97 -29.21 103.08 -24.22 105.15 -19.1 107.14 -13.83 109 -8.41 110.82 -2.85 112.7 -1228.34 0 4.41 -174.78 13.11 -172.88 21.63 -170.58 29.92 -167.96 38.02 -165.13 45.91 -162.02 53.55 -158.59 60.97 -154.98 68.2 -151.18 75.17 -147.08 81.92 -142.77 88.46 -138.28 94.79 -133.58 100.91 -128.68 106.8 -123.56 112.5 -118.25 118.02 -112.76 123.32 -107.04 128.39 -101.1 133.31 -95 138 -88.65 142.46 -82.09 146.79 -75.34 150.83 -68.31 154.66 -61.12 158.3 -53.66 161.65 -46 164.75 -38.1 167.64 -30 170.22 -21.67 172.53 -13.14 174.41 -4.42 0 0zm4496.89 1230.94l-4496.89 0 0 -1230.94 4496.89 0 0 0 0 1230.94zm3401.53 2177.76l-1228.34 0 0 0 -2.85 -112.7 -8.41 -110.82 -13.83 -109 -19.1 -107.14 -24.21 -105.13 -29.23 -103.1 -34.1 -100.97 -38.83 -98.7 -43.46 -96.32 -47.94 -93.8 -52.31 -91.15 -56.54 -88.38 -60.63 -85.44 -64.59 -82.36 -68.42 -79.14 -72.07 -75.76 -75.59 -72.22 -78.97 -68.55 -82.21 -64.74 -85.26 -60.76 -88.18 -56.65 -90.99 -52.43 -93.59 -48.05 -96.1 -43.54 -98.5 -38.92 -100.73 -34.16 -102.9 -29.28 -104.94 -24.28 -106.9 -19.14 -108.76 -13.85 -110.58 -8.44 -112.47 -2.84 0 -1230.94 174.41 4.42 172.52 13.14 170.22 21.67 167.64 30 164.76 38.1 161.64 46 158.29 53.66 154.66 61.12 150.84 68.32 146.77 75.33 142.47 82.09 138 88.65 133.3 95 128.39 101.1 123.31 107.03 118.03 112.76 112.51 118.26 106.8 123.56 100.91 128.68 94.79 133.58 88.46 138.28 81.93 142.79 75.16 147.08 68.18 151.14 60.99 155 53.54 158.59 45.91 162 38.03 165.15 29.92 167.96 21.63 170.58 13.11 172.88 4.41 174.78 0 0zm-1228.34 4808.52l0 -4808.52 1228.34 0 0 4808.52 0 0 -1228.34 0z"/>
  </g>
  <g>
   <path class="fil1" d="M7503.67 10724.41l0 -1504.46 0 0 89.23 -2.27 87.35 -6.68 85.58 -10.94 83.88 -15.08 82.12 -19.1 80.37 -23.03 78.61 -26.84 76.79 -30.59 74.93 -34.23 72.97 -37.79 71 -41.3 68.9 -44.68 66.67 -47.97 64.38 -51.19 61.97 -54.29 59.46 -57.32 56.84 -60.23 54.09 -63.02 51.23 -65.72 48.22 -68.23 45.14 -70.72 41.97 -73.12 38.65 -75.3 35.22 -77.39 31.71 -79.47 28.11 -81.37 24.37 -83.19 20.56 -84.97 16.63 -86.63 12.61 -88.26 8.46 -89.79 4.19 -91.4 1500.94 32.88 -7.49 163.56 -15.24 161.85 -22.79 159.72 -30.21 157.37 -37.44 154.77 -44.51 151.95 -51.39 148.89 -58.11 145.57 -64.64 142.11 -71.01 138.38 -77.17 134.42 -83.2 130.36 -89.08 126.07 -94.73 121.5 -100.25 116.82 -105.6 111.89 -110.8 106.8 -115.85 101.49 -120.7 95.95 -125.41 90.21 -129.9 84.24 -134.24 78.06 -138.41 71.67 -142.35 65.03 -146.09 58.17 -149.59 51.08 -152.87 43.77 -155.9 36.24 -158.64 28.52 -161.14 20.58 -163.31 12.46 -165.09 4.19 0 0zm-3223.31 -3230.13l1501.3 0 0 0 2.27 89.56 6.68 87.94 10.95 86.4 15.12 84.81 19.18 83.23 23.12 81.59 26.99 79.9 30.74 78.13 34.41 76.25 37.97 74.3 41.43 72.19 44.82 70.05 48.06 67.74 51.2 65.29 54.27 62.77 57.16 60.09 59.96 57.28 62.63 54.37 65.15 51.31 67.57 48.16 69.9 44.9 72.09 41.55 74.11 38.04 76.09 34.48 77.97 30.81 79.72 27.04 81.42 23.17 83.07 19.22 84.65 15.16 86.2 10.98 87.72 6.69 89.39 2.27 0 1504.46 -165.09 -4.17 -163.44 -12.45 -161.3 -20.54 -158.87 -28.42 -156.19 -36.12 -153.26 -43.61 -150.06 -50.88 -146.61 -57.93 -142.97 -64.76 -139.11 -71.4 -135.01 -77.79 -130.76 -84 -126.31 -90 -121.67 -95.81 -116.81 -101.41 -111.78 -106.8 -106.58 -112.03 -101.17 -117.05 -95.62 -121.93 -89.8 -126.56 -83.82 -131.01 -77.65 -135.35 -71.23 -139.38 -64.63 -143.27 -57.8 -146.93 -50.77 -150.36 -43.52 -153.59 -36.04 -156.53 -28.36 -159.23 -20.49 -161.62 -12.42 -163.74 -4.17 -165.46 0 0zm3245.19 -3229.76l-43.76 1503.82 -0.01 0 -86.87 -0.19 -85.17 4.42 -83.69 8.88 -82.16 13.2 -80.71 17.43 -79.24 21.54 -77.74 25.59 -76.16 29.52 -74.46 33.36 -72.79 37.17 -70.95 40.86 -68.98 44.45 -66.93 47.97 -64.67 51.32 -62.33 54.62 -59.81 57.73 -57.16 60.77 -54.38 63.65 -51.41 66.36 -48.35 68.96 -45.14 71.41 -41.78 73.66 -38.31 75.8 -34.74 77.8 -31.05 79.66 -27.25 81.4 -23.34 82.98 -19.33 84.47 -15.24 85.86 -11.01 87.13 -6.7 88.42 -2.27 89.74 -1501.3 0 4.17 -165.5 12.4 -163.92 20.45 -161.91 28.28 -159.54 35.91 -156.95 43.34 -154.1 50.53 -150.98 57.53 -147.66 64.32 -144.1 70.93 -140.34 77.34 -136.36 83.54 -132.15 89.55 -127.74 95.43 -123.18 101.1 -118.33 106.6 -113.33 111.97 -108.09 117.13 -102.62 122.17 -96.94 126.97 -90.97 131.66 -84.83 136.15 -78.38 140.43 -71.71 144.58 -64.76 148.4 -57.5 152 -49.99 155.4 -42.24 158.49 -34.19 161.3 -25.9 163.73 -17.34 165.89 -8.6 167.51 0.39 -0.01 0zm3201.27 3246.2l-1500.94 -32.88 0 0.02 0.18 -96.73 -3.64 -94.07 -7.35 -91.28 -10.96 -88.39 -14.43 -85.46 -17.8 -82.46 -21.05 -79.41 -24.18 -76.35 -27.25 -73.35 -30.21 -70.38 -33.1 -67.39 -36 -64.56 -38.87 -61.8 -41.76 -59.1 -44.73 -56.52 -47.81 -54.06 -51.03 -51.67 -54.42 -49.34 -58.03 -47.07 -61.83 -44.79 -65.84 -42.45 -70.17 -40.09 -74.74 -37.62 -79.49 -35 -84.47 -32.2 -89.71 -29.21 -95.06 -26 -100.56 -22.51 -106.25 -18.81 -111.98 -14.83 -117.77 -10.56 -123.78 -6.06 43.76 -1503.82 183.16 8.96 179.51 16.12 175.62 23.25 171.67 30.39 167.62 37.55 163.4 44.68 159.01 51.79 154.47 58.88 149.67 65.9 144.62 72.82 139.39 79.63 133.88 86.31 128.03 92.73 121.97 98.93 115.7 104.9 109.19 110.53 102.49 115.84 95.65 120.84 88.66 125.44 81.57 129.64 74.48 133.54 67.36 137.09 60.23 140.24 53.17 143.11 46.18 145.73 39.23 147.99 32.4 150.02 25.67 151.84 19.02 153.43 12.49 154.84 6.06 156.07 -0.3 157.15 0 0.02z"/>
  </g>
  <path class="fil1" d="M11242.84 4430.33c0,383.83 -310.51,695.02 -693.56,695.02 -383.03,0 -693.57,-311.19 -693.57,-695.02 0,-383.86 310.54,-695.03 693.57,-695.03 383.05,0 693.56,311.17 693.56,695.03z"/>
 </g>
</svg>
