<?xml version="1.0" encoding="UTF-8"?>
<!DOCTYPE svg PUBLIC "-//W3C//DTD SVG 1.1//EN" "http://www.w3.org/Graphics/SVG/1.1/DTD/svg11.dtd">
<!-- Creator: CorelDRAW 2018 (64-Bit) -->
<svg xmlns="http://www.w3.org/2000/svg" xml:space="preserve" width="170mm" height="100mm" version="1.1" style="shape-rendering:geometricPrecision; text-rendering:geometricPrecision; image-rendering:optimizeQuality; fill-rule:evenodd; clip-rule:evenodd"
viewBox="0 0 17000 10000"
 xmlns:xlink="http://www.w3.org/1999/xlink">
 <defs>
  <style type="text/css">
   <![CDATA[
    .fil0 {fill:#FEFEFE}
    .fil1 {fill:#61A935}
    .fil2 {fill:#0066A4}
    .fil3 {fill:#0066A4;fill-rule:nonzero}
   ]]>
  </style>
 </defs>
 <g id="Слой_x0020_1">
  <metadata id="CorelCorpID_0Corel-Layer"/>
  <rect class="fil0" x="0" y="0" width="17000" height="10000"/>
  <polygon class="fil1" points="15860.37,4538.46 15977.66,4538.46 15983.66,4538.46 15983.66,4367.7 16099.12,4538.46 16245.54,4538.46 16251.5,4538.46 16088.24,4323 16247.11,4120.23 16109.95,4120.23 16103.7,4120.23 15983.66,4287.45 15983.66,4120.23 15866.69,4120.23 15860.37,4120.23 "/>
  <polygon class="fil1" points="15219.34,4538.46 15336.54,4538.46 15342.22,4538.46 15342.22,4120.23 15225.5,4120.23 15219.34,4120.23 "/>
  <polygon class="fil1" points="14519.43,4538.46 14636.56,4538.46 14642.32,4538.46 14642.32,4220.71 14734.66,4220.71 14734.66,4120.23 14432.98,4120.23 14427.05,4120.23 14427.05,4220.71 14519.43,4220.71 "/>
  <path class="fil1" d="M13944.8 4149.48c-0.32,-1.17 -1.01,-1.17 -1.57,-1.17l-1.26 -1.14c-26.7,-17.97 -50.1,-28.97 -73.15,-32.16 -23.45,-5.28 -40.33,-6.66 -51.2,-6.66l-5.92 0c-47.95,0.69 -84.39,12.29 -109.62,36.56 -24.95,24.46 -37.6,54.12 -37.6,89.36 0,34.09 7.82,59.77 23.61,77.17 15.86,17.16 32.74,29.9 50.62,38.37 7.83,3.5 14.81,5.85 22.03,8.16 8.32,3 14.98,4.99 20.93,6.01 1.19,1.25 2.6,1.25 3.37,1.25 2.07,0.65 2.56,0.65 3.21,0.65 16.15,4.59 29.37,9.82 40.24,16.11 10.51,6.69 16.07,17.32 16.07,32.58 -0.69,2.51 -0.69,5.15 -0.69,7.58 -0.57,3.37 -0.97,5.76 -2.48,8.15 -2.39,5.49 -5.84,9.54 -10.46,13.48 -6.08,4.58 -14,6.24 -24.78,6.24l-4.83 0c-2.57,-1.13 -3.34,-1.13 -4.75,-1.13 -14.9,-2.35 -28.68,-7.67 -42.4,-15.94 -14.36,-8.69 -26.41,-17.69 -37,-27.03 -2.63,-2.47 -4.3,-4.06 -5.96,-5.47 -2.32,-2.23 -4.26,-4.06 -6.01,-5.89l-6.12 0 -55.78 88.89c18.86,15.01 34.89,27.14 49.78,35.83 16.47,9.74 31.19,16.35 45.63,21.25 10.72,3.41 20.61,5.84 29.87,7.06 11.02,2.39 21.01,3.16 31.68,3.16l5.89 -0.77c41.82,0 78.21,-10.62 109.12,-32.21 32.45,-22.23 48.4,-56.8 48.4,-104.87 -1.13,-36.3 -8.55,-63.09 -24.1,-81.26 -16.23,-19.03 -33.75,-32.7 -52.69,-41.05 -10.47,-4.83 -19.65,-8.44 -29.02,-10.83 -9.89,-3.66 -18.04,-5.44 -24.46,-6.58 -3.56,-1.18 -6.4,-2.03 -9.82,-2.31 -3.73,-1.26 -7.46,-1.71 -11.03,-2.96 -7.67,-2.81 -14.32,-6.13 -20.12,-10.83 -5.64,-6.13 -8.96,-12.46 -8.96,-20.82 0.8,-2.39 0.8,-4.94 0.8,-7.3 0.77,-3.65 1.75,-5.97 2.84,-8.23 2.8,-6.01 6.58,-10.23 11.64,-14.05 6.13,-4.49 13.8,-6.4 24.83,-6.4 11.97,1.17 22.03,3.56 31.61,8.44 10.87,5.35 20.37,11.27 29.7,18.57 2.47,1.67 4.46,3.45 5.87,5.33 2.76,2.26 4.43,3.64 6.26,4.33l6.04 0 41.74 -87.47z"/>
  <polygon class="fil1" points="13035.96,4538.46 13152.83,4538.46 13159.01,4538.46 13159.01,4120.23 13041.67,4120.23 13035.96,4120.23 "/>
  <path class="fil1" d="M12324.96 4308.47l0 -96.07 23.04 0c19.52,0.33 33.31,4.51 41.06,12.9 8.15,8.97 12.53,18.54 13.79,28.68l0 3.82 0 2.28 0 2.14 0 2.48c-1.26,11.4 -5.64,21.06 -13.39,30.1 -8.15,9.45 -21.94,13.67 -41.46,13.67l-23.04 0zm-123.37 229.99l117.28 0 6.09 0 0 -128.52 82.72 128.52 141.59 0 5.96 0 -117.12 -167.14c1.01,-0.85 1.83,-0.85 2.23,-0.85 1.33,-0.9 1.67,-0.9 2.52,-0.9 21.58,-8.6 40.04,-21.5 56.59,-39.96 18.13,-20 26.13,-47.46 26.13,-83.78 0,-34.04 -7.51,-59.43 -23.13,-76.06 -15.3,-17.81 -32.17,-29.98 -49.9,-37.01 -16.35,-6.56 -30.83,-10.06 -44.38,-10.62 -14.2,-1.5 -23.29,-1.91 -26.86,-1.91l-173.48 0 -6.24 0 0 418.23z"/>
  <path class="fil1" d="M11319.75 4120.25l-5.87 0 0 249.33c0.56,63.38 17.28,108.49 51.6,137.25 34.33,29.33 78.42,43.9 132.42,43.9l5.92 -0.74c55.1,0 99.27,-14.39 132.86,-43.16 34.33,-29.65 51.36,-75.33 51.36,-137.25l0 -249.33 -117.36 0 -6.09 0 0 246.91c-0.69,4.65 -0.69,10.22 -1.17,16.79 -0.41,6.49 -1.42,12.9 -3.09,20.2 -3.65,11.08 -10.06,21.34 -18.37,30.83 -8.89,10.35 -22.52,15.06 -41.06,15.06 -19.03,-0.33 -32.34,-5.24 -40.65,-15.06 -9.05,-9.93 -14.81,-20.4 -18.7,-30.83 -2.23,-7.75 -3.58,-14.44 -3.98,-20.2 -0.69,-7.39 -0.69,-12.65 -0.69,-16.79l0 -246.91 -117.13 0z"/>
  <path class="fil1" d="M10589.99 4450.04c-4.83,-0.34 -8.97,-0.34 -13.72,-1.14 -4.75,-1.38 -9.09,-2.36 -12.99,-3.58 -18.61,-6.16 -35.74,-17.4 -51.11,-35.37 -15.38,-18.38 -22.6,-45.31 -22.6,-80.37 0.49,-36.27 7.72,-62.19 22.6,-80.08 16.11,-18.75 32.98,-30.59 51.11,-36.11 4.67,-1.58 8.73,-2.88 13.56,-3.82 5.32,-0.85 9.41,-0.85 13.87,-0.85 4.67,0.61 8.48,0.61 11.56,0.85 5.32,1.71 9.1,2.24 13.48,3.13 19.14,6.21 36.43,17.52 51.8,35.29 16.35,18.67 23.86,45.32 23.86,81.59 -0.33,37 -8.32,63.66 -23.86,81.54 -15.37,18.63 -32.66,30.11 -51.8,34.78 -4.91,1.62 -9.13,3 -13.48,3.8 -4.46,0.34 -8.56,0.34 -12.28,0.34zm-2.23 100.69l5.95 -0.74c75.1,-0.53 130.8,-22.71 167.51,-66.52 38.42,-44.31 57.04,-95.51 57.04,-153.89 -0.56,-58.7 -19.1,-109.95 -57.04,-154.24 -37.97,-44.96 -93.67,-66.98 -167.51,-66.98l-5.95 0c-74.78,0.69 -131.05,22.6 -168.86,66.98 -37.33,44.29 -56.11,95.54 -56.11,154.24 0,59.07 19.12,110.27 57.33,154.37 39.02,44.46 94.73,66.78 167.64,66.78z"/>
  <polygon class="fil1" points="9681.45,4538.46 9798.65,4538.46 9804.74,4538.46 9804.74,4220.71 9896.84,4220.71 9896.84,4120.23 9595.4,4120.23 9589.36,4120.23 9589.36,4220.71 9681.45,4220.71 "/>
  <path class="fil1" d="M6590.32 3183.82c-52.82,134.69 -52.82,284.79 0,419.69 -45.15,-22.6 -104.99,-52.82 -157.32,-37.52 -127.19,45.11 -134.57,127.38 -134.57,232.25l-5645.48 0 0 -614.42 5937.37 0z"/>
  <path class="fil2" d="M7165.94 4540.05l-6512.98 0 0 -599.34 5645.45 0c22.43,119.64 104.38,217.09 194.29,284.27 157.32,127.75 276.92,142.73 613.73,195.02l59.51 120.05zm-515.92 -1588.38c-217.01,-142.52 -404.15,-314.62 -561.4,-524.48l-5435.66 0 0 614.3 5974.59 0 22.47 -89.82zm-658.52 -674.35l-5338.54 0 0 -606.96 5054.23 0c67.34,217.21 157.08,427.08 284.31,606.96zm2094.76 -989.12c-22.51,0 -7.38,-37.36 -37.36,-37.36 -44.83,14.85 -104.71,14.85 -127.27,89.94 -7.42,-45.11 -52.26,-60.01 -74.6,-67.31 -7.64,37.25 37.52,67.31 14.72,119.56 -104.5,7.59 -164.38,90.06 -201.84,164.79l-7.3 -7.3c-14.93,90.19 -104.82,149.71 -104.82,247.19 22.31,37.44 52.16,-30.06 89.89,-7.38 -45.27,22.39 -67.58,52.58 -89.89,90.02 -15.06,44.99 -15.06,82.36 0,119.65 44.62,-14.74 89.89,-74.66 127.14,-89.83 -15.02,75.09 -59.76,112.46 -104.83,172.42l-7.55 112.34c-45.08,-30.15 -97.12,-74.82 -134.81,-127.35 -52.18,-30.19 -74.53,-97.45 -119.39,-157.41 -201.92,-247.19 -501.16,-59.84 -733.3,-82.43 -291.78,-52.34 -568.7,-149.79 -777.87,-374.66 0,74.97 22.23,134.8 59.59,209.9 29.98,104.67 112.3,187.35 202.19,247.19 -67.46,15.17 -112.29,-37.44 -164.83,-59.84l0 14.85c37.69,97.53 89.95,179.92 164.83,254.93 67.27,89.78 186.91,59.85 261.88,112.43 -30.19,37.15 -89.94,22.51 -142.12,22.51 52.18,104.47 157.09,186.95 261.72,186.95 30.03,7.58 67.39,-29.74 74.86,15.25 -7.47,52.33 -74.86,44.66 -112.51,44.66 37.65,74.98 112.51,142.36 179.88,194.74 179.53,7.74 306.67,217.49 486.19,105.16 82.36,82.31 172.14,-37.57 261.88,-29.98 0,15.01 -22.39,29.98 -22.39,37.32 -112.06,37.65 -224.31,90.02 -254.26,209.99 0,97.2 -97.28,37.23 -142.36,52.25 -112.45,7.23 -164.66,120.01 -201.83,224.87 -52.58,179.77 104.38,337.22 -37.4,464.33 -44.95,22.47 -89.83,0 -127.35,-29.79 7.78,52.26 22.23,89.7 59.93,112.43 44.94,14.84 112.25,-7.39 134.64,-37.65 0,30.26 -22.39,44.95 -37.24,75.04 -82.32,37.45 -149.55,-37.39 -209.78,-67.58 0,67.58 44.82,90.02 67.71,134.89 29.9,37.37 -45.11,22.64 -45.11,37.37 112.25,112.62 261.7,217.65 418.83,172.5 67.43,-14.81 112.55,-97.45 149.91,-157.45 14.85,-149.82 14.85,-314.74 -67.55,-441.92 -59.68,-74.9 -59.68,-179.89 -82.36,-262.17 22.68,-45.11 60,-97.4 112.55,-104.86 22.18,74.8 52.21,142.52 104.54,194.56 37.32,112.62 179.52,157.42 164.43,277.42 -52.42,119.68 -164.43,224.71 -149.71,352.06 89.91,104.79 164.8,239.52 187.27,389.75 67.1,0 44.92,89.78 67.1,119.88 60.3,22.39 127.48,0 179.64,0 -29.85,-119.88 -126.9,-172.34 -179.64,-270.11 -7.22,-22.35 -22.18,-67.39 0,-82.19 45.12,22.36 104.92,59.84 104.92,127.34 60.04,-7.46 44.87,82.28 60.04,119.89 29.9,29.77 67.34,89.94 112.1,67.42 14.96,-22.47 7.66,-30.01 7.66,-44.91 37.25,-119.8 -67.35,-164.91 -82.56,-247.38 -74.68,-74.9 -164.67,-89.78 -224.34,-187.04 -37.45,-45.07 22.18,-67.38 59.67,-112.57 164.67,-127.27 217.13,-352.14 217.13,-547.13 89.78,-149.53 291.73,-179.64 411.33,-329.25 89.66,-82.45 142.12,-194.82 202.12,-284.69l22.56 22.36c112.04,7.43 201.74,-134.97 291.44,-202.24 15.14,22.32 37.74,44.87 60.17,82.48 22.44,37.2 -7.67,97.4 22.44,127.19 22.23,37.57 -15.01,67.55 -22.44,97.57 29.82,59.72 67.43,134.65 127.15,157.33 22.43,-82.45 7.3,-157.33 14.92,-239.97l0 -22.36c14.9,-112.54 -104.91,-172.42 -97.4,-284.83 89.78,-89.91 202.16,7.62 291.86,29.93 22.55,15.22 15.13,52.66 15.13,74.98 82.07,0 149.58,-37.49 209.42,-104.91 -22.68,-14.73 -52.46,-29.98 -74.81,-44.79 -112.38,-97.25 -254.45,-7.63 -374.18,-97.25 -59.96,-15.13 -119.76,-15.13 -172.26,-15.13 -52.25,52.21 -96.87,97.45 -141.99,157.17l-29.93 0c0,-75.02 7.5,-119.76 15.09,-187.03 -22.57,-97.61 -82.4,-97.61 -149.66,-164.84 -22.23,-149.98 -194.65,-187.67 -172.14,-352.46 14.89,-74.65 104.63,-7.38 164.63,-52.26 82.23,-29.93 149.58,119.76 217.13,0 7.17,-7.46 -15.17,-29.93 -15.17,-52.41l44.86 -14.8c52.38,-225.08 -224.26,-142.28 -329.14,-247.56 14.89,-89.9 -74.76,-67.27 -119.8,-112.42zm-1353.88 1326.09c-22.48,29.98 -67.58,29.98 -112.22,37.65 44.64,-7.67 74.7,-67.55 112.22,-37.65zm1077.11 -314.78c-67.21,0 -156.88,-22.19 -194.32,-59.67 59.76,15.21 127.11,52.37 194.32,59.67z"/>
  <path class="fil2" d="M16233.1 1684.77l0 548.58c-86.13,-34.08 -217.98,-68.56 -311.57,-68.56 -52.98,0 -148.81,6.25 -148.81,128 0,130.67 103.4,130.67 252.71,208.36 179.84,93.8 321.63,255.91 321.63,623.72 0,405.41 -179.8,786.1 -594.87,786.1 -151.73,0 -323.75,-46.81 -458.07,-128.19l0 -601.64c101.34,59.22 278.22,143.32 397.54,143.32 121.18,0 149.14,-74.81 149.14,-140.32 0,-118.43 -93.84,-155.58 -179.65,-196.48 -121.38,-52.74 -392.31,-152.55 -392.31,-629.39 0,-477.39 225.45,-760.84 556.74,-760.84 139.31,0 293.56,31.31 407.52,87.34zm-1819.9 1296.72l91.43 -554.87 91.16 554.87 -182.59 0zm-673.37 863.65l544.43 0 53.23 -318.12 334.01 0 53.39 318.12 543.95 0 -470.73 -2182.15 -584.52 0 -473.76 2182.15zm-847.38 -1309.35l0 501.77 278.14 0c2.92,146.58 -88.28,261.88 -214.81,261.88 -182.32,0 -288.54,-240.18 -288.54,-532.89 0,-265.4 78.23,-536.12 290.89,-536.12 88.68,0 172.06,52.86 202.65,155.78l455.51 -140.48c-78.46,-355.03 -306.26,-648.3 -675.64,-648.3 -559.33,0 -779.3,589.35 -779.3,1172.12 0,660.88 293.32,1141.42 784.21,1141.42 478.43,0 731.58,-465.04 731.58,-1113.46l0 -261.72 -784.69 0zm-1849.93 1309.35l931.03 0 0 -633.01 -399.45 0 0 -208.66 359.33 0 0 -523.87 -359.33 0 0 -183.73 399.45 0 0 -632.88 -931.03 0 0 2182.15zm-921.2 -1614.71l58.21 0c48.03,0 126.53,12.3 126.53,183.86 0,171.24 -73.42,187.14 -126.53,187.14l-58.21 0 0 -371zm-531.55 1614.71l531.55 0 0 -676.38 111.32 0c468.49,0 579.53,-442.78 579.53,-754.47 0,-308.66 -108.64,-751.3 -579.53,-751.3l-642.87 0 0 2182.15z"/>
  <path class="fil3" d="M1233.69 6970.79c-320.17,0 -580.69,260.51 -580.69,580.7 0,83.55 17.11,163.33 50.77,237.1 145.19,317.65 423.59,653.13 505.48,748.35 6.08,7.17 15.06,11.27 24.44,11.27 9.46,0 18.38,-4.1 24.52,-11.27 81.82,-95.22 360.23,-430.61 505.42,-748.35 33.73,-73.77 50.85,-153.55 50.85,-237.1 -0.08,-320.19 -260.59,-580.7 -580.79,-580.7zm0 882.35c-166.31,0 -301.65,-135.34 -301.65,-301.65 0,-166.33 135.34,-301.67 301.65,-301.67 166.33,0 301.68,135.34 301.68,301.67 0,166.31 -135.35,301.65 -301.68,301.65z"/>
  <path class="fil3" d="M2773.16 8154.41c0,88.2 -11.3,151.66 -33.88,190.14 -22.34,38.73 -56.71,62.72 -102.39,72.46 -45.9,9.75 -118.82,14.74 -219,14.74l-350.35 0 0 -1185.85 593.66 0 0 205.39 -290.2 0 0 200.89 46.89 0c93.3,0 164.26,5.49 212.13,16.74 47.88,11.24 83.72,35.98 107.53,74.46 23.83,38.23 35.61,98.44 35.61,180.4l0 230.63zm-303.46 -35.74l0 -171.4c0,-49.97 -4.91,-80.21 -14.73,-90.95 -9.82,-10.75 -37.81,-16.74 -83.97,-18.24l0 389.78c38.55,0 64.58,-4.99 78.07,-14.99 13.76,-9.99 20.63,-41.48 20.63,-94.2zm410.75 -872.77l505.27 0 0 236.88 -201.81 0 0 226.37 188.56 0 0 224.88 -188.56 0 0 260.85 222.44 0 0 236.87 -525.9 0 0 -1185.85zm612.06 0l305.19 0c82.49,0 145.83,6.5 190.27,19.74 44.19,13.25 77.59,32.23 99.93,56.97 22.35,24.99 37.31,55.22 45.42,90.46 7.86,35.48 11.78,90.2 11.78,164.4l0 103.19c0,75.47 -7.61,130.69 -23.07,165.17 -15.22,34.72 -43.47,61.46 -84.22,79.95 -40.99,18.49 -94.52,27.73 -160.57,27.73l-81.26 0 0 478.24 -303.47 0 0 -1185.85zm303.47 202.39l0 302.09c8.59,0.5 15.96,0.74 22.09,0.74 27.75,0 46.9,-6.99 57.7,-20.98 10.56,-13.74 15.96,-42.73 15.96,-86.7l0 -97.7c0,-40.48 -6.14,-66.96 -18.66,-79.21 -12.28,-12.24 -38.05,-18.24 -77.09,-18.24zm1302.23 1187.35l-209.18 0 0 -203.89 -489.08 0 0 203.89 -209.17 0 0 -451.26 61.87 0c32.65,-97.19 59.65,-224.86 80.53,-383.28 20.86,-158.42 31.42,-331.57 31.42,-519.22l0 -35.98 671.73 0 0 936.99 61.88 0 0 452.75zm-365.33 -452.75l0 -703.11 -89.87 0 0 8.74c0,227.12 -24.05,458.5 -72.17,694.37l162.04 0zm1166.45 -419.77l-303.46 0 0 -205.89c0,-59.96 -3.19,-97.2 -9.57,-112.19 -6.38,-14.73 -20.63,-22.23 -42.47,-22.23 -24.56,0 -40.27,9 -46.91,26.98 -6.62,18.24 -10.06,57.22 -10.06,117.18l0 550.2c0,57.73 3.44,95.21 10.06,112.95 6.64,17.48 21.61,26.22 44.69,26.22 22.35,0 37.08,-8.74 43.94,-26.48 6.88,-17.48 10.32,-58.97 10.32,-124.18l0 -149.17 303.46 0 0 46.23c0,122.93 -8.59,210.13 -25.53,261.36 -16.95,51.47 -54.75,96.44 -112.94,135.17 -58.44,38.73 -130.12,57.97 -215.56,57.97 -88.64,0 -161.8,-16.25 -219.5,-48.98 -57.44,-32.73 -95.75,-77.95 -114.41,-135.92 -18.66,-57.97 -27.99,-144.92 -27.99,-261.11l0 -346.3c0,-85.46 2.95,-149.42 8.6,-192.15 5.88,-42.73 22.83,-83.95 51.56,-123.43 28.47,-39.48 68,-70.72 118.58,-93.45 50.58,-22.73 108.76,-33.98 174.56,-33.98 89.12,0 162.78,17.49 220.98,52.72 57.94,34.98 95.98,78.7 114.39,131.17 18.18,52.48 27.26,133.94 27.26,244.62l0 112.69zm108.52 -517.22l303.46 0 1.48 500.73c56.22,-1.5 85.19,-33.73 87.15,-96.7l5.65 -231.37c1.96,-85.21 18.16,-142.92 48.61,-172.66l279.89 0c-27.01,28.74 -40.27,88.46 -39.77,178.66l1.47 203.38c0.98,122.94 -67.03,193.15 -204.27,210.14 137.24,16.99 205.25,88.2 204.27,213.13l-1.47 188.65c-0.5,89.95 12.76,153.91 39.77,191.89l-279.89 0c-32.41,-29.73 -48.61,-87.45 -48.61,-172.9l0 -231.12c0,-29.49 -8.59,-52.98 -25.78,-70.72 -17.43,-17.74 -39.77,-26.98 -67.02,-27.48l-1.48 502.22 -303.46 0 0 -1185.85z"/>
  <path class="fil3" d="M6365.37 5112.12l-2.56 84.34c-40.18,-4.12 -80.08,-6.11 -119.69,-6.11 -0.85,39.05 -1.28,79.66 -1.28,121.83 0,71.28 1.99,136.31 5.82,195.09l-111.89 0c3.84,-55.8 5.83,-120.83 5.83,-195.09 0,-40.75 -0.71,-81.36 -2.13,-121.83 -40.19,0 -82.07,1.99 -125.66,6.11l2.98 -84.34 348.58 0zm467.85 188.41c0,69.86 -21.44,124.53 -64.46,163.86 -42.88,39.47 -93.57,59.07 -151.79,59.07 -55.51,0 -103.08,-17.89 -142.7,-53.82 -39.61,-35.92 -59.49,-86.47 -59.49,-151.64 0,-70.14 21.58,-125.09 64.89,-164.71 43.31,-39.75 94,-59.49 152.21,-59.49 55.24,0 102.66,18.03 142.13,54.24 39.47,36.21 59.21,87.04 59.21,152.49zm-108.48 12.5c0,-40.18 -9.51,-73.98 -28.25,-101.38 -18.89,-27.26 -43.45,-40.89 -73.7,-40.89 -29.39,0 -53.24,12.78 -71.7,38.19 -18.46,25.56 -27.69,57.51 -27.69,95.7 0,40.19 9.37,73.98 28.26,101.38 18.88,27.26 43.45,40.89 73.69,40.89 29.39,0 53.25,-12.77 71.7,-38.19 18.46,-25.56 27.69,-57.51 27.69,-95.7zm540.83 76.96c0,42.74 -17.75,73.26 -53.24,91.86 -35.5,18.6 -79.52,27.98 -131.91,27.98 -24.42,0 -56.8,-0.43 -97.26,-1.28 -40.61,-0.85 -65.6,-1.28 -75.4,-1.28 3.69,-48.56 5.4,-114.58 5.4,-198.07 0,-75.12 -4.69,-140.86 -14.06,-197.08l73.55 0c38.9,-3.13 81.22,-4.55 126.94,-4.55 98.39,0 147.66,29.96 147.66,90.17 0,42.45 -22.15,72.69 -66.59,90.73l0 6.24c56.66,10.79 84.91,42.6 84.91,95.28zm-98.97 -2.56c0,-20.16 -8.23,-34.22 -24.42,-42.03 -16.18,-7.66 -41.74,-11.64 -76.67,-11.64 -16.47,0 -35.36,0.85 -57.08,2.56 0,40.18 0.43,74.11 1.28,101.94 25.27,2.42 50.55,3.7 75.68,3.7 54.1,0 81.21,-18.18 81.21,-54.53zm-15.05 -166.41c0,-31.8 -24.7,-47.85 -73.97,-47.85 -23.29,0 -47.28,1 -71.99,2.98 1.85,33.51 2.84,66.17 2.84,97.69 25.84,1.14 47.85,1.71 66.17,1.71 51.25,0 76.95,-18.18 76.95,-54.53zm529.2 285.82l-98.12 3.41c-4.54,-11.78 -6.67,-22.29 -6.67,-31.66l-5.39 0c-30.53,25.98 -71.71,39.05 -123.53,39.05 -34.79,0 -63.47,-9.66 -86.33,-28.83 -23.01,-19.31 -34.36,-44.87 -34.36,-76.81 0,-42.17 17.74,-76.68 53.38,-103.51 35.64,-26.98 98.12,-41.18 187.43,-42.88 0.57,-4.97 0.85,-9.8 0.85,-14.2 0,-29.96 -7.24,-49.7 -21.58,-59.21 -14.49,-9.66 -40.9,-14.34 -79.52,-14.34 -41.88,0 -82.78,5.53 -122.67,16.61l9.08 -76.53c37.77,-13.06 91.02,-19.6 159.74,-19.6 50.26,0 89.03,10.51 116.29,31.67 27.4,21.01 41.03,57.93 41.03,110.61 0,11.64 -0.56,32.8 -1.56,63.61 -0.85,30.81 -1.42,51.4 -1.42,61.62 0,57.36 4.4,104.36 13.35,140.99zm-111.04 -86.47c-1.7,-37.48 -2.55,-69.86 -2.55,-96.97 -94.57,0 -141.85,23.99 -141.85,71.98 0,32.94 20.87,49.42 62.48,49.42 32.65,0 59.92,-8.1 81.92,-24.43zm592.24 -127.79c0,60.21 -17.18,113.03 -51.54,158.46 -34.37,45.58 -81.36,68.3 -141,68.3 -44.44,0 -74.83,-9.37 -91.58,-28.26l-4.97 0c0,67.87 0.99,136.74 2.98,206.31l-113.16 0c4.97,-79.65 7.52,-171.38 7.52,-275.45 0,-134.18 -7.24,-236.56 -21.72,-306.98l106.49 -11.65 6.25 35.78 6.67 0c29.67,-27.4 70,-41.17 121.12,-41.17 53.24,0 95.27,19.17 126.37,57.64 31.09,38.34 46.57,84.06 46.57,137.02zm-110.61 10.79c0,-34.92 -8.66,-65.03 -26.13,-90.16 -17.6,-25.27 -41.6,-37.91 -72.41,-37.91 -38.34,0 -66.31,11.22 -84.06,33.65 4.12,77.95 6.25,149.37 6.25,214.26 17.46,13.63 40.04,20.45 67.73,20.45 36.91,0 64.32,-13.63 82.07,-41.04 17.75,-27.26 26.55,-60.34 26.55,-99.25zm553.61 203.9l-109.76 0c3.55,-49.41 5.39,-106.78 5.39,-172.23l-158.45 0c0,61.62 1.84,118.98 5.68,172.23l-109.76 0c3.83,-57.36 5.82,-123.25 5.82,-197.65 0,-73.69 -4.83,-138.29 -14.48,-193.81l118.13 -12.07c-1.7,18.03 -3.55,70.14 -5.39,156.47l157.6 0c-0.85,-55.8 -5.25,-103.94 -13.34,-144.4l118.13 -12.07c-3.27,53.81 -4.97,122.39 -4.97,205.88 0,71.28 1.85,137.16 5.4,197.65zm417.73 -130.2c0,43.59 -16.9,76.53 -50.41,98.96 -33.51,22.44 -73.83,33.8 -120.97,33.8 -19.74,0 -47.85,-0.43 -84.49,-1.28 -36.63,-0.85 -60.2,-1.28 -70.71,-1.28 3.27,-57.36 4.97,-123.25 4.97,-197.65 0,-73.69 -4.68,-138.29 -14.2,-193.81l116.15 -12.07c-1.14,13.63 -2.56,63.61 -4.26,150.22 13.91,-3.4 27.55,-4.97 40.89,-4.97 121.97,0 183.03,42.6 183.03,128.08zm145.11 130.2l-109.76 0c3.55,-57.36 5.4,-123.25 5.4,-197.65 0,-73.69 -4.69,-138.29 -14.2,-193.81l118.13 -12.07c-3.55,53.81 -5.39,122.39 -5.39,205.88 0,71.28 1.98,137.16 5.82,197.65zm-246.21 -128.93c0,-20.58 -7.67,-36.2 -22.86,-46.99 -15.34,-10.79 -35.07,-16.33 -59.07,-16.33 -11.64,0 -25.27,1.28 -40.89,3.83 0,40.18 0.57,80.51 1.7,120.98 14.49,2.27 30.1,3.4 47,3.4 49.41,0 74.12,-21.72 74.12,-64.89zm708.38 128.93l-109.76 0c3.55,-49.13 5.39,-104.08 5.39,-165.13 0,-24.71 1.57,-55.38 4.55,-92.01l-6.25 0c-7.24,20.87 -40.18,65.46 -98.97,134.04 -54.38,63.18 -81.5,104.22 -81.5,123.1l-86.18 0c3.69,-60.49 5.39,-126.37 5.39,-197.65 0,-80.08 -4.68,-144.68 -14.06,-193.81l118.14 -12.07c-3.41,53.24 -4.97,106.21 -4.97,158.88 0,27.83 -1.56,63.47 -4.69,106.92l6.25 0c5.26,-17.46 36.78,-60.77 94.42,-129.78 54.39,-65.17 81.65,-106.49 81.65,-123.95l90.16 -12.07c-3.27,53.24 -4.97,121.97 -4.97,205.88 0,66.59 1.85,132.48 5.4,197.65zm-28.69 -583.15c0,86.76 -49.27,130.21 -147.66,130.21 -52.68,0 -91.73,-13.63 -117.29,-40.9 -21.15,-22.43 -31.66,-51.82 -31.66,-88.17l92.43 -12.07c0,54.1 18.89,81.22 56.94,81.22 25.28,0 41.32,-7.24 48.42,-21.73 7.1,-14.34 10.65,-34.22 10.65,-59.49l88.17 10.93zm605.73 464.16c0,43.59 -17.75,76.11 -53.24,97.83 -35.5,21.59 -83.35,32.38 -143.55,32.38 -49.42,0 -92.58,-6.25 -129.78,-18.75l9.51 -75.68c35.5,14.49 75.68,21.59 120.27,21.59 63.18,0 94.84,-17.89 94.84,-53.67 0,-35.5 -35.21,-53.25 -105.64,-53.25 -29.67,0 -55.51,0.99 -77.38,2.98l7.95 -71.99c21.3,1.71 44.59,2.56 69.86,2.56 64.32,0 96.41,-17.61 96.41,-52.82 0,-30.24 -26.98,-45.44 -81.08,-45.44 -41.03,0 -80.93,6.25 -119.83,18.75l9.65 -75.68c34.65,-12.5 79.23,-18.75 133.9,-18.75 104.36,0 156.47,30.53 156.47,91.59 0,45.15 -22.86,76.81 -68.72,94.84l0 6.54c21.15,4.26 38.76,13.06 52.82,26.69 18.31,17.75 27.54,41.18 27.54,70.28zm439.6 118.99l-109.76 0c3.55,-49.41 5.39,-106.78 5.39,-172.23l-158.45 0c0,61.62 1.84,118.98 5.68,172.23l-109.76 0c3.83,-57.36 5.82,-123.25 5.82,-197.65 0,-73.69 -4.83,-138.29 -14.48,-193.81l118.13 -12.07c-1.7,18.03 -3.55,70.14 -5.39,156.47l157.6 0c-0.85,-55.8 -5.25,-103.94 -13.34,-144.4l118.13 -12.07c-3.27,53.81 -4.97,122.39 -4.97,205.88 0,71.28 1.85,137.16 5.4,197.65zm427.24 -0.43l-98.12 3.41c-4.54,-11.78 -6.67,-22.29 -6.67,-31.66l-5.39 0c-30.53,25.98 -71.71,39.05 -123.53,39.05 -34.79,0 -63.47,-9.66 -86.33,-28.83 -23.01,-19.31 -34.36,-44.87 -34.36,-76.81 0,-42.17 17.74,-76.68 53.38,-103.51 35.64,-26.98 98.12,-41.18 187.43,-42.88 0.57,-4.97 0.85,-9.8 0.85,-14.2 0,-29.96 -7.24,-49.7 -21.58,-59.21 -14.49,-9.66 -40.9,-14.34 -79.52,-14.34 -41.88,0 -82.78,5.53 -122.67,16.61l9.08 -76.53c37.77,-13.06 91.02,-19.6 159.74,-19.6 50.26,0 89.03,10.51 116.29,31.67 27.4,21.01 41.03,57.93 41.03,110.61 0,11.64 -0.56,32.8 -1.56,63.61 -0.85,30.81 -1.42,51.4 -1.42,61.62 0,57.36 4.4,104.36 13.35,140.99zm-111.04 -86.47c-1.7,-37.48 -2.55,-69.86 -2.55,-96.97 -94.57,0 -141.85,23.99 -141.85,71.98 0,32.94 20.87,49.42 62.48,49.42 32.65,0 59.92,-8.1 81.92,-24.43zm559.86 86.9l-111.46 0c-2.27,-3.83 -5.53,-11.36 -10.08,-22.43 -16.04,-55.81 -32.66,-93.72 -49.69,-113.74 -17.04,-20.16 -38.48,-30.24 -64.18,-30.24 -6.68,0 -15.91,0.28 -27.55,0.85 0,53.25 2.13,108.48 6.25,165.56l-111.46 0c4.12,-55.52 6.25,-118.84 6.25,-190.12 0,-80.08 -4.97,-147.39 -14.91,-201.77l119.27 -11.21c-3.55,46 -5.4,102.37 -5.4,168.96 11.93,0.43 21.16,0.71 27.55,0.71 48.98,0 84.91,-47 107.62,-140.99 1.71,-6.96 4.83,-13.78 9.23,-20.73l104.37 0c-2.7,6.39 -7.53,18.17 -14.49,35.35 -31.66,86.76 -67.16,137.73 -106.49,152.64l0 4.12c26.27,7.81 48.28,23.99 65.88,48.7 17.61,24.7 34.65,60.91 50.98,108.62 4.97,14.62 11.07,29.96 18.31,45.72zm605.59 0l-110.61 0c3.55,-57.36 5.39,-123.25 5.39,-197.65 0,-39.04 -0.28,-80.08 -0.85,-123.1l-141.85 0c-0.56,35.5 -0.85,76.53 -0.85,123.1 0,71.28 1.85,137.16 5.4,197.65l-110.61 0c3.83,-57.36 5.82,-123.25 5.82,-197.65 0,-73.69 -4.83,-138.29 -14.48,-193.81l116 -3.69 165.56 0 80.65 -8.38c-3.27,53.81 -4.97,122.39 -4.97,205.88 0,71.28 1.85,137.16 5.4,197.65zm489.57 -206.74c0,69.86 -21.44,124.53 -64.46,163.86 -42.88,39.47 -93.57,59.07 -151.79,59.07 -55.51,0 -103.08,-17.89 -142.7,-53.82 -39.61,-35.92 -59.49,-86.47 -59.49,-151.64 0,-70.14 21.58,-125.09 64.89,-164.71 43.31,-39.75 94,-59.49 152.21,-59.49 55.24,0 102.66,18.03 142.13,54.24 39.47,36.21 59.21,87.04 59.21,152.49zm-108.48 12.5c0,-40.18 -9.51,-73.98 -28.25,-101.38 -18.89,-27.26 -43.45,-40.89 -73.7,-40.89 -29.39,0 -53.24,12.78 -71.7,38.19 -18.46,25.56 -27.69,57.51 -27.69,95.7 0,40.19 9.37,73.98 28.26,101.38 18.88,27.26 43.45,40.89 73.69,40.89 29.39,0 53.25,-12.77 71.7,-38.19 18.46,-25.56 27.69,-57.51 27.69,-95.7zm710.51 194.24l-110.18 0c3.55,-51.83 5.39,-115.01 5.39,-189.27 0,-43.59 -1.13,-87.47 -3.26,-131.91l-47 0c-6.11,25.28 -13.63,50.69 -22.58,76.39 -8.8,25.7 -18.88,50.55 -30.1,74.69 -11.22,24.14 -23.43,46.71 -36.35,67.73 -13.06,21.15 -26.98,39.61 -41.6,55.51 -14.77,16.05 -30.1,28.83 -46,38.34 -15.91,9.51 -32.24,14.77 -48.85,15.62l-4.26 -99.82c7.81,-1.42 16.47,-6.39 25.84,-15.05 9.37,-8.52 19.17,-20.02 29.4,-34.36 10.08,-14.2 20.3,-30.81 30.52,-49.7 10.23,-18.74 20.16,-39.19 29.96,-61.05 9.66,-22.01 18.74,-45.01 27.26,-69.15 8.38,-24 16.05,-48.42 22.58,-73.12l143.12 0 75.68 -8.38c-3.55,53.81 -5.39,122.39 -5.39,205.88 0,71.28 1.99,137.16 5.82,197.65zm465.16 0l-109.76 0c3.55,-49.13 5.39,-104.08 5.39,-165.13 0,-24.71 1.57,-55.38 4.55,-92.01l-6.25 0c-7.24,20.87 -40.18,65.46 -98.97,134.04 -54.38,63.18 -81.5,104.22 -81.5,123.1l-86.18 0c3.69,-60.49 5.39,-126.37 5.39,-197.65 0,-80.08 -4.68,-144.68 -14.06,-193.81l118.14 -12.07c-3.41,53.24 -4.97,106.21 -4.97,158.88 0,27.83 -1.56,63.47 -4.69,106.92l6.25 0c5.26,-17.46 36.78,-60.77 94.42,-129.78 54.39,-65.17 81.65,-106.49 81.65,-123.95l90.16 -12.07c-3.27,53.24 -4.97,121.97 -4.97,205.88 0,66.59 1.85,132.48 5.4,197.65zm499.23 -74.83c0,11.36 -3.55,47.99 -10.65,110.04 -7.1,61.91 -10.65,107.77 -10.65,137.45l-75.25 0c0,-35.22 -0.43,-92.86 -1.28,-172.66l-312.8 0c3.83,-57.36 5.82,-123.25 5.82,-197.65 0,-73.69 -4.83,-138.29 -14.48,-193.81l119.69 -12.07c-3.26,53.81 -4.97,122.39 -4.97,205.88 0,36.35 -0.56,77.24 -1.7,122.82l134.89 0c-1.14,-44.72 -1.71,-85.62 -1.71,-122.82 0,-73.69 -4.68,-138.29 -14.19,-193.81l119.41 -12.07c-3.27,53.81 -4.97,122.39 -4.97,205.88 0,43.02 1.13,83.92 3.26,122.82l69.58 0zm421.71 -165.13c0,14.06 -0.85,32.52 -2.42,55.23l-267.93 4.55c3.84,31.38 17.33,57.5 40.33,78.23 23,20.87 53.24,31.24 90.73,31.24 41.6,0 85.76,-6.25 132.62,-18.74l-8.24 80.65c-38.34,13.91 -85.76,20.87 -142.27,20.87 -71.56,0 -126.37,-20.16 -164.57,-60.35 -38.19,-40.18 -57.22,-88.6 -57.22,-145.11 0,-59.07 18.18,-110.32 54.24,-153.77 36.21,-43.45 86.47,-65.03 150.93,-65.03 58.79,0 102.38,15.9 130.92,47.85 28.68,31.8 42.88,73.26 42.88,124.38zm-97.26 -3.83c0,-63.76 -27.27,-95.7 -81.65,-95.7 -51.82,0 -82.63,33.08 -92.29,99.1l173.94 -3.4zm539.84 243.79l-109.76 0c3.55,-49.41 5.39,-106.78 5.39,-172.23l-158.45 0c0,61.62 1.84,118.98 5.68,172.23l-109.76 0c3.83,-57.36 5.82,-123.25 5.82,-197.65 0,-73.69 -4.83,-138.29 -14.48,-193.81l118.13 -12.07c-1.7,18.03 -3.55,70.14 -5.39,156.47l157.6 0c-0.85,-55.8 -5.25,-103.94 -13.34,-144.4l118.13 -12.07c-3.27,53.81 -4.97,122.39 -4.97,205.88 0,71.28 1.85,137.16 5.4,197.65zm393.16 -118.99c0,43.59 -17.75,76.11 -53.24,97.83 -35.5,21.59 -83.35,32.38 -143.55,32.38 -49.42,0 -92.58,-6.25 -129.78,-18.75l9.51 -75.68c35.5,14.49 75.68,21.59 120.27,21.59 63.18,0 94.84,-17.89 94.84,-53.67 0,-35.5 -35.21,-53.25 -105.64,-53.25 -29.67,0 -55.51,0.99 -77.38,2.98l7.95 -71.99c21.3,1.71 44.59,2.56 69.86,2.56 64.32,0 96.41,-17.61 96.41,-52.82 0,-30.24 -26.98,-45.44 -81.08,-45.44 -41.03,0 -80.93,6.25 -119.83,18.75l9.65 -75.68c34.65,-12.5 79.23,-18.75 133.9,-18.75 104.36,0 156.47,30.53 156.47,91.59 0,45.15 -22.86,76.81 -68.72,94.84l0 6.54c21.15,4.26 38.76,13.06 52.82,26.69 18.31,17.75 27.54,41.18 27.54,70.28zm444.57 118.99l-109.76 0c3.55,-49.13 5.39,-104.08 5.39,-165.13 0,-24.71 1.57,-55.38 4.55,-92.01l-6.25 0c-7.24,20.87 -40.18,65.46 -98.97,134.04 -54.38,63.18 -81.5,104.22 -81.5,123.1l-86.18 0c3.69,-60.49 5.39,-126.37 5.39,-197.65 0,-80.08 -4.68,-144.68 -14.06,-193.81l118.14 -12.07c-3.41,53.24 -4.97,106.21 -4.97,158.88 0,27.83 -1.56,63.47 -4.69,106.92l6.25 0c5.26,-17.46 36.78,-60.77 94.42,-129.78 54.39,-65.17 81.65,-106.49 81.65,-123.95l90.16 -12.07c-3.27,53.24 -4.97,121.97 -4.97,205.88 0,66.59 1.85,132.48 5.4,197.65zm460.47 0l-109.76 0c3.55,-49.13 5.39,-104.08 5.39,-165.13 0,-24.71 1.57,-55.38 4.55,-92.01l-6.25 0c-7.24,20.87 -40.18,65.46 -98.97,134.04 -54.38,63.18 -81.5,104.22 -81.5,123.1l-86.18 0c3.69,-60.49 5.39,-126.37 5.39,-197.65 0,-80.08 -4.68,-144.68 -14.06,-193.81l118.14 -12.07c-3.41,53.24 -4.97,106.21 -4.97,158.88 0,27.83 -1.56,63.47 -4.69,106.92l6.25 0c5.26,-17.46 36.78,-60.77 94.42,-129.78 54.39,-65.17 81.65,-106.49 81.65,-123.95l90.16 -12.07c-3.27,53.24 -4.97,121.97 -4.97,205.88 0,66.59 1.85,132.48 5.4,197.65z"/>
  <path class="fil3" d="M8613.42 7254.91l-43.99 327.48c-7.01,51.92 -12.85,87.31 -17.52,106.18 -4.67,18.85 -12.46,34.46 -23.36,46.68 -10.77,12.34 -25.96,21.31 -45.3,27.13 -19.33,5.82 -50.34,8.73 -92.79,8.73l-93.04 0 0 -72.65c23.87,0 39.18,-1.05 45.95,-3.26 6.86,-2.09 10.37,-6.99 10.37,-14.43 0,-3.73 -3.24,-19.45 -9.6,-47.39l-84.1 -378.47 139.25 0 50.35 306.07 24.79 -306.07 138.99 0zm261.13 452.63l0 -357.63 -54.51 0 0 228.4c0,41.57 -5.32,71.37 -15.97,89.18 -10.64,17.82 -27.38,29 -50.36,33.42 -22.83,4.42 -60.47,6.63 -112.64,6.63l-25.05 0 0 -74.04c19.61,-0.23 32.97,-2.44 40.36,-6.63 7.4,-4.19 11.04,-19.1 11.04,-44.6l0 -327.36 359.74 0 0 452.63 -152.61 0zm306.02 -112.46l0 112.46 -116.03 0 0 -112.46 116.03 0zm573.73 112.46l-160.4 0 0 -442.15 -46.71 0 0 312.81c0,41.21 -5.98,70.79 -17.78,88.71 -11.95,18.05 -29.87,29.22 -53.86,33.77 -24.14,4.53 -62.43,6.86 -115.12,6.86l-25.04 0 0 -94.99c19.59,0 32.96,-2.22 40.36,-6.53 7.39,-4.3 11.03,-19.08 11.03,-44.35l0 -406.65 367.52 0 0 552.52zm407.25 -218.63l-199.35 0 0 98.14c0,20.49 1.7,33.76 4.93,39.7 3.38,5.94 9.74,8.84 19.22,8.84 11.81,0 19.72,-3.95 23.62,-11.75 4.02,-7.92 5.97,-23.17 5.97,-45.76l0 -59.84 145.61 0 0 33.53c0,28.06 -1.95,49.6 -5.84,64.61 -4.03,15.02 -13.25,31.09 -27.65,48.21 -14.4,17.1 -32.83,29.92 -55.03,38.53 -22.19,8.49 -49.95,12.8 -83.45,12.8 -32.44,0 -61.12,-4.19 -86.04,-12.69 -24.78,-8.38 -44.12,-19.9 -58,-34.57 -13.89,-14.67 -23.35,-30.85 -28.68,-48.55 -5.32,-17.57 -8.04,-43.19 -8.04,-76.95l0 -132.13c0,-39.58 5.95,-70.78 17.9,-93.71 11.94,-22.83 31.4,-40.41 58.53,-52.51 27.26,-12.23 58.41,-18.28 93.7,-18.28 43.08,0 78.65,7.34 106.67,22 28.04,14.68 47.76,34.11 59.05,58.32 11.3,24.1 16.88,58.22 16.88,102.11l0 59.95zm-153.4 -73.34l0 -33.07c0,-23.52 -1.43,-38.53 -4.29,-45.39 -2.86,-6.88 -8.69,-10.26 -17.51,-10.26 -10.9,0 -17.66,2.92 -20.24,8.74 -2.61,5.82 -3.91,21.43 -3.91,46.91l0 33.07 45.95 0zm563.87 291.97l-152.61 0 0 -166.95 -55.28 0 0 166.95 -152.62 0 0 -452.63 152.62 0 0 162.75 55.28 0 0 -162.75 152.61 0 0 452.63zm435.4 0l-133.92 0 0 -244.59 -106.81 244.59 -140.02 0 0 -452.63 133.93 0 0 242.5 104.98 -242.5 141.84 0 0 452.63zm415.05 0l-152.63 0 0 -166.95 -55.27 0 0 166.95 -152.62 0 0 -452.63 152.62 0 0 162.75 55.27 0 0 -162.75 152.63 0 0 452.63zm191.68 -277.31l-144.07 0 0 -30.38c0,-35.04 4.55,-62.05 13.51,-81.14 8.95,-18.97 27.13,-35.74 54.24,-50.29 27.12,-14.55 62.3,-21.89 105.77,-21.89 51.91,0 91.1,8.26 117.45,24.8 26.34,16.41 42.17,36.67 47.49,60.65 5.33,23.98 8.06,73.46 8.06,148.31l0 227.25 -149.51 0 0 -40.39c-9.33,16.29 -21.54,28.4 -36.34,36.55 -14.78,8.15 -32.45,12.22 -53.07,12.22 -26.87,0 -51.53,-6.75 -73.98,-20.26 -22.45,-13.62 -33.62,-43.18 -33.62,-88.93l0 -37.26c0,-33.88 5.98,-56.93 17.92,-69.27 11.94,-12.34 41.53,-26.66 88.77,-42.95 50.47,-17.81 77.48,-29.69 81.11,-35.86 3.51,-6.17 5.32,-18.63 5.32,-37.6 0,-23.64 -1.96,-39.01 -5.97,-46.22 -3.9,-7.1 -10.52,-10.72 -19.73,-10.72 -10.51,0 -17,3.04 -19.47,9.09 -2.59,5.94 -3.88,21.65 -3.88,46.91l0 47.38zm49.05 62.05c-24.78,16.18 -39.19,29.69 -43.1,40.64 -4.01,10.94 -5.95,26.54 -5.95,47.03 0,23.51 1.67,38.54 5.18,45.4 3.38,6.87 10.25,10.24 20.51,10.24 9.73,0 15.96,-2.67 18.94,-8.03 2.99,-5.36 4.42,-19.33 4.42,-42.14l0 -93.14zm295.76 106.99l0 49.48c0,25.96 -3.38,47.26 -10.25,63.8 -6.75,16.65 -18.69,30.73 -35.44,42.37 -16.87,11.53 -35.81,19.33 -57.1,23.18l0 -39.82c15.18,-7.68 23.75,-17.93 25.7,-30.74l-25.7 0 0 -108.27 102.79 0zm471.86 -205.01c22.58,8.15 39.98,20.37 52.05,36.68 12.19,16.3 18.29,54.94 18.29,116.18 0,44.59 -4.81,77.42 -14.41,98.6 -9.73,21.08 -28.41,38.42 -56.32,52.04 -27.9,13.51 -65.28,20.26 -112.25,20.26 -45.69,0 -81.77,-6.52 -108.38,-19.44 -26.73,-12.93 -45.79,-30.15 -57.34,-51.57 -11.56,-21.31 -17.27,-56.94 -17.27,-106.76 0,-33.41 2.86,-62.4 8.57,-86.96 5.71,-24.57 23.61,-44.24 53.72,-59.03 -18.94,-8.15 -33.1,-21.18 -42.56,-39.11 -9.48,-17.81 -14.28,-40.52 -14.28,-67.98 0,-47.5 14.66,-83.25 44.13,-107 29.32,-23.75 73.31,-35.62 131.85,-35.62 67.74,0 114.46,12.57 140.29,37.84 25.82,25.26 38.8,61.35 38.8,108.14 0,29.81 -4.29,51.35 -12.72,64.51 -8.44,13.15 -25.83,26.3 -52.17,39.22zm-86.17 -118.39c0,-18.75 -1.83,-31.09 -5.59,-37.03 -3.63,-6.05 -10.77,-9.07 -21.27,-9.07 -10.25,0 -17.13,3.25 -20.78,9.78 -3.49,6.4 -5.3,18.51 -5.3,36.32l0 41.91c0,16.64 2.07,28.06 6.09,34.46 4.16,6.4 11.03,9.54 20.76,9.54 10.25,0 17.13,-3.14 20.78,-9.43 3.48,-6.17 5.31,-19.08 5.31,-38.64l0 -37.84zm3.11 229.23c0,-21.2 -2.47,-35.17 -7.27,-42.15 -4.93,-6.87 -12.58,-10.37 -23.1,-10.37 -10.25,0 -17.64,3.38 -22.05,10.02 -4.56,6.75 -6.75,20.84 -6.75,42.5l0 71.48c0,23.85 2.47,39.22 7.52,45.98 4.94,6.87 12.85,10.24 23.63,10.24 11.02,0 18.42,-3.49 22.31,-10.35 3.77,-6.99 5.71,-22.6 5.71,-46.93l0 -70.42zm206.09 55.76l153.39 0c0,25.84 0.39,42.14 1.17,48.77 0.78,6.75 3.89,12.46 9.47,17.01 5.45,4.53 12.98,6.86 22.45,6.86 7.92,0 14.41,-2.21 19.6,-6.52 5.06,-4.3 8.04,-9.78 8.69,-16.65 0.65,-6.87 0.92,-20.6 0.92,-41.21l0 -87.89c-7.66,14.66 -19.09,25.61 -34.27,32.94 -15.31,7.34 -34.26,11.06 -56.84,11.06 -28.16,0 -53.08,-6.87 -74.62,-20.48 -21.67,-13.62 -35.31,-30.05 -41.14,-49.13 -5.84,-19.1 -8.82,-44.95 -8.82,-77.54l0 -44c0,-38.77 1.68,-67.53 5.19,-86.38 3.37,-18.98 12.2,-36.45 26.33,-52.4 14.28,-16.06 33.88,-28.52 59.06,-37.48 25.04,-8.85 54.26,-13.27 87.48,-13.27 41.14,0 74.86,5.13 101.22,15.37 26.33,10.24 46.84,24.91 61.25,44.24 14.54,19.21 22.84,39.35 25.17,60.53 2.2,21.19 3.38,62.16 3.38,122.94l0 76.83c0,65.66 -1.03,109.66 -2.99,131.9 -2.07,22.13 -10.9,43.19 -26.47,62.98 -15.57,19.8 -36.73,34.58 -63.33,44.47 -26.73,9.9 -57.49,14.91 -92.53,14.91 -43.35,0 -78.78,-6.28 -106.29,-18.75 -27.51,-12.57 -47.36,-30.27 -59.43,-52.96 -12.08,-22.83 -18.04,-51.58 -18.04,-86.15zm153.39 -172.07c0,23.28 3.37,37.6 10.26,43.08 6.74,5.47 13.75,8.14 20.88,8.14 10.77,0 18.69,-3.49 23.62,-10.35 5.07,-6.99 7.54,-20.61 7.54,-40.87l0 -100c0,-24.33 -2.34,-40.28 -7.14,-47.73 -4.68,-7.56 -12.6,-11.29 -23.62,-11.29 -6.62,0 -13.63,2.91 -20.77,8.73 -7.14,5.82 -10.77,21.42 -10.77,46.92l0 103.37zm545.46 -244.24l-183.77 573.47 -116.42 0 184.55 -573.47 115.64 0zm324.04 249.71c22.58,8.15 39.97,20.37 52.04,36.68 12.21,16.3 18.3,54.94 18.3,116.18 0,44.59 -4.8,77.42 -14.41,98.6 -9.72,21.08 -28.41,38.42 -56.32,52.04 -27.89,13.51 -65.27,20.26 -112.25,20.26 -45.68,0 -81.76,-6.52 -108.37,-19.44 -26.73,-12.93 -45.81,-30.15 -57.36,-51.57 -11.55,-21.31 -17.26,-56.94 -17.26,-106.76 0,-33.41 2.85,-62.4 8.57,-86.96 5.7,-24.57 23.62,-44.24 53.73,-59.03 -18.96,-8.15 -33.1,-21.18 -42.57,-39.11 -9.49,-17.81 -14.27,-40.52 -14.27,-67.98 0,-47.5 14.65,-83.25 44.12,-107 29.33,-23.75 73.32,-35.62 131.86,-35.62 67.74,0 114.45,12.57 140.27,37.84 25.83,25.26 38.82,61.35 38.82,108.14 0,29.81 -4.29,51.35 -12.73,64.51 -8.44,13.15 -25.83,26.3 -52.17,39.22zm-86.16 -118.39c0,-18.75 -1.83,-31.09 -5.59,-37.03 -3.63,-6.05 -10.77,-9.07 -21.29,-9.07 -10.24,0 -17.12,3.25 -20.77,9.78 -3.49,6.4 -5.31,18.51 -5.31,36.32l0 41.91c0,16.64 2.08,28.06 6.1,34.46 4.15,6.4 11.04,9.54 20.76,9.54 10.26,0 17.13,-3.14 20.77,-9.43 3.5,-6.17 5.33,-19.08 5.33,-38.64l0 -37.84zm3.11 229.23c0,-21.2 -2.48,-35.17 -7.27,-42.15 -4.93,-6.87 -12.6,-10.37 -23.1,-10.37 -10.25,0 -17.65,3.38 -22.07,10.02 -4.54,6.75 -6.74,20.84 -6.74,42.5l0 71.48c0,23.85 2.46,39.22 7.52,45.98 4.94,6.87 12.85,10.24 23.63,10.24 11.02,0 18.41,-3.49 22.32,-10.35 3.76,-6.99 5.71,-22.6 5.71,-46.93l0 -70.42zm295.62 94.17l0 49.48c0,25.96 -3.37,47.26 -10.25,63.8 -6.74,16.65 -18.69,30.73 -35.43,42.37 -16.87,11.53 -35.82,19.33 -57.1,23.18l0 -39.82c15.18,-7.68 23.75,-17.93 25.7,-30.74l-25.7 0 0 -108.27 102.78 0zm525.86 -185.45l0 110.95c0,40.74 -2.34,70.55 -6.88,89.63 -4.55,18.98 -14.29,36.68 -29.2,53.21 -14.93,16.53 -34.13,28.63 -57.63,36.55 -23.49,7.8 -50.35,11.76 -80.71,11.76 -34,0 -62.82,-3.37 -86.3,-10.01 -23.63,-6.75 -41.92,-16.88 -54.9,-30.38 -13.11,-13.63 -22.46,-30.04 -28.03,-49.25 -5.58,-19.2 -8.31,-48.08 -8.31,-86.5l0 -116.06c0,-42.14 5.06,-74.98 15.18,-98.73 10.12,-23.62 28.43,-42.6 54.77,-56.92 26.34,-14.32 60.08,-21.54 101.09,-21.54 34.4,0 63.99,4.65 88.77,13.85 24.66,9.2 43.74,21.2 57.25,35.98 13.36,14.79 22.57,30.03 27.5,45.75 4.92,15.72 7.4,39.58 7.4,71.71zm-153.4 -34.11c0,-23.17 -1.43,-37.83 -4.15,-43.77 -2.85,-6.05 -8.83,-9.09 -18.04,-9.09 -9.21,0 -15.32,3.04 -18.44,9.09 -2.98,5.94 -4.53,20.6 -4.53,43.77l0 204.31c0,21.42 1.55,35.39 4.53,41.79 3.12,6.52 9.09,9.78 18.05,9.78 9.21,0 15.18,-2.9 18.16,-8.84 2.99,-5.94 4.42,-18.63 4.42,-38.18l0 -208.86zm751.53 191.05c0,31.65 -2.06,56.92 -6.22,75.9 -4.16,18.97 -13.88,34.22 -29.07,45.75 -15.05,11.52 -38.3,17.23 -69.3,17.23 -40.37,0 -72.03,-13.74 -94.74,-41.21l0 104.08 -152.62 0 0 -103.5c-24.52,27.59 -57.75,41.33 -99.53,41.33 -27.26,0 -48.93,-4.78 -64.9,-14.33 -15.96,-9.54 -25.82,-22.7 -29.84,-39.46 -3.9,-16.65 -5.84,-40.86 -5.84,-72.41l0 -191.04c0,-31.66 2.2,-56.93 6.49,-75.9 4.28,-18.98 14.01,-34.23 29.19,-45.75 15.18,-11.53 38.42,-17.24 69.43,-17.24 40.63,0 72.15,13.74 95,41.34l0 -111.19 152.62 0 0 110.48c24.52,-27.58 57.62,-41.32 99.28,-41.32 27.26,0 48.93,4.77 64.76,14.32 15.96,9.55 25.81,22.69 29.59,39.46 3.76,16.65 5.7,40.86 5.7,72.41l0 191.05zm-153.38 30.73l0 -215.26c0,-22.12 -0.14,-35.51 -0.4,-40.28 -0.25,-4.77 -1.94,-9.2 -5.2,-13.16 -3.23,-3.96 -8.69,-5.94 -16.48,-5.94 -8.43,0 -14.53,2.8 -18.29,8.39 -3.76,5.58 -5.58,15.48 -5.58,29.81l0 235.74c0,23.16 8.18,34.8 24.65,34.8 7.01,0 12.21,-2.32 15.84,-6.86 3.62,-4.55 5.46,-13.62 5.46,-27.24zm-198.57 -2.68l0 -235.74c0,-23.17 -8.3,-34.82 -25.05,-34.82 -7.14,0 -12.46,2.33 -16.21,6.88 -3.64,4.54 -5.46,13.61 -5.46,27.23l0 215.26c0,22.12 0.13,35.51 0.4,40.28 0.25,4.78 2.07,9.2 5.31,13.16 3.25,3.96 8.82,5.93 16.74,5.93 8.56,0 14.8,-2.8 18.56,-8.38 3.76,-5.59 5.71,-15.48 5.71,-29.8zm506.14 -3.73l0 112.46 -116.03 0 0 -112.46 116.03 0zm466.68 -200.11c23.23,7.09 40.49,18.62 51.92,34.57 11.27,16.06 16.99,53.67 16.99,112.8 0,43.89 -5.59,78 -16.74,102.22 -11.15,24.22 -30.37,42.61 -57.76,55.18 -27.38,12.7 -62.42,18.98 -105.25,18.98 -48.53,0 -86.81,-7.34 -114.45,-22 -27.78,-14.68 -46.07,-32.72 -54.77,-54.02 -8.7,-21.19 -13.1,-58.22 -13.1,-110.83l0 -43.66 153.39 0 0 89.87c0,23.98 1.55,39.24 4.81,45.64 3.11,6.52 10.25,9.78 21.15,9.78 11.92,0 19.84,-4.07 23.62,-12.34 3.76,-8.15 5.71,-29.57 5.71,-64.14l0 -38.3c0,-21.19 -2.6,-36.68 -7.92,-46.46 -5.33,-9.78 -13.25,-16.18 -23.62,-19.2 -10.38,-3.15 -30.49,-4.9 -60.35,-5.36l0 -80.33c36.46,0 58.92,-1.28 67.61,-3.72 8.57,-2.56 14.79,-7.92 18.57,-16.41 3.76,-8.39 5.71,-21.54 5.71,-39.47l0 -30.63c0,-19.31 -2.21,-32.01 -6.63,-38.18 -4.54,-6.17 -11.42,-9.19 -20.76,-9.19 -10.77,0 -18.04,3.25 -21.93,9.66 -4.02,6.52 -5.97,20.26 -5.97,41.44l0 45.29 -153.39 0 0 -47.04c0,-52.73 13.48,-88.24 40.35,-106.75 26.87,-18.5 69.57,-27.82 128.1,-27.82 73.19,0 122.89,12.8 148.97,38.53 26.09,25.73 39.21,61.47 39.21,107.11 0,30.97 -4.68,53.32 -14.02,67.06 -9.48,13.74 -25.96,26.31 -49.45,37.72zm486.53 -52.86l0 184.17c0,41.91 -2.6,72.3 -7.65,91.39 -5.07,19.21 -15.57,37.02 -31.55,53.67 -15.96,16.52 -35.16,28.51 -57.75,35.74 -22.45,7.33 -47.63,10.94 -75.52,10.94 -36.73,0 -67.22,-3.85 -91.62,-11.41 -24.28,-7.68 -43.62,-19.56 -58.15,-35.62 -14.4,-16.18 -24.65,-33.18 -30.76,-51 -6.1,-17.93 -9.07,-46.33 -9.07,-85.21l0 -192.67c0,-50.75 4.93,-88.71 14.65,-113.97 9.74,-25.27 29.08,-45.52 58.15,-60.78 28.94,-15.24 64.11,-22.81 105.37,-22.81 33.75,0 63.85,5.24 90.46,15.83 26.61,10.59 46.47,23.52 59.57,38.77 13.23,15.25 22.2,32.37 26.87,51.45 4.66,19.1 7,49.6 7,91.51zm-153.39 -46.22c0,-29.34 -1.56,-47.61 -4.8,-55.07 -3.13,-7.32 -10.52,-11.05 -22.32,-11.05 -11.43,0 -18.97,3.96 -22.6,11.76 -3.76,7.8 -5.57,25.96 -5.57,54.36l0 269.16c0,32.01 1.69,51.33 5.19,57.86 3.37,6.63 10.78,9.89 22.33,9.89 11.4,0 18.81,-3.84 22.45,-11.64 3.49,-7.68 5.32,-25.03 5.32,-52.04l0 -273.23zm479.79 -140.87l0 119.91 -98.11 432.61 -152.62 0 109.39 -453.33 -152.23 0 0 -99.19 293.57 0zm-6110.17 852.06l0 71.95c-21.16,0 -34.78,0.82 -41.02,2.45 -6.23,1.51 -10.9,5.23 -13.75,11.06 -2.98,5.82 -4.41,22.23 -4.41,49.36l0 282.89c0,25.26 1.17,41.09 3.38,47.38 2.33,6.17 6.61,10.37 12.83,12.46 6.23,1.98 20.52,3.02 42.97,3.02l0 71.95 -48.27 0c-44.53,0 -77.23,-3.73 -98.12,-11.05 -20.77,-7.46 -34.65,-18.29 -41.27,-32.61 -6.74,-14.32 -10.12,-44.81 -10.12,-91.5l0 -282.19c0,-46.45 3.24,-76.96 9.87,-91.51 6.62,-14.55 20.63,-25.5 42.16,-32.71 21.55,-7.33 54,-10.95 97.48,-10.95l48.27 0zm397.5 433.19c0,46.1 -11.16,77.54 -33.61,94.31 -22.45,16.64 -71.25,25.02 -146.26,25.02l-175.97 0 0 -452.63 181.42 0c62.16,0 104.85,9.2 128.35,27.59 23.49,18.51 35.16,49.94 35.16,94.65 0,51.11 -29.72,80.33 -89.02,87.31 31.02,4.55 55.42,15.37 73.2,32.6 17.78,17.11 26.73,38.65 26.73,64.61l0 26.54zm-203.22 -164.96c23.35,0 37.63,-2.56 42.81,-7.8 5.2,-5.24 7.79,-15.6 7.79,-31.08 0,-12.92 -2.86,-22.01 -8.69,-27.01 -5.84,-5.01 -19.85,-7.45 -41.91,-7.45l0 73.34zm50.6 143.89l0 -15.37c0,-19.56 -2.86,-31.78 -8.69,-36.66 -5.84,-4.9 -19.85,-7.34 -41.91,-7.34l0 104.78c20.49,0 34.12,-2.68 40.75,-8.03 6.61,-5.36 9.85,-17.82 9.85,-37.38zm500.82 -312.23l-60.73 216.31 73.96 236.32 -149.24 0c-14.67,-59.84 -25.82,-111.41 -33.36,-154.48 -10.25,53.9 -21.27,105.36 -33.22,154.48l-128.34 0 66.19 -236.32 -66.19 -216.31 128.34 0c20.64,92.79 31.67,145.41 33.22,157.99 14.67,-77.42 25.71,-130.17 33.36,-157.99l136.01 0zm381.29 158.91l0 110.95c0,40.74 -2.34,70.55 -6.88,89.63 -4.55,18.98 -14.28,36.68 -29.21,53.21 -14.92,16.53 -34.12,28.63 -57.62,36.55 -23.48,7.8 -50.35,11.76 -80.71,11.76 -34,0 -62.82,-3.37 -86.3,-10.01 -23.64,-6.75 -41.93,-16.88 -54.9,-30.38 -13.11,-13.63 -22.45,-30.04 -28.04,-49.25 -5.58,-19.2 -8.29,-48.08 -8.29,-86.5l0 -116.06c0,-42.14 5.05,-74.98 15.18,-98.73 10.12,-23.62 28.42,-42.6 54.76,-56.92 26.34,-14.32 60.09,-21.54 101.1,-21.54 34.38,0 63.97,4.65 88.76,13.85 24.66,9.2 43.74,21.2 57.24,35.98 13.36,14.79 22.57,30.03 27.5,45.75 4.94,15.72 7.41,39.58 7.41,71.71zm-153.4 -34.11c0,-23.17 -1.42,-37.83 -4.16,-43.77 -2.84,-6.05 -8.81,-9.09 -18.04,-9.09 -9.21,0 -15.31,3.04 -18.43,9.09 -2.98,5.94 -4.54,20.6 -4.54,43.77l0 204.31c0,21.42 1.56,35.39 4.54,41.79 3.12,6.52 9.09,9.78 18.06,9.78 9.2,0 15.18,-2.9 18.16,-8.84 2.99,-5.94 4.41,-18.63 4.41,-38.18l0 -208.86zm651.1 415.15l-102.79 0 0 -87.32 -258.52 0 0 87.32 -102.78 0 0 -195.59 32.7 0c19.6,-27.01 35.55,-69.03 48.15,-125.96 12.59,-56.93 18.82,-124.21 18.82,-201.63l0 -16.77 331.72 0 0 343.67 32.7 0 0 196.28zm-185.33 -196.28l0 -241.69 -39.72 0 0 4.78c0,84.05 -15.31,163.1 -45.93,236.91l85.65 0zm701.05 -172.54l-144.82 0 0 -52.38c0,-18.16 -1.7,-30.5 -5.07,-37.03 -3.37,-6.51 -9.6,-9.78 -18.68,-9.78 -9.1,0 -15.19,2.8 -18.31,8.51 -3.11,5.71 -4.66,18.39 -4.66,38.18l0 213.63c0,16.18 2.33,28.29 7.01,36.32 4.54,8.03 11.41,12.1 20.5,12.1 10.51,0 17.64,-4.19 21.41,-12.57 3.77,-8.38 5.58,-24.21 5.58,-47.61l0 -53.67 137.04 0c-0.25,36.09 -1.69,63.22 -4.41,81.26 -2.58,18.05 -11.15,36.55 -25.56,55.53 -14.28,18.97 -33.09,33.29 -56.19,42.96 -23.1,9.66 -51.66,14.43 -85.79,14.43 -43.35,0 -77.87,-6.63 -103.3,-20.02 -25.31,-13.27 -43.34,-31.9 -53.86,-55.88 -10.51,-24.1 -15.83,-58.09 -15.83,-102.33l0 -128.64c0,-38.54 4.28,-67.52 12.97,-87.08 8.57,-19.56 27,-37.03 55.29,-52.39 28.16,-15.37 62.42,-23.05 102.92,-23.05 40.09,0 74.36,7.68 102.91,22.94 28.41,15.24 47.36,34.46 56.71,57.74 9.48,23.28 14.14,56.23 14.14,98.83zm503.66 -171.13l-43.99 327.48c-7.01,51.92 -12.85,87.31 -17.52,106.18 -4.67,18.85 -12.45,34.46 -23.36,46.68 -10.76,12.34 -25.96,21.31 -45.29,27.13 -19.34,5.82 -50.35,8.73 -92.8,8.73l-93.04 0 0 -72.65c23.87,0 39.18,-1.05 45.95,-3.26 6.86,-2.09 10.37,-6.99 10.37,-14.43 0,-3.73 -3.24,-19.45 -9.6,-47.39l-84.1 -378.47 139.25 0 50.35 306.07 24.79 -306.07 138.99 0zm261.13 452.63l0 -357.63 -54.51 0 0 228.4c0,41.57 -5.32,71.37 -15.97,89.18 -10.64,17.82 -27.38,29 -50.36,33.42 -22.83,4.42 -60.46,6.63 -112.64,6.63l-25.04 0 0 -74.04c19.6,-0.23 32.96,-2.44 40.36,-6.63 7.39,-4.19 11.03,-19.1 11.03,-44.6l0 -327.36 359.74 0 0 452.63 -152.61 0zm306.02 -112.46l0 112.46 -116.03 0 0 -112.46 116.03 0zm573.74 112.46l-160.41 0 0 -442.15 -46.71 0 0 312.81c0,41.21 -5.98,70.79 -17.78,88.71 -11.94,18.05 -29.86,29.22 -53.85,33.77 -24.15,4.53 -62.44,6.86 -115.13,6.86l-25.04 0 0 -94.99c19.59,0 32.96,-2.22 40.36,-6.53 7.39,-4.3 11.04,-19.08 11.04,-44.35l0 -406.65 367.52 0 0 552.52zm407.24 -218.63l-199.34 0 0 98.14c0,20.49 1.69,33.76 4.92,39.7 3.38,5.94 9.74,8.84 19.22,8.84 11.82,0 19.72,-3.95 23.62,-11.75 4.02,-7.92 5.97,-23.17 5.97,-45.76l0 -59.84 145.61 0 0 33.53c0,28.06 -1.95,49.6 -5.84,64.61 -4.03,15.02 -13.25,31.09 -27.65,48.21 -14.39,17.1 -32.83,29.92 -55.03,38.53 -22.19,8.49 -49.95,12.8 -83.44,12.8 -32.44,0 -61.13,-4.19 -86.05,-12.69 -24.78,-8.38 -44.12,-19.9 -58,-34.57 -13.89,-14.67 -23.35,-30.85 -28.68,-48.55 -5.32,-17.57 -8.04,-43.19 -8.04,-76.95l0 -132.13c0,-39.58 5.95,-70.78 17.9,-93.71 11.95,-22.83 31.4,-40.41 58.53,-52.51 27.26,-12.23 58.41,-18.28 93.7,-18.28 43.09,0 78.65,7.34 106.68,22 28.04,14.68 47.75,34.11 59.04,58.32 11.3,24.1 16.88,58.22 16.88,102.11l0 59.95zm-153.4 -73.34l0 -33.07c0,-23.52 -1.43,-38.53 -4.29,-45.39 -2.86,-6.88 -8.69,-10.26 -17.51,-10.26 -10.9,0 -17.65,2.92 -20.24,8.74 -2.61,5.82 -3.9,21.43 -3.9,46.91l0 33.07 45.94 0zm563.87 291.97l-152.61 0 0 -166.95 -55.27 0 0 166.95 -152.63 0 0 -452.63 152.63 0 0 162.75 55.27 0 0 -162.75 152.61 0 0 452.63zm435.41 0l-133.93 0 0 -244.59 -106.81 244.59 -140.02 0 0 -452.63 133.93 0 0 242.5 104.98 -242.5 141.85 0 0 452.63zm415.04 0l-152.63 0 0 -166.95 -55.27 0 0 166.95 -152.62 0 0 -452.63 152.62 0 0 162.75 55.27 0 0 -162.75 152.63 0 0 452.63zm191.68 -277.31l-144.06 0 0 -30.38c0,-35.04 4.54,-62.05 13.5,-81.14 8.95,-18.97 27.13,-35.74 54.25,-50.29 27.11,-14.55 62.29,-21.89 105.76,-21.89 51.91,0 91.1,8.26 117.45,24.8 26.34,16.41 42.17,36.67 47.5,60.65 5.32,23.98 8.05,73.46 8.05,148.31l0 227.25 -149.5 0 0 -40.39c-9.34,16.29 -21.55,28.4 -36.35,36.55 -14.78,8.15 -32.45,12.22 -53.07,12.22 -26.86,0 -51.53,-6.75 -73.98,-20.26 -22.45,-13.62 -33.61,-43.18 -33.61,-88.93l0 -37.26c0,-33.88 5.97,-56.93 17.92,-69.27 11.93,-12.34 41.52,-26.66 88.77,-42.95 50.46,-17.81 77.47,-29.69 81.1,-35.86 3.51,-6.17 5.32,-18.63 5.32,-37.6 0,-23.64 -1.96,-39.01 -5.97,-46.22 -3.89,-7.1 -10.52,-10.72 -19.72,-10.72 -10.52,0 -17.01,3.04 -19.47,9.09 -2.6,5.94 -3.89,21.65 -3.89,46.91l0 47.38zm49.05 62.05c-24.78,16.18 -39.19,29.69 -43.1,40.64 -4.01,10.94 -5.95,26.54 -5.95,47.03 0,23.51 1.68,38.54 5.18,45.4 3.38,6.87 10.26,10.24 20.51,10.24 9.73,0 15.96,-2.67 18.94,-8.03 2.99,-5.36 4.42,-19.33 4.42,-42.14l0 -93.14zm192.19 -337.26l48.28 0c43.48,0 75.93,3.62 97.46,10.95 21.54,7.21 35.56,18.16 42.18,32.71 6.62,14.55 9.86,45.06 9.86,91.51l0 282.19c0,46.69 -3.24,77.18 -9.86,91.5 -6.62,14.32 -20.37,25.15 -41.4,32.61 -21.02,7.32 -53.72,11.05 -98.24,11.05l-48.28 0 0 -71.95c22.44,0 36.85,-1.04 42.83,-3.02 6.09,-2.09 10.38,-6.29 12.71,-12.46 2.47,-6.29 3.64,-22.12 3.64,-47.38l0 -282.89c0,-27.13 -1.55,-43.54 -4.54,-49.36 -2.98,-5.83 -7.65,-9.55 -13.88,-11.06 -6.11,-1.63 -19.73,-2.45 -40.76,-2.45l0 -71.95z"/>
 </g>
</svg>
