<?xml version="1.0" encoding="UTF-8"?>
<!DOCTYPE svg PUBLIC "-//W3C//DTD SVG 1.1//EN" "http://www.w3.org/Graphics/SVG/1.1/DTD/svg11.dtd">
<!-- Creator: CorelDRAW 2018 (64-Bit) -->
<svg xmlns="http://www.w3.org/2000/svg" xml:space="preserve" width="170mm" height="100mm" version="1.1" style="shape-rendering:geometricPrecision; text-rendering:geometricPrecision; image-rendering:optimizeQuality; fill-rule:evenodd; clip-rule:evenodd"
viewBox="0 0 17000 10000"
 xmlns:xlink="http://www.w3.org/1999/xlink">
 <defs>
  <style type="text/css">
   <![CDATA[
    .fil0 {fill:#FEFEFE}
    .fil1 {fill:#61A935}
    .fil2 {fill:#0066A4}
    .fil3 {fill:#0066A4;fill-rule:nonzero}
   ]]>
  </style>
 </defs>
 <g id="Слой_x0020_1">
  <metadata id="CorelCorpID_0Corel-Layer"/>
  <rect class="fil0" x="0" y="0" width="17000" height="10000"/>
  <polygon class="fil1" points="15860.37,4538.46 15977.66,4538.46 15983.66,4538.46 15983.66,4367.7 16099.12,4538.46 16245.54,4538.46 16251.5,4538.46 16088.24,4323 16247.11,4120.23 16109.95,4120.23 16103.7,4120.23 15983.66,4287.45 15983.66,4120.23 15866.69,4120.23 15860.37,4120.23 "/>
  <polygon class="fil1" points="15219.34,4538.46 15336.54,4538.46 15342.22,4538.46 15342.22,4120.23 15225.5,4120.23 15219.34,4120.23 "/>
  <polygon class="fil1" points="14519.43,4538.46 14636.56,4538.46 14642.32,4538.46 14642.32,4220.71 14734.66,4220.71 14734.66,4120.23 14432.98,4120.23 14427.05,4120.23 14427.05,4220.71 14519.43,4220.71 "/>
  <path class="fil1" d="M13944.8 4149.48c-0.32,-1.17 -1.01,-1.17 -1.57,-1.17l-1.26 -1.14c-26.7,-17.97 -50.1,-28.97 -73.15,-32.16 -23.45,-5.28 -40.33,-6.66 -51.2,-6.66l-5.92 0c-47.95,0.69 -84.39,12.29 -109.62,36.56 -24.95,24.46 -37.6,54.12 -37.6,89.36 0,34.09 7.82,59.77 23.61,77.17 15.86,17.16 32.74,29.9 50.62,38.37 7.83,3.5 14.81,5.85 22.03,8.16 8.32,3 14.98,4.99 20.93,6.01 1.19,1.25 2.6,1.25 3.37,1.25 2.07,0.65 2.56,0.65 3.21,0.65 16.15,4.59 29.37,9.82 40.24,16.11 10.51,6.69 16.07,17.32 16.07,32.58 -0.69,2.51 -0.69,5.15 -0.69,7.58 -0.57,3.37 -0.97,5.76 -2.48,8.15 -2.39,5.49 -5.84,9.54 -10.46,13.48 -6.08,4.58 -14,6.24 -24.78,6.24l-4.83 0c-2.57,-1.13 -3.34,-1.13 -4.75,-1.13 -14.9,-2.35 -28.68,-7.67 -42.4,-15.94 -14.36,-8.69 -26.41,-17.69 -37,-27.03 -2.63,-2.47 -4.3,-4.06 -5.96,-5.47 -2.32,-2.23 -4.26,-4.06 -6.01,-5.89l-6.12 0 -55.78 88.89c18.86,15.01 34.89,27.14 49.78,35.83 16.47,9.74 31.19,16.35 45.63,21.25 10.72,3.41 20.61,5.84 29.87,7.06 11.02,2.39 21.01,3.16 31.68,3.16l5.89 -0.77c41.82,0 78.21,-10.62 109.12,-32.21 32.45,-22.23 48.4,-56.8 48.4,-104.87 -1.13,-36.3 -8.55,-63.09 -24.1,-81.26 -16.23,-19.03 -33.75,-32.7 -52.69,-41.05 -10.47,-4.83 -19.65,-8.44 -29.02,-10.83 -9.89,-3.66 -18.04,-5.44 -24.46,-6.58 -3.56,-1.18 -6.4,-2.03 -9.82,-2.31 -3.73,-1.26 -7.46,-1.71 -11.03,-2.96 -7.67,-2.81 -14.32,-6.13 -20.12,-10.83 -5.64,-6.13 -8.96,-12.46 -8.96,-20.82 0.8,-2.39 0.8,-4.94 0.8,-7.3 0.77,-3.65 1.75,-5.97 2.84,-8.23 2.8,-6.01 6.58,-10.23 11.64,-14.05 6.13,-4.49 13.8,-6.4 24.83,-6.4 11.97,1.17 22.03,3.56 31.61,8.44 10.87,5.35 20.37,11.27 29.7,18.57 2.47,1.67 4.46,3.45 5.87,5.33 2.76,2.26 4.43,3.64 6.26,4.33l6.04 0 41.74 -87.47z"/>
  <polygon class="fil1" points="13035.96,4538.46 13152.83,4538.46 13159.01,4538.46 13159.01,4120.23 13041.67,4120.23 13035.96,4120.23 "/>
  <path class="fil1" d="M12324.96 4308.47l0 -96.07 23.04 0c19.52,0.33 33.31,4.51 41.06,12.9 8.15,8.97 12.53,18.54 13.79,28.68l0 3.82 0 2.28 0 2.14 0 2.48c-1.26,11.4 -5.64,21.06 -13.39,30.1 -8.15,9.45 -21.94,13.67 -41.46,13.67l-23.04 0zm-123.37 229.99l117.28 0 6.09 0 0 -128.52 82.72 128.52 141.59 0 5.96 0 -117.12 -167.14c1.01,-0.85 1.83,-0.85 2.23,-0.85 1.33,-0.9 1.67,-0.9 2.52,-0.9 21.58,-8.6 40.04,-21.5 56.59,-39.96 18.13,-20 26.13,-47.46 26.13,-83.78 0,-34.04 -7.51,-59.43 -23.13,-76.06 -15.3,-17.81 -32.17,-29.98 -49.9,-37.01 -16.35,-6.56 -30.83,-10.06 -44.38,-10.62 -14.2,-1.5 -23.29,-1.91 -26.86,-1.91l-173.48 0 -6.24 0 0 418.23z"/>
  <path class="fil1" d="M11319.75 4120.25l-5.87 0 0 249.33c0.56,63.38 17.28,108.49 51.6,137.25 34.33,29.33 78.42,43.9 132.42,43.9l5.92 -0.74c55.1,0 99.27,-14.39 132.86,-43.16 34.33,-29.65 51.36,-75.33 51.36,-137.25l0 -249.33 -117.36 0 -6.09 0 0 246.91c-0.69,4.65 -0.69,10.22 -1.17,16.79 -0.41,6.49 -1.42,12.9 -3.09,20.2 -3.65,11.08 -10.06,21.34 -18.37,30.83 -8.89,10.35 -22.52,15.06 -41.06,15.06 -19.03,-0.33 -32.34,-5.24 -40.65,-15.06 -9.05,-9.93 -14.81,-20.4 -18.7,-30.83 -2.23,-7.75 -3.58,-14.44 -3.98,-20.2 -0.69,-7.39 -0.69,-12.65 -0.69,-16.79l0 -246.91 -117.13 0z"/>
  <path class="fil1" d="M10589.99 4450.04c-4.83,-0.34 -8.97,-0.34 -13.72,-1.14 -4.75,-1.38 -9.09,-2.36 -12.99,-3.58 -18.61,-6.16 -35.74,-17.4 -51.11,-35.37 -15.38,-18.38 -22.6,-45.31 -22.6,-80.37 0.49,-36.27 7.72,-62.19 22.6,-80.08 16.11,-18.75 32.98,-30.59 51.11,-36.11 4.67,-1.58 8.73,-2.88 13.56,-3.82 5.32,-0.85 9.41,-0.85 13.87,-0.85 4.67,0.61 8.48,0.61 11.56,0.85 5.32,1.71 9.1,2.24 13.48,3.13 19.14,6.21 36.43,17.52 51.8,35.29 16.35,18.67 23.86,45.32 23.86,81.59 -0.33,37 -8.32,63.66 -23.86,81.54 -15.37,18.63 -32.66,30.11 -51.8,34.78 -4.91,1.62 -9.13,3 -13.48,3.8 -4.46,0.34 -8.56,0.34 -12.28,0.34zm-2.23 100.69l5.95 -0.74c75.1,-0.53 130.8,-22.71 167.51,-66.52 38.42,-44.31 57.04,-95.51 57.04,-153.89 -0.56,-58.7 -19.1,-109.95 -57.04,-154.24 -37.97,-44.96 -93.67,-66.98 -167.51,-66.98l-5.95 0c-74.78,0.69 -131.05,22.6 -168.86,66.98 -37.33,44.29 -56.11,95.54 -56.11,154.24 0,59.07 19.12,110.27 57.33,154.37 39.02,44.46 94.73,66.78 167.64,66.78z"/>
  <polygon class="fil1" points="9681.45,4538.46 9798.65,4538.46 9804.74,4538.46 9804.74,4220.71 9896.84,4220.71 9896.84,4120.23 9595.4,4120.23 9589.36,4120.23 9589.36,4220.71 9681.45,4220.71 "/>
  <path class="fil1" d="M6590.32 3183.82c-52.82,134.69 -52.82,284.79 0,419.69 -45.15,-22.6 -104.99,-52.82 -157.32,-37.52 -127.19,45.11 -134.57,127.38 -134.57,232.25l-5645.48 0 0 -614.42 5937.37 0z"/>
  <path class="fil2" d="M7165.94 4540.05l-6512.98 0 0 -599.34 5645.45 0c22.43,119.64 104.38,217.09 194.29,284.27 157.32,127.75 276.92,142.73 613.73,195.02l59.51 120.05zm-515.92 -1588.38c-217.01,-142.52 -404.15,-314.62 -561.4,-524.48l-5435.66 0 0 614.3 5974.59 0 22.47 -89.82zm-658.52 -674.35l-5338.54 0 0 -606.96 5054.23 0c67.34,217.21 157.08,427.08 284.31,606.96zm2094.76 -989.12c-22.51,0 -7.38,-37.36 -37.36,-37.36 -44.83,14.85 -104.71,14.85 -127.27,89.94 -7.42,-45.11 -52.26,-60.01 -74.6,-67.31 -7.64,37.25 37.52,67.31 14.72,119.56 -104.5,7.59 -164.38,90.06 -201.84,164.79l-7.3 -7.3c-14.93,90.19 -104.82,149.71 -104.82,247.19 22.31,37.44 52.16,-30.06 89.89,-7.38 -45.27,22.39 -67.58,52.58 -89.89,90.02 -15.06,44.99 -15.06,82.36 0,119.65 44.62,-14.74 89.89,-74.66 127.14,-89.83 -15.02,75.09 -59.76,112.46 -104.83,172.42l-7.55 112.34c-45.08,-30.15 -97.12,-74.82 -134.81,-127.35 -52.18,-30.19 -74.53,-97.45 -119.39,-157.41 -201.92,-247.19 -501.16,-59.84 -733.3,-82.43 -291.78,-52.34 -568.7,-149.79 -777.87,-374.66 0,74.97 22.23,134.8 59.59,209.9 29.98,104.67 112.3,187.35 202.19,247.19 -67.46,15.17 -112.29,-37.44 -164.83,-59.84l0 14.85c37.69,97.53 89.95,179.92 164.83,254.93 67.27,89.78 186.91,59.85 261.88,112.43 -30.19,37.15 -89.94,22.51 -142.12,22.51 52.18,104.47 157.09,186.95 261.72,186.95 30.03,7.58 67.39,-29.74 74.86,15.25 -7.47,52.33 -74.86,44.66 -112.51,44.66 37.65,74.98 112.51,142.36 179.88,194.74 179.53,7.74 306.67,217.49 486.19,105.16 82.36,82.31 172.14,-37.57 261.88,-29.98 0,15.01 -22.39,29.98 -22.39,37.32 -112.06,37.65 -224.31,90.02 -254.26,209.99 0,97.2 -97.28,37.23 -142.36,52.25 -112.45,7.23 -164.66,120.01 -201.83,224.87 -52.58,179.77 104.38,337.22 -37.4,464.33 -44.95,22.47 -89.83,0 -127.35,-29.79 7.78,52.26 22.23,89.7 59.93,112.43 44.94,14.84 112.25,-7.39 134.64,-37.65 0,30.26 -22.39,44.95 -37.24,75.04 -82.32,37.45 -149.55,-37.39 -209.78,-67.58 0,67.58 44.82,90.02 67.71,134.89 29.9,37.37 -45.11,22.64 -45.11,37.37 112.25,112.62 261.7,217.65 418.83,172.5 67.43,-14.81 112.55,-97.45 149.91,-157.45 14.85,-149.82 14.85,-314.74 -67.55,-441.92 -59.68,-74.9 -59.68,-179.89 -82.36,-262.17 22.68,-45.11 60,-97.4 112.55,-104.86 22.18,74.8 52.21,142.52 104.54,194.56 37.32,112.62 179.52,157.42 164.43,277.42 -52.42,119.68 -164.43,224.71 -149.71,352.06 89.91,104.79 164.8,239.52 187.27,389.75 67.1,0 44.92,89.78 67.1,119.88 60.3,22.39 127.48,0 179.64,0 -29.85,-119.88 -126.9,-172.34 -179.64,-270.11 -7.22,-22.35 -22.18,-67.39 0,-82.19 45.12,22.36 104.92,59.84 104.92,127.34 60.04,-7.46 44.87,82.28 60.04,119.89 29.9,29.77 67.34,89.94 112.1,67.42 14.96,-22.47 7.66,-30.01 7.66,-44.91 37.25,-119.8 -67.35,-164.91 -82.56,-247.38 -74.68,-74.9 -164.67,-89.78 -224.34,-187.04 -37.45,-45.07 22.18,-67.38 59.67,-112.57 164.67,-127.27 217.13,-352.14 217.13,-547.13 89.78,-149.53 291.73,-179.64 411.33,-329.25 89.66,-82.45 142.12,-194.82 202.12,-284.69l22.56 22.36c112.04,7.43 201.74,-134.97 291.44,-202.24 15.14,22.32 37.74,44.87 60.17,82.48 22.44,37.2 -7.67,97.4 22.44,127.19 22.23,37.57 -15.01,67.55 -22.44,97.57 29.82,59.72 67.43,134.65 127.15,157.33 22.43,-82.45 7.3,-157.33 14.92,-239.97l0 -22.36c14.9,-112.54 -104.91,-172.42 -97.4,-284.83 89.78,-89.91 202.16,7.62 291.86,29.93 22.55,15.22 15.13,52.66 15.13,74.98 82.07,0 149.58,-37.49 209.42,-104.91 -22.68,-14.73 -52.46,-29.98 -74.81,-44.79 -112.38,-97.25 -254.45,-7.63 -374.18,-97.25 -59.96,-15.13 -119.76,-15.13 -172.26,-15.13 -52.25,52.21 -96.87,97.45 -141.99,157.17l-29.93 0c0,-75.02 7.5,-119.76 15.09,-187.03 -22.57,-97.61 -82.4,-97.61 -149.66,-164.84 -22.23,-149.98 -194.65,-187.67 -172.14,-352.46 14.89,-74.65 104.63,-7.38 164.63,-52.26 82.23,-29.93 149.58,119.76 217.13,0 7.17,-7.46 -15.17,-29.93 -15.17,-52.41l44.86 -14.8c52.38,-225.08 -224.26,-142.28 -329.14,-247.56 14.89,-89.9 -74.76,-67.27 -119.8,-112.42zm-1353.88 1326.09c-22.48,29.98 -67.58,29.98 -112.22,37.65 44.64,-7.67 74.7,-67.55 112.22,-37.65zm1077.11 -314.78c-67.21,0 -156.88,-22.19 -194.32,-59.67 59.76,15.21 127.11,52.37 194.32,59.67z"/>
  <path class="fil2" d="M16233.1 1684.77l0 548.58c-86.13,-34.08 -217.98,-68.56 -311.57,-68.56 -52.98,0 -148.81,6.25 -148.81,128 0,130.67 103.4,130.67 252.71,208.36 179.84,93.8 321.63,255.91 321.63,623.72 0,405.41 -179.8,786.1 -594.87,786.1 -151.73,0 -323.75,-46.81 -458.07,-128.19l0 -601.64c101.34,59.22 278.22,143.32 397.54,143.32 121.18,0 149.14,-74.81 149.14,-140.32 0,-118.43 -93.84,-155.58 -179.65,-196.48 -121.38,-52.74 -392.31,-152.55 -392.31,-629.39 0,-477.39 225.45,-760.84 556.74,-760.84 139.31,0 293.56,31.31 407.52,87.34zm-1819.9 1296.72l91.43 -554.87 91.16 554.87 -182.59 0zm-673.37 863.65l544.43 0 53.23 -318.12 334.01 0 53.39 318.12 543.95 0 -470.73 -2182.15 -584.52 0 -473.76 2182.15zm-847.38 -1309.35l0 501.77 278.14 0c2.92,146.58 -88.28,261.88 -214.81,261.88 -182.32,0 -288.54,-240.18 -288.54,-532.89 0,-265.4 78.23,-536.12 290.89,-536.12 88.68,0 172.06,52.86 202.65,155.78l455.51 -140.48c-78.46,-355.03 -306.26,-648.3 -675.64,-648.3 -559.33,0 -779.3,589.35 -779.3,1172.12 0,660.88 293.32,1141.42 784.21,1141.42 478.43,0 731.58,-465.04 731.58,-1113.46l0 -261.72 -784.69 0zm-1849.93 1309.35l931.03 0 0 -633.01 -399.45 0 0 -208.66 359.33 0 0 -523.87 -359.33 0 0 -183.73 399.45 0 0 -632.88 -931.03 0 0 2182.15zm-921.2 -1614.71l58.21 0c48.03,0 126.53,12.3 126.53,183.86 0,171.24 -73.42,187.14 -126.53,187.14l-58.21 0 0 -371zm-531.55 1614.71l531.55 0 0 -676.38 111.32 0c468.49,0 579.53,-442.78 579.53,-754.47 0,-308.66 -108.64,-751.3 -579.53,-751.3l-642.87 0 0 2182.15z"/>
  <path class="fil3" d="M1233.69 6970.79c-320.17,0 -580.69,260.51 -580.69,580.7 0,83.55 17.11,163.33 50.77,237.1 145.19,317.65 423.59,653.13 505.48,748.35 6.08,7.17 15.06,11.27 24.44,11.27 9.46,0 18.38,-4.1 24.52,-11.27 81.82,-95.22 360.23,-430.61 505.42,-748.35 33.73,-73.77 50.85,-153.55 50.85,-237.1 -0.08,-320.19 -260.59,-580.7 -580.79,-580.7zm0 882.35c-166.31,0 -301.65,-135.34 -301.65,-301.65 0,-166.33 135.34,-301.67 301.65,-301.67 166.33,0 301.68,135.34 301.68,301.67 0,166.31 -135.35,301.65 -301.68,301.65z"/>
  <path class="fil3" d="M2843.45 8169.19c0,85.5 -12.41,147.01 -37.25,184.3 -24.57,37.54 -62.36,60.79 -112.58,70.24 -50.48,9.45 -130.67,14.29 -240.83,14.29l-385.25 0 0 -1149.41 652.8 0 0 199.08 -319.1 0 0 194.71 51.55 0c102.6,0 180.62,5.33 233.27,16.23 52.65,10.89 92.06,34.88 118.24,72.17 26.2,37.06 39.15,95.42 39.15,174.86l0 223.53zm-333.68 -34.63l0 -166.14c0,-48.43 -5.41,-77.74 -16.2,-88.15 -10.8,-10.42 -41.58,-16.23 -92.33,-17.68l0 377.81c42.39,0 71,-4.84 85.84,-14.53 15.13,-9.69 22.69,-40.21 22.69,-91.31zm451.67 -845.95l555.6 0 0 229.59 -221.92 0 0 219.42 207.35 0 0 217.97 -207.35 0 0 252.83 244.61 0 0 229.6 -578.29 0 0 -1149.41zm673.04 0l335.59 0c90.71,0 160.36,6.3 209.22,19.13 48.6,12.84 85.32,31.24 109.88,55.22 24.58,24.22 41.04,53.52 49.95,87.68 8.64,34.39 12.95,87.43 12.95,159.35l0 100.02c0,73.14 -8.37,126.67 -25.37,160.09 -16.73,33.66 -47.79,59.58 -92.6,77.49 -45.08,17.93 -103.94,26.89 -176.57,26.89l-89.36 0 0 463.54 -333.69 0 0 -1149.41zm333.69 196.17l0 292.8c9.45,0.49 17.55,0.73 24.3,0.73 30.51,0 51.57,-6.78 63.45,-20.34 11.61,-13.32 17.55,-41.42 17.55,-84.04l0 -94.7c0,-39.23 -6.75,-64.9 -20.53,-76.77 -13.5,-11.86 -41.84,-17.68 -84.77,-17.68zm1431.97 1150.86l-230.03 0 0 -197.62 -537.79 0 0 197.62 -230.02 0 0 -437.39 68.04 0c35.9,-94.2 65.59,-217.96 88.55,-371.51 22.94,-153.54 34.55,-321.38 34.55,-503.25l0 -34.88 738.66 0 0 908.19 68.04 0 0 438.84zm-401.73 -438.84l0 -681.5 -98.82 0 0 8.47c0,220.15 -26.45,444.41 -79.36,673.03l178.18 0zm1282.66 -406.87l-333.7 0 0 -199.56c0,-58.12 -3.5,-94.21 -10.52,-108.74 -7.01,-14.28 -22.68,-21.55 -46.7,-21.55 -27,0 -44.28,8.72 -51.58,26.15 -7.29,17.68 -11.06,55.46 -11.06,113.59l0 533.29c0,55.95 3.77,92.27 11.06,109.47 7.3,16.95 23.76,25.42 49.14,25.42 24.58,0 40.77,-8.47 48.32,-25.67 7.57,-16.95 11.34,-57.15 11.34,-120.37l0 -144.58 333.7 0 0 44.81c0,119.15 -9.45,203.68 -28.08,253.33 -18.63,49.88 -60.2,93.48 -124.19,131.01 -64.25,37.54 -143.08,56.19 -237.03,56.19 -97.47,0 -177.92,-15.74 -241.37,-47.47 -63.17,-31.72 -105.29,-75.56 -125.8,-131.74 -20.53,-56.19 -30.79,-140.47 -30.79,-253.09l0 -335.66c0,-82.84 3.25,-144.83 9.46,-186.25 6.47,-41.41 25.1,-81.37 56.69,-119.63 31.31,-38.27 74.79,-68.54 130.4,-90.58 55.62,-22.04 119.59,-32.94 191.96,-32.94 97.99,0 178.99,16.96 242.98,51.1 63.71,33.91 105.55,76.29 125.8,127.15 19.98,50.86 29.97,129.81 29.97,237.09l0 109.23zm119.33 -501.32l333.69 0 1.62 485.34c61.82,-1.45 93.69,-32.69 95.84,-93.73l6.21 -224.26c2.16,-82.59 19.97,-138.53 53.46,-167.35l307.77 0c-29.7,27.85 -44.28,85.74 -43.74,173.17l1.62 197.13c1.09,119.16 -73.71,187.21 -224.62,203.68 150.91,16.47 225.71,85.49 224.62,206.58l-1.62 182.85c-0.54,87.19 14.04,149.19 43.74,186l-307.77 0c-35.64,-28.82 -53.46,-84.76 -53.46,-167.59l0 -224.02c0,-28.59 -9.44,-51.35 -28.35,-68.55 -19.16,-17.19 -43.73,-26.15 -73.7,-26.63l-1.62 486.79 -333.69 0 0 -1149.41z"/>
  <path class="fil3" d="M6365.37 5112.12l-2.56 84.34c-40.18,-4.12 -80.08,-6.11 -119.69,-6.11 -0.85,39.05 -1.28,79.66 -1.28,121.83 0,71.28 1.99,136.31 5.82,195.09l-111.89 0c3.84,-55.8 5.83,-120.83 5.83,-195.09 0,-40.75 -0.71,-81.36 -2.13,-121.83 -40.19,0 -82.07,1.99 -125.66,6.11l2.98 -84.34 348.58 0zm467.85 188.41c0,69.86 -21.44,124.53 -64.46,163.86 -42.88,39.47 -93.57,59.07 -151.79,59.07 -55.51,0 -103.08,-17.89 -142.7,-53.82 -39.61,-35.92 -59.49,-86.47 -59.49,-151.64 0,-70.14 21.58,-125.09 64.89,-164.71 43.31,-39.75 94,-59.49 152.21,-59.49 55.24,0 102.66,18.03 142.13,54.24 39.47,36.21 59.21,87.04 59.21,152.49zm-108.48 12.5c0,-40.18 -9.51,-73.98 -28.25,-101.38 -18.89,-27.26 -43.45,-40.89 -73.7,-40.89 -29.39,0 -53.24,12.78 -71.7,38.19 -18.46,25.56 -27.69,57.51 -27.69,95.7 0,40.19 9.37,73.98 28.26,101.38 18.88,27.26 43.45,40.89 73.69,40.89 29.39,0 53.25,-12.77 71.7,-38.19 18.46,-25.56 27.69,-57.51 27.69,-95.7zm540.83 76.96c0,42.74 -17.75,73.26 -53.24,91.86 -35.5,18.6 -79.52,27.98 -131.91,27.98 -24.42,0 -56.8,-0.43 -97.26,-1.28 -40.61,-0.85 -65.6,-1.28 -75.4,-1.28 3.69,-48.56 5.4,-114.58 5.4,-198.07 0,-75.12 -4.69,-140.86 -14.06,-197.08l73.55 0c38.9,-3.13 81.22,-4.55 126.94,-4.55 98.39,0 147.66,29.96 147.66,90.17 0,42.45 -22.15,72.69 -66.59,90.73l0 6.24c56.66,10.79 84.91,42.6 84.91,95.28zm-98.97 -2.56c0,-20.16 -8.23,-34.22 -24.42,-42.03 -16.18,-7.66 -41.74,-11.64 -76.67,-11.64 -16.47,0 -35.36,0.85 -57.08,2.56 0,40.18 0.43,74.11 1.28,101.94 25.27,2.42 50.55,3.7 75.68,3.7 54.1,0 81.21,-18.18 81.21,-54.53zm-15.05 -166.41c0,-31.8 -24.7,-47.85 -73.97,-47.85 -23.29,0 -47.28,1 -71.99,2.98 1.85,33.51 2.84,66.17 2.84,97.69 25.84,1.14 47.85,1.71 66.17,1.71 51.25,0 76.95,-18.18 76.95,-54.53zm529.2 285.82l-98.12 3.41c-4.54,-11.78 -6.67,-22.29 -6.67,-31.66l-5.39 0c-30.53,25.98 -71.71,39.05 -123.53,39.05 -34.79,0 -63.47,-9.66 -86.33,-28.83 -23.01,-19.31 -34.36,-44.87 -34.36,-76.81 0,-42.17 17.74,-76.68 53.38,-103.51 35.64,-26.98 98.12,-41.18 187.43,-42.88 0.57,-4.97 0.85,-9.8 0.85,-14.2 0,-29.96 -7.24,-49.7 -21.58,-59.21 -14.49,-9.66 -40.9,-14.34 -79.52,-14.34 -41.88,0 -82.78,5.53 -122.67,16.61l9.08 -76.53c37.77,-13.06 91.02,-19.6 159.74,-19.6 50.26,0 89.03,10.51 116.29,31.67 27.4,21.01 41.03,57.93 41.03,110.61 0,11.64 -0.56,32.8 -1.56,63.61 -0.85,30.81 -1.42,51.4 -1.42,61.62 0,57.36 4.4,104.36 13.35,140.99zm-111.04 -86.47c-1.7,-37.48 -2.55,-69.86 -2.55,-96.97 -94.57,0 -141.85,23.99 -141.85,71.98 0,32.94 20.87,49.42 62.48,49.42 32.65,0 59.92,-8.1 81.92,-24.43zm592.24 -127.79c0,60.21 -17.18,113.03 -51.54,158.46 -34.37,45.58 -81.36,68.3 -141,68.3 -44.44,0 -74.83,-9.37 -91.58,-28.26l-4.97 0c0,67.87 0.99,136.74 2.98,206.31l-113.16 0c4.97,-79.65 7.52,-171.38 7.52,-275.45 0,-134.18 -7.24,-236.56 -21.72,-306.98l106.49 -11.65 6.25 35.78 6.67 0c29.67,-27.4 70,-41.17 121.12,-41.17 53.24,0 95.27,19.17 126.37,57.64 31.09,38.34 46.57,84.06 46.57,137.02zm-110.61 10.79c0,-34.92 -8.66,-65.03 -26.13,-90.16 -17.6,-25.27 -41.6,-37.91 -72.41,-37.91 -38.34,0 -66.31,11.22 -84.06,33.65 4.12,77.95 6.25,149.37 6.25,214.26 17.46,13.63 40.04,20.45 67.73,20.45 36.91,0 64.32,-13.63 82.07,-41.04 17.75,-27.26 26.55,-60.34 26.55,-99.25zm553.61 203.9l-109.76 0c3.55,-49.41 5.39,-106.78 5.39,-172.23l-158.45 0c0,61.62 1.84,118.98 5.68,172.23l-109.76 0c3.83,-57.36 5.82,-123.25 5.82,-197.65 0,-73.69 -4.83,-138.29 -14.48,-193.81l118.13 -12.07c-1.7,18.03 -3.55,70.14 -5.39,156.47l157.6 0c-0.85,-55.8 -5.25,-103.94 -13.34,-144.4l118.13 -12.07c-3.27,53.81 -4.97,122.39 -4.97,205.88 0,71.28 1.85,137.16 5.4,197.65zm417.73 -130.2c0,43.59 -16.9,76.53 -50.41,98.96 -33.51,22.44 -73.83,33.8 -120.97,33.8 -19.74,0 -47.85,-0.43 -84.49,-1.28 -36.63,-0.85 -60.2,-1.28 -70.71,-1.28 3.27,-57.36 4.97,-123.25 4.97,-197.65 0,-73.69 -4.68,-138.29 -14.2,-193.81l116.15 -12.07c-1.14,13.63 -2.56,63.61 -4.26,150.22 13.91,-3.4 27.55,-4.97 40.89,-4.97 121.97,0 183.03,42.6 183.03,128.08zm145.11 130.2l-109.76 0c3.55,-57.36 5.4,-123.25 5.4,-197.65 0,-73.69 -4.69,-138.29 -14.2,-193.81l118.13 -12.07c-3.55,53.81 -5.39,122.39 -5.39,205.88 0,71.28 1.98,137.16 5.82,197.65zm-246.21 -128.93c0,-20.58 -7.67,-36.2 -22.86,-46.99 -15.34,-10.79 -35.07,-16.33 -59.07,-16.33 -11.64,0 -25.27,1.28 -40.89,3.83 0,40.18 0.57,80.51 1.7,120.98 14.49,2.27 30.1,3.4 47,3.4 49.41,0 74.12,-21.72 74.12,-64.89zm708.38 128.93l-109.76 0c3.55,-49.13 5.39,-104.08 5.39,-165.13 0,-24.71 1.57,-55.38 4.55,-92.01l-6.25 0c-7.24,20.87 -40.18,65.46 -98.97,134.04 -54.38,63.18 -81.5,104.22 -81.5,123.1l-86.18 0c3.69,-60.49 5.39,-126.37 5.39,-197.65 0,-80.08 -4.68,-144.68 -14.06,-193.81l118.14 -12.07c-3.41,53.24 -4.97,106.21 -4.97,158.88 0,27.83 -1.56,63.47 -4.69,106.92l6.25 0c5.26,-17.46 36.78,-60.77 94.42,-129.78 54.39,-65.17 81.65,-106.49 81.65,-123.95l90.16 -12.07c-3.27,53.24 -4.97,121.97 -4.97,205.88 0,66.59 1.85,132.48 5.4,197.65zm-28.69 -583.15c0,86.76 -49.27,130.21 -147.66,130.21 -52.68,0 -91.73,-13.63 -117.29,-40.9 -21.15,-22.43 -31.66,-51.82 -31.66,-88.17l92.43 -12.07c0,54.1 18.89,81.22 56.94,81.22 25.28,0 41.32,-7.24 48.42,-21.73 7.1,-14.34 10.65,-34.22 10.65,-59.49l88.17 10.93zm605.73 464.16c0,43.59 -17.75,76.11 -53.24,97.83 -35.5,21.59 -83.35,32.38 -143.55,32.38 -49.42,0 -92.58,-6.25 -129.78,-18.75l9.51 -75.68c35.5,14.49 75.68,21.59 120.27,21.59 63.18,0 94.84,-17.89 94.84,-53.67 0,-35.5 -35.21,-53.25 -105.64,-53.25 -29.67,0 -55.51,0.99 -77.38,2.98l7.95 -71.99c21.3,1.71 44.59,2.56 69.86,2.56 64.32,0 96.41,-17.61 96.41,-52.82 0,-30.24 -26.98,-45.44 -81.08,-45.44 -41.03,0 -80.93,6.25 -119.83,18.75l9.65 -75.68c34.65,-12.5 79.23,-18.75 133.9,-18.75 104.36,0 156.47,30.53 156.47,91.59 0,45.15 -22.86,76.81 -68.72,94.84l0 6.54c21.15,4.26 38.76,13.06 52.82,26.69 18.31,17.75 27.54,41.18 27.54,70.28zm439.6 118.99l-109.76 0c3.55,-49.41 5.39,-106.78 5.39,-172.23l-158.45 0c0,61.62 1.84,118.98 5.68,172.23l-109.76 0c3.83,-57.36 5.82,-123.25 5.82,-197.65 0,-73.69 -4.83,-138.29 -14.48,-193.81l118.13 -12.07c-1.7,18.03 -3.55,70.14 -5.39,156.47l157.6 0c-0.85,-55.8 -5.25,-103.94 -13.34,-144.4l118.13 -12.07c-3.27,53.81 -4.97,122.39 -4.97,205.88 0,71.28 1.85,137.16 5.4,197.65zm427.24 -0.43l-98.12 3.41c-4.54,-11.78 -6.67,-22.29 -6.67,-31.66l-5.39 0c-30.53,25.98 -71.71,39.05 -123.53,39.05 -34.79,0 -63.47,-9.66 -86.33,-28.83 -23.01,-19.31 -34.36,-44.87 -34.36,-76.81 0,-42.17 17.74,-76.68 53.38,-103.51 35.64,-26.98 98.12,-41.18 187.43,-42.88 0.57,-4.97 0.85,-9.8 0.85,-14.2 0,-29.96 -7.24,-49.7 -21.58,-59.21 -14.49,-9.66 -40.9,-14.34 -79.52,-14.34 -41.88,0 -82.78,5.53 -122.67,16.61l9.08 -76.53c37.77,-13.06 91.02,-19.6 159.74,-19.6 50.26,0 89.03,10.51 116.29,31.67 27.4,21.01 41.03,57.93 41.03,110.61 0,11.64 -0.56,32.8 -1.56,63.61 -0.85,30.81 -1.42,51.4 -1.42,61.62 0,57.36 4.4,104.36 13.35,140.99zm-111.04 -86.47c-1.7,-37.48 -2.55,-69.86 -2.55,-96.97 -94.57,0 -141.85,23.99 -141.85,71.98 0,32.94 20.87,49.42 62.48,49.42 32.65,0 59.92,-8.1 81.92,-24.43zm559.86 86.9l-111.46 0c-2.27,-3.83 -5.53,-11.36 -10.08,-22.43 -16.04,-55.81 -32.66,-93.72 -49.69,-113.74 -17.04,-20.16 -38.48,-30.24 -64.18,-30.24 -6.68,0 -15.91,0.28 -27.55,0.85 0,53.25 2.13,108.48 6.25,165.56l-111.46 0c4.12,-55.52 6.25,-118.84 6.25,-190.12 0,-80.08 -4.97,-147.39 -14.91,-201.77l119.27 -11.21c-3.55,46 -5.4,102.37 -5.4,168.96 11.93,0.43 21.16,0.71 27.55,0.71 48.98,0 84.91,-47 107.62,-140.99 1.71,-6.96 4.83,-13.78 9.23,-20.73l104.37 0c-2.7,6.39 -7.53,18.17 -14.49,35.35 -31.66,86.76 -67.16,137.73 -106.49,152.64l0 4.12c26.27,7.81 48.28,23.99 65.88,48.7 17.61,24.7 34.65,60.91 50.98,108.62 4.97,14.62 11.07,29.96 18.31,45.72zm605.59 0l-110.61 0c3.55,-57.36 5.39,-123.25 5.39,-197.65 0,-39.04 -0.28,-80.08 -0.85,-123.1l-141.85 0c-0.56,35.5 -0.85,76.53 -0.85,123.1 0,71.28 1.85,137.16 5.4,197.65l-110.61 0c3.83,-57.36 5.82,-123.25 5.82,-197.65 0,-73.69 -4.83,-138.29 -14.48,-193.81l116 -3.69 165.56 0 80.65 -8.38c-3.27,53.81 -4.97,122.39 -4.97,205.88 0,71.28 1.85,137.16 5.4,197.65zm489.57 -206.74c0,69.86 -21.44,124.53 -64.46,163.86 -42.88,39.47 -93.57,59.07 -151.79,59.07 -55.51,0 -103.08,-17.89 -142.7,-53.82 -39.61,-35.92 -59.49,-86.47 -59.49,-151.64 0,-70.14 21.58,-125.09 64.89,-164.71 43.31,-39.75 94,-59.49 152.21,-59.49 55.24,0 102.66,18.03 142.13,54.24 39.47,36.21 59.21,87.04 59.21,152.49zm-108.48 12.5c0,-40.18 -9.51,-73.98 -28.25,-101.38 -18.89,-27.26 -43.45,-40.89 -73.7,-40.89 -29.39,0 -53.24,12.78 -71.7,38.19 -18.46,25.56 -27.69,57.51 -27.69,95.7 0,40.19 9.37,73.98 28.26,101.38 18.88,27.26 43.45,40.89 73.69,40.89 29.39,0 53.25,-12.77 71.7,-38.19 18.46,-25.56 27.69,-57.51 27.69,-95.7zm710.51 194.24l-110.18 0c3.55,-51.83 5.39,-115.01 5.39,-189.27 0,-43.59 -1.13,-87.47 -3.26,-131.91l-47 0c-6.11,25.28 -13.63,50.69 -22.58,76.39 -8.8,25.7 -18.88,50.55 -30.1,74.69 -11.22,24.14 -23.43,46.71 -36.35,67.73 -13.06,21.15 -26.98,39.61 -41.6,55.51 -14.77,16.05 -30.1,28.83 -46,38.34 -15.91,9.51 -32.24,14.77 -48.85,15.62l-4.26 -99.82c7.81,-1.42 16.47,-6.39 25.84,-15.05 9.37,-8.52 19.17,-20.02 29.4,-34.36 10.08,-14.2 20.3,-30.81 30.52,-49.7 10.23,-18.74 20.16,-39.19 29.96,-61.05 9.66,-22.01 18.74,-45.01 27.26,-69.15 8.38,-24 16.05,-48.42 22.58,-73.12l143.12 0 75.68 -8.38c-3.55,53.81 -5.39,122.39 -5.39,205.88 0,71.28 1.99,137.16 5.82,197.65zm465.16 0l-109.76 0c3.55,-49.13 5.39,-104.08 5.39,-165.13 0,-24.71 1.57,-55.38 4.55,-92.01l-6.25 0c-7.24,20.87 -40.18,65.46 -98.97,134.04 -54.38,63.18 -81.5,104.22 -81.5,123.1l-86.18 0c3.69,-60.49 5.39,-126.37 5.39,-197.65 0,-80.08 -4.68,-144.68 -14.06,-193.81l118.14 -12.07c-3.41,53.24 -4.97,106.21 -4.97,158.88 0,27.83 -1.56,63.47 -4.69,106.92l6.25 0c5.26,-17.46 36.78,-60.77 94.42,-129.78 54.39,-65.17 81.65,-106.49 81.65,-123.95l90.16 -12.07c-3.27,53.24 -4.97,121.97 -4.97,205.88 0,66.59 1.85,132.48 5.4,197.65zm499.23 -74.83c0,11.36 -3.55,47.99 -10.65,110.04 -7.1,61.91 -10.65,107.77 -10.65,137.45l-75.25 0c0,-35.22 -0.43,-92.86 -1.28,-172.66l-312.8 0c3.83,-57.36 5.82,-123.25 5.82,-197.65 0,-73.69 -4.83,-138.29 -14.48,-193.81l119.69 -12.07c-3.26,53.81 -4.97,122.39 -4.97,205.88 0,36.35 -0.56,77.24 -1.7,122.82l134.89 0c-1.14,-44.72 -1.71,-85.62 -1.71,-122.82 0,-73.69 -4.68,-138.29 -14.19,-193.81l119.41 -12.07c-3.27,53.81 -4.97,122.39 -4.97,205.88 0,43.02 1.13,83.92 3.26,122.82l69.58 0zm421.71 -165.13c0,14.06 -0.85,32.52 -2.42,55.23l-267.93 4.55c3.84,31.38 17.33,57.5 40.33,78.23 23,20.87 53.24,31.24 90.73,31.24 41.6,0 85.76,-6.25 132.62,-18.74l-8.24 80.65c-38.34,13.91 -85.76,20.87 -142.27,20.87 -71.56,0 -126.37,-20.16 -164.57,-60.35 -38.19,-40.18 -57.22,-88.6 -57.22,-145.11 0,-59.07 18.18,-110.32 54.24,-153.77 36.21,-43.45 86.47,-65.03 150.93,-65.03 58.79,0 102.38,15.9 130.92,47.85 28.68,31.8 42.88,73.26 42.88,124.38zm-97.26 -3.83c0,-63.76 -27.27,-95.7 -81.65,-95.7 -51.82,0 -82.63,33.08 -92.29,99.1l173.94 -3.4zm539.84 243.79l-109.76 0c3.55,-49.41 5.39,-106.78 5.39,-172.23l-158.45 0c0,61.62 1.84,118.98 5.68,172.23l-109.76 0c3.83,-57.36 5.82,-123.25 5.82,-197.65 0,-73.69 -4.83,-138.29 -14.48,-193.81l118.13 -12.07c-1.7,18.03 -3.55,70.14 -5.39,156.47l157.6 0c-0.85,-55.8 -5.25,-103.94 -13.34,-144.4l118.13 -12.07c-3.27,53.81 -4.97,122.39 -4.97,205.88 0,71.28 1.85,137.16 5.4,197.65zm393.16 -118.99c0,43.59 -17.75,76.11 -53.24,97.83 -35.5,21.59 -83.35,32.38 -143.55,32.38 -49.42,0 -92.58,-6.25 -129.78,-18.75l9.51 -75.68c35.5,14.49 75.68,21.59 120.27,21.59 63.18,0 94.84,-17.89 94.84,-53.67 0,-35.5 -35.21,-53.25 -105.64,-53.25 -29.67,0 -55.51,0.99 -77.38,2.98l7.95 -71.99c21.3,1.71 44.59,2.56 69.86,2.56 64.32,0 96.41,-17.61 96.41,-52.82 0,-30.24 -26.98,-45.44 -81.08,-45.44 -41.03,0 -80.93,6.25 -119.83,18.75l9.65 -75.68c34.65,-12.5 79.23,-18.75 133.9,-18.75 104.36,0 156.47,30.53 156.47,91.59 0,45.15 -22.86,76.81 -68.72,94.84l0 6.54c21.15,4.26 38.76,13.06 52.82,26.69 18.31,17.75 27.54,41.18 27.54,70.28zm444.57 118.99l-109.76 0c3.55,-49.13 5.39,-104.08 5.39,-165.13 0,-24.71 1.57,-55.38 4.55,-92.01l-6.25 0c-7.24,20.87 -40.18,65.46 -98.97,134.04 -54.38,63.18 -81.5,104.22 -81.5,123.1l-86.18 0c3.69,-60.49 5.39,-126.37 5.39,-197.65 0,-80.08 -4.68,-144.68 -14.06,-193.81l118.14 -12.07c-3.41,53.24 -4.97,106.21 -4.97,158.88 0,27.83 -1.56,63.47 -4.69,106.92l6.25 0c5.26,-17.46 36.78,-60.77 94.42,-129.78 54.39,-65.17 81.65,-106.49 81.65,-123.95l90.16 -12.07c-3.27,53.24 -4.97,121.97 -4.97,205.88 0,66.59 1.85,132.48 5.4,197.65zm460.47 0l-109.76 0c3.55,-49.13 5.39,-104.08 5.39,-165.13 0,-24.71 1.57,-55.38 4.55,-92.01l-6.25 0c-7.24,20.87 -40.18,65.46 -98.97,134.04 -54.38,63.18 -81.5,104.22 -81.5,123.1l-86.18 0c3.69,-60.49 5.39,-126.37 5.39,-197.65 0,-80.08 -4.68,-144.68 -14.06,-193.81l118.14 -12.07c-3.41,53.24 -4.97,106.21 -4.97,158.88 0,27.83 -1.56,63.47 -4.69,106.92l6.25 0c5.26,-17.46 36.78,-60.77 94.42,-129.78 54.39,-65.17 81.65,-106.49 81.65,-123.95l90.16 -12.07c-3.27,53.24 -4.97,121.97 -4.97,205.88 0,66.59 1.85,132.48 5.4,197.65z"/>
  <path class="fil3" d="M9316.08 7381.46l-39.99 297.71c-6.37,47.2 -11.68,79.37 -15.93,96.52 -4.24,17.14 -11.32,31.33 -21.23,42.44 -9.79,11.22 -23.6,19.37 -41.18,24.66 -17.58,5.29 -45.77,7.94 -84.36,7.94l-84.58 0 0 -66.05c21.7,0 35.62,-0.95 41.77,-2.96 6.24,-1.9 9.43,-6.35 9.43,-13.12 0,-3.39 -2.95,-17.68 -8.73,-43.08l-76.45 -344.06 126.59 0 45.77 278.24 22.54 -278.24 126.35 0zm237.39 411.48l0 -325.12 -49.55 0 0 207.64c0,37.79 -4.84,64.88 -14.52,81.07 -9.67,16.2 -24.89,26.36 -45.78,30.38 -20.76,4.02 -54.97,6.03 -102.4,6.03l-22.77 0 0 -67.31c17.82,-0.21 29.97,-2.22 36.69,-6.03 6.72,-3.81 10.03,-17.36 10.03,-40.54l0 -297.6 327.04 0 0 411.48 -138.74 0zm278.2 -102.24l0 102.24 -105.48 0 0 -102.24 105.48 0zm521.58 102.24l-145.82 0 0 -401.96 -42.47 0 0 284.38c0,37.46 -5.43,64.35 -16.16,80.64 -10.86,16.41 -27.15,26.57 -48.96,30.7 -21.95,4.12 -56.76,6.24 -104.66,6.24l-22.76 0 0 -86.36c17.81,0 29.96,-2.01 36.69,-5.93 6.72,-3.91 10.03,-17.35 10.03,-40.32l0 -369.68 334.11 0 0 502.29zm370.22 -198.76l-181.22 0 0 89.22c0,18.63 1.54,30.69 4.48,36.09 3.07,5.4 8.85,8.04 17.47,8.04 10.74,0 17.93,-3.59 21.47,-10.68 3.66,-7.2 5.43,-21.07 5.43,-41.6l0 -54.4 132.37 0 0 30.48c0,25.51 -1.77,45.09 -5.31,58.74 -3.66,13.65 -12.04,28.26 -25.13,43.82 -13.09,15.55 -29.85,27.2 -50.03,35.03 -20.17,7.72 -45.41,11.64 -75.86,11.64 -29.49,0 -55.57,-3.81 -78.22,-11.54 -22.53,-7.62 -40.11,-18.09 -52.73,-31.43 -12.63,-13.33 -21.23,-28.04 -26.07,-44.13 -4.84,-15.98 -7.31,-39.27 -7.31,-69.96l0 -120.12c0,-35.98 5.41,-64.34 16.27,-85.19 10.86,-20.75 28.55,-36.73 53.21,-47.73 24.78,-11.12 53.1,-16.62 85.18,-16.62 39.17,0 71.5,6.67 96.98,20 25.49,13.34 43.41,31.01 53.68,53.02 10.27,21.91 15.34,52.92 15.34,92.82l0 54.5zm-139.45 -66.67l0 -30.06c0,-21.38 -1.3,-35.03 -3.9,-41.27 -2.6,-6.25 -7.9,-9.32 -15.92,-9.32 -9.91,0 -16.05,2.65 -18.4,7.94 -2.37,5.29 -3.55,19.48 -3.55,42.65l0 30.06 41.77 0zm512.61 265.43l-138.74 0 0 -151.77 -50.25 0 0 151.77 -138.75 0 0 -411.48 138.75 0 0 147.95 50.25 0 0 -147.95 138.74 0 0 411.48zm395.82 0l-121.75 0 0 -222.36 -97.1 222.36 -127.29 0 0 -411.48 121.75 0 0 220.45 95.44 -220.45 128.95 0 0 411.48zm377.31 0l-138.75 0 0 -151.77 -50.25 0 0 151.77 -138.74 0 0 -411.48 138.74 0 0 147.95 50.25 0 0 -147.95 138.75 0 0 411.48zm174.26 -252.1l-130.97 0 0 -27.62c0,-31.85 4.13,-56.41 12.28,-73.76 8.13,-17.25 24.66,-32.49 49.31,-45.72 24.65,-13.23 56.63,-19.9 96.15,-19.9 47.19,0 82.82,7.51 106.77,22.54 23.95,14.92 38.34,33.34 43.18,55.14 4.84,21.8 7.32,66.78 7.32,134.83l0 206.59 -135.91 0 0 -36.72c-8.49,14.81 -19.59,25.82 -33.04,33.23 -13.44,7.41 -29.5,11.11 -48.25,11.11 -24.42,0 -46.84,-6.14 -67.25,-18.42 -20.41,-12.38 -30.56,-39.26 -30.56,-80.85l0 -33.87c0,-30.8 5.43,-51.75 16.29,-62.97 10.85,-11.22 37.75,-24.24 80.7,-39.05 45.88,-16.19 70.43,-26.99 73.73,-32.6 3.19,-5.61 4.84,-16.93 4.84,-34.18 0,-21.49 -1.78,-35.46 -5.43,-42.02 -3.54,-6.45 -9.56,-9.74 -17.93,-9.74 -9.56,0 -15.46,2.76 -17.7,8.26 -2.36,5.4 -3.53,19.68 -3.53,42.65l0 43.07zm44.59 56.41c-22.53,14.71 -35.63,26.99 -39.18,36.94 -3.65,9.95 -5.41,24.13 -5.41,42.76 0,21.37 1.52,35.03 4.71,41.27 3.07,6.25 9.32,9.31 18.64,9.31 8.85,0 14.51,-2.43 17.22,-7.3 2.72,-4.87 4.02,-17.57 4.02,-38.31l0 -84.67zm268.87 97.26l0 44.98c0,23.6 -3.07,42.97 -9.32,58 -6.13,15.14 -16.99,27.94 -32.21,38.52 -15.34,10.48 -32.56,17.57 -51.91,21.07l0 -36.2c13.8,-6.98 21.59,-16.3 23.36,-27.94l-23.36 0 0 -98.43 93.44 0zm428.97 -186.37c20.52,7.41 36.34,18.52 47.31,33.34 11.09,14.82 16.63,49.95 16.63,105.62 0,40.54 -4.37,70.38 -13.1,89.64 -8.84,19.16 -25.83,34.93 -51.2,47.31 -25.36,12.28 -59.34,18.42 -102.04,18.42 -41.54,0 -74.34,-5.93 -98.53,-17.68 -24.3,-11.75 -41.63,-27.41 -52.13,-46.88 -10.51,-19.37 -15.7,-51.76 -15.7,-97.05 0,-30.38 2.6,-56.73 7.79,-79.06 5.19,-22.33 21.47,-40.22 48.84,-53.66 -17.22,-7.41 -30.09,-19.26 -38.69,-35.56 -8.62,-16.19 -12.98,-36.83 -12.98,-61.8 0,-43.18 13.32,-75.68 40.11,-97.27 26.66,-21.59 66.65,-32.38 119.87,-32.38 61.58,0 104.05,11.43 127.53,34.4 23.48,22.96 35.28,55.77 35.28,98.31 0,27.1 -3.9,46.68 -11.57,58.64 -7.67,11.96 -23.48,23.91 -47.42,35.66zm-78.34 -107.63c0,-17.04 -1.66,-28.26 -5.08,-33.66 -3.3,-5.5 -9.79,-8.25 -19.34,-8.25 -9.32,0 -15.57,2.96 -18.89,8.89 -3.17,5.82 -4.82,16.83 -4.82,33.02l0 38.1c0,15.13 1.88,25.51 5.54,31.33 3.78,5.82 10.03,8.67 18.87,8.67 9.32,0 15.57,-2.85 18.89,-8.57 3.17,-5.61 4.83,-17.35 4.83,-35.13l0 -34.4zm2.83 208.39c0,-19.27 -2.25,-31.97 -6.61,-38.32 -4.48,-6.24 -11.44,-9.42 -21,-9.42 -9.32,0 -16.04,3.07 -20.05,9.11 -4.14,6.13 -6.13,18.94 -6.13,38.63l0 64.98c0,21.69 2.24,35.66 6.83,41.8 4.49,6.25 11.68,9.31 21.48,9.31 10.02,0 16.75,-3.17 20.29,-9.41 3.42,-6.35 5.19,-20.54 5.19,-42.66l0 -64.02zm187.35 50.69l139.45 0c0,23.49 0.35,38.31 1.06,44.34 0.71,6.14 3.54,11.33 8.61,15.46 4.95,4.12 11.8,6.24 20.41,6.24 7.2,0 13.1,-2.01 17.82,-5.93 4.6,-3.91 7.31,-8.89 7.9,-15.13 0.59,-6.25 0.83,-18.73 0.83,-37.47l0 -79.9c-6.96,13.33 -17.35,23.28 -31.15,29.95 -13.92,6.67 -31.15,10.05 -51.67,10.05 -25.6,0 -48.26,-6.24 -67.84,-18.62 -19.7,-12.38 -32.1,-27.31 -37.4,-44.66 -5.31,-17.36 -8.02,-40.86 -8.02,-70.49l0 -40c0,-35.25 1.53,-61.39 4.72,-78.53 3.06,-17.25 11.09,-33.13 23.94,-47.63 12.98,-14.6 30.8,-25.93 53.69,-34.08 22.76,-8.04 49.32,-12.06 79.52,-12.06 37.4,0 68.06,4.66 92.02,13.97 23.94,9.31 42.58,22.65 55.68,40.22 13.22,17.46 20.77,35.77 22.89,55.03 2,19.26 3.07,56.51 3.07,111.76l0 69.85c0,59.69 -0.94,99.69 -2.72,119.91 -1.88,20.11 -9.91,39.26 -24.06,57.25 -14.16,18 -33.39,31.44 -57.58,40.43 -24.3,9 -52.26,13.55 -84.11,13.55 -39.41,0 -71.62,-5.71 -96.63,-17.04 -25.01,-11.43 -43.06,-27.52 -54.03,-48.15 -10.98,-20.75 -16.4,-46.89 -16.4,-78.32zm139.45 -156.42c0,21.16 3.06,34.18 9.32,39.16 6.13,4.97 12.5,7.4 18.99,7.4 9.79,0 16.99,-3.17 21.47,-9.41 4.61,-6.35 6.85,-18.74 6.85,-37.15l0 -90.91c0,-22.12 -2.12,-36.62 -6.49,-43.39 -4.25,-6.88 -11.45,-10.27 -21.47,-10.27 -6.02,0 -12.39,2.65 -18.88,7.94 -6.49,5.29 -9.79,19.47 -9.79,42.65l0 93.98zm495.87 -222.04l-167.06 521.34 -105.84 0 167.77 -521.34 105.13 0zm294.58 227.01c20.53,7.41 36.34,18.52 47.31,33.34 11.1,14.82 16.64,49.95 16.64,105.62 0,40.54 -4.37,70.38 -13.1,89.64 -8.84,19.16 -25.83,34.93 -51.2,47.31 -25.36,12.28 -59.34,18.42 -102.05,18.42 -41.53,0 -74.33,-5.93 -98.52,-17.68 -24.3,-11.75 -41.64,-27.41 -52.14,-46.88 -10.5,-19.37 -15.69,-51.76 -15.69,-97.05 0,-30.38 2.59,-56.73 7.79,-79.06 5.18,-22.33 21.47,-40.22 48.84,-53.66 -17.23,-7.41 -30.09,-19.26 -38.7,-35.56 -8.62,-16.19 -12.97,-36.83 -12.97,-61.8 0,-43.18 13.32,-75.68 40.11,-97.27 26.66,-21.59 66.65,-32.38 119.87,-32.38 61.58,0 104.05,11.43 127.52,34.4 23.48,22.96 35.29,55.77 35.29,98.31 0,27.1 -3.9,46.68 -11.57,58.64 -7.67,11.96 -23.48,23.91 -47.43,35.66zm-78.33 -107.63c0,-17.04 -1.66,-28.26 -5.08,-33.66 -3.3,-5.5 -9.79,-8.25 -19.35,-8.25 -9.31,0 -15.57,2.96 -18.88,8.89 -3.18,5.82 -4.83,16.83 -4.83,33.02l0 38.1c0,15.13 1.89,25.51 5.54,31.33 3.78,5.82 10.04,8.67 18.88,8.67 9.32,0 15.57,-2.85 18.88,-8.57 3.18,-5.61 4.84,-17.35 4.84,-35.13l0 -34.4zm2.83 208.39c0,-19.27 -2.25,-31.97 -6.61,-38.32 -4.48,-6.24 -11.45,-9.42 -21,-9.42 -9.32,0 -16.04,3.07 -20.06,9.11 -4.13,6.13 -6.13,18.94 -6.13,38.63l0 64.98c0,21.69 2.24,35.66 6.84,41.8 4.49,6.25 11.68,9.31 21.48,9.31 10.02,0 16.74,-3.17 20.29,-9.41 3.42,-6.35 5.19,-20.54 5.19,-42.66l0 -64.02zm268.75 85.61l0 44.98c0,23.6 -3.07,42.97 -9.32,58 -6.13,15.14 -16.99,27.94 -32.21,38.52 -15.34,10.48 -32.56,17.57 -51.91,21.07l0 -36.2c13.8,-6.98 21.59,-16.3 23.36,-27.94l-23.36 0 0 -98.43 93.44 0zm478.05 -168.59l0 100.86c0,37.04 -2.13,64.14 -6.25,81.49 -4.14,17.25 -12.99,33.34 -26.55,48.37 -13.57,15.03 -31.03,26.03 -52.39,33.23 -21.35,7.09 -45.77,10.69 -73.37,10.69 -30.91,0 -57.11,-3.07 -78.46,-9.1 -21.48,-6.14 -38.11,-15.35 -49.91,-27.62 -11.91,-12.39 -20.41,-27.31 -25.48,-44.77 -5.07,-17.46 -7.55,-43.71 -7.55,-78.64l0 -105.51c0,-38.31 4.6,-68.16 13.8,-89.75 9.2,-21.48 25.84,-38.73 49.79,-51.75 23.94,-13.02 54.62,-19.58 91.9,-19.58 31.27,0 58.17,4.23 80.7,12.59 22.42,8.36 39.76,19.27 52.04,32.71 12.15,13.44 20.52,27.3 25,41.59 4.48,14.29 6.73,35.98 6.73,65.19zm-139.45 -31.01c0,-21.06 -1.3,-34.39 -3.78,-39.79 -2.59,-5.5 -8.02,-8.26 -16.4,-8.26 -8.37,0 -13.92,2.76 -16.76,8.26 -2.71,5.4 -4.12,18.73 -4.12,39.79l0 185.74c0,19.47 1.41,32.17 4.12,37.99 2.84,5.93 8.26,8.89 16.41,8.89 8.37,0 13.8,-2.64 16.51,-8.04 2.72,-5.4 4.02,-16.93 4.02,-34.71l0 -189.87zm683.21 173.68c0,28.78 -1.88,51.75 -5.66,69 -3.78,17.25 -12.62,31.11 -26.43,41.59 -13.68,10.48 -34.81,15.67 -63,15.67 -36.7,0 -65.48,-12.49 -86.12,-37.47l0 94.62 -138.75 0 0 -94.09c-22.29,25.08 -52.5,37.57 -90.48,37.57 -24.78,0 -44.48,-4.34 -59,-13.02 -14.51,-8.68 -23.47,-20.64 -27.13,-35.88 -3.54,-15.13 -5.31,-37.14 -5.31,-65.82l0 -173.68c0,-28.78 2,-51.75 5.9,-69 3.89,-17.25 12.74,-31.11 26.54,-41.59 13.8,-10.48 34.93,-15.67 63.12,-15.67 36.93,0 65.59,12.49 86.36,37.58l0 -101.08 138.75 0 0 100.44c22.29,-25.08 52.38,-37.57 90.25,-37.57 24.78,0 44.48,4.34 58.87,13.02 14.51,8.68 23.47,20.63 26.9,35.87 3.42,15.14 5.19,37.15 5.19,65.83l0 173.68zm-139.44 27.94l0 -195.69c0,-20.11 -0.13,-32.28 -0.36,-36.62 -0.23,-4.34 -1.77,-8.36 -4.73,-11.96 -2.94,-3.6 -7.9,-5.4 -14.98,-5.4 -7.67,0 -13.21,2.54 -16.63,7.62 -3.42,5.08 -5.07,14.08 -5.07,27.1l0 214.31c0,21.06 7.43,31.64 22.41,31.64 6.37,0 11.1,-2.11 14.4,-6.24 3.29,-4.13 4.96,-12.38 4.96,-24.76zm-180.52 -2.44l0 -214.31c0,-21.06 -7.54,-31.65 -22.77,-31.65 -6.49,0 -11.33,2.12 -14.74,6.25 -3.31,4.13 -4.96,12.38 -4.96,24.76l0 195.69c0,20.11 0.12,32.28 0.36,36.62 0.23,4.34 1.88,8.36 4.83,11.96 2.95,3.6 8.02,5.39 15.22,5.39 7.78,0 13.45,-2.54 16.87,-7.62 3.42,-5.08 5.19,-14.07 5.19,-27.09zm460.13 -3.39l0 102.24 -105.48 0 0 -102.24 105.48 0zm424.25 -181.92c21.12,6.45 36.81,16.93 47.2,31.43 10.25,14.6 15.45,48.79 15.45,102.55 0,39.9 -5.08,70.91 -15.22,92.92 -10.14,22.02 -27.61,38.74 -52.51,50.17 -24.89,11.54 -56.74,17.25 -95.68,17.25 -44.12,0 -78.92,-6.67 -104.05,-20 -25.25,-13.34 -41.88,-29.74 -49.79,-49.11 -7.91,-19.26 -11.91,-52.92 -11.91,-100.75l0 -39.69 139.45 0 0 81.7c0,21.8 1.41,35.67 4.37,41.49 2.83,5.93 9.32,8.89 19.23,8.89 10.84,0 18.04,-3.7 21.47,-11.22 3.42,-7.41 5.19,-26.88 5.19,-58.31l0 -34.82c0,-19.26 -2.36,-33.34 -7.2,-42.23 -4.84,-8.89 -12.04,-14.71 -21.47,-17.46 -9.44,-2.86 -27.72,-4.45 -54.86,-4.87l0 -73.03c33.14,0 53.56,-1.16 61.46,-3.38 7.79,-2.33 13.45,-7.2 16.88,-14.92 3.42,-7.62 5.19,-19.58 5.19,-35.88l0 -27.84c0,-17.56 -2.01,-29.1 -6.02,-34.71 -4.13,-5.61 -10.39,-8.36 -18.88,-8.36 -9.79,0 -16.4,2.96 -19.93,8.78 -3.66,5.93 -5.43,18.42 -5.43,37.68l0 41.17 -139.45 0 0 -42.76c0,-47.94 12.26,-80.22 36.69,-97.05 24.42,-16.82 63.24,-25.29 116.45,-25.29 66.54,0 111.72,11.64 135.43,35.03 23.72,23.39 35.64,55.88 35.64,97.37 0,28.15 -4.25,48.47 -12.74,60.96 -8.62,12.49 -23.6,23.92 -44.96,34.29zm442.3 -48.05l0 167.43c0,38.1 -2.36,65.72 -6.95,83.08 -4.61,17.46 -14.16,33.65 -28.68,48.79 -14.51,15.02 -31.97,25.92 -52.5,32.49 -20.41,6.66 -43.3,9.95 -68.66,9.95 -33.39,0 -61.11,-3.5 -83.29,-10.38 -22.07,-6.98 -39.65,-17.78 -52.86,-32.38 -13.09,-14.71 -22.41,-30.16 -27.97,-46.36 -5.54,-16.3 -8.24,-42.12 -8.24,-77.47l0 -175.15c0,-46.14 4.48,-80.65 13.32,-103.61 8.85,-22.97 26.43,-41.38 52.86,-55.25 26.31,-13.86 58.28,-20.74 95.79,-20.74 30.68,0 58.05,4.76 82.24,14.39 24.19,9.63 42.24,21.38 54.15,35.25 12.03,13.86 20.18,29.42 24.43,46.77 4.24,17.36 6.36,45.09 6.36,83.19zm-139.44 -42.02c0,-26.67 -1.42,-43.28 -4.37,-50.06 -2.84,-6.66 -9.56,-10.05 -20.29,-10.05 -10.39,0 -17.24,3.6 -20.54,10.69 -3.42,7.09 -5.07,23.6 -5.07,49.42l0 244.69c0,29.1 1.54,46.67 4.72,52.6 3.07,6.03 9.8,8.99 20.3,8.99 10.37,0 17.1,-3.49 20.41,-10.58 3.17,-6.98 4.84,-22.75 4.84,-47.31l0 -248.39zm436.17 -128.06l0 109.01 -89.19 393.28 -138.75 0 99.45 -412.12 -138.39 0 0 -90.17 266.88 0zm-5554.7 774.6l0 65.41c-19.24,0 -31.62,0.74 -37.29,2.22 -5.66,1.38 -9.91,4.76 -12.5,10.06 -2.71,5.29 -4.01,20.21 -4.01,44.87l0 257.17c0,22.97 1.06,37.36 3.07,43.08 2.12,5.61 6.01,9.42 11.67,11.32 5.66,1.8 18.65,2.75 39.06,2.75l0 65.41 -43.88 0c-40.48,0 -70.21,-3.39 -89.2,-10.05 -18.88,-6.78 -31.5,-16.62 -37.52,-29.64 -6.13,-13.02 -9.2,-40.74 -9.2,-83.18l0 -256.54c0,-42.23 2.95,-69.96 8.97,-83.19 6.02,-13.23 18.76,-23.18 38.33,-29.74 19.59,-6.66 49.09,-9.95 88.62,-9.95l43.88 0zm361.36 393.81c0,41.91 -10.14,70.49 -30.55,85.73 -20.41,15.13 -64.77,22.75 -132.96,22.75l-159.98 0 0 -411.48 164.93 0c56.51,0 95.32,8.36 116.68,25.08 21.36,16.83 31.97,45.4 31.97,86.04 0,46.47 -27.02,73.03 -80.93,79.38 28.2,4.13 50.38,13.97 66.54,29.63 16.17,15.56 24.3,35.14 24.3,58.74l0 24.13zm-184.74 -149.97c21.23,0 34.21,-2.32 38.92,-7.09 4.72,-4.76 7.08,-14.18 7.08,-28.25 0,-11.75 -2.6,-20.01 -7.9,-24.56 -5.31,-4.55 -18.05,-6.77 -38.1,-6.77l0 66.67zm46 130.81l0 -13.97c0,-17.78 -2.6,-28.89 -7.9,-33.33 -5.31,-4.45 -18.05,-6.67 -38.1,-6.67l0 95.25c18.63,0 31.02,-2.43 37.04,-7.3 6.01,-4.87 8.96,-16.2 8.96,-33.98zm455.29 -283.84l-55.21 196.64 67.24 214.84 -135.68 0c-13.33,-54.4 -23.47,-101.28 -30.32,-140.44 -9.32,49 -19.34,95.78 -30.2,140.44l-116.68 0 60.18 -214.84 -60.18 -196.64 116.68 0c18.76,84.35 28.79,132.19 30.2,143.62 13.33,-70.38 23.37,-118.33 30.32,-143.62l123.65 0zm346.63 144.46l0 100.86c0,37.04 -2.13,64.14 -6.26,81.49 -4.13,17.25 -12.98,33.34 -26.55,48.37 -13.57,15.03 -31.02,26.03 -52.38,33.23 -21.35,7.09 -45.78,10.69 -73.38,10.69 -30.91,0 -57.11,-3.07 -78.45,-9.1 -21.49,-6.14 -38.12,-15.35 -49.91,-27.62 -11.92,-12.39 -20.41,-27.31 -25.49,-44.77 -5.07,-17.46 -7.54,-43.71 -7.54,-78.64l0 -105.51c0,-38.31 4.59,-68.16 13.8,-89.75 9.2,-21.48 25.84,-38.73 49.78,-51.75 23.95,-13.02 54.63,-19.58 91.91,-19.58 31.26,0 58.16,4.23 80.69,12.59 22.42,8.36 39.77,19.27 52.04,32.71 12.15,13.44 20.52,27.3 25,41.59 4.49,14.29 6.74,35.98 6.74,65.19zm-139.46 -31.01c0,-21.06 -1.29,-34.39 -3.78,-39.79 -2.58,-5.5 -8.01,-8.26 -16.4,-8.26 -8.37,0 -13.92,2.76 -16.75,8.26 -2.71,5.4 -4.13,18.73 -4.13,39.79l0 185.74c0,19.47 1.42,32.17 4.13,37.99 2.83,5.93 8.26,8.89 16.41,8.89 8.37,0 13.8,-2.64 16.51,-8.04 2.72,-5.4 4.01,-16.93 4.01,-34.71l0 -189.87zm591.91 377.41l-93.44 0 0 -79.38 -235.02 0 0 79.38 -93.44 0 0 -177.81 29.73 0c17.82,-24.55 32.32,-62.75 43.77,-114.51 11.45,-51.75 17.11,-112.92 17.11,-183.3l0 -15.24 301.56 0 0 312.42 29.73 0 0 178.44zm-168.48 -178.44l0 -219.71 -36.11 0 0 4.34c0,76.41 -13.92,148.27 -41.75,215.37l77.86 0zm637.32 -156.85l-131.66 0 0 -47.62c0,-16.51 -1.54,-27.73 -4.61,-33.66 -3.06,-5.92 -8.72,-8.89 -16.98,-8.89 -8.27,0 -13.81,2.54 -16.64,7.73 -2.83,5.19 -4.24,16.72 -4.24,34.71l0 194.21c0,14.71 2.12,25.72 6.37,33.02 4.13,7.3 10.38,11 18.64,11 9.55,0 16.04,-3.81 19.46,-11.43 3.43,-7.62 5.08,-22.01 5.08,-43.28l0 -48.79 124.58 0c-0.23,32.81 -1.54,57.47 -4.01,73.87 -2.35,16.41 -10.14,33.23 -23.24,50.48 -12.98,17.25 -30.08,30.27 -51.08,39.06 -21,8.78 -46.96,13.12 -77.99,13.12 -39.41,0 -70.79,-6.03 -93.91,-18.2 -23.01,-12.07 -39.4,-29 -48.96,-50.8 -9.56,-21.91 -14.39,-52.81 -14.39,-93.03l0 -116.95c0,-35.03 3.89,-61.38 11.79,-79.16 7.79,-17.78 24.54,-33.66 50.26,-47.63 25.6,-13.97 56.75,-20.95 93.56,-20.95 36.45,0 67.6,6.98 93.56,20.85 25.83,13.86 43.05,31.33 51.55,52.49 8.62,21.17 12.86,51.12 12.86,89.85zm457.87 -155.57l-39.99 297.71c-6.37,47.2 -11.68,79.37 -15.93,96.52 -4.24,17.14 -11.32,31.33 -21.23,42.44 -9.79,11.22 -23.6,19.37 -41.18,24.66 -17.58,5.29 -45.77,7.94 -84.36,7.94l-84.58 0 0 -66.05c21.7,0 35.62,-0.95 41.77,-2.96 6.24,-1.9 9.43,-6.35 9.43,-13.12 0,-3.39 -2.95,-17.68 -8.73,-43.08l-76.45 -344.06 126.59 0 45.77 278.24 22.54 -278.24 126.35 0zm237.39 411.48l0 -325.12 -49.55 0 0 207.64c0,37.79 -4.84,64.88 -14.52,81.07 -9.67,16.2 -24.89,26.36 -45.78,30.38 -20.76,4.02 -54.97,6.03 -102.4,6.03l-22.77 0 0 -67.31c17.82,-0.21 29.97,-2.22 36.69,-6.03 6.72,-3.81 10.03,-17.36 10.03,-40.54l0 -297.6 327.04 0 0 411.48 -138.74 0zm278.2 -102.24l0 102.24 -105.48 0 0 -102.24 105.48 0zm521.58 102.24l-145.82 0 0 -401.96 -42.47 0 0 284.38c0,37.46 -5.43,64.35 -16.16,80.64 -10.86,16.41 -27.15,26.57 -48.96,30.7 -21.95,4.12 -56.76,6.24 -104.66,6.24l-22.76 0 0 -86.36c17.81,0 29.96,-2.01 36.69,-5.93 6.72,-3.91 10.03,-17.35 10.03,-40.32l0 -369.68 334.11 0 0 502.29zm370.22 -198.76l-181.22 0 0 89.22c0,18.63 1.54,30.69 4.48,36.09 3.07,5.4 8.85,8.04 17.47,8.04 10.74,0 17.93,-3.59 21.47,-10.68 3.66,-7.2 5.43,-21.07 5.43,-41.6l0 -54.4 132.37 0 0 30.48c0,25.51 -1.77,45.09 -5.31,58.74 -3.66,13.65 -12.04,28.26 -25.13,43.82 -13.09,15.55 -29.85,27.2 -50.03,35.03 -20.17,7.72 -45.41,11.64 -75.86,11.64 -29.49,0 -55.57,-3.81 -78.22,-11.54 -22.53,-7.62 -40.11,-18.09 -52.73,-31.43 -12.63,-13.33 -21.23,-28.04 -26.07,-44.13 -4.84,-15.98 -7.31,-39.27 -7.31,-69.96l0 -120.12c0,-35.98 5.41,-64.34 16.27,-85.19 10.86,-20.75 28.55,-36.73 53.21,-47.73 24.78,-11.12 53.1,-16.62 85.18,-16.62 39.17,0 71.5,6.67 96.98,20 25.49,13.34 43.41,31.01 53.68,53.02 10.27,21.91 15.34,52.92 15.34,92.82l0 54.5zm-139.45 -66.67l0 -30.06c0,-21.38 -1.3,-35.03 -3.9,-41.27 -2.6,-6.25 -7.9,-9.32 -15.92,-9.32 -9.91,0 -16.05,2.65 -18.4,7.94 -2.37,5.29 -3.55,19.48 -3.55,42.65l0 30.06 41.77 0zm512.61 265.43l-138.74 0 0 -151.77 -50.25 0 0 151.77 -138.75 0 0 -411.48 138.75 0 0 147.95 50.25 0 0 -147.95 138.74 0 0 411.48zm395.82 0l-121.75 0 0 -222.36 -97.1 222.36 -127.29 0 0 -411.48 121.75 0 0 220.45 95.44 -220.45 128.95 0 0 411.48zm377.31 0l-138.75 0 0 -151.77 -50.25 0 0 151.77 -138.74 0 0 -411.48 138.74 0 0 147.95 50.25 0 0 -147.95 138.75 0 0 411.48zm174.26 -252.1l-130.97 0 0 -27.62c0,-31.85 4.13,-56.41 12.28,-73.76 8.13,-17.25 24.66,-32.49 49.31,-45.72 24.65,-13.23 56.63,-19.9 96.15,-19.9 47.19,0 82.82,7.51 106.77,22.54 23.95,14.92 38.34,33.34 43.18,55.14 4.84,21.8 7.32,66.78 7.32,134.83l0 206.59 -135.91 0 0 -36.72c-8.49,14.81 -19.59,25.82 -33.04,33.23 -13.44,7.41 -29.5,11.11 -48.25,11.11 -24.42,0 -46.84,-6.14 -67.25,-18.42 -20.41,-12.38 -30.56,-39.26 -30.56,-80.85l0 -33.87c0,-30.8 5.43,-51.75 16.29,-62.97 10.85,-11.22 37.75,-24.24 80.7,-39.05 45.88,-16.19 70.43,-26.99 73.73,-32.6 3.19,-5.61 4.84,-16.93 4.84,-34.18 0,-21.49 -1.78,-35.46 -5.43,-42.02 -3.54,-6.45 -9.56,-9.74 -17.93,-9.74 -9.56,0 -15.46,2.76 -17.7,8.26 -2.36,5.4 -3.53,19.68 -3.53,42.65l0 43.07zm44.59 56.41c-22.53,14.71 -35.63,26.99 -39.18,36.94 -3.65,9.95 -5.41,24.13 -5.41,42.76 0,21.37 1.52,35.03 4.71,41.27 3.07,6.25 9.32,9.31 18.64,9.31 8.85,0 14.51,-2.43 17.22,-7.3 2.72,-4.87 4.02,-17.57 4.02,-38.31l0 -84.67zm174.72 -306.6l43.89 0c39.52,0 69.02,3.29 88.6,9.95 19.58,6.56 32.32,16.51 38.34,29.74 6.02,13.23 8.97,40.96 8.97,83.19l0 256.54c0,42.44 -2.95,70.16 -8.97,83.18 -6.02,13.02 -18.52,22.86 -37.63,29.64 -19.11,6.66 -48.84,10.05 -89.31,10.05l-43.89 0 0 -65.41c20.4,0 33.5,-0.95 38.93,-2.75 5.54,-1.9 9.44,-5.71 11.56,-11.32 2.24,-5.72 3.31,-20.11 3.31,-43.08l0 -257.17c0,-24.66 -1.41,-39.58 -4.13,-44.87 -2.71,-5.3 -6.96,-8.68 -12.62,-10.06 -5.55,-1.48 -17.94,-2.22 -37.05,-2.22l0 -65.41z"/>
 </g>
</svg>
