<?xml version="1.0" encoding="UTF-8"?>
<!DOCTYPE svg PUBLIC "-//W3C//DTD SVG 1.1//EN" "http://www.w3.org/Graphics/SVG/1.1/DTD/svg11.dtd">
<!-- Creator: CorelDRAW 2018 (64-Bit) -->
<svg xmlns="http://www.w3.org/2000/svg" xml:space="preserve" width="170mm" height="70mm" version="1.1" style="shape-rendering:geometricPrecision; text-rendering:geometricPrecision; image-rendering:optimizeQuality; fill-rule:evenodd; clip-rule:evenodd"
viewBox="0 0 17000 7000"
 xmlns:xlink="http://www.w3.org/1999/xlink">
 <defs>
  <style type="text/css">
   <![CDATA[
    .fil0 {fill:#FEFEFE}
    .fil1 {fill:#61A935}
    .fil2 {fill:#0066A4}
    .fil3 {fill:#0066A4;fill-rule:nonzero}
   ]]>
  </style>
 </defs>
 <g id="Слой_x0020_1">
  <metadata id="CorelCorpID_0Corel-Layer"/>
  <rect class="fil0" x="0" y="0" width="17000" height="7000"/>
  <polygon class="fil1" points="15860.37,3458.46 15977.66,3458.46 15983.66,3458.46 15983.66,3287.7 16099.12,3458.46 16245.54,3458.46 16251.5,3458.46 16088.24,3243 16247.11,3040.23 16109.95,3040.23 16103.7,3040.23 15983.66,3207.45 15983.66,3040.23 15866.69,3040.23 15860.37,3040.23 "/>
  <polygon class="fil1" points="15219.34,3458.46 15336.54,3458.46 15342.22,3458.46 15342.22,3040.23 15225.5,3040.23 15219.34,3040.23 "/>
  <polygon class="fil1" points="14519.43,3458.46 14636.56,3458.46 14642.32,3458.46 14642.32,3140.71 14734.66,3140.71 14734.66,3040.23 14432.98,3040.23 14427.05,3040.23 14427.05,3140.71 14519.43,3140.71 "/>
  <path class="fil1" d="M13944.8 3069.48c-0.32,-1.17 -1.01,-1.17 -1.57,-1.17l-1.26 -1.14c-26.7,-17.97 -50.1,-28.97 -73.15,-32.16 -23.45,-5.28 -40.33,-6.66 -51.2,-6.66l-5.92 0c-47.95,0.69 -84.39,12.29 -109.62,36.56 -24.95,24.46 -37.6,54.12 -37.6,89.36 0,34.09 7.82,59.77 23.61,77.17 15.86,17.16 32.74,29.9 50.62,38.37 7.83,3.5 14.81,5.85 22.03,8.16 8.32,3 14.98,4.99 20.93,6.01 1.19,1.25 2.6,1.25 3.37,1.25 2.07,0.65 2.56,0.65 3.21,0.65 16.15,4.59 29.37,9.82 40.24,16.11 10.51,6.69 16.07,17.32 16.07,32.58 -0.69,2.51 -0.69,5.15 -0.69,7.58 -0.57,3.37 -0.97,5.76 -2.48,8.15 -2.39,5.49 -5.84,9.54 -10.46,13.48 -6.08,4.58 -14,6.24 -24.78,6.24l-4.83 0c-2.57,-1.13 -3.34,-1.13 -4.75,-1.13 -14.9,-2.35 -28.68,-7.67 -42.4,-15.94 -14.36,-8.69 -26.41,-17.69 -37,-27.03 -2.63,-2.47 -4.3,-4.06 -5.96,-5.47 -2.32,-2.23 -4.26,-4.06 -6.01,-5.89l-6.12 0 -55.78 88.89c18.86,15.01 34.89,27.14 49.78,35.83 16.47,9.74 31.19,16.35 45.63,21.25 10.72,3.41 20.61,5.84 29.87,7.06 11.02,2.39 21.01,3.16 31.68,3.16l5.89 -0.77c41.82,0 78.21,-10.62 109.12,-32.21 32.45,-22.23 48.4,-56.8 48.4,-104.87 -1.13,-36.3 -8.55,-63.09 -24.1,-81.26 -16.23,-19.03 -33.75,-32.7 -52.69,-41.05 -10.47,-4.83 -19.65,-8.44 -29.02,-10.83 -9.89,-3.66 -18.04,-5.44 -24.46,-6.58 -3.56,-1.18 -6.4,-2.03 -9.82,-2.31 -3.73,-1.26 -7.46,-1.71 -11.03,-2.96 -7.67,-2.81 -14.32,-6.13 -20.12,-10.83 -5.64,-6.13 -8.96,-12.46 -8.96,-20.82 0.8,-2.39 0.8,-4.94 0.8,-7.3 0.77,-3.65 1.75,-5.97 2.84,-8.23 2.8,-6.01 6.58,-10.23 11.64,-14.05 6.13,-4.49 13.8,-6.4 24.83,-6.4 11.97,1.17 22.03,3.56 31.61,8.44 10.87,5.35 20.37,11.27 29.7,18.57 2.47,1.67 4.46,3.45 5.87,5.33 2.76,2.26 4.43,3.64 6.26,4.33l6.04 0 41.74 -87.47z"/>
  <polygon class="fil1" points="13035.96,3458.46 13152.83,3458.46 13159.01,3458.46 13159.01,3040.23 13041.67,3040.23 13035.96,3040.23 "/>
  <path class="fil1" d="M12324.96 3228.47l0 -96.07 23.04 0c19.52,0.33 33.31,4.51 41.06,12.9 8.15,8.97 12.53,18.54 13.79,28.68l0 3.82 0 2.28 0 2.14 0 2.48c-1.26,11.4 -5.64,21.06 -13.39,30.1 -8.15,9.45 -21.94,13.67 -41.46,13.67l-23.04 0zm-123.37 229.99l117.28 0 6.09 0 0 -128.52 82.72 128.52 141.59 0 5.96 0 -117.12 -167.14c1.01,-0.85 1.83,-0.85 2.23,-0.85 1.33,-0.9 1.67,-0.9 2.52,-0.9 21.58,-8.6 40.04,-21.5 56.59,-39.96 18.13,-20 26.13,-47.46 26.13,-83.78 0,-34.04 -7.51,-59.43 -23.13,-76.06 -15.3,-17.81 -32.17,-29.98 -49.9,-37.01 -16.35,-6.56 -30.83,-10.06 -44.38,-10.62 -14.2,-1.5 -23.29,-1.91 -26.86,-1.91l-173.48 0 -6.24 0 0 418.23z"/>
  <path class="fil1" d="M11319.75 3040.25l-5.87 0 0 249.33c0.56,63.38 17.28,108.49 51.6,137.25 34.33,29.33 78.42,43.9 132.42,43.9l5.92 -0.74c55.1,0 99.27,-14.39 132.86,-43.16 34.33,-29.65 51.36,-75.33 51.36,-137.25l0 -249.33 -117.36 0 -6.09 0 0 246.91c-0.69,4.65 -0.69,10.22 -1.17,16.79 -0.41,6.49 -1.42,12.9 -3.09,20.2 -3.65,11.08 -10.06,21.34 -18.37,30.83 -8.89,10.35 -22.52,15.06 -41.06,15.06 -19.03,-0.33 -32.34,-5.24 -40.65,-15.06 -9.05,-9.93 -14.81,-20.4 -18.7,-30.83 -2.23,-7.75 -3.58,-14.44 -3.98,-20.2 -0.69,-7.39 -0.69,-12.65 -0.69,-16.79l0 -246.91 -117.13 0z"/>
  <path class="fil1" d="M10589.99 3370.04c-4.83,-0.34 -8.97,-0.34 -13.72,-1.14 -4.75,-1.38 -9.09,-2.36 -12.99,-3.58 -18.61,-6.16 -35.74,-17.4 -51.11,-35.37 -15.38,-18.38 -22.6,-45.31 -22.6,-80.37 0.49,-36.27 7.72,-62.19 22.6,-80.08 16.11,-18.75 32.98,-30.59 51.11,-36.11 4.67,-1.58 8.73,-2.88 13.56,-3.82 5.32,-0.85 9.41,-0.85 13.87,-0.85 4.67,0.61 8.48,0.61 11.56,0.85 5.32,1.71 9.1,2.24 13.48,3.13 19.14,6.21 36.43,17.52 51.8,35.29 16.35,18.67 23.86,45.32 23.86,81.59 -0.33,37 -8.32,63.66 -23.86,81.54 -15.37,18.63 -32.66,30.11 -51.8,34.78 -4.91,1.62 -9.13,3 -13.48,3.8 -4.46,0.34 -8.56,0.34 -12.28,0.34zm-2.23 100.69l5.95 -0.74c75.1,-0.53 130.8,-22.71 167.51,-66.52 38.42,-44.31 57.04,-95.51 57.04,-153.89 -0.56,-58.7 -19.1,-109.95 -57.04,-154.24 -37.97,-44.96 -93.67,-66.98 -167.51,-66.98l-5.95 0c-74.78,0.69 -131.05,22.6 -168.86,66.98 -37.33,44.29 -56.11,95.54 -56.11,154.24 0,59.07 19.12,110.27 57.33,154.37 39.02,44.46 94.73,66.78 167.64,66.78z"/>
  <polygon class="fil1" points="9681.45,3458.46 9798.65,3458.46 9804.74,3458.46 9804.74,3140.71 9896.84,3140.71 9896.84,3040.23 9595.4,3040.23 9589.36,3040.23 9589.36,3140.71 9681.45,3140.71 "/>
  <path class="fil1" d="M6590.32 2103.82c-52.82,134.69 -52.82,284.79 0,419.69 -45.15,-22.6 -104.99,-52.82 -157.32,-37.52 -127.19,45.11 -134.57,127.38 -134.57,232.25l-5645.48 0 0 -614.42 5937.37 0z"/>
  <path class="fil2" d="M7165.94 3460.05l-6512.98 0 0 -599.34 5645.45 0c22.43,119.64 104.38,217.09 194.29,284.27 157.32,127.75 276.92,142.73 613.73,195.02l59.51 120.05zm-515.92 -1588.38c-217.01,-142.52 -404.15,-314.62 -561.4,-524.48l-5435.66 0 0 614.3 5974.59 0 22.47 -89.82zm-658.52 -674.35l-5338.54 0 0 -606.96 5054.23 0c67.34,217.21 157.08,427.08 284.31,606.96zm2094.76 -989.12c-22.51,0 -7.38,-37.36 -37.36,-37.36 -44.83,14.85 -104.71,14.85 -127.27,89.94 -7.42,-45.11 -52.26,-60.01 -74.6,-67.31 -7.64,37.25 37.52,67.31 14.72,119.56 -104.5,7.59 -164.38,90.06 -201.84,164.79l-7.3 -7.3c-14.93,90.19 -104.82,149.71 -104.82,247.19 22.31,37.44 52.16,-30.06 89.89,-7.38 -45.27,22.39 -67.58,52.58 -89.89,90.02 -15.06,44.99 -15.06,82.36 0,119.65 44.62,-14.74 89.89,-74.66 127.14,-89.83 -15.02,75.09 -59.76,112.46 -104.83,172.42l-7.55 112.34c-45.08,-30.15 -97.12,-74.82 -134.81,-127.35 -52.18,-30.19 -74.53,-97.45 -119.39,-157.41 -201.92,-247.19 -501.16,-59.84 -733.3,-82.43 -291.78,-52.34 -568.7,-149.79 -777.87,-374.66 0,74.97 22.23,134.8 59.59,209.9 29.98,104.67 112.3,187.35 202.19,247.19 -67.46,15.17 -112.29,-37.44 -164.83,-59.84l0 14.85c37.69,97.53 89.95,179.92 164.83,254.93 67.27,89.78 186.91,59.85 261.88,112.43 -30.19,37.15 -89.94,22.51 -142.12,22.51 52.18,104.47 157.09,186.95 261.72,186.95 30.03,7.58 67.39,-29.74 74.86,15.25 -7.47,52.33 -74.86,44.66 -112.51,44.66 37.65,74.98 112.51,142.36 179.88,194.74 179.53,7.74 306.67,217.49 486.19,105.16 82.36,82.31 172.14,-37.57 261.88,-29.98 0,15.01 -22.39,29.98 -22.39,37.32 -112.06,37.65 -224.31,90.02 -254.26,209.99 0,97.2 -97.28,37.23 -142.36,52.25 -112.45,7.23 -164.66,120.01 -201.83,224.87 -52.58,179.77 104.38,337.22 -37.4,464.33 -44.95,22.47 -89.83,0 -127.35,-29.79 7.78,52.26 22.23,89.7 59.93,112.43 44.94,14.84 112.25,-7.39 134.64,-37.65 0,30.26 -22.39,44.95 -37.24,75.04 -82.32,37.45 -149.55,-37.39 -209.78,-67.58 0,67.58 44.82,90.02 67.71,134.89 29.9,37.37 -45.11,22.64 -45.11,37.37 112.25,112.62 261.7,217.65 418.83,172.5 67.43,-14.81 112.55,-97.45 149.91,-157.45 14.85,-149.82 14.85,-314.74 -67.55,-441.92 -59.68,-74.9 -59.68,-179.89 -82.36,-262.17 22.68,-45.11 60,-97.4 112.55,-104.86 22.18,74.8 52.21,142.52 104.54,194.56 37.32,112.62 179.52,157.42 164.43,277.42 -52.42,119.68 -164.43,224.71 -149.71,352.06 89.91,104.79 164.8,239.52 187.27,389.75 67.1,0 44.92,89.78 67.1,119.88 60.3,22.39 127.48,0 179.64,0 -29.85,-119.88 -126.9,-172.34 -179.64,-270.11 -7.22,-22.35 -22.18,-67.39 0,-82.19 45.12,22.36 104.92,59.84 104.92,127.34 60.04,-7.46 44.87,82.28 60.04,119.89 29.9,29.77 67.34,89.94 112.1,67.42 14.96,-22.47 7.66,-30.01 7.66,-44.91 37.25,-119.8 -67.35,-164.91 -82.56,-247.38 -74.68,-74.9 -164.67,-89.78 -224.34,-187.04 -37.45,-45.07 22.18,-67.38 59.67,-112.57 164.67,-127.27 217.13,-352.14 217.13,-547.13 89.78,-149.53 291.73,-179.64 411.33,-329.25 89.66,-82.45 142.12,-194.82 202.12,-284.69l22.56 22.36c112.04,7.43 201.74,-134.97 291.44,-202.24 15.14,22.32 37.74,44.87 60.17,82.48 22.44,37.2 -7.67,97.4 22.44,127.19 22.23,37.57 -15.01,67.55 -22.44,97.57 29.82,59.72 67.43,134.65 127.15,157.33 22.43,-82.45 7.3,-157.33 14.92,-239.97l0 -22.36c14.9,-112.54 -104.91,-172.42 -97.4,-284.83 89.78,-89.91 202.16,7.62 291.86,29.93 22.55,15.22 15.13,52.66 15.13,74.98 82.07,0 149.58,-37.49 209.42,-104.91 -22.68,-14.73 -52.46,-29.98 -74.81,-44.79 -112.38,-97.25 -254.45,-7.63 -374.18,-97.25 -59.96,-15.13 -119.76,-15.13 -172.26,-15.13 -52.25,52.21 -96.87,97.45 -141.99,157.17l-29.93 0c0,-75.02 7.5,-119.76 15.09,-187.03 -22.57,-97.61 -82.4,-97.61 -149.66,-164.84 -22.23,-149.98 -194.65,-187.67 -172.14,-352.46 14.89,-74.65 104.63,-7.38 164.63,-52.26 82.23,-29.93 149.58,119.76 217.13,0 7.17,-7.46 -15.17,-29.93 -15.17,-52.41l44.86 -14.8c52.38,-225.08 -224.26,-142.28 -329.14,-247.56 14.89,-89.9 -74.76,-67.27 -119.8,-112.42zm-1353.88 1326.09c-22.48,29.98 -67.58,29.98 -112.22,37.65 44.64,-7.67 74.7,-67.55 112.22,-37.65zm1077.11 -314.78c-67.21,0 -156.88,-22.19 -194.32,-59.67 59.76,15.21 127.11,52.37 194.32,59.67z"/>
  <path class="fil2" d="M16233.1 604.77l0 548.58c-86.13,-34.08 -217.98,-68.56 -311.57,-68.56 -52.98,0 -148.81,6.25 -148.81,128 0,130.67 103.4,130.67 252.71,208.36 179.84,93.8 321.63,255.91 321.63,623.72 0,405.41 -179.8,786.1 -594.87,786.1 -151.73,0 -323.75,-46.81 -458.07,-128.19l0 -601.64c101.34,59.22 278.22,143.32 397.54,143.32 121.18,0 149.14,-74.81 149.14,-140.32 0,-118.43 -93.84,-155.58 -179.65,-196.48 -121.38,-52.74 -392.31,-152.55 -392.31,-629.39 0,-477.39 225.45,-760.84 556.74,-760.84 139.31,0 293.56,31.31 407.52,87.34zm-1819.9 1296.72l91.43 -554.87 91.16 554.87 -182.59 0zm-673.37 863.65l544.43 0 53.23 -318.12 334.01 0 53.39 318.12 543.95 0 -470.73 -2182.15 -584.52 0 -473.76 2182.15zm-847.38 -1309.35l0 501.77 278.14 0c2.92,146.58 -88.28,261.88 -214.81,261.88 -182.32,0 -288.54,-240.18 -288.54,-532.89 0,-265.4 78.23,-536.12 290.89,-536.12 88.68,0 172.06,52.86 202.65,155.78l455.51 -140.48c-78.46,-355.03 -306.26,-648.3 -675.64,-648.3 -559.33,0 -779.3,589.35 -779.3,1172.12 0,660.88 293.32,1141.42 784.21,1141.42 478.43,0 731.58,-465.04 731.58,-1113.46l0 -261.72 -784.69 0zm-1849.93 1309.35l931.03 0 0 -633.01 -399.45 0 0 -208.66 359.33 0 0 -523.87 -359.33 0 0 -183.73 399.45 0 0 -632.88 -931.03 0 0 2182.15zm-921.2 -1614.71l58.21 0c48.03,0 126.53,12.3 126.53,183.86 0,171.24 -73.42,187.14 -126.53,187.14l-58.21 0 0 -371zm-531.55 1614.71l531.55 0 0 -676.38 111.32 0c468.49,0 579.53,-442.78 579.53,-754.47 0,-308.66 -108.64,-751.3 -579.53,-751.3l-642.87 0 0 2182.15z"/>
  <path class="fil3" d="M1233.69 4330.79c-320.17,0 -580.69,260.51 -580.69,580.7 0,83.55 17.11,163.33 50.77,237.1 145.19,317.65 423.59,653.13 505.48,748.35 6.08,7.17 15.06,11.27 24.44,11.27 9.46,0 18.38,-4.1 24.52,-11.27 81.82,-95.22 360.23,-430.61 505.42,-748.35 33.73,-73.77 50.85,-153.55 50.85,-237.1 -0.08,-320.19 -260.59,-580.7 -580.79,-580.7zm0 882.35c-166.31,0 -301.65,-135.34 -301.65,-301.65 0,-166.33 135.34,-301.67 301.65,-301.67 166.33,0 301.68,135.34 301.68,301.67 0,166.31 -135.35,301.65 -301.68,301.65z"/>
  <path class="fil3" d="M2635.79 4797.29c0,62.61 -9.1,107.66 -27.28,134.98 -18,27.49 -45.68,44.52 -82.46,51.43 -36.97,6.92 -95.69,10.47 -176.37,10.47l-282.14 0 0 -841.78 478.08 0 0 145.79 -233.7 0 0 142.61 37.76 0c75.14,0 132.28,3.9 170.83,11.88 38.56,7.98 67.43,25.54 86.6,52.85 19.19,27.14 28.68,69.89 28.68,128.06l0 163.71zm-244.38 -25.36l0 -121.67c0,-35.48 -3.96,-56.94 -11.87,-64.56 -7.91,-7.63 -30.44,-11.89 -67.62,-12.95l0 276.69c31.05,0 52.01,-3.55 62.87,-10.64 11.08,-7.1 16.62,-29.45 16.62,-66.87zm330.78 -619.54l406.91 0 0 168.14 -162.53 0 0 160.7 151.85 0 0 159.63 -151.85 0 0 185.16 179.14 0 0 168.15 -423.52 0 0 -841.78zm492.91 0l245.77 0c66.44,0 117.45,4.61 153.23,14.01 35.59,9.4 62.49,22.88 80.47,40.44 18,17.74 30.06,39.2 36.58,64.21 6.33,25.19 9.49,64.03 9.49,116.7l0 73.25c0,53.57 -6.13,92.77 -18.58,117.25 -12.26,24.65 -35,43.63 -67.82,56.75 -33.01,13.13 -76.12,19.69 -129.31,19.69l-65.44 0 0 339.48 -244.39 0 0 -841.78zm244.39 143.67l0 214.43c6.92,0.36 12.85,0.53 17.79,0.53 22.35,0 37.77,-4.96 46.47,-14.89 8.5,-9.76 12.85,-30.34 12.85,-61.55l0 -69.35c0,-28.73 -4.94,-47.53 -15.03,-56.23 -9.89,-8.68 -30.64,-12.94 -62.08,-12.94zm1048.71 842.84l-168.46 0 0 -144.73 -393.86 0 0 144.73 -168.45 0 0 -320.33 49.82 0c26.3,-68.99 48.04,-159.62 64.86,-272.08 16.8,-112.44 25.3,-235.36 25.3,-368.56l0 -25.54 540.96 0 0 665.12 49.83 0 0 321.39zm-294.21 -321.39l0 -499.1 -72.37 0 0 6.2c0,161.23 -19.37,325.47 -58.12,492.9l130.49 0zm939.37 -297.97l-244.38 0 0 -146.15c0,-42.57 -2.57,-69 -7.71,-79.64 -5.14,-10.46 -16.61,-15.78 -34.2,-15.78 -19.78,0 -32.43,6.38 -37.78,19.15 -5.33,12.95 -8.1,40.61 -8.1,83.18l0 390.56c0,40.98 2.77,67.58 8.1,80.18 5.35,12.41 17.41,18.62 35.99,18.62 18,0 29.86,-6.21 35.39,-18.8 5.54,-12.42 8.31,-41.86 8.31,-88.16l0 -105.88 244.38 0 0 32.81c0,87.27 -6.92,149.17 -20.56,185.53 -13.65,36.53 -44.09,68.46 -90.95,95.95 -47.06,27.49 -104.79,41.15 -173.6,41.15 -71.38,0 -130.3,-11.53 -176.76,-34.76 -46.27,-23.24 -77.12,-55.34 -92.14,-96.49 -15.03,-41.15 -22.54,-102.87 -22.54,-185.35l0 -245.83c0,-60.66 2.38,-106.06 6.93,-136.39 4.73,-30.33 18.38,-59.6 41.51,-87.62 22.93,-28.03 54.77,-50.2 95.5,-66.34 40.73,-16.13 87.59,-24.12 140.58,-24.12 71.77,0 131.09,12.42 177.95,37.43 46.67,24.83 77.3,55.87 92.13,93.11 14.64,37.25 21.95,95.07 21.95,173.64l0 80zm87.4 -367.15l244.38 0 1.19 355.44c45.27,-1.06 68.61,-23.94 70.19,-68.64l4.54 -164.24c1.59,-60.49 14.63,-101.46 39.15,-122.56l225.4 0c-21.75,20.4 -32.43,62.79 -32.03,126.82l1.19 144.37c0.79,87.27 -53.98,137.11 -164.5,149.17 110.52,12.06 165.29,62.6 164.5,151.29l-1.19 133.91c-0.4,63.86 10.28,109.26 32.03,136.22l-225.4 0c-26.1,-21.11 -39.15,-62.08 -39.15,-122.74l0 -164.06c0,-20.93 -6.91,-37.61 -20.76,-50.2 -14.03,-12.59 -32.03,-19.15 -53.97,-19.51l-1.19 356.51 -244.38 0 0 -841.78z"/>
  <path class="fil3" d="M8914.11 3761.32l-1.9 62.81c-29.92,-3.07 -59.63,-4.55 -89.13,-4.55 -0.63,29.08 -0.95,59.32 -0.95,90.72 0,53.08 1.48,101.5 4.33,145.27l-83.32 0c2.86,-41.55 4.34,-89.97 4.34,-145.27 0,-30.35 -0.52,-60.59 -1.58,-90.72 -29.93,0 -61.12,1.48 -93.57,4.55l2.21 -62.81 259.57 0zm348.39 140.3c0,52.02 -15.97,92.73 -48,122.02 -31.93,29.39 -69.68,43.99 -113.03,43.99 -41.34,0 -76.76,-13.32 -106.26,-40.08 -29.5,-26.75 -44.3,-64.39 -44.3,-112.92 0,-52.23 16.07,-93.15 48.32,-122.65 32.25,-29.6 69.99,-44.3 113.34,-44.3 41.14,0 76.45,13.43 105.84,40.39 29.39,26.96 44.09,64.82 44.09,113.55zm-80.78 9.31c0,-29.92 -7.08,-55.09 -21.04,-75.49 -14.06,-20.3 -32.35,-30.45 -54.88,-30.45 -21.88,0 -39.64,9.52 -53.39,28.44 -13.75,19.03 -20.62,42.82 -20.62,71.26 0,29.93 6.98,55.09 21.04,75.49 14.06,20.3 32.36,30.45 54.88,30.45 21.88,0 39.65,-9.51 53.39,-28.44 13.75,-19.03 20.62,-42.82 20.62,-71.26zm402.73 57.31c0,31.83 -13.22,54.55 -39.65,68.4 -26.43,13.85 -59.21,20.84 -98.22,20.84 -18.19,0 -42.3,-0.32 -72.43,-0.96 -30.24,-0.63 -48.85,-0.95 -56.15,-0.95 2.75,-36.16 4.03,-85.32 4.03,-147.49 0,-55.94 -3.5,-104.89 -10.47,-146.76l54.76 0c28.97,-2.33 60.49,-3.39 94.53,-3.39 73.27,0 109.96,22.31 109.96,67.15 0,31.61 -16.5,54.13 -49.59,67.56l0 4.65c42.19,8.03 63.23,31.72 63.23,70.95zm-73.7 -1.91c0,-15.01 -6.13,-25.48 -18.18,-31.29 -12.05,-5.71 -31.09,-8.67 -57.1,-8.67 -12.26,0 -26.33,0.63 -42.5,1.9 0,29.92 0.32,55.19 0.95,75.91 18.82,1.81 37.64,2.76 56.36,2.76 40.28,0 60.47,-13.54 60.47,-40.61zm-11.21 -123.91c0,-23.68 -18.39,-35.64 -55.08,-35.64 -17.34,0 -35.21,0.75 -53.61,2.22 1.38,24.96 2.12,49.28 2.12,72.75 19.24,0.85 35.63,1.27 49.27,1.27 38.17,0 57.3,-13.54 57.3,-40.6zm394.07 212.83l-73.06 2.54c-3.38,-8.77 -4.97,-16.6 -4.97,-23.58l-4.01 0c-22.74,19.35 -53.4,29.08 -91.99,29.08 -25.91,0 -47.26,-7.19 -64.29,-21.46 -17.13,-14.38 -25.58,-33.42 -25.58,-57.2 0,-31.4 13.21,-57.1 39.75,-77.08 26.54,-20.09 73.06,-30.66 139.57,-31.93 0.42,-3.7 0.63,-7.3 0.63,-10.57 0,-22.31 -5.39,-37.01 -16.07,-44.1 -10.79,-7.19 -30.46,-10.67 -59.21,-10.67 -31.19,0 -61.65,4.11 -91.35,12.37l6.76 -56.99c28.13,-9.73 67.78,-14.6 118.95,-14.6 37.43,0 66.3,7.83 86.6,23.58 20.4,15.65 30.55,43.14 30.55,82.37 0,8.67 -0.42,24.43 -1.16,47.37 -0.64,22.94 -1.06,38.27 -1.06,45.88 0,42.72 3.28,77.71 9.94,104.99zm-82.68 -64.39c-1.27,-27.91 -1.9,-52.02 -1.9,-72.21 -70.43,0 -105.63,17.87 -105.63,53.6 0,24.53 15.54,36.8 46.52,36.8 24.32,0 44.62,-6.03 61.01,-18.19zm441.01 -95.16c0,44.84 -12.8,84.17 -38.38,118 -25.6,33.94 -60.59,50.86 -105,50.86 -33.09,0 -55.72,-6.98 -68.19,-21.04l-3.7 0c0,50.53 0.73,101.82 2.21,153.62l-84.26 0c3.7,-59.31 5.6,-127.61 5.6,-205.11 0,-99.92 -5.39,-176.15 -16.17,-228.59l79.29 -8.68 4.66 26.65 4.96 0c22.1,-20.41 52.13,-30.66 90.2,-30.66 39.64,0 70.94,14.27 94.1,42.92 23.15,28.55 34.68,62.6 34.68,102.03zm-82.37 8.04c0,-26.01 -6.45,-48.43 -19.46,-67.14 -13.1,-18.82 -30.97,-28.23 -53.92,-28.23 -28.55,0 -49.37,8.36 -62.59,25.06 3.07,58.04 4.65,111.23 4.65,159.55 13,10.15 29.82,15.22 50.44,15.22 27.48,0 47.89,-10.15 61.11,-30.56 13.22,-20.3 19.77,-44.93 19.77,-73.9zm412.25 151.83l-81.74 0c2.65,-36.79 4.02,-79.51 4.02,-128.25l-117.99 0c0,45.89 1.37,88.6 4.23,128.25l-81.74 0c2.86,-42.71 4.34,-91.78 4.34,-147.18 0,-54.87 -3.6,-102.98 -10.78,-144.32l87.96 -8.99c-1.26,13.43 -2.64,52.23 -4.01,116.52l117.35 0c-0.63,-41.55 -3.91,-77.4 -9.93,-107.53l87.97 -8.99c-2.44,40.07 -3.7,91.14 -3.7,153.31 0,53.08 1.37,102.14 4.02,147.18zm311.06 -96.95c0,32.46 -12.59,56.99 -37.54,73.69 -24.95,16.71 -54.98,25.17 -90.08,25.17 -14.7,0 -35.63,-0.32 -62.91,-0.96 -27.28,-0.63 -44.83,-0.95 -52.66,-0.95 2.44,-42.71 3.7,-91.78 3.7,-147.18 0,-54.87 -3.48,-102.98 -10.57,-144.32l86.49 -8.99c-0.85,10.15 -1.91,47.37 -3.17,111.86 10.36,-2.53 20.51,-3.7 30.45,-3.7 90.82,0 136.29,31.73 136.29,95.38zm108.06 96.95l-81.74 0c2.65,-42.71 4.02,-91.78 4.02,-147.18 0,-54.87 -3.49,-102.98 -10.57,-144.32l87.96 -8.99c-2.64,40.07 -4.01,91.14 -4.01,153.31 0,53.08 1.48,102.14 4.34,147.18zm-183.35 -96.01c0,-15.32 -5.71,-26.95 -17.02,-34.99 -11.42,-8.03 -26.11,-12.16 -43.98,-12.16 -8.67,0 -18.82,0.96 -30.45,2.85 0,29.92 0.42,59.96 1.26,90.09 10.79,1.69 22.42,2.53 35,2.53 36.79,0 55.19,-16.17 55.19,-48.32zm527.5 96.01l-81.73 0c2.64,-36.58 4.01,-77.5 4.01,-122.96 0,-18.4 1.17,-41.24 3.39,-68.52l-4.66 0c-5.39,15.54 -29.92,48.75 -73.69,99.82 -40.5,47.04 -60.69,77.6 -60.69,91.66l-64.18 0c2.75,-45.04 4.02,-94.1 4.02,-147.18 0,-59.63 -3.49,-107.73 -10.47,-144.32l87.97 -8.99c-2.54,39.65 -3.7,79.09 -3.7,118.31 0,20.73 -1.16,47.27 -3.49,79.62l4.65 0c3.92,-13 27.39,-45.25 70.31,-96.64 40.5,-48.53 60.8,-79.3 60.8,-92.3l67.14 -8.99c-2.44,39.65 -3.7,90.83 -3.7,153.31 0,49.59 1.38,98.65 4.02,147.18zm-21.36 -434.24c0,64.6 -36.69,96.96 -109.96,96.96 -39.23,0 -68.31,-10.15 -87.34,-30.46 -15.75,-16.7 -23.57,-38.58 -23.57,-65.65l68.82 -8.99c0,40.29 14.07,60.48 42.4,60.48 18.83,0 30.77,-5.39 36.06,-16.18 5.29,-10.68 7.93,-25.48 7.93,-44.3l65.66 8.14zm451.05 345.64c0,32.45 -13.22,56.67 -39.64,72.84 -26.44,16.08 -62.07,24.12 -106.9,24.12 -36.8,0 -68.94,-4.66 -96.64,-13.97l7.08 -56.35c26.44,10.79 56.36,16.08 89.56,16.08 47.05,0 70.63,-13.33 70.63,-39.97 0,-26.43 -26.22,-39.65 -78.67,-39.65 -22.09,0 -41.33,0.74 -57.62,2.22l5.92 -53.61c15.86,1.27 33.2,1.91 52.02,1.91 47.9,0 71.79,-13.12 71.79,-39.34 0,-22.51 -20.09,-33.83 -60.37,-33.83 -30.56,0 -60.27,4.65 -89.24,13.96l7.19 -56.36c25.8,-9.3 59,-13.96 99.71,-13.96 77.71,0 116.51,22.74 116.51,68.2 0,33.63 -17.02,57.2 -51.17,70.63l0 4.87c15.75,3.17 28.86,9.72 39.33,19.87 13.64,13.22 20.51,30.67 20.51,52.34zm327.35 88.6l-81.73 0c2.64,-36.79 4.01,-79.51 4.01,-128.25l-117.99 0c0,45.89 1.37,88.6 4.23,128.25l-81.73 0c2.85,-42.71 4.33,-91.78 4.33,-147.18 0,-54.87 -3.59,-102.98 -10.78,-144.32l87.97 -8.99c-1.27,13.43 -2.65,52.23 -4.02,116.52l117.36 0c-0.63,-41.55 -3.91,-77.4 -9.94,-107.53l87.97 -8.99c-2.43,40.07 -3.7,91.14 -3.7,153.31 0,53.08 1.38,102.14 4.02,147.18zm318.14 -0.32l-73.06 2.54c-3.38,-8.77 -4.97,-16.6 -4.97,-23.58l-4.01 0c-22.74,19.35 -53.4,29.08 -91.99,29.08 -25.9,0 -47.26,-7.19 -64.28,-21.46 -17.14,-14.38 -25.59,-33.42 -25.59,-57.2 0,-31.4 13.21,-57.1 39.75,-77.08 26.54,-20.09 73.07,-30.66 139.57,-31.93 0.42,-3.7 0.63,-7.3 0.63,-10.57 0,-22.31 -5.39,-37.01 -16.07,-44.1 -10.79,-7.19 -30.45,-10.67 -59.21,-10.67 -31.19,0 -61.64,4.11 -91.35,12.37l6.76 -56.99c28.13,-9.73 67.78,-14.6 118.95,-14.6 37.43,0 66.3,7.83 86.6,23.58 20.4,15.65 30.55,43.14 30.55,82.37 0,8.67 -0.41,24.43 -1.16,47.37 -0.63,22.94 -1.06,38.27 -1.06,45.88 0,42.72 3.28,77.71 9.94,104.99zm-82.68 -64.39c-1.27,-27.91 -1.9,-52.02 -1.9,-72.21 -70.42,0 -105.63,17.87 -105.63,53.6 0,24.53 15.54,36.8 46.53,36.8 24.31,0 44.62,-6.03 61,-18.19zm416.9 64.71l-83 0c-1.69,-2.85 -4.12,-8.46 -7.51,-16.7 -11.94,-41.56 -24.32,-69.79 -37,-84.7 -12.69,-15.01 -28.65,-22.52 -47.79,-22.52 -4.97,0 -11.85,0.21 -20.51,0.64 0,39.65 1.58,80.78 4.65,123.28l-83 0c3.07,-41.34 4.65,-88.49 4.65,-141.57 0,-59.63 -3.7,-109.76 -11.1,-150.25l88.82 -8.35c-2.65,34.26 -4.02,76.23 -4.02,125.82 8.88,0.32 15.75,0.53 20.51,0.53 36.47,0 63.23,-35 80.14,-104.99 1.27,-5.18 3.6,-10.26 6.87,-15.44l77.72 0c-2.01,4.76 -5.61,13.53 -10.79,26.33 -23.57,64.6 -50.01,102.56 -79.3,113.66l0 3.07c19.57,5.81 35.96,17.86 49.06,36.26 13.11,18.4 25.8,45.36 37.96,80.89 3.7,10.88 8.25,22.31 13.64,34.04zm450.95 0l-82.37 0c2.65,-42.71 4.02,-91.78 4.02,-147.18 0,-29.07 -0.21,-59.63 -0.63,-91.66l-105.63 0c-0.42,26.43 -0.64,56.98 -0.64,91.66 0,53.08 1.38,102.14 4.03,147.18l-82.37 0c2.85,-42.71 4.33,-91.78 4.33,-147.18 0,-54.87 -3.59,-102.98 -10.78,-144.32l86.38 -2.75 123.28 0 60.06 -6.24c-2.43,40.07 -3.7,91.14 -3.7,153.31 0,53.08 1.38,102.14 4.02,147.18zm364.56 -153.95c0,52.02 -15.97,92.73 -48,122.02 -31.93,29.39 -69.68,43.99 -113.03,43.99 -41.34,0 -76.76,-13.32 -106.26,-40.08 -29.5,-26.75 -44.3,-64.39 -44.3,-112.92 0,-52.23 16.07,-93.15 48.32,-122.65 32.25,-29.6 69.99,-44.3 113.34,-44.3 41.14,0 76.45,13.43 105.84,40.39 29.39,26.96 44.09,64.82 44.09,113.55zm-80.78 9.31c0,-29.92 -7.08,-55.09 -21.04,-75.49 -14.06,-20.3 -32.35,-30.45 -54.88,-30.45 -21.88,0 -39.64,9.52 -53.39,28.44 -13.75,19.03 -20.62,42.82 -20.62,71.26 0,29.93 6.98,55.09 21.05,75.49 14.05,20.3 32.35,30.45 54.87,30.45 21.88,0 39.65,-9.51 53.39,-28.44 13.75,-19.03 20.62,-42.82 20.62,-71.26zm529.08 144.64l-82.05 0c2.65,-38.59 4.02,-85.64 4.02,-140.94 0,-32.46 -0.84,-65.13 -2.43,-98.23l-35 0c-4.55,18.83 -10.15,37.75 -16.81,56.89 -6.56,19.14 -14.06,37.64 -22.42,55.62 -8.35,17.97 -17.44,34.78 -27.06,50.43 -9.73,15.75 -20.09,29.5 -30.98,41.34 -11,11.95 -22.42,21.47 -34.26,28.55 -11.84,7.08 -24,11 -36.37,11.63l-3.17 -74.33c5.81,-1.06 12.26,-4.76 19.24,-11.21 6.98,-6.34 14.27,-14.91 21.89,-25.59 7.51,-10.57 15.12,-22.94 22.73,-37 7.62,-13.96 15.01,-29.19 22.31,-45.47 7.19,-16.39 13.95,-33.51 20.3,-51.49 6.24,-17.87 11.95,-36.05 16.81,-54.45l106.57 0 56.36 -6.24c-2.64,40.07 -4.01,91.14 -4.01,153.31 0,53.08 1.48,102.14 4.33,147.18zm346.38 0l-81.73 0c2.64,-36.58 4.01,-77.5 4.01,-122.96 0,-18.4 1.17,-41.24 3.39,-68.52l-4.65 0c-5.4,15.54 -29.92,48.75 -73.7,99.82 -40.5,47.04 -60.69,77.6 -60.69,91.66l-64.17 0c2.74,-45.04 4.01,-94.1 4.01,-147.18 0,-59.63 -3.49,-107.73 -10.47,-144.32l87.97 -8.99c-2.54,39.65 -3.7,79.09 -3.7,118.31 0,20.73 -1.16,47.27 -3.49,79.62l4.65 0c3.92,-13 27.39,-45.25 70.31,-96.64 40.5,-48.53 60.8,-79.3 60.8,-92.3l67.14 -8.99c-2.43,39.65 -3.7,90.83 -3.7,153.31 0,49.59 1.38,98.65 4.02,147.18zm371.75 -55.72c0,8.46 -2.64,35.74 -7.93,81.94 -5.28,46.1 -7.93,80.25 -7.93,102.35l-56.03 0c0,-26.22 -0.32,-69.15 -0.96,-128.57l-232.92 0c2.85,-42.71 4.33,-91.78 4.33,-147.18 0,-54.87 -3.6,-102.98 -10.78,-144.32l89.13 -8.99c-2.43,40.07 -3.71,91.14 -3.71,153.31 0,27.07 -0.41,57.52 -1.26,91.46l100.44 0c-0.84,-33.3 -1.27,-63.76 -1.27,-91.46 0,-54.87 -3.48,-102.98 -10.57,-144.32l88.92 -8.99c-2.43,40.07 -3.7,91.14 -3.7,153.31 0,32.04 0.84,62.49 2.43,91.46l51.81 0zm314.03 -122.96c0,10.47 -0.63,24.21 -1.8,41.12l-199.52 3.39c2.86,23.37 12.91,42.82 30.03,58.25 17.13,15.55 39.65,23.27 67.57,23.27 30.97,0 63.86,-4.66 98.75,-13.96l-6.13 60.06c-28.55,10.36 -63.87,15.54 -105.95,15.54 -53.28,0 -94.1,-15.01 -122.54,-44.94 -28.44,-29.92 -42.61,-65.98 -42.61,-108.06 0,-43.98 13.54,-82.15 40.39,-114.5 26.96,-32.36 64.39,-48.43 112.39,-48.43 43.78,0 76.24,11.84 97.49,35.64 21.35,23.68 31.93,54.55 31.93,92.62zm-72.43 -2.86c0,-47.48 -20.3,-71.26 -60.8,-71.26 -38.58,0 -61.53,24.63 -68.72,73.8l129.52 -2.54zm402 181.54l-81.74 0c2.65,-36.79 4.02,-79.51 4.02,-128.25l-117.99 0c0,45.89 1.37,88.6 4.23,128.25l-81.74 0c2.86,-42.71 4.34,-91.78 4.34,-147.18 0,-54.87 -3.6,-102.98 -10.78,-144.32l87.96 -8.99c-1.27,13.43 -2.64,52.23 -4.01,116.52l117.35 0c-0.63,-41.55 -3.91,-77.4 -9.93,-107.53l87.97 -8.99c-2.44,40.07 -3.71,91.14 -3.71,153.31 0,53.08 1.38,102.14 4.03,147.18zm292.76 -88.6c0,32.45 -13.22,56.67 -39.64,72.84 -26.44,16.08 -62.07,24.12 -106.9,24.12 -36.8,0 -68.94,-4.66 -96.64,-13.97l7.08 -56.35c26.44,10.79 56.36,16.08 89.56,16.08 47.05,0 70.63,-13.33 70.63,-39.97 0,-26.43 -26.22,-39.65 -78.67,-39.65 -22.09,0 -41.34,0.74 -57.62,2.22l5.92 -53.61c15.86,1.27 33.2,1.91 52.02,1.91 47.9,0 71.79,-13.12 71.79,-39.34 0,-22.51 -20.09,-33.83 -60.37,-33.83 -30.56,0 -60.27,4.65 -89.24,13.96l7.19 -56.36c25.8,-9.3 59,-13.96 99.71,-13.96 77.71,0 116.51,22.74 116.51,68.2 0,33.63 -17.02,57.2 -51.17,70.63l0 4.87c15.75,3.17 28.86,9.72 39.33,19.87 13.64,13.22 20.51,30.67 20.51,52.34zm331.05 88.6l-81.73 0c2.64,-36.58 4.01,-77.5 4.01,-122.96 0,-18.4 1.17,-41.24 3.39,-68.52l-4.65 0c-5.4,15.54 -29.92,48.75 -73.7,99.82 -40.5,47.04 -60.69,77.6 -60.69,91.66l-64.17 0c2.74,-45.04 4.01,-94.1 4.01,-147.18 0,-59.63 -3.49,-107.73 -10.47,-144.32l87.97 -8.99c-2.54,39.65 -3.7,79.09 -3.7,118.31 0,20.73 -1.16,47.27 -3.49,79.62l4.65 0c3.92,-13 27.39,-45.25 70.31,-96.64 40.5,-48.53 60.8,-79.3 60.8,-92.3l67.14 -8.99c-2.43,39.65 -3.7,90.83 -3.7,153.31 0,49.59 1.38,98.65 4.02,147.18zm342.89 0l-81.73 0c2.64,-36.58 4.01,-77.5 4.01,-122.96 0,-18.4 1.17,-41.24 3.39,-68.52l-4.65 0c-5.4,15.54 -29.93,48.75 -73.7,99.82 -40.5,47.04 -60.69,77.6 -60.69,91.66l-64.18 0c2.75,-45.04 4.02,-94.1 4.02,-147.18 0,-59.63 -3.49,-107.73 -10.47,-144.32l87.97 -8.99c-2.54,39.65 -3.7,79.09 -3.7,118.31 0,20.73 -1.16,47.27 -3.49,79.62l4.65 0c3.92,-13 27.39,-45.25 70.31,-96.64 40.5,-48.53 60.8,-79.3 60.8,-92.3l67.14 -8.99c-2.44,39.65 -3.7,90.83 -3.7,153.31 0,49.59 1.38,98.65 4.02,147.18z"/>
  <path class="fil3" d="M9499.03 4972.12l165.96 0 0 -149.72 112.85 0 0 149.72 166.91 0 0 101.24 -166.91 0 0 148.87 -112.85 0 0 -148.87 -165.96 0 0 -101.24zm838.48 -286.68l0 146.03 -119.49 526.87 -185.88 0 133.25 -552.1 -185.41 0 0 -120.8 357.53 0zm269.95 339.43l0 115.69 -244.67 0 0 -115.69 244.67 0zm50.74 154.82l186.82 0c0,31.48 0.48,51.33 1.43,59.41 0.94,8.22 4.73,15.17 11.53,20.7 6.64,5.53 15.81,8.37 27.35,8.37 9.64,0 17.54,-2.7 23.87,-7.94 6.16,-5.25 9.79,-11.91 10.59,-20.28 0.78,-8.36 1.1,-25.09 1.1,-50.19l0 -107.05c-9.33,17.87 -23.23,31.2 -41.73,40.13 -18.65,8.93 -41.72,13.47 -69.22,13.47 -34.3,0 -64.65,-8.37 -90.89,-24.96 -26.4,-16.59 -42.98,-36.58 -50.1,-59.83 -7.11,-23.25 -10.75,-54.73 -10.75,-94.43l0 -53.59c0,-47.21 2.06,-82.24 6.33,-105.2 4.1,-23.11 14.85,-44.38 32.08,-63.81 17.38,-19.56 41.25,-34.73 71.91,-45.65 30.5,-10.78 66.06,-16.16 106.53,-16.16 50.11,0 91.2,6.23 123.28,18.71 32.08,12.48 57.07,30.34 74.6,53.88 17.7,23.39 27.83,47.92 30.67,73.73 2.69,25.8 4.11,75.71 4.11,149.72l0 93.58c0,79.96 -1.27,133.56 -3.63,160.64 -2.53,26.94 -13.28,52.6 -32.25,76.7 -18.96,24.1 -44.73,42.11 -77.13,54.16 -32.56,12.05 -70.02,18.15 -112.69,18.15 -52.8,0 -95.94,-7.66 -129.45,-22.83 -33.51,-15.31 -57.69,-36.86 -72.39,-64.51 -14.7,-27.79 -21.97,-62.81 -21.97,-104.92zm186.82 -209.55c0,28.35 4.11,45.79 12.48,52.46 8.23,6.66 16.76,9.92 25.45,9.92 13.12,0 22.77,-4.25 28.76,-12.62 6.17,-8.5 9.18,-25.09 9.18,-49.76l0 -121.79c0,-29.64 -2.84,-49.06 -8.7,-58.14 -5.68,-9.21 -15.32,-13.75 -28.76,-13.75 -8.07,0 -16.6,3.55 -25.29,10.63 -8.7,7.09 -13.12,26.09 -13.12,57.14l0 125.91zm735.43 -284.7l0 107.18 -232.35 0 0 114.99c29.08,-30.77 66.55,-46.08 112.38,-46.08 51.69,0 90.73,12.9 117.28,38.85 26.39,25.8 39.67,75.57 39.67,149.3l0 95.99c0,47.49 -2.53,82.51 -7.58,104.77 -5.22,22.26 -16.12,42.96 -32.72,61.96 -16.76,18.86 -39.99,33.46 -69.86,43.53 -29.88,10.07 -66.23,15.17 -109.22,15.17 -48.21,0 -90.73,-7.51 -127.55,-22.68 -36.83,-15.03 -62.9,-37.58 -78.4,-67.49 -15.48,-29.92 -23.23,-76.14 -23.23,-138.67l0 -36.58 186.82 0 0 41.83c0,43.38 1.74,74.15 5.22,92.44 3.48,18.29 15.33,27.37 35.72,27.37 9.48,0 17.06,-2.7 22.91,-7.94 5.86,-5.25 9.01,-10.78 9.49,-16.88 0.47,-6.09 0.95,-32.47 1.58,-79.11l0 -132.99c0,-25.24 -3.01,-42.26 -9.01,-51.47 -5.85,-9.08 -15.8,-13.61 -29.56,-13.61 -8.85,0 -16.27,2.41 -22.28,7.09 -5.85,4.67 -9.8,9.64 -11.54,15.02 -1.74,5.39 -2.53,17.87 -2.53,37.44l-184.93 0 7.59 -339.43 402.1 0zm451.56 292.21c28.29,8.65 49.31,22.69 63.22,42.11 13.75,19.57 20.71,65.36 20.71,137.39 0,53.45 -6.8,94.99 -20.39,124.49 -13.6,29.49 -36.99,51.89 -70.34,67.2 -33.35,15.45 -76.03,23.11 -128.18,23.11 -59.11,0 -105.75,-8.93 -139.41,-26.8 -33.82,-17.86 -56.11,-39.84 -66.7,-65.78 -10.59,-25.81 -15.96,-70.89 -15.96,-134.98l0 -53.17 186.82 0 0 109.46c0,29.2 1.9,47.78 5.84,55.58 3.81,7.94 12.5,11.91 25.77,11.91 14.54,0 24.19,-4.97 28.77,-15.03 4.58,-9.93 6.95,-36.02 6.95,-78.13l0 -46.64c0,-25.81 -3.16,-44.66 -9.64,-56.57 -6.48,-11.91 -16.12,-19.71 -28.77,-23.4 -12.64,-3.83 -37.13,-5.95 -73.49,-6.52l0 -97.83c44.42,0 71.75,-1.56 82.34,-4.54 10.43,-3.12 18.03,-9.64 22.61,-19.99 4.58,-10.21 6.95,-26.23 6.95,-48.06l0 -37.29c0,-23.54 -2.68,-38.99 -8.06,-46.51 -5.54,-7.51 -13.91,-11.2 -25.29,-11.2 -13.12,0 -21.97,3.97 -26.71,11.77 -4.9,7.94 -7.27,24.67 -7.27,50.47l0 55.16 -186.82 0 0 -57.28c0,-64.23 16.44,-107.47 49.15,-130.02 32.72,-22.54 84.72,-33.88 156.01,-33.88 89.14,0 149.67,15.59 181.44,46.93 31.77,31.33 47.73,74.86 47.73,130.44 0,37.71 -5.68,64.93 -17.06,81.66 -11.54,16.73 -31.62,32.05 -60.22,45.94zm380.11 47.22l0 115.69 -244.67 0 0 -115.69 244.67 0zm380.76 -339.43l0 146.03 -119.49 526.87 -185.88 0 133.25 -552.1 -185.41 0 0 -120.8 357.53 0zm490.92 179.49l-186.83 0c0,-31.47 -0.32,-51.32 -1.1,-59.4 -0.79,-8.23 -4.59,-15.17 -11.38,-20.7 -6.65,-5.53 -15.81,-8.37 -27.35,-8.37 -9.64,0 -17.54,2.7 -23.86,7.94 -6.17,5.25 -9.8,11.91 -10.75,20.28 -0.95,8.36 -1.43,25.09 -1.43,50.19l0 107.04c9.65,-17.86 23.71,-31.33 42.21,-40.26 18.65,-8.94 41.57,-13.33 68.74,-13.33 34.31,0 64.65,8.36 90.89,24.95 26.4,16.59 42.99,36.44 50.11,59.69 7.11,23.26 10.75,54.73 10.75,94.29l0 53.45c0,47.07 -2.07,82.1 -6.01,105.06 -4.12,22.97 -14.71,44.24 -32.25,63.66 -17.38,19.57 -41.4,34.74 -71.75,45.52 -30.51,10.77 -65.91,16.16 -106.38,16.16 -50.41,0 -91.67,-6.24 -123.75,-18.71 -32.08,-12.48 -56.9,-30.35 -74.44,-53.74 -17.39,-23.4 -27.66,-47.92 -30.52,-73.73 -2.99,-25.66 -4.42,-75.71 -4.42,-149.86l0 -93.01c0,-79.97 1.27,-133.56 3.96,-160.5 2.68,-26.94 13.27,-52.6 32.24,-76.56 18.81,-24.11 44.58,-42.26 77.13,-54.31 32.56,-12.05 70.17,-18 112.85,-18 52.48,0 95.63,7.65 129.29,22.82 33.67,15.32 57.69,36.87 72.23,64.51 14.54,27.79 21.82,62.81 21.82,104.92zm-186.83 209.28c0,-23.68 -3.01,-39.99 -8.85,-48.78 -6.01,-8.93 -15.65,-13.32 -29.08,-13.32 -13.12,0 -22.77,4.25 -28.76,12.61 -6.17,8.51 -9.18,24.96 -9.18,49.49l0 121.36c0,29.64 2.85,48.92 8.7,58.13 5.68,9.08 15.33,13.62 28.77,13.62 8.06,0 16.59,-3.55 25.28,-10.64 8.7,-6.95 13.12,-25.94 13.12,-56.85l0 -125.62zm700.34 -209.28l-186.82 0c0,-31.47 -0.32,-51.32 -1.1,-59.4 -0.8,-8.23 -4.6,-15.17 -11.39,-20.7 -6.64,-5.53 -15.8,-8.37 -27.34,-8.37 -9.64,0 -17.55,2.7 -23.87,7.94 -6.16,5.25 -9.8,11.91 -10.75,20.28 -0.94,8.36 -1.42,25.09 -1.42,50.19l0 107.04c9.64,-17.86 23.71,-31.33 42.2,-40.26 18.65,-8.94 41.57,-13.33 68.75,-13.33 34.3,0 64.65,8.36 90.89,24.95 26.39,16.59 42.98,36.44 50.11,59.69 7.11,23.26 10.74,54.73 10.74,94.29l0 53.45c0,47.07 -2.06,82.1 -6.01,105.06 -4.11,22.97 -14.7,44.24 -32.25,63.66 -17.38,19.57 -41.4,34.74 -71.74,45.52 -30.51,10.77 -65.92,16.16 -106.38,16.16 -50.41,0 -91.67,-6.24 -123.75,-18.71 -32.09,-12.48 -56.9,-30.35 -74.45,-53.74 -17.39,-23.4 -27.66,-47.92 -30.51,-73.73 -3,-25.66 -4.43,-75.71 -4.43,-149.86l0 -93.01c0,-79.97 1.28,-133.56 3.96,-160.5 2.69,-26.94 13.28,-52.6 32.24,-76.56 18.82,-24.11 44.58,-42.26 77.13,-54.31 32.56,-12.05 70.18,-18 112.86,-18 52.47,0 95.62,7.65 129.29,22.82 33.67,15.32 57.69,36.87 72.23,64.51 14.53,27.79 21.81,62.81 21.81,104.92zm-186.82 209.28c0,-23.68 -3.01,-39.99 -8.85,-48.78 -6.01,-8.93 -15.65,-13.32 -29.09,-13.32 -13.12,0 -22.76,4.25 -28.76,12.61 -6.16,8.51 -9.17,24.96 -9.17,49.49l0 121.36c0,29.64 2.84,48.92 8.69,58.13 5.69,9.08 15.33,13.62 28.78,13.62 8.05,0 16.58,-3.55 25.28,-10.64 8.69,-6.95 13.12,-25.94 13.12,-56.85l0 -125.62zm479.37 -49.34l0 115.69 -244.67 0 0 -115.69 244.67 0zm459.47 -339.43l0 107.18 -232.35 0 0 114.99c29.08,-30.77 66.55,-46.08 112.38,-46.08 51.69,0 90.73,12.9 117.28,38.85 26.39,25.8 39.67,75.57 39.67,149.3l0 95.99c0,47.49 -2.53,82.51 -7.58,104.77 -5.22,22.26 -16.12,42.96 -32.72,61.96 -16.76,18.86 -39.99,33.46 -69.86,43.53 -29.88,10.07 -66.23,15.17 -109.22,15.17 -48.21,0 -90.73,-7.51 -127.55,-22.68 -36.83,-15.03 -62.9,-37.58 -78.4,-67.49 -15.48,-29.92 -23.23,-76.14 -23.23,-138.67l0 -36.58 186.82 0 0 41.83c0,43.38 1.74,74.15 5.22,92.44 3.48,18.29 15.33,27.37 35.72,27.37 9.48,0 17.06,-2.7 22.92,-7.94 5.85,-5.25 9,-10.78 9.48,-16.88 0.47,-6.09 0.95,-32.47 1.59,-79.11l0 -132.99c0,-25.24 -3.01,-42.26 -9.02,-51.47 -5.84,-9.08 -15.8,-13.61 -29.56,-13.61 -8.85,0 -16.27,2.41 -22.28,7.09 -5.85,4.67 -9.8,9.64 -11.54,15.02 -1.74,5.39 -2.53,17.87 -2.53,37.44l-184.93 0 7.6 -339.43 402.09 0zm482.38 0l0 439.81 53.11 0 0 114.84 -53.11 0 0 118.25 -186.82 0 0 -118.25 -222.87 0 0 -114.84 162.01 -439.81 247.68 0zm-186.82 439.81l0 -286.26 -83.14 286.26 83.14 0zm506.87 -100.38l0 115.69 -244.67 0 0 -115.69 244.67 0zm459.47 -339.43l0 107.18 -232.35 0 0 114.99c29.09,-30.77 66.55,-46.08 112.38,-46.08 51.69,0 90.73,12.9 117.28,38.85 26.39,25.8 39.67,75.57 39.67,149.3l0 95.99c0,47.49 -2.53,82.51 -7.58,104.77 -5.22,22.26 -16.12,42.96 -32.72,61.96 -16.76,18.86 -39.99,33.46 -69.86,43.53 -29.88,10.07 -66.23,15.17 -109.22,15.17 -48.21,0 -90.73,-7.51 -127.55,-22.68 -36.83,-15.03 -62.9,-37.58 -78.4,-67.49 -15.48,-29.92 -23.23,-76.14 -23.23,-138.67l0 -36.58 186.82 0 0 41.83c0,43.38 1.74,74.15 5.22,92.44 3.48,18.29 15.33,27.37 35.72,27.37 9.48,0 17.06,-2.7 22.92,-7.94 5.85,-5.25 9,-10.78 9.48,-16.88 0.47,-6.09 0.95,-32.47 1.59,-79.11l0 -132.99c0,-25.24 -3.01,-42.26 -9.02,-51.47 -5.84,-9.08 -15.8,-13.61 -29.55,-13.61 -8.86,0 -16.28,2.41 -22.29,7.09 -5.85,4.67 -9.8,9.64 -11.54,15.02 -1.74,5.39 -2.53,17.87 -2.53,37.44l-184.93 0 7.6 -339.43 402.09 0zm482.38 0l0 439.81 53.11 0 0 114.84 -53.11 0 0 118.25 -186.82 0 0 -118.25 -222.87 0 0 -114.84 162.01 -439.81 247.68 0zm-186.82 439.81l0 -286.26 -83.14 286.26 83.14 0zm-6281.87 884.58l165.96 0 0 -149.72 112.85 0 0 149.72 166.91 0 0 101.24 -166.91 0 0 148.87 -112.85 0 0 -148.87 -165.96 0 0 -101.24zm838.48 -286.68l0 146.03 -119.49 526.87 -185.88 0 133.25 -552.1 -185.41 0 0 -120.8 357.53 0zm269.95 339.43l0 115.69 -244.67 0 0 -115.69 244.67 0zm50.74 154.82l186.82 0c0,31.48 0.48,51.33 1.43,59.41 0.94,8.22 4.73,15.17 11.53,20.7 6.64,5.53 15.81,8.37 27.35,8.37 9.64,0 17.54,-2.7 23.87,-7.94 6.16,-5.25 9.79,-11.91 10.59,-20.28 0.78,-8.36 1.1,-25.09 1.1,-50.19l0 -107.05c-9.33,17.87 -23.23,31.2 -41.73,40.13 -18.65,8.93 -41.72,13.47 -69.22,13.47 -34.3,0 -64.65,-8.37 -90.89,-24.96 -26.4,-16.59 -42.99,-36.58 -50.1,-59.83 -7.11,-23.25 -10.75,-54.73 -10.75,-94.43l0 -53.59c0,-47.21 2.06,-82.24 6.33,-105.2 4.1,-23.11 14.85,-44.38 32.08,-63.81 17.38,-19.56 41.25,-34.73 71.91,-45.65 30.5,-10.78 66.06,-16.16 106.53,-16.16 50.11,0 91.2,6.23 123.28,18.71 32.08,12.48 57.07,30.34 74.6,53.88 17.7,23.39 27.83,47.92 30.67,73.73 2.69,25.8 4.11,75.71 4.11,149.72l0 93.58c0,79.96 -1.27,133.56 -3.63,160.64 -2.53,26.94 -13.28,52.6 -32.25,76.7 -18.96,24.1 -44.73,42.11 -77.13,54.16 -32.56,12.05 -70.02,18.15 -112.69,18.15 -52.8,0 -95.94,-7.66 -129.45,-22.83 -33.51,-15.31 -57.69,-36.86 -72.39,-64.51 -14.7,-27.79 -21.97,-62.81 -21.97,-104.92zm186.82 -209.55c0,28.35 4.11,45.79 12.48,52.46 8.23,6.66 16.76,9.92 25.45,9.92 13.12,0 22.77,-4.25 28.76,-12.62 6.17,-8.5 9.18,-25.09 9.18,-49.76l0 -121.79c0,-29.64 -2.84,-49.06 -8.7,-58.14 -5.68,-9.21 -15.32,-13.75 -28.76,-13.75 -8.07,0 -16.6,3.55 -25.29,10.63 -8.7,7.09 -13.12,26.09 -13.12,57.14l0 125.91zm614.99 -284.7l0 672.9 -186.82 0 0 -361.26c0,-52.18 -1.43,-83.66 -4.12,-94.15 -2.84,-10.49 -10.42,-18.57 -22.92,-23.96 -12.48,-5.39 -40.29,-8.08 -83.45,-8.08l-18.49 0 0 -78.12c90.41,-17.3 159.01,-53.17 205.8,-107.33l110 0zm424.21 292.21c28.3,8.65 49.32,22.69 63.22,42.11 13.76,19.57 20.71,65.36 20.71,137.39 0,53.45 -6.8,94.99 -20.39,124.49 -13.6,29.49 -36.98,51.89 -70.34,67.2 -33.34,15.45 -76.02,23.11 -128.17,23.11 -59.12,0 -105.75,-8.93 -139.42,-26.8 -33.82,-17.86 -56.1,-39.84 -66.69,-65.78 -10.59,-25.81 -15.96,-70.89 -15.96,-134.98l0 -53.17 186.82 0 0 109.46c0,29.2 1.89,47.78 5.84,55.58 3.8,7.94 12.5,11.91 25.76,11.91 14.55,0 24.19,-4.97 28.77,-15.03 4.59,-9.93 6.96,-36.02 6.96,-78.13l0 -46.64c0,-25.81 -3.17,-44.66 -9.64,-56.57 -6.48,-11.91 -16.12,-19.71 -28.77,-23.4 -12.65,-3.83 -37.14,-5.95 -73.49,-6.52l0 -97.83c44.41,0 71.75,-1.56 82.34,-4.54 10.43,-3.12 18.02,-9.64 22.6,-19.99 4.59,-10.21 6.96,-26.23 6.96,-48.06l0 -37.29c0,-23.54 -2.69,-38.99 -8.06,-46.51 -5.54,-7.51 -13.91,-11.2 -25.29,-11.2 -13.12,0 -21.98,3.97 -26.71,11.77 -4.91,7.94 -7.27,24.67 -7.27,50.47l0 55.16 -186.82 0 0 -57.28c0,-64.23 16.44,-107.47 49.14,-130.02 32.72,-22.54 84.73,-33.88 156.02,-33.88 89.13,0 149.66,15.59 181.43,46.93 31.78,31.33 47.74,74.86 47.74,130.44 0,37.71 -5.69,64.93 -17.07,81.66 -11.54,16.73 -31.61,32.05 -60.22,45.94zm380.11 47.22l0 115.69 -244.66 0 0 -115.69 244.66 0zm380.76 -339.43l0 146.03 -119.49 526.87 -185.87 0 133.24 -552.1 -185.4 0 0 -120.8 357.52 0zm482.38 227.84l0 224.3c0,51.05 -3.16,88.05 -9.33,111.3 -6.15,23.4 -18.96,45.09 -38.4,65.37 -19.44,20.13 -42.83,34.73 -70.33,43.52 -27.35,8.94 -58.01,13.33 -91.99,13.33 -44.73,0 -81.87,-4.68 -111.59,-13.89 -29.55,-9.36 -53.11,-23.82 -70.81,-43.39 -17.55,-19.71 -30.03,-40.41 -37.46,-62.1 -7.42,-21.84 -11.07,-56.43 -11.07,-103.79l0 -234.65c0,-61.82 6.01,-108.04 17.87,-138.8 11.85,-30.77 35.41,-55.44 70.8,-74.01 35.25,-18.58 78.09,-27.79 128.35,-27.79 41.1,0 77.76,6.38 110.17,19.28 32.39,12.9 56.57,28.64 72.54,47.21 16.13,18.58 27.03,39.42 32.71,62.67 5.7,23.25 8.54,60.4 8.54,111.44zm-186.82 -56.29c0,-35.73 -1.9,-57.99 -5.84,-67.06 -3.8,-8.93 -12.81,-13.47 -27.19,-13.47 -13.91,0 -23.08,4.82 -27.5,14.32 -4.58,9.5 -6.8,31.62 -6.8,66.21l0 327.81c0,38.99 2.06,62.52 6.32,70.46 4.11,8.09 13.12,12.06 27.19,12.06 13.91,0 22.92,-4.68 27.34,-14.18 4.27,-9.36 6.48,-30.49 6.48,-63.38l0 -332.77zm657.35 386.51l0 114.84 -411.57 0 0.31 -96.13c122.03,-178.79 194.58,-289.38 217.65,-331.91 23.08,-42.54 34.61,-75.72 34.61,-99.39 0,-18.29 -3.63,-31.91 -10.59,-40.98 -6.95,-8.93 -17.54,-13.47 -31.77,-13.47 -14.22,0 -24.97,4.96 -31.92,14.89 -6.96,9.92 -10.44,29.63 -10.44,59.12l0 63.8 -167.85 0 0 -24.52c0,-37.58 2.21,-67.35 6.48,-89.04 4.27,-21.7 15.02,-43.11 31.93,-64.09 17.06,-20.98 39.19,-37.01 66.38,-47.78 27.19,-10.78 59.74,-16.16 97.68,-16.16 74.44,0 130.71,16.58 168.96,49.62 38.09,33.18 57.21,75 57.21,125.62 0,38.57 -10.75,79.26 -32.24,122.22 -21.49,42.96 -84.88,133.98 -189.98,273.36l205.15 0zm301.57 -218.63l0 115.69 -244.67 0 0 -115.69 244.67 0zm491.71 -111.59l0 224.3c0,51.05 -3.17,88.05 -9.33,111.3 -6.15,23.4 -18.96,45.09 -38.4,65.37 -19.45,20.13 -42.83,34.73 -70.34,43.52 -27.34,8.94 -58.01,13.33 -91.99,13.33 -44.72,0 -81.86,-4.68 -111.58,-13.89 -29.56,-9.36 -53.11,-23.82 -70.81,-43.39 -17.55,-19.71 -30.03,-40.41 -37.46,-62.1 -7.42,-21.84 -11.07,-56.43 -11.07,-103.79l0 -234.65c0,-61.82 6.01,-108.04 17.87,-138.8 11.85,-30.77 35.41,-55.44 70.8,-74.01 35.25,-18.58 78.09,-27.79 128.34,-27.79 41.1,0 77.77,6.38 110.17,19.28 32.4,12.9 56.58,28.64 72.54,47.21 16.13,18.58 27.04,39.42 32.72,62.67 5.7,23.25 8.54,60.4 8.54,111.44zm-186.82 -56.29c0,-35.73 -1.9,-57.99 -5.84,-67.06 -3.81,-8.93 -12.81,-13.47 -27.19,-13.47 -13.92,0 -23.08,4.82 -27.51,14.32 -4.58,9.5 -6.8,31.62 -6.8,66.21l0 327.81c0,38.99 2.07,62.52 6.33,70.46 4.11,8.09 13.12,12.06 27.18,12.06 13.92,0 22.92,-4.68 27.35,-14.18 4.27,-9.36 6.48,-30.49 6.48,-63.38l0 -332.77zm584.33 -171.55l0 146.03 -119.49 526.87 -185.87 0 133.24 -552.1 -185.4 0 0 -120.8 357.52 0zm269.95 339.43l0 115.69 -244.66 0 0 -115.69 244.66 0zm432.92 -339.43l0 439.81 53.11 0 0 114.84 -53.11 0 0 118.25 -186.82 0 0 -118.25 -222.86 0 0 -114.84 162 -439.81 247.68 0zm-186.82 439.81l0 -286.26 -83.14 286.26 83.14 0zm681.36 118.25l0 114.84 -411.57 0 0.32 -96.13c122.02,-178.79 194.57,-289.38 217.64,-331.91 23.08,-42.54 34.62,-75.72 34.62,-99.39 0,-18.29 -3.64,-31.91 -10.59,-40.98 -6.96,-8.93 -17.55,-13.47 -31.78,-13.47 -14.22,0 -24.97,4.96 -31.92,14.89 -6.96,9.92 -10.44,29.63 -10.44,59.12l0 63.8 -167.85 0 0 -24.52c0,-37.58 2.21,-67.35 6.48,-89.04 4.27,-21.7 15.02,-43.11 31.93,-64.09 17.06,-20.98 39.19,-37.01 66.38,-47.78 27.19,-10.78 59.74,-16.16 97.68,-16.16 74.44,0 130.71,16.58 168.96,49.62 38.09,33.18 57.21,75 57.21,125.62 0,38.57 -10.75,79.26 -32.24,122.22 -21.49,42.96 -84.88,133.98 -189.98,273.36l205.15 0z"/>
  <path class="fil3" d="M2339.02 5383.53l-38.44 286.13c-6.13,45.36 -11.22,76.28 -15.3,92.76 -4.09,16.48 -10.89,30.11 -20.41,40.79 -9.42,10.78 -22.69,18.61 -39.58,23.7 -16.9,5.08 -44,7.63 -81.07,7.63l-81.3 0 0 -63.47c20.87,0 34.24,-0.92 40.14,-2.85 6.01,-1.83 9.07,-6.1 9.07,-12.61 0,-3.26 -2.84,-16.99 -8.39,-41.4l-73.47 -330.68 121.66 0 43.99 267.41 21.66 -267.41 121.44 0zm228.14 395.47l0 -312.47 -47.63 0 0 199.57c0,36.31 -4.64,62.35 -13.94,77.91 -9.3,15.56 -23.93,25.33 -44,29.19 -19.95,3.87 -52.84,5.8 -98.42,5.8l-21.89 0 0 -64.69c17.13,-0.2 28.81,-2.14 35.26,-5.8 6.47,-3.66 9.65,-16.68 9.65,-38.96l0 -286.02 314.3 0 0 395.47 -133.33 0zm267.36 -98.26l0 98.26 -101.36 0 0 -98.26 101.36 0zm501.29 98.26l-140.15 0 0 -386.31 -40.82 0 0 273.3c0,36.01 -5.22,61.85 -15.53,77.51 -10.43,15.77 -26.09,25.53 -47.07,29.5 -21.09,3.97 -54.53,6 -100.57,6l-21.88 0 0 -83c17.12,0 28.8,-1.93 35.26,-5.7 6.46,-3.76 9.64,-16.68 9.64,-38.75l0 -355.29 321.12 0 0 482.74zm355.81 -191.02l-174.16 0 0 85.74c0,17.91 1.47,29.5 4.3,34.69 2.96,5.19 8.51,7.73 16.78,7.73 10.32,0 17.24,-3.46 20.64,-10.27 3.52,-6.92 5.22,-20.24 5.22,-39.98l0 -52.28 127.22 0 0 29.3c0,24.51 -1.71,43.33 -5.11,56.45 -3.51,13.12 -11.56,27.16 -24.14,42.11 -12.59,14.95 -28.7,26.14 -48.08,33.66 -19.39,7.43 -43.66,11.19 -72.91,11.19 -28.35,0 -53.41,-3.66 -75.18,-11.08 -21.66,-7.33 -38.55,-17.4 -50.69,-30.21 -12.12,-12.82 -20.4,-26.96 -25.06,-42.42 -4.64,-15.36 -7.02,-37.73 -7.02,-67.23l0 -115.45c0,-34.58 5.22,-61.84 15.65,-81.88 10.43,-19.93 27.44,-35.29 51.14,-45.87 23.81,-10.68 51.02,-15.97 81.87,-15.97 37.64,0 68.71,6.41 93.2,19.22 24.49,12.82 41.73,29.81 51.59,50.96 9.87,21.06 14.74,50.86 14.74,89.21l0 52.38zm-134.03 -64.08l0 -28.89c0,-20.54 -1.25,-33.67 -3.73,-39.67 -2.5,-6 -7.61,-8.95 -15.32,-8.95 -9.52,0 -15.42,2.54 -17.68,7.63 -2.27,5.09 -3.4,18.72 -3.4,40.99l0 28.89 40.13 0zm492.67 255.1l-133.34 0 0 -145.86 -48.3 0 0 145.86 -133.35 0 0 -395.47 133.35 0 0 142.2 48.3 0 0 -142.2 133.34 0 0 395.47zm380.42 0l-117.01 0 0 -213.7 -93.32 213.7 -122.34 0 0 -395.47 117.01 0 0 211.87 91.74 -211.87 123.92 0 0 395.47zm362.61 0l-133.33 0 0 -145.86 -48.31 0 0 145.86 -133.34 0 0 -395.47 133.34 0 0 142.2 48.31 0 0 -142.2 133.33 0 0 395.47zm167.49 -242.29l-125.86 0 0 -26.54c0,-30.62 3.97,-54.22 11.79,-70.9 7.82,-16.58 23.69,-31.22 47.39,-43.94 23.7,-12.71 54.44,-19.12 92.42,-19.12 45.36,0 79.59,7.22 102.61,21.66 23.02,14.35 36.85,32.04 41.5,53 4.65,20.95 7.04,64.18 7.04,129.58l0 198.55 -130.63 0 0 -35.3c-8.16,14.24 -18.82,24.82 -31.75,31.94 -12.92,7.12 -28.35,10.68 -46.37,10.68 -23.48,0 -45.02,-5.9 -64.64,-17.69 -19.61,-11.91 -29.36,-37.74 -29.36,-77.72l0 -32.54c0,-29.6 5.22,-49.74 15.64,-60.52 10.43,-10.79 36.29,-23.3 77.56,-37.54 44.1,-15.56 67.69,-25.93 70.87,-31.33 3.07,-5.39 4.65,-16.27 4.65,-32.85 0,-20.65 -1.71,-34.07 -5.22,-40.38 -3.4,-6.2 -9.18,-9.36 -17.23,-9.36 -9.19,0 -14.85,2.65 -17.01,7.94 -2.27,5.18 -3.4,18.91 -3.4,40.99l0 41.39zm42.86 54.22c-21.66,14.14 -34.25,25.94 -37.65,35.5 -3.51,9.56 -5.21,23.19 -5.21,41.09 0,20.55 1.47,33.67 4.53,39.67 2.95,6 8.97,8.95 17.92,8.95 8.5,0 13.94,-2.34 16.55,-7.02 2.61,-4.68 3.86,-16.88 3.86,-36.82l0 -81.37zm258.4 93.48l0 43.22c0,22.69 -2.94,41.3 -8.95,55.74 -5.9,14.55 -16.33,26.86 -30.96,37.03 -14.73,10.07 -31.29,16.88 -49.88,20.24l0 -34.79c13.26,-6.71 20.74,-15.66 22.44,-26.85l-22.44 0 0 -94.59 89.79 0zm412.28 -179.13c19.72,7.12 34.92,17.81 45.46,32.05 10.66,14.24 16,48 16,101.51 0,38.95 -4.2,67.64 -12.58,86.15 -8.51,18.41 -24.84,33.57 -49.22,45.47 -24.38,11.79 -57.03,17.69 -98.08,17.69 -39.92,0 -71.43,-5.69 -94.67,-16.98 -23.37,-11.29 -40.04,-26.35 -50.12,-45.06 -10.1,-18.62 -15.09,-49.74 -15.09,-93.27 0,-29.2 2.5,-54.52 7.48,-75.99 5,-21.46 20.64,-38.65 46.95,-51.57 -16.56,-7.12 -28.91,-18.51 -37.19,-34.17 -8.29,-15.56 -12.48,-35.4 -12.48,-59.4 0,-41.5 12.82,-72.73 38.55,-93.48 25.63,-20.75 64.07,-31.12 115.21,-31.12 59.19,0 100.01,10.98 122.57,33.05 22.56,22.08 33.9,53.61 33.9,94.5 0,26.04 -3.73,44.85 -11.1,56.35 -7.38,11.49 -22.58,22.98 -45.59,34.27zm-75.29 -103.44c0,-16.38 -1.59,-27.16 -4.88,-32.34 -3.16,-5.29 -9.41,-7.94 -18.59,-7.94 -8.95,0 -14.96,2.85 -18.14,8.55 -3.07,5.59 -4.65,16.17 -4.65,31.73l0 36.62c0,14.54 1.82,24.51 5.33,30.11 3.62,5.59 9.63,8.34 18.14,8.34 8.96,0 14.97,-2.75 18.15,-8.24 3.05,-5.39 4.64,-16.68 4.64,-33.77l0 -33.06zm2.72 200.28c0,-18.51 -2.15,-30.72 -6.35,-36.82 -4.3,-6 -10.99,-9.06 -20.18,-9.06 -8.96,0 -15.43,2.95 -19.27,8.75 -3.97,5.9 -5.9,18.21 -5.9,37.13l0 62.45c0,20.85 2.15,34.28 6.58,40.18 4.3,6 11.22,8.95 20.63,8.95 9.63,0 16.1,-3.05 19.5,-9.05 3.29,-6.11 4.99,-19.74 4.99,-40.99l0 -61.54zm180.06 48.72l134.03 0c0,22.58 0.33,36.82 1.01,42.62 0.68,5.9 3.4,10.88 8.29,14.85 4.76,3.96 11.33,6 19.6,6 6.93,0 12.59,-1.93 17.13,-5.7 4.42,-3.76 7.03,-8.54 7.6,-14.54 0.57,-6 0.79,-18.01 0.79,-36.01l0 -76.79c-6.69,12.81 -16.66,22.37 -29.93,28.78 -13.38,6.41 -29.94,9.66 -49.66,9.66 -24.62,0 -46.38,-6 -65.21,-17.9 -18.94,-11.9 -30.84,-26.24 -35.94,-42.92 -5.1,-16.68 -7.71,-39.26 -7.71,-67.74l0 -38.45c0,-33.87 1.47,-59 4.54,-75.47 2.94,-16.58 10.65,-31.84 23.02,-45.78 12.47,-14.03 29.58,-24.92 51.59,-32.75 21.88,-7.73 47.39,-11.59 76.42,-11.59 35.95,0 65.42,4.47 88.44,13.42 23.02,8.95 40.93,21.77 53.52,38.65 12.7,16.79 19.95,34.38 21.99,52.9 1.93,18.51 2.96,54.31 2.96,107.41l0 67.13c0,57.37 -0.92,95.81 -2.61,115.24 -1.82,19.33 -9.53,37.74 -23.13,55.03 -13.61,17.29 -32.1,30.21 -55.34,38.86 -23.35,8.64 -50.23,13.01 -80.84,13.01 -37.87,0 -68.83,-5.49 -92.87,-16.37 -24.04,-10.99 -41.38,-26.45 -51.93,-46.28 -10.54,-19.94 -15.76,-45.06 -15.76,-75.27zm134.03 -150.34c0,20.35 2.94,32.86 8.95,37.64 5.9,4.78 12.02,7.12 18.26,7.12 9.41,0 16.33,-3.05 20.63,-9.05 4.43,-6.11 6.58,-18.01 6.58,-35.71l0 -87.37c0,-21.26 -2.04,-35.19 -6.23,-41.7 -4.09,-6.61 -11,-9.87 -20.65,-9.87 -5.77,0 -11.9,2.54 -18.13,7.63 -6.23,5.09 -9.41,18.72 -9.41,40.99l0 90.32zm476.56 -213.39l-160.56 501.04 -101.7 0 161.24 -501.04 101.02 0zm283.14 218.17c19.72,7.12 34.91,17.81 45.46,32.05 10.65,14.24 15.99,48 15.99,101.51 0,38.95 -4.2,67.64 -12.58,86.15 -8.51,18.41 -24.84,33.57 -49.22,45.47 -24.38,11.79 -57.03,17.69 -98.07,17.69 -39.92,0 -71.44,-5.69 -94.68,-16.98 -23.37,-11.29 -40.03,-26.35 -50.12,-45.06 -10.1,-18.62 -15.08,-49.74 -15.08,-93.27 0,-29.2 2.49,-54.52 7.48,-75.99 4.99,-21.46 20.63,-38.65 46.94,-51.57 -16.56,-7.12 -28.91,-18.51 -37.19,-34.17 -8.28,-15.56 -12.47,-35.4 -12.47,-59.4 0,-41.5 12.82,-72.73 38.54,-93.48 25.63,-20.75 64.07,-31.12 115.22,-31.12 59.18,0 100,10.98 122.56,33.05 22.57,22.08 33.9,53.61 33.9,94.5 0,26.04 -3.73,44.85 -11.1,56.35 -7.38,11.49 -22.57,22.98 -45.58,34.27zm-75.29 -103.44c0,-16.38 -1.6,-27.16 -4.89,-32.34 -3.16,-5.29 -9.4,-7.94 -18.59,-7.94 -8.95,0 -14.96,2.85 -18.14,8.55 -3.06,5.59 -4.65,16.17 -4.65,31.73l0 36.62c0,14.54 1.82,24.51 5.33,30.11 3.63,5.59 9.63,8.34 18.14,8.34 8.96,0 14.97,-2.75 18.15,-8.24 3.05,-5.39 4.65,-16.68 4.65,-33.77l0 -33.06zm2.72 200.28c0,-18.51 -2.15,-30.72 -6.36,-36.82 -4.3,-6 -10.99,-9.06 -20.17,-9.06 -8.97,0 -15.43,2.95 -19.28,8.75 -3.97,5.9 -5.9,18.21 -5.9,37.13l0 62.45c0,20.85 2.16,34.28 6.58,40.18 4.3,6 11.23,8.95 20.64,8.95 9.63,0 16.09,-3.05 19.49,-9.05 3.29,-6.11 5,-19.74 5,-40.99l0 -61.54zm-4241.39 664.7l0 96.94c0,35.6 -2.04,61.64 -6,78.32 -3.97,16.58 -12.48,32.04 -25.52,46.48 -13.03,14.45 -29.82,25.02 -50.34,31.94 -20.53,6.82 -43.99,10.27 -70.54,10.27 -29.69,0 -54.87,-2.95 -75.4,-8.74 -20.63,-5.9 -36.62,-14.75 -47.95,-26.55 -11.45,-11.9 -19.62,-26.24 -24.5,-43.03 -4.88,-16.78 -7.25,-42.01 -7.25,-75.57l0 -101.41c0,-36.82 4.42,-65.51 13.26,-86.26 8.84,-20.64 24.83,-37.22 47.85,-49.73 23.02,-12.52 52.5,-18.82 88.33,-18.82 30.04,0 55.9,4.07 77.56,12.1 21.54,8.04 38.21,18.51 50,31.43 11.68,12.92 19.74,26.25 24.04,39.98 4.31,13.73 6.46,34.58 6.46,62.65zm-134.02 -29.8c0,-20.24 -1.25,-33.06 -3.63,-38.24 -2.49,-5.29 -7.71,-7.94 -15.76,-7.94 -8.05,0 -13.38,2.65 -16.1,7.94 -2.61,5.18 -3.97,18 -3.97,38.24l0 178.51c0,18.72 1.36,30.92 3.97,36.52 2.72,5.69 7.94,8.54 15.75,8.54 8.06,0 13.27,-2.54 15.88,-7.73 2.61,-5.19 3.86,-16.27 3.86,-33.36l0 -182.48zm656.62 166.91c0,27.67 -1.8,49.74 -5.44,66.32 -3.62,16.58 -12.12,29.91 -25.39,39.98 -13.15,10.07 -33.45,15.05 -60.55,15.05 -35.26,0 -62.93,-12 -82.77,-36.01l0 90.94 -133.35 0 0 -90.43c-21.43,24.11 -50.46,36.11 -86.97,36.11 -23.81,0 -42.75,-4.17 -56.69,-12.51 -13.95,-8.34 -22.56,-19.83 -26.08,-34.48 -3.41,-14.55 -5.1,-35.7 -5.1,-63.27l0 -166.91c0,-27.67 1.93,-49.74 5.66,-66.32 3.75,-16.58 12.25,-29.9 25.52,-39.97 13.26,-10.07 33.56,-15.06 60.66,-15.06 35.49,0 63.04,12 83,36.11l0 -97.14 133.35 0 0 96.53c21.42,-24.11 50.34,-36.11 86.74,-36.11 23.81,0 42.75,4.17 56.58,12.51 13.95,8.34 22.56,19.84 25.85,34.48 3.29,14.55 4.98,35.71 4.98,63.27l0 166.91zm-134.01 26.86l0 -188.07c0,-19.33 -0.11,-31.03 -0.35,-35.2 -0.22,-4.17 -1.69,-8.03 -4.53,-11.49 -2.84,-3.46 -7.6,-5.19 -14.4,-5.19 -7.38,0 -12.7,2.44 -15.99,7.33 -3.29,4.88 -4.87,13.52 -4.87,26.03l0 205.98c0,20.24 7.14,30.41 21.54,30.41 6.12,0 10.66,-2.03 13.83,-6 3.17,-3.97 4.77,-11.9 4.77,-23.8zm-173.49 -2.34l0 -205.97c0,-20.25 -7.26,-30.42 -21.89,-30.42 -6.23,0 -10.88,2.04 -14.16,6 -3.18,3.97 -4.76,11.9 -4.76,23.81l0 188.07c0,19.32 0.11,31.02 0.33,35.19 0.22,4.17 1.82,8.03 4.65,11.49 2.83,3.46 7.71,5.19 14.62,5.19 7.5,0 12.94,-2.44 16.22,-7.32 3.29,-4.89 4.99,-13.53 4.99,-26.04zm685.09 95l-117.02 0 0 -213.7 -93.32 213.7 -122.34 0 0 -395.47 117.01 0 0 211.87 91.74 -211.87 123.93 0 0 395.47zm344.93 -245.95l-126.55 0 0 -45.77c0,-15.87 -1.47,-26.65 -4.42,-32.34 -2.95,-5.7 -8.39,-8.55 -16.33,-8.55 -7.93,0 -13.26,2.44 -15.98,7.43 -2.72,4.98 -4.08,16.07 -4.08,33.36l0 186.65c0,14.14 2.04,24.71 6.12,31.73 3.97,7.02 9.97,10.58 17.91,10.58 9.19,0 15.42,-3.66 18.71,-10.99 3.29,-7.32 4.88,-21.15 4.88,-41.6l0 -46.89 119.74 0c-0.24,31.53 -1.49,55.23 -3.86,71 -2.28,15.77 -9.76,31.94 -22.34,48.52 -12.48,16.58 -28.92,29.09 -49.09,37.53 -20.19,8.44 -45.13,12.61 -74.96,12.61 -37.87,0 -68.02,-5.79 -90.25,-17.49 -22.12,-11.6 -37.87,-27.87 -47.06,-48.82 -9.18,-21.06 -13.83,-50.76 -13.83,-89.41l0 -112.4c0,-33.66 3.74,-58.99 11.34,-76.08 7.48,-17.09 23.58,-32.35 48.3,-45.77 24.6,-13.43 54.54,-20.14 89.92,-20.14 35.03,0 64.96,6.71 89.91,20.04 24.84,13.32 41.39,30.1 49.55,50.45 8.29,20.34 12.37,49.13 12.37,86.35zm411.24 -27.15c20.3,6.2 35.39,16.27 45.36,30.2 9.87,14.04 14.85,46.9 14.85,98.57 0,38.34 -4.87,68.15 -14.62,89.3 -9.76,21.16 -26.54,37.23 -50.46,48.22 -23.92,11.08 -54.54,16.57 -91.96,16.57 -42.4,0 -75.85,-6.4 -100,-19.22 -24.27,-12.82 -40.25,-28.58 -47.86,-47.2 -7.59,-18.51 -11.45,-50.85 -11.45,-96.83l0 -38.14 134.03 0 0 78.52c0,20.96 1.36,34.28 4.19,39.88 2.72,5.69 8.96,8.54 18.49,8.54 10.43,0 17.34,-3.56 20.63,-10.78 3.29,-7.12 4.99,-25.84 4.99,-56.05l0 -33.46c0,-18.51 -2.27,-32.04 -6.92,-40.59 -4.65,-8.54 -11.56,-14.13 -20.63,-16.78 -9.08,-2.75 -26.64,-4.27 -52.73,-4.68l0 -70.18c31.86,0 51.48,-1.12 59.08,-3.26 7.48,-2.23 12.92,-6.91 16.21,-14.34 3.29,-7.32 4.99,-18.82 4.99,-34.48l0 -26.75c0,-16.89 -1.92,-27.97 -5.78,-33.36 -3.97,-5.39 -9.98,-8.04 -18.15,-8.04 -9.41,0 -15.75,2.85 -19.16,8.44 -3.51,5.7 -5.21,17.7 -5.21,36.21l0 39.57 -134.03 0 0 -41.09c0,-46.08 11.8,-77.1 35.26,-93.27 23.48,-16.18 60.78,-24.31 111.92,-24.31 63.95,0 107.38,11.18 130.17,33.66 22.79,22.48 34.24,53.71 34.24,93.58 0,27.06 -4.08,46.59 -12.24,58.59 -8.28,12 -22.68,22.99 -43.21,32.96zm425.11 -46.18l0 160.91c0,36.62 -2.28,63.16 -6.7,79.85 -4.42,16.78 -13.6,32.34 -27.55,46.89 -13.94,14.44 -30.73,24.92 -50.46,31.22 -19.61,6.41 -41.62,9.56 -65.99,9.56 -32.09,0 -58.73,-3.35 -80.06,-9.96 -21.2,-6.72 -38.09,-17.09 -50.79,-31.13 -12.58,-14.14 -21.55,-28.99 -26.87,-44.55 -5.33,-15.66 -7.94,-40.48 -7.94,-74.46l0 -168.33c0,-44.35 4.31,-77.51 12.81,-99.58 8.5,-22.07 25.4,-39.77 50.8,-53.1 25.28,-13.32 56.01,-19.93 92.06,-19.93 29.49,0 55.8,4.57 79.04,13.83 23.24,9.26 40.59,20.55 52.05,33.87 11.56,13.33 19.39,28.28 23.47,44.96 4.08,16.68 6.13,43.33 6.13,79.95zm-134.03 -40.38c0,-25.64 -1.36,-41.61 -4.2,-48.12 -2.72,-6.4 -9.18,-9.66 -19.5,-9.66 -9.98,0 -16.56,3.46 -19.73,10.27 -3.29,6.82 -4.87,22.69 -4.87,47.51l0 235.16c0,27.97 1.47,44.86 4.53,50.55 2.95,5.8 9.41,8.65 19.5,8.65 9.98,0 16.44,-3.36 19.62,-10.17 3.05,-6.72 4.65,-21.87 4.65,-45.47l0 -238.72zm419.19 -123.08l0 104.77 -85.72 377.97 -133.34 0 95.58 -396.08 -133 0 0 -86.66 256.48 0z"/>
 </g>
</svg>
